<svg width="56" height="51" viewBox="0 0 56 51" fill="none" xmlns="http://www.w3.org/2000/svg">
<g clip-path="url(#clip0_740_1184)">
<g opacity="0.5">
<mask id="mask0_740_1184" style="mask-type:luminance" maskUnits="userSpaceOnUse" x="0" y="24" width="56" height="27">
<path d="M-0.000663757 51H55.959V24.829H-0.000663757V51Z" fill="white"/>
</mask>
<g mask="url(#mask0_740_1184)">
<path d="M84.8654 48.7711C86.2114 47.171 86.8613 46.7265 87.2791 47.0822C87.6039 47.3489 88.161 47.4377 88.5788 47.3044C88.95 47.1265 89.3678 47.2155 89.5071 47.4377C89.8784 48.0155 91.5959 48.0155 91.5959 47.4377C91.5959 47.2155 92.1065 46.9932 92.7562 46.9932C93.7774 46.9932 94.0095 46.771 93.8702 45.7932C93.8702 45.66 94.1488 45.3488 94.5665 45.1266C94.9842 44.9044 95.3092 44.371 95.3092 43.9266C95.3092 43.3042 95.5877 43.171 96.4697 43.3487C97.1194 43.4377 97.63 43.3487 97.63 43.1265C97.63 42.8598 96.516 42.5488 95.1235 42.4154C91.8743 42.1042 90.0177 41.1709 89.275 39.4377C88.4859 37.6153 88.4394 34.9041 89.1357 34.6819C89.5535 34.5486 89.7391 34.9931 89.7391 36.1041C89.7391 39.482 91.7815 41.2154 95.8198 41.2154C98.6048 41.2154 97.955 40.4598 94.9842 40.2376C92.1993 40.0153 90.6675 38.9043 90.6675 37.1709C90.6675 36.5042 90.8996 36.3708 91.7815 36.593C92.4777 36.7265 93.1276 36.5487 93.6382 36.1041C94.5201 35.2597 94.5665 34.8153 93.8702 33.6153C93.4524 32.8152 93.4989 32.7708 94.7058 33.0375C95.402 33.2152 96.3767 33.6598 96.7945 34.0153C97.5372 34.6376 97.63 34.5931 97.63 33.9708C97.63 32.9487 96.1911 32.3263 93.9167 32.3263C92.5706 32.3263 92.06 32.1486 92.1993 31.793C92.3849 31.1708 94.9379 31.0375 96.5625 31.6152C98.1871 32.1486 97.7694 31.3485 95.7733 30.0152C94.5665 29.2152 93.9167 28.4596 93.9167 27.793C93.9167 26.9041 94.0095 26.9041 95.5413 28.3263C96.4232 29.1264 97.3051 29.6596 97.4907 29.4819C97.7229 29.3041 97.4444 28.8597 96.9338 28.5041C96.0519 27.8819 96.0519 27.793 96.7945 27.393C97.2588 27.1263 97.63 26.4597 97.63 25.8818V24.7708H28.0046H-41.6211V25.8818C-41.6211 26.6374 -41.2961 27.1263 -40.5999 27.393L-39.6252 27.7485L-40.6927 28.4596C-41.2961 28.8597 -41.6674 29.3486 -41.4818 29.4819C-41.3426 29.6596 -40.4606 29.2597 -39.5787 28.593C-38.4647 27.793 -37.8613 27.5707 -37.6291 27.9707C-37.2579 28.5041 -39.3466 30.3707 -40.832 30.8153C-41.2497 30.9486 -41.6211 31.2597 -41.6211 31.5264C-41.6211 31.7486 -41.2961 31.8374 -40.8784 31.7042C-38.8825 30.9486 -36.7009 30.9041 -36.0975 31.6152C-35.5404 32.2375 -35.6797 32.3263 -37.3507 32.3263C-39.6252 32.3263 -41.6211 33.1264 -41.6211 33.9708C-41.6211 34.5042 -41.4355 34.4597 -40.5999 33.9265C-38.9753 32.8597 -37.8149 32.993 -38.1397 34.2375C-38.5575 35.7931 -36.8866 37.0819 -35.3548 36.4153C-34.2408 35.9264 -34.1943 35.9264 -34.4729 37.1264C-34.9835 39.171 -36.1903 40.0153 -39.0218 40.2376C-41.9924 40.4598 -42.5495 41.2154 -39.7644 41.2154C-37.3972 41.2154 -34.8907 40.2376 -34.2408 39.082C-33.9623 38.5486 -33.7302 37.3486 -33.7302 36.3265C-33.7302 35.0375 -33.5445 34.5486 -33.1732 34.6376C-32.2912 34.9486 -32.1984 36.1931 -32.8483 38.4154C-33.5445 40.9042 -35.1226 41.9265 -38.8825 42.3266C-40.4143 42.5043 -41.6211 42.8153 -41.6211 43.0377C-41.6211 43.2599 -41.1105 43.3487 -40.4606 43.171C-39.4859 42.9488 -39.3002 43.0377 -39.3002 43.7931C-39.3002 44.3265 -39.0218 44.9044 -38.6968 45.0821C-38.3254 45.2598 -37.9541 45.7932 -37.7684 46.2376C-37.6291 46.6378 -37.0257 46.9932 -36.5151 46.9932C-36.0045 46.9932 -35.5869 47.2155 -35.5869 47.4377C-35.5869 47.971 -33.8695 48.0155 -33.5445 47.4821C-33.4052 47.2599 -32.8483 47.171 -32.384 47.3044C-31.9199 47.4377 -31.3628 47.3044 -31.2237 47.0377C-31.038 46.7265 -30.1096 47.3932 -28.9956 48.6822C-27.9744 49.8377 -26.9532 50.8155 -26.8141 50.86C-26.6748 50.9045 -25.7001 49.9711 -24.6789 48.7711C-23.3327 47.171 -22.683 46.7265 -22.2652 47.0822C-21.9402 47.3489 -21.3832 47.4377 -20.9655 47.3044C-20.5941 47.1265 -20.1763 47.2155 -20.0372 47.4377C-19.6659 48.0155 -17.9484 48.0155 -17.9484 47.4377C-17.9484 47.2155 -17.4378 46.9932 -16.7879 46.9932C-15.7667 46.9932 -15.3954 46.5933 -15.5811 45.5265C-15.6276 45.3488 -15.3026 45.0821 -14.9313 44.9488C-14.5599 44.7709 -14.235 44.3265 -14.235 43.9266C-14.235 43.3042 -13.8172 43.2154 -11.1715 43.4377L-8.10796 43.7043L-8.29362 40.682C-8.43287 38.1042 -8.34005 37.6598 -7.6902 37.6598C-7.27244 37.6598 -6.80829 37.3486 -6.62261 36.9931C-6.48337 36.6375 -5.92636 36.3265 -5.41578 36.3265C-4.71952 36.3265 -4.48743 36.0153 -4.48743 35.2153C-4.48743 34.5931 -4.30176 34.1042 -4.02326 34.1042C-3.46625 34.1042 -3.41984 32.4598 -3.97683 32.1486C-4.20892 32.0152 -4.30176 31.482 -4.16251 31.0375C-4.02326 30.5929 -4.16251 30.0597 -4.44101 29.9263C-5.13726 29.4819 -0.495565 25.6596 0.664861 25.6596C1.17545 25.6596 2.61438 26.504 3.86764 27.5263C5.58506 28.9485 6.00283 29.5263 5.63149 29.9708C5.39941 30.2819 5.26014 30.8153 5.39941 31.2153C5.58507 31.5707 5.49223 31.9709 5.26014 32.1041C4.65672 32.4598 4.65672 34.1042 5.26014 34.1042C5.49223 34.1042 5.72431 34.4597 5.72431 34.9041C5.72431 35.9709 6.60624 36.7709 7.39534 36.4598C7.76667 36.3265 8.04517 36.5042 8.04517 36.9487C8.04517 37.3486 8.4165 37.6598 8.88068 37.6598C9.57693 37.6598 9.66977 37.9709 9.43768 40.5932L9.15918 43.5266L12.3155 43.3487C15.1006 43.1265 15.4719 43.2154 15.4719 43.8821C15.4719 44.3265 15.7969 44.7709 16.1681 44.9488C16.5394 45.0821 16.8644 45.6155 16.8644 46.1044C16.8644 46.771 17.1893 46.9932 18.0249 46.9932C18.6746 46.9932 19.1852 47.2155 19.1852 47.4377C19.1852 48.0155 20.9027 48.0155 21.274 47.4377C21.4133 47.2155 21.8311 47.1265 22.2023 47.3044C22.6201 47.4377 23.1772 47.3489 23.502 47.0822C23.9198 46.7265 24.5697 47.171 25.9157 48.7711C26.9369 49.9711 27.8652 50.9489 28.0046 50.9489C28.1437 50.9489 29.0721 49.9711 30.0468 48.7711C31.4394 47.0377 31.9964 46.6821 32.4605 47.0377C32.8319 47.3044 33.3888 47.4377 33.8066 47.3044C34.1779 47.1265 34.5957 47.2155 34.735 47.4377C35.1063 48.0155 36.8237 48.0155 36.8237 47.4377C36.8237 47.2155 37.3343 46.9932 37.9842 46.9932C39.0054 46.9932 39.3767 46.5933 39.1911 45.5265C39.1446 45.3488 39.4695 45.0821 39.8408 44.9488C40.2123 44.7709 40.537 44.3265 40.537 43.9266C40.537 43.3042 40.9548 43.2154 43.6006 43.4377L46.6642 43.7043L46.4784 40.682C46.3393 38.0597 46.4321 37.6598 47.1283 37.6598C47.5461 37.6598 48.103 37.3486 48.3352 36.9487C48.5673 36.5487 48.8921 36.282 49.0314 36.282C50.0526 36.4153 50.2847 36.1931 50.2847 35.2153C50.2847 34.5931 50.4704 34.1042 50.7488 34.1042C51.3059 34.1042 51.3523 32.4598 50.7953 32.1486C50.5632 32.0152 50.4704 31.482 50.6095 31.0375C50.7488 30.5929 50.6095 30.0597 50.3311 29.9263C49.6348 29.4819 54.2765 25.6596 55.437 25.6596C55.9475 25.6596 57.3864 26.504 58.6398 27.5263C60.3572 28.9485 60.775 29.5263 60.4035 29.9708C60.1716 30.2819 60.0323 30.8153 60.1716 31.2153C60.3572 31.5707 60.2644 31.9709 60.0323 32.1041C59.4288 32.4598 59.4288 34.1042 60.0323 34.1042C60.2644 34.1042 60.4964 34.4597 60.4964 34.9041C60.4964 35.9709 61.3784 36.7709 62.1675 36.4598C62.5388 36.3265 62.8172 36.5042 62.8172 36.9487C62.8172 37.3486 63.1887 37.6598 63.6528 37.6598C64.349 37.6598 64.4418 37.9709 64.2099 40.5932L63.9312 43.5266L67.0876 43.3487C69.9191 43.1265 70.244 43.171 70.244 43.9266C70.244 44.4155 70.476 44.7709 70.7082 44.7709C70.9866 44.7709 71.4044 45.2598 71.6365 45.8822C71.915 46.5488 72.4256 46.9932 73.029 46.9932C73.5396 46.9932 73.9574 47.2155 73.9574 47.4377C73.9574 48.0155 75.6748 48.0155 76.0461 47.4377C76.1854 47.2155 76.6032 47.1265 76.9745 47.3044C77.3923 47.4377 77.9492 47.3489 78.2741 47.0822C78.6919 46.7265 79.3417 47.171 80.6878 48.7711C81.709 49.9711 82.6374 50.9489 82.7765 50.9489C82.9159 50.9489 83.8442 49.9711 84.8654 48.7711ZM77.3923 43.3932C76.928 42.5043 76.7423 41.4821 76.928 40.6377C77.2994 38.7709 79.3882 36.3265 80.5485 36.3265C81.3841 36.3265 81.2912 36.5487 79.8059 38.1042C77.2994 40.7709 77.5314 42.3709 80.9663 45.971L82.7302 47.7933L84.8189 45.66C87.9288 42.5043 88.161 40.4598 85.7473 37.7043C84.6796 36.4598 84.6333 36.3265 85.4223 36.3265C86.5364 36.3265 88.8109 39.6599 88.8109 41.2598C88.8109 42.6376 87.1398 45.1266 84.5405 47.7044L82.6837 49.571L80.4094 47.171C79.2025 45.8822 77.8564 44.1932 77.3923 43.3932ZM22.6201 43.3932C22.156 42.5043 21.9702 41.4821 22.156 40.6377C22.5273 38.7709 24.616 36.3265 25.7765 36.3265C26.6119 36.3265 26.5191 36.5487 25.0338 38.1042C22.5273 40.7709 22.7594 42.3709 26.1943 45.9266L27.9117 47.7933L29.7683 45.9266C33.1104 42.5931 33.4817 40.6377 31.2536 38.0153C30.1396 36.7265 30.0005 36.3708 30.5574 36.1486C31.3929 35.8376 33.4353 38.5931 33.8531 40.5932C34.2244 42.3709 33.2032 44.282 30.2326 47.2599L27.9117 49.6155L25.6837 47.2155C24.4304 45.8822 23.0842 44.1932 22.6201 43.3932ZM-32.3377 42.9932C-32.6626 42.2821 -32.8018 41.2154 -32.6161 40.6377C-32.152 38.8153 -30.249 36.5487 -29.0884 36.4153C-28.0209 36.2376 -28.0673 36.3265 -29.6919 38.0597C-32.2449 40.7709 -32.0127 42.3709 -28.5779 45.971L-26.8141 47.8378L-24.6789 45.571C-21.6153 42.2821 -21.3832 40.4153 -23.7505 37.7487C-24.7252 36.6375 -24.7717 36.3708 -24.2146 36.1486C-23.2864 35.8376 -20.7334 39.5709 -20.7334 41.1709C-20.7334 42.5931 -21.8474 44.3265 -24.6324 47.3044L-26.8141 49.6155L-29.2741 46.9932C-30.6666 45.5265 -32.0127 43.7488 -32.3377 42.9932ZM88.3466 46.1044C87.3254 45.4821 88.1145 45.0821 89.2285 45.66C90.5747 46.3266 92.7099 45.3488 92.8955 43.971C93.0812 42.771 93.9167 42.6376 93.9167 43.8376C93.9167 45.7043 90.2034 47.2155 88.3466 46.1044ZM79.0632 41.6598C79.0632 40.6377 79.9916 38.5486 80.4557 38.5486C80.6415 38.5486 80.92 38.9487 81.0591 39.4377C81.2449 40.1043 81.709 40.3265 82.7765 40.3265C83.8442 40.3265 84.3083 40.1043 84.494 39.4377C84.8189 38.3264 85.376 38.282 86.0258 39.3932C86.9541 41.0821 86.5364 42.5043 84.5868 44.5487L82.6837 46.5043L80.8735 44.5043C79.8988 43.3932 79.0632 42.1042 79.0632 41.6598ZM72.7969 45.4377C71.6365 44.371 71.2652 42.9932 72.0543 42.9932C72.2863 42.9932 72.5649 43.4377 72.6577 43.971C72.8434 45.3488 74.9786 46.3266 76.3246 45.66C77.4386 45.0821 78.2277 45.4821 77.2066 46.1044C75.9533 46.86 73.9574 46.5933 72.7969 45.4377ZM33.5745 46.1044C32.5998 45.5265 33.3425 45.0821 34.41 45.6155C35.7562 46.3266 37.6593 45.5265 38.0305 44.1043C38.3555 42.8153 39.1446 42.5931 39.1446 43.8376C39.1446 45.7043 35.4312 47.2155 33.5745 46.1044ZM26.3799 44.9044C24.4304 42.8598 24.0126 41.6153 24.7553 39.8821C25.4051 38.3264 25.9622 38.1932 26.2871 39.4377C26.4728 40.1043 26.9369 40.3265 28.0046 40.3265C29.0721 40.3265 29.5362 40.1043 29.722 39.4377C30.0468 38.3264 30.6039 38.282 31.2536 39.3932C32.0892 40.9487 31.7642 42.2821 29.954 44.4155C29.0257 45.571 28.1902 46.5043 28.1437 46.5488C28.0509 46.5488 27.2618 45.7932 26.3799 44.9044ZM18.0712 45.6155C17.4215 45.1266 16.8644 44.3265 16.8644 43.8376C16.8644 42.6376 17.6999 42.771 17.8856 43.971C18.0712 45.3488 20.2064 46.3266 21.5526 45.66C22.6666 45.0821 23.4557 45.4821 22.4345 46.1044C21.274 46.8155 19.3709 46.5933 18.0712 45.6155ZM-21.1975 46.1044C-22.2187 45.4821 -21.4296 45.0821 -20.3156 45.66C-18.9695 46.3266 -16.8344 45.3488 -16.6486 43.971C-16.463 42.771 -15.6276 42.6376 -15.6276 43.8376C-15.6276 45.7043 -19.3409 47.2155 -21.1975 46.1044ZM-30.2953 42.1932C-30.5738 41.1709 -29.7384 38.5486 -29.0884 38.5486C-28.9028 38.5486 -28.6243 38.9487 -28.485 39.482C-28.2994 40.1931 -27.9281 40.371 -26.7213 40.2376C-25.5144 40.1488 -25.0966 39.8376 -24.9108 38.9931L-24.6324 37.9265L-23.8433 38.9931C-22.5437 40.8154 -22.8221 42.3709 -24.9573 44.5487L-26.9069 46.5488L-28.4387 44.9044C-29.3206 43.971 -30.156 42.771 -30.2953 42.1932ZM-36.7473 45.4377C-37.9078 44.371 -38.279 42.9932 -37.49 42.9932C-37.2579 42.9932 -36.9794 43.4377 -36.8866 43.971C-36.7009 45.3488 -34.5657 46.3266 -33.2196 45.66C-32.1055 45.0821 -31.3165 45.4821 -32.3377 46.1044C-33.5908 46.86 -35.5869 46.5933 -36.7473 45.4377ZM89.1822 43.4821C89.2285 42.6376 89.3678 41.8377 89.4606 41.7487C89.7391 41.5265 92.5242 42.9488 92.5242 43.3042C92.5242 44.0154 90.8531 45.2598 90.0177 45.1266C89.2285 45.0376 89.0894 44.7266 89.1822 43.4821ZM73.8646 44.4599C72.7969 43.5709 72.7969 42.7265 73.8181 42.4154C74.2823 42.3266 74.9786 42.0599 75.3964 41.9265C75.9533 41.6598 76.2318 41.9265 76.4639 42.9932C76.6032 43.7931 76.6032 44.5932 76.4639 44.8154C76.0926 45.4377 74.7929 45.3043 73.8646 44.4599ZM34.41 43.4821C34.4565 42.6376 34.5957 41.8377 34.6885 41.7487C34.9671 41.5265 37.7521 42.9488 37.7521 43.3042C37.7521 44.0154 36.0811 45.2598 35.2456 45.1266C34.4565 45.0376 34.3172 44.7266 34.41 43.4821ZM19.0924 44.4599C18.6283 44.0598 18.2569 43.5709 18.2569 43.3932C18.2569 43.082 20.6705 41.6598 21.1811 41.6598C21.5526 41.6598 21.9702 44.4155 21.6917 44.8154C21.3205 45.4377 20.0208 45.3043 19.0924 44.4599ZM-20.5478 44.6377C-20.6869 44.282 -20.5478 43.4821 -20.3156 42.8153C-19.805 41.6598 -19.805 41.6598 -18.4125 42.3266C-16.7879 43.1265 -16.7416 43.3042 -17.8091 44.4155C-18.691 45.3488 -20.1763 45.4821 -20.5478 44.6377ZM-35.6797 44.4599C-36.7473 43.5709 -36.7473 42.7265 -35.7261 42.4154C-35.2619 42.3266 -34.5657 42.0599 -34.1479 41.9265C-33.5908 41.6598 -33.3124 41.9265 -33.0803 42.9932C-32.9411 43.7931 -32.9411 44.5932 -33.0803 44.8154C-33.4517 45.4377 -34.7514 45.3043 -35.6797 44.4599ZM65.2309 38.8598C65.3702 36.8152 65.8343 34.5486 66.2058 33.793C67.4126 31.5707 72.1935 30.193 73.4931 31.6597C74.0037 32.2375 73.8181 32.3263 72.1935 32.3263C68.0624 32.3263 66.5307 34.0597 66.5307 38.7709V41.2154H69.0835C72.0543 41.2154 74.6071 40.3265 75.3034 39.082C75.582 38.5486 75.814 37.3486 75.814 36.3265C75.814 35.0375 75.9998 34.5486 76.3711 34.6376C77.253 34.9486 77.3458 36.1931 76.696 38.4154C75.8605 41.4376 73.7253 42.3709 67.7376 42.5043L64.9989 42.5488L65.2309 38.8598ZM36.5452 41.5265C35.7562 41.1266 34.8278 40.1931 34.5029 39.4377C33.7138 37.6153 33.6673 34.9041 34.3637 34.6819C34.7813 34.5486 34.9671 34.9931 34.9671 36.1041C34.9671 39.6599 37.0093 41.2154 41.7439 41.2154H44.2504V38.7709C44.2504 35.9264 43.3222 33.4819 42.0225 32.8152C41.4654 32.5486 40.2122 32.3263 39.1446 32.3263C37.7984 32.3263 37.288 32.1486 37.3808 31.793C37.9842 30.1485 43.3685 31.5707 44.4825 33.6598C44.854 34.3709 45.3181 36.682 45.4574 38.8153L45.7822 42.6821L41.8832 42.4599C39.5623 42.3266 37.3808 41.971 36.5452 41.5265ZM10.4589 38.8598C10.7374 34.5486 11.6193 32.682 13.6152 31.8819C15.5182 31.1263 18.3497 31.0818 18.5818 31.793C18.7211 32.1486 18.2569 32.3263 17.0965 32.3263C13.3831 32.3263 11.7585 34.2819 11.7585 38.8153V41.2154H14.3115C17.2822 41.2154 19.8351 40.3265 20.5314 39.082C20.8099 38.5486 21.042 37.3486 21.042 36.3265C21.042 35.0375 21.2276 34.5486 21.5989 34.6376C23.1772 35.1265 21.8774 40.282 19.9743 41.3043C18.814 41.9265 15.7504 42.4154 12.5012 42.5043L10.2268 42.5488L10.4589 38.8598ZM-17.9948 41.7043C-19.6194 40.9487 -20.7797 38.9487 -20.8727 36.682C-21.0119 33.9708 -19.9907 34.0597 -19.7122 36.7709C-19.3409 40.1043 -18.4125 40.8599 -13.9565 41.1266L-10.3824 41.3488L-10.6145 37.882C-10.8466 34.7708 -10.9858 34.2819 -12.0998 33.3486C-13.0282 32.593 -13.9101 32.3263 -15.4418 32.3263C-16.9272 32.3263 -17.4842 32.1486 -17.3914 31.793C-16.7879 30.104 -11.4036 31.5708 -10.2431 33.7041C-9.87181 34.4597 -9.40764 36.7709 -9.26839 38.8598L-8.98988 42.6821L-12.8889 42.4599C-15.0241 42.3266 -17.345 41.971 -17.9948 41.7043ZM67.5518 37.6153C67.7839 34.6819 68.8514 33.2152 70.7546 33.2152C71.4509 33.2152 71.59 33.4376 71.3581 34.2819C71.2188 34.9486 71.4044 35.5709 71.8687 36.0598C72.7505 36.9042 73.2147 36.9487 74.468 36.282C75.3034 35.8819 75.3499 35.9264 75.0714 37.0819C74.468 39.5264 73.2147 40.2376 69.5941 40.282L67.3661 40.3265L67.5518 37.6153ZM36.7774 39.0375C36.2668 38.4598 35.8953 37.6153 35.8953 37.1709C35.8953 36.5042 36.1275 36.3708 37.0093 36.593C37.7056 36.7265 38.3555 36.5487 38.8661 36.1041C39.748 35.2597 39.7945 34.8153 39.0982 33.6153C38.6805 32.8152 38.7268 32.7708 39.9336 33.0375C42.2082 33.5264 42.9972 34.6819 43.2293 37.7043L43.4613 40.4598L40.537 40.2376C38.2162 40.0598 37.4271 39.8376 36.7774 39.0375ZM12.7797 37.6153C13.0118 34.6819 14.0794 33.2152 15.9825 33.2152C16.6787 33.2152 16.8181 33.4376 16.5859 34.2819C16.2146 35.7486 17.5143 36.9042 19.1852 36.5487C20.3921 36.282 20.4849 36.3708 20.2529 37.3042C19.6958 39.482 18.3034 40.2376 14.8221 40.282L12.594 40.3265L12.7797 37.6153ZM-17.9948 39.0375C-18.5054 38.4598 -18.8767 37.6153 -18.8767 37.1709C-18.8767 36.5042 -18.6447 36.3708 -17.7626 36.593C-17.0664 36.7265 -16.4166 36.5487 -15.906 36.1041C-15.0241 35.2597 -14.9777 34.8153 -15.6276 33.6153C-16.231 32.593 -16.0917 32.593 -14.0029 33.4376C-12.1462 34.1487 -11.45 35.482 -11.45 38.4154V40.4153L-14.2814 40.2376C-16.5558 40.0598 -17.345 39.8376 -17.9948 39.0375ZM61.9353 35.1708C60.9141 33.9265 60.6822 32.1041 61.4247 30.9931C62.0282 30.0597 62.4924 30.7708 61.9353 31.793C61.2391 33.0375 62.0282 34.9041 63.5135 35.4375C64.9061 35.9264 64.9989 36.3265 63.7921 36.3265C63.2815 36.3265 62.4459 35.7931 61.9353 35.1708ZM46.1071 36.1041C46.1071 35.9709 46.6177 35.6597 47.2676 35.4375C48.7529 34.9041 49.542 33.0375 48.8458 31.793C48.2887 30.8153 48.5673 30.2819 49.3099 30.7708C50.1454 31.2597 49.867 33.9265 48.8458 35.1708C48.0567 36.1486 46.1071 36.8152 46.1071 36.1041ZM7.16325 35.1708C6.14207 33.9265 5.90999 32.1041 6.65266 30.9931C7.25608 30.0597 7.67383 30.7264 7.20966 31.9264C6.60624 33.3486 7.3025 34.9041 8.74142 35.4375C10.1339 35.9264 10.2268 36.3265 9.01992 36.3265C8.50934 36.3265 7.67384 35.7931 7.16325 35.1708ZM-8.43287 35.8819C-8.29362 35.6597 -7.82945 35.4375 -7.50453 35.4375C-7.1332 35.4375 -6.48336 34.9486 -6.0656 34.3264C-5.41577 33.3931 -5.36935 32.993 -5.83352 32.0152C-6.43694 30.7708 -6.11203 29.9708 -5.41578 30.9931C-4.20892 32.7708 -5.83352 36.3265 -7.78304 36.3265C-8.29362 36.3265 -8.57213 36.1486 -8.43287 35.8819ZM78.1348 34.5486C77.253 34.1042 75.907 33.1264 75.1642 32.3708C73.8646 31.0818 71.9615 26.6819 72.3791 26.0152C72.9362 25.1707 73.4468 25.7929 73.7717 27.6597C73.9574 28.904 74.2823 29.6596 74.7 29.6596C75.0714 29.6596 75.2106 29.9263 75.0249 30.3707C74.8393 30.8153 75.0714 31.1263 75.7212 31.3041C76.2317 31.393 76.7888 31.9264 76.8817 32.4153C77.0673 33.0375 77.3923 33.2597 77.8564 33.0819C78.3206 32.9042 78.5991 33.0375 78.5991 33.4376C78.5991 34.0597 79.1097 34.193 82.0803 34.2819C82.5909 34.3264 83.2408 34.4597 83.5658 34.6819C83.8442 34.8598 84.2155 34.8153 84.4012 34.5486C84.5405 34.3264 85.1902 34.1042 85.8401 34.1042C86.49 34.1042 86.9541 33.8375 86.9541 33.4376C86.9541 33.0375 87.2326 32.9042 87.6969 33.0819C88.161 33.2597 88.4859 33.0375 88.6716 32.4153C88.7644 31.9264 89.275 31.4375 89.7856 31.3041C90.2497 31.1708 90.6675 30.7708 90.6675 30.3707C90.6675 29.9708 90.8531 29.6596 91.0853 29.6596C91.3174 29.6596 91.6422 28.7708 91.7815 27.6597C92.0136 26.2818 92.3386 25.6596 92.8027 25.6596C93.3596 25.6596 93.4524 25.9708 93.2205 27.1263C91.6422 33.9708 84.3548 37.6153 78.1348 34.5486ZM23.4557 34.5931C22.5273 34.1487 21.1348 33.1264 20.3921 32.3708C19.0924 31.0818 17.1893 26.6819 17.6071 26.0152C18.0712 25.3484 18.7211 25.6596 18.7211 26.504C18.7211 26.9929 18.9068 27.4818 19.1389 27.6152C19.3709 27.7485 19.4637 28.2819 19.3246 28.7708C19.1389 29.3929 19.3246 29.6596 19.8351 29.6596C20.2993 29.6596 20.4386 29.9263 20.2529 30.3707C20.0671 30.8153 20.2993 31.1263 20.9492 31.3041C21.4598 31.393 22.0167 31.9264 22.1095 32.4153C22.2952 33.0375 22.6201 33.2597 23.0842 33.0819C23.5485 32.9042 23.827 33.0375 23.827 33.4376C23.827 34.0597 24.3375 34.193 27.3083 34.2819C27.8188 34.3264 28.4687 34.4597 28.7471 34.6376C29.0721 34.8153 29.5362 34.7264 29.8148 34.3709C30.1396 34.0153 30.7895 33.8375 31.2536 33.9708C31.9035 34.1487 32.182 33.9708 32.182 33.4819C32.182 33.0375 32.4605 32.9042 32.9247 33.0819C33.3888 33.2597 33.7138 33.0375 33.8994 32.4153C33.9923 31.9264 34.5029 31.4375 35.0134 31.3041C35.4777 31.1708 35.8953 30.7708 35.8953 30.3707C35.8953 29.9708 36.0811 29.6596 36.3131 29.6596C36.5452 29.6596 36.8702 28.7708 37.0093 27.6597C37.2415 26.2818 37.5664 25.6596 38.0305 25.6596C38.5876 25.6596 38.6805 25.9708 38.4483 27.1263C36.8702 33.9708 29.5827 37.6153 23.4557 34.5931ZM-31.4093 34.5486C-34.2871 33.1264 -36.5151 30.2375 -37.1185 27.1263C-37.3507 26.0152 -37.2579 25.6596 -36.7473 25.6596C-36.3295 25.6596 -36.0045 26.3707 -35.7725 27.6597C-35.5869 28.904 -35.2619 29.6596 -34.8442 29.6596C-34.4729 29.6596 -34.3336 29.9263 -34.5192 30.3707C-34.7049 30.8153 -34.4729 31.1263 -33.823 31.3041C-33.3124 31.393 -32.7555 31.9264 -32.6626 32.4153C-32.4768 33.0375 -32.152 33.2597 -31.6878 33.0819C-31.2237 32.9042 -30.9452 33.0375 -30.9452 33.4376C-30.9452 33.8375 -30.4809 34.1042 -29.8312 34.1042C-29.1813 34.1042 -28.5315 34.3264 -28.3922 34.5486C-28.1601 34.9041 -27.8816 34.8598 -27.4175 34.5042C-26.9069 34.1042 -26.6283 34.1042 -26.1178 34.5042C-25.6536 34.8598 -25.3751 34.9041 -25.143 34.5486C-25.0038 34.3264 -24.3539 34.1042 -23.704 34.1042C-23.0078 34.1042 -22.5901 33.8375 -22.5901 33.3931C-22.5901 33.0375 -22.358 32.8597 -22.1259 32.993C-21.5225 33.3486 -20.1763 32.3708 -20.5013 31.8819C-20.6406 31.7042 -20.2693 31.4375 -19.7587 31.3041C-19.0625 31.1263 -18.8303 30.8153 -19.016 30.3707C-19.2016 29.9263 -19.0625 29.6596 -18.6447 29.6596C-18.2269 29.6596 -17.9484 29.2152 -17.9484 28.593C-17.9484 27.9707 -17.7626 27.393 -17.4842 27.2153C-17.252 27.0818 -17.1592 26.6819 -17.345 26.3262C-17.4842 25.8818 -17.2985 25.6596 -16.7879 25.6596C-16.1382 25.6596 -16.0917 25.9263 -16.3238 27.1263C-17.9019 33.9708 -25.1895 37.6153 -31.4093 34.5486ZM63.0958 34.2819C61.5641 32.8597 62.4924 31.3041 64.5811 31.7042C66.2986 32.0597 66.2986 31.9709 65.3702 33.6598C64.5347 35.1708 64.1169 35.3042 63.0958 34.2819ZM45.3181 33.6153C44.8075 32.3708 44.854 32.2375 45.9678 31.8374C47.4996 31.3041 48.428 31.6152 48.428 32.7264C48.428 33.7041 47.2676 34.9931 46.3856 34.9931C46.1071 34.9931 45.5965 34.3709 45.3181 33.6153ZM8.32368 34.1487C7.76667 33.5708 7.62743 32.9487 7.81308 32.3263C8.0916 31.5264 8.37009 31.4375 9.57693 31.7042C11.5265 32.0597 11.48 32.0152 10.5981 33.6153C9.76261 35.2153 9.39127 35.3042 8.32368 34.1487ZM-9.45405 33.6153C-9.96463 32.3708 -9.91822 32.2375 -8.80422 31.8374C-7.27244 31.3041 -6.34412 31.6152 -6.34412 32.7264C-6.34412 33.7041 -7.50453 34.9931 -8.38646 34.9931C-8.66496 34.9931 -9.17555 34.3709 -9.45405 33.6153ZM79.7131 31.8374C77.6707 30.9041 76.1389 29.0819 75.582 26.8596C75.257 25.7041 75.3034 25.6151 76.5567 25.7486C77.5779 25.8373 78.0885 26.2818 78.6454 27.4818C80.4094 31.1263 86.1651 30.8153 87.1863 26.9929C87.4183 26.1485 87.7897 25.8818 88.8109 25.8373C90.4353 25.7929 90.5282 26.104 89.275 28.593C88.3003 30.5042 86.8148 31.7486 84.6796 32.3263C82.7302 32.9042 81.8018 32.8152 79.7131 31.8374ZM24.941 31.8374C22.8986 30.9041 21.3668 29.0819 20.8099 26.8596C20.4849 25.7041 20.5314 25.6151 21.7846 25.7486C22.8058 25.8373 23.3164 26.2818 23.9198 27.5707C24.8481 29.4819 26.5191 30.2819 28.9328 29.9263C30.6502 29.6596 32.6463 27.9264 32.6463 26.6374C32.6463 26.104 33.0639 25.8818 34.0851 25.8373C35.3847 25.7929 35.4777 25.8818 35.1991 26.9486C34.6422 29.0374 33.1104 30.9041 31.1145 31.8374C28.6543 32.993 27.4011 32.993 24.941 31.8374ZM-30.7131 31.4375C-32.1984 30.5486 -33.4052 28.8152 -33.9158 26.9041C-34.1943 25.7929 -34.1014 25.7041 -32.8483 25.7929C-31.7806 25.8818 -31.4093 26.193 -30.9452 27.3485C-29.5526 31.0375 -23.2399 30.8596 -22.358 27.0818C-22.1724 26.104 -21.8474 25.8818 -20.6869 25.8373C-19.3873 25.7929 -19.2944 25.8818 -19.5729 26.9486C-20.13 29.1707 -21.4761 30.7708 -23.5184 31.793C-25.932 32.993 -28.2994 32.8597 -30.7131 31.4375ZM63.9777 30.5929C63.1887 30.1485 61.5176 28.8597 60.2644 27.704C58.3613 26.0596 58.1292 25.7041 58.9182 25.6596C59.4288 25.6596 60.2644 26.104 60.775 26.5929C62.4924 28.5041 65.2774 30.104 66.7164 30.104C67.6446 30.104 68.8051 29.6153 69.8726 28.7708C70.9403 27.9264 71.6829 27.6152 71.8687 27.8819C72.3328 28.593 71.4044 29.4374 69.1764 30.5042C66.7627 31.6597 65.7415 31.6597 63.9777 30.5929ZM40.7227 29.8818C39.8408 29.2152 39.1446 28.3263 39.1446 27.793C39.1446 26.9929 39.3767 27.0818 41.0013 28.5041C43.7399 30.8596 45.3181 30.7264 48.5673 27.8819C50.0526 26.5929 51.5379 25.6596 52.1413 25.6596C53.0697 25.6596 52.8841 25.9263 50.981 27.5707C46.0608 31.7486 43.9256 32.2375 40.7227 29.8818ZM9.2056 30.6374C8.4165 30.1485 6.74549 28.8597 5.49223 27.7485C3.77481 26.2375 3.40347 25.7041 4.0533 25.6596C4.51748 25.6596 5.9564 26.5485 7.20966 27.6597C10.6445 30.5929 12.594 30.8153 15.3791 28.5485C16.3075 27.8374 16.9109 27.5707 17.0965 27.8819C17.5606 28.593 16.6323 29.4374 14.4043 30.5042C11.9906 31.6597 11.0159 31.6597 9.2056 30.6374ZM-14.0493 29.8818C-14.9313 29.2597 -15.6276 28.4153 -15.6276 28.0596C-15.6276 27.1708 -15.2562 27.2596 -13.4459 28.7708C-11.0322 30.8153 -9.3148 30.6374 -6.20485 27.8819C-4.71952 26.5929 -3.23417 25.6596 -2.63075 25.6596C-1.70241 25.6596 -1.88808 25.9263 -3.79118 27.5707C-8.71138 31.7486 -10.8466 32.2375 -14.0493 29.8818ZM80.2237 28.1041C78.1348 26.1485 78.5991 25.6596 82.7765 25.6596C85.7936 25.6596 86.49 25.7929 86.49 26.3262C86.49 27.5263 84.3083 29.2152 82.7765 29.2152C81.8947 29.2152 80.92 28.8152 80.2237 28.1041ZM63.235 27.4375C61.6569 26.104 61.3784 25.7041 62.0747 25.6596C62.5852 25.6596 63.3743 25.9708 63.8384 26.4152C64.6275 27.0818 64.7203 27.0818 65.5095 26.4152C66.6235 25.4374 66.7164 25.4374 68.2017 26.8596C69.362 27.9707 69.4085 28.0596 68.573 28.6375C67.0876 29.7041 65.3702 29.3041 63.235 27.4375ZM42.2545 28.593C41.2333 27.8374 41.2333 27.6152 42.3938 27.3041C42.9044 27.1708 43.3222 26.7707 43.3222 26.3707C43.3222 25.4374 44.7146 25.4819 45.4109 26.4152C46.0143 27.1708 46.0608 27.1708 46.9427 26.4152C47.4533 25.9708 48.3352 25.6596 48.9386 25.7486C49.867 25.8818 49.7276 26.0596 47.7317 27.5707C45.3644 29.3041 43.6934 29.6153 42.2545 28.593ZM25.4516 28.1041C23.3628 26.1485 23.827 25.6596 28.0046 25.6596C31.0216 25.6596 31.7179 25.7929 31.7179 26.3262C31.7179 27.5263 29.5362 29.2152 28.0046 29.2152C27.1225 29.2152 26.1478 28.8152 25.4516 28.1041ZM8.46293 27.4375C6.88474 26.104 6.60624 25.7041 7.3025 25.6596C7.81308 25.6596 8.60217 25.9708 9.06635 26.4152C9.85544 27.0818 9.94826 27.0818 10.7374 26.4152C11.8978 25.4374 12.5476 25.4819 12.8261 26.5485C12.9654 27.1263 13.476 27.4375 14.1722 27.4375L15.2398 27.4818L14.1258 28.3263C12.4084 29.7041 10.7374 29.4374 8.46293 27.4375ZM-12.1462 28.6818C-13.5388 28.0596 -13.6316 27.6152 -12.3783 27.3041C-11.8677 27.1708 -11.45 26.7707 -11.45 26.3707C-11.45 25.4374 -10.0575 25.4819 -9.36121 26.4152C-8.75779 27.1708 -8.71138 27.1708 -7.82945 26.4152C-7.31887 25.9708 -6.43694 25.6596 -5.83352 25.7486C-4.90518 25.8818 -5.04443 26.0596 -7.04037 27.5707C-9.45405 29.3486 -10.2431 29.5263 -12.1462 28.6818ZM-29.3206 28.1041C-31.4093 26.1485 -30.9452 25.6596 -26.7676 25.6596C-23.7505 25.6596 -23.0543 25.7929 -23.0543 26.3262C-23.0543 27.5263 -25.2358 29.2152 -26.7676 29.2152C-27.6495 29.2152 -28.6243 28.8152 -29.3206 28.1041Z" fill="#FFFFD0"/>
<path d="M29.1189 43.5709C29.3046 43.171 29.1652 42.5488 28.794 42.2376C28.2834 41.7487 28.0512 41.7487 27.3087 42.2821C26.5659 42.8153 26.5194 42.9932 27.03 43.6154C27.8193 44.5487 28.7475 44.5043 29.1189 43.5709Z" fill="#FFFFD0"/>
<path d="M41.6983 38.7264C42.3945 38.0598 42.3945 37.8821 41.7446 37.3042C40.9555 36.5486 39.6094 36.8598 39.6094 37.7931C39.6094 38.1487 39.8878 38.682 40.2593 38.9487C40.7699 39.3488 41.0948 39.3043 41.6983 38.7264Z" fill="#FFFFD0"/>
<path d="M15.9368 38.7711C16.6794 37.9265 16.1688 36.682 15.1476 36.8599C14.1265 37.0377 13.8016 38.7711 14.7299 39.1265C15.1012 39.26 15.6582 39.0821 15.9368 38.7711Z" fill="#FFFFD0"/>
</g>
<mask id="mask1_740_1184" style="mask-type:luminance" maskUnits="userSpaceOnUse" x="0" y="0" width="56" height="27">
<path d="M55.9596 0H0V26.171H55.9596V0Z" fill="white"/>
</mask>
<g mask="url(#mask1_740_1184)">
<path d="M-28.9032 2.22895C-30.2493 3.82899 -30.8992 4.27343 -31.3169 3.91787C-31.6418 3.6512 -32.1989 3.56231 -32.6167 3.69564C-32.988 3.87343 -33.4057 3.78453 -33.5449 3.56231C-33.9163 2.98453 -35.6338 2.98453 -35.6338 3.56231C-35.6338 3.78453 -36.1444 4.00676 -36.7941 4.00676C-37.8153 4.00676 -38.0475 4.22899 -37.9081 5.20677C-37.9081 5.34012 -38.1866 5.65123 -38.6044 5.87345C-39.0222 6.09568 -39.3471 6.62902 -39.3471 7.07347C-39.3471 7.6957 -39.6256 7.82904 -40.5075 7.65125C-41.1574 7.56237 -41.668 7.65125 -41.668 7.87348C-41.668 8.14015 -40.554 8.45127 -39.1615 8.5846C-35.9122 8.89571 -34.0555 9.82906 -33.3129 11.5624C-32.5237 13.3847 -32.4774 16.0958 -33.1736 16.318C-33.5914 16.4514 -33.777 16.007 -33.777 14.8958C-33.777 11.518 -35.8194 9.78462 -39.8577 9.78462C-42.6427 9.78462 -41.9929 10.5402 -39.0222 10.7624C-36.2372 10.9846 -34.7054 12.0958 -34.7054 13.8291C-34.7054 14.4958 -34.9375 14.6291 -35.8194 14.4069C-36.5157 14.2736 -37.1654 14.4514 -37.676 14.8958C-38.558 15.7403 -38.6044 16.1847 -37.9081 17.3847C-37.4904 18.1848 -37.5369 18.2293 -38.7437 17.9626C-39.4399 17.7847 -40.4146 17.3403 -40.8324 16.9848C-41.5751 16.3624 -41.668 16.4069 -41.668 17.0292C-41.668 18.0514 -40.229 18.6737 -37.9546 18.6737C-36.6085 18.6737 -36.0979 18.8514 -36.2372 19.2069C-36.4228 19.8292 -38.9758 19.9625 -40.6003 19.3848C-42.2249 18.8514 -41.8071 19.6515 -39.8112 20.9848C-38.6044 21.7848 -37.9546 22.5404 -37.9546 23.2071C-37.9546 24.0959 -38.0475 24.0959 -39.5792 22.6737C-40.4611 21.8736 -41.343 21.3404 -41.5287 21.5182C-41.7608 21.6959 -41.4823 22.1403 -40.9717 22.496C-40.0897 23.1181 -40.0897 23.2071 -40.8324 23.607C-41.2965 23.8737 -41.668 24.5404 -41.668 25.1182V26.2293H27.9577H97.5832V25.1182C97.5832 24.3626 97.2582 23.8737 96.562 23.607L95.5873 23.2515L96.6548 22.5404C97.2582 22.1403 97.6297 21.6514 97.4439 21.5182C97.3047 21.3404 96.4227 21.7404 95.5408 22.407C94.4268 23.2071 93.8233 23.4293 93.5914 23.0293C93.2199 22.496 95.3088 20.6293 96.7941 20.1847C97.2119 20.0514 97.5832 19.7403 97.5832 19.4736C97.5832 19.2514 97.2582 19.1626 96.8404 19.2959C94.8445 20.0514 92.663 20.0959 92.0596 19.3848C91.5025 18.7625 91.6418 18.6737 93.3128 18.6737C95.5873 18.6737 97.5832 17.8736 97.5832 17.0292C97.5832 16.4959 97.3975 16.5403 96.562 17.0736C94.9374 18.1403 93.777 18.0069 94.102 16.7626C94.5196 15.2069 92.8486 13.918 91.3168 14.5847C90.2028 15.0736 90.1565 15.0736 90.435 13.8736C90.9456 11.8291 92.1524 10.9846 94.9839 10.7624C97.9545 10.5402 98.5115 9.78462 95.7264 9.78462C93.3592 9.78462 90.8527 10.7624 90.2028 11.918C89.9244 12.4513 89.6922 13.6513 89.6922 14.6736C89.6922 15.9625 89.5066 16.4514 89.1353 16.3624C88.2534 16.0514 88.1604 14.8069 88.8103 12.5847C89.5066 10.0957 91.0847 9.0735 94.8445 8.6735C96.3763 8.49571 97.5832 8.1846 97.5832 7.96237C97.5832 7.74015 97.0726 7.65125 96.4227 7.82904C95.448 8.05127 95.2623 7.96237 95.2623 7.20681C95.2623 6.67346 94.9838 6.09568 94.6589 5.91791C94.2876 5.74012 93.9162 5.20677 93.7305 4.76233C93.5914 4.36231 92.9879 4.00676 92.4773 4.00676C91.9668 4.00676 91.549 3.78453 91.549 3.56231C91.549 3.02897 89.8316 2.98453 89.5066 3.51787C89.3673 3.74008 88.8104 3.82899 88.3463 3.69564C87.882 3.56231 87.325 3.69564 87.1857 3.96231C87.0001 4.27343 86.0717 3.60676 84.9577 2.31785C83.9365 1.16227 82.9153 0.184483 82.7762 0.140038C82.6368 0.0955926 81.6621 1.02894 80.6409 2.22895C79.2948 3.82899 78.645 4.27343 78.2273 3.91787C77.9023 3.6512 77.3454 3.56231 76.9276 3.69564C76.5563 3.87343 76.1385 3.78453 75.9992 3.56231C75.6279 2.98453 73.9105 2.98453 73.9105 3.56231C73.9105 3.78453 73.3999 4.00676 72.75 4.00676C71.7288 4.00676 71.3575 4.40677 71.5432 5.47345C71.5897 5.65123 71.2647 5.91791 70.8934 6.05123C70.522 6.22902 70.1972 6.67346 70.1972 7.07347C70.1972 7.6957 69.7794 7.7846 67.1336 7.56237L64.07 7.29569L64.2558 10.318C64.395 12.8958 64.3021 13.3402 63.6524 13.3402C63.2346 13.3402 62.7704 13.6513 62.5847 14.0069C62.4456 14.3625 61.8885 14.6736 61.3779 14.6736C60.6816 14.6736 60.4495 14.9847 60.4495 15.7848C60.4495 16.4069 60.2639 16.8958 59.9854 16.8958C59.4283 16.8958 59.382 18.5403 59.9389 18.8514C60.171 18.9847 60.2638 19.5181 60.1247 19.9625C59.9854 20.4069 60.1247 20.9403 60.4032 21.0737C61.0994 21.5182 56.4577 25.3404 55.2972 25.3404C54.7866 25.3404 53.3478 24.4959 52.0944 23.4738C50.377 22.0515 49.9592 21.4737 50.3307 21.0293C50.5627 20.7181 50.702 20.1847 50.5627 19.7848C50.377 19.4293 50.4698 19.0292 50.702 18.8959C51.3054 18.5403 51.3054 16.8958 50.702 16.8958C50.4698 16.8958 50.2379 16.5403 50.2379 16.0958C50.2379 15.0291 49.3558 14.2291 48.5668 14.5402C48.1955 14.6736 47.917 14.4958 47.917 14.0513C47.917 13.6513 47.5456 13.3402 47.0815 13.3402C46.3852 13.3402 46.2924 13.0291 46.5244 10.4068L46.803 7.47348L43.6466 7.65125C40.8616 7.87348 40.4902 7.7846 40.4902 7.11792C40.4902 6.67346 40.1654 6.22902 39.7939 6.05123C39.4226 5.91791 39.0977 5.38456 39.0977 4.89566C39.0977 4.22899 38.7727 4.00676 37.9373 4.00676C37.2874 4.00676 36.7768 3.78453 36.7768 3.56231C36.7768 2.98453 35.0594 2.98453 34.6881 3.56231C34.5488 3.78453 34.131 3.87343 33.7597 3.69564C33.342 3.56231 32.785 3.6512 32.4601 3.91787C32.0423 4.27343 31.3926 3.82899 30.0464 2.22895C29.0252 1.02894 28.0968 0.0511475 27.9577 0.0511475C27.8184 0.0511475 26.89 1.02894 25.9153 2.22895C24.5228 3.96231 23.9657 4.31787 23.5016 3.96231C23.1302 3.69564 22.5732 3.56231 22.1555 3.69564C21.7842 3.87343 21.3664 3.78453 21.2271 3.56231C20.8558 2.98453 19.1384 2.98453 19.1384 3.56231C19.1384 3.78453 18.6278 4.00676 17.978 4.00676C16.9568 4.00676 16.5854 4.40677 16.7712 5.47345C16.8175 5.65123 16.4926 5.91791 16.1213 6.05123C15.75 6.22902 15.425 6.67346 15.425 7.07347C15.425 7.6957 15.0073 7.7846 12.3615 7.56237L9.29797 7.29569L9.48363 10.318C9.62289 12.9402 9.53006 13.3402 8.8338 13.3402C8.41604 13.3402 7.85903 13.6513 7.62696 14.0513C7.39488 14.4514 7.06996 14.718 6.93071 14.718C5.90953 14.5847 5.67744 14.8069 5.67744 15.7848C5.67744 16.4069 5.49177 16.8958 5.21327 16.8958C4.65626 16.8958 4.60985 18.5403 5.16686 18.8514C5.39894 18.9847 5.49177 19.5181 5.35252 19.9625C5.21327 20.4069 5.35252 20.9403 5.63102 21.0737C6.32727 21.5182 1.68558 25.3404 0.525149 25.3404C0.0145618 25.3404 -1.42437 24.4959 -2.67762 23.4738C-4.39506 22.0515 -4.81282 21.4737 -4.44147 21.0293C-4.20938 20.7181 -4.07013 20.1847 -4.20938 19.7848C-4.39506 19.4293 -4.30222 19.0292 -4.07013 18.8959C-3.46671 18.5403 -3.46671 16.8958 -4.07013 16.8958C-4.30222 16.8958 -4.5343 16.5403 -4.5343 16.0958C-4.5343 15.0291 -5.41624 14.2291 -6.20531 14.5402C-6.57666 14.6736 -6.85516 14.4958 -6.85516 14.0513C-6.85516 13.6513 -7.22649 13.3402 -7.69066 13.3402C-8.38692 13.3402 -8.47976 13.0291 -8.24767 10.4068L-7.96918 7.47348L-11.1255 7.65125C-13.957 7.87348 -14.2819 7.82904 -14.2819 7.07347C-14.2819 6.58458 -14.514 6.22902 -14.7461 6.22902C-15.0246 6.22902 -15.4423 5.74012 -15.6745 5.11789C-15.9529 4.45122 -16.4635 4.00676 -17.0669 4.00676C-17.5775 4.00676 -17.9953 3.78453 -17.9953 3.56231C-17.9953 2.98453 -19.7127 2.98453 -20.084 3.56231C-20.2233 3.78453 -20.641 3.87343 -21.0124 3.69564C-21.4302 3.56231 -21.9871 3.6512 -22.3121 3.91787C-22.7298 4.27343 -23.3796 3.82899 -24.7257 2.22895C-25.7469 1.02894 -26.6753 0.0511475 -26.8145 0.0511475C-26.9538 0.0511475 -27.8821 1.02894 -28.9032 2.22895ZM-21.4302 7.60681C-20.9659 8.49571 -20.7803 9.51794 -20.9659 10.3624C-21.3372 12.2291 -23.4261 14.6736 -24.5864 14.6736C-25.422 14.6736 -25.3292 14.4514 -23.8439 12.8958C-21.3372 10.2291 -21.5693 8.62906 -25.0042 5.029L-26.7681 3.20675L-28.8569 5.34012C-31.9668 8.49571 -32.1989 10.5402 -29.7852 13.2958C-28.7175 14.5402 -28.6712 14.6736 -29.4603 14.6736C-30.5743 14.6736 -32.8487 11.3402 -32.8487 9.74017C-32.8487 8.36238 -31.1777 5.87345 -28.5784 3.29564L-26.7216 1.42895L-24.4473 3.82899C-23.2404 5.11789 -21.8943 6.80679 -21.4302 7.60681ZM33.342 7.60681C33.8062 8.49571 33.9919 9.51794 33.8062 10.3624C33.4348 12.2291 31.3461 14.6736 30.1856 14.6736C29.3502 14.6736 29.443 14.4514 30.9283 12.8958C33.4348 10.2291 33.2028 8.62906 29.7679 5.07345L28.0505 3.20675L26.1938 5.07345C22.8517 8.40683 22.4804 10.3624 24.7085 12.9847C25.8225 14.2736 25.9616 14.6291 25.4047 14.8514C24.5691 15.1625 22.5268 12.4069 22.1091 10.4068C21.7377 8.62906 22.7589 6.71791 25.7296 3.74008L28.0505 1.3845L30.2785 3.78453C31.5317 5.11789 32.8779 6.80679 33.342 7.60681ZM88.2997 8.00681C88.6247 8.71794 88.7639 9.78462 88.5782 10.3624C88.1141 12.1847 86.211 14.4514 85.0505 14.5847C83.983 14.7625 84.0293 14.6736 85.6539 12.9402C88.2069 10.2291 87.9748 8.62906 84.5399 5.029L82.7762 3.1623L80.6409 5.429C77.5774 8.71794 77.3454 10.5846 79.7126 13.2513C80.6874 14.3625 80.7338 14.6291 80.1768 14.8514C79.2485 15.1625 76.6955 11.4291 76.6955 9.82906C76.6955 8.40683 77.8095 6.67346 80.5945 3.69564L82.7762 1.3845L85.2362 4.00676C86.6288 5.47345 87.9748 7.25125 88.2997 8.00681ZM-32.3845 4.89566C-31.3634 5.51789 -32.1524 5.91791 -33.2664 5.34012C-34.6126 4.67343 -36.7478 5.65123 -36.9334 7.02902C-37.1191 8.22904 -37.9546 8.36238 -37.9546 7.16237C-37.9546 5.29566 -34.2411 3.78453 -32.3845 4.89566ZM-23.1011 9.34017C-23.1011 10.3624 -24.0295 12.4513 -24.4936 12.4513C-24.6793 12.4513 -24.9579 12.0513 -25.097 11.5624C-25.2827 10.8957 -25.7469 10.6735 -26.8145 10.6735C-27.8821 10.6735 -28.3463 10.8957 -28.5319 11.5624C-28.8569 12.6736 -29.4138 12.718 -30.0637 11.6069C-30.9921 9.91796 -30.5743 8.49571 -28.6247 6.45124L-26.7216 4.49566L-24.9114 6.49568C-23.9367 7.60681 -23.1011 8.89571 -23.1011 9.34017ZM-16.8348 5.56233C-15.6745 6.62902 -15.3031 8.00681 -16.0921 8.00681C-16.3242 8.00681 -16.6027 7.56237 -16.6955 7.02902C-16.8813 5.65123 -19.0163 4.67343 -20.3625 5.34012C-21.4765 5.91791 -22.2656 5.51789 -21.2444 4.89566C-19.9912 4.1401 -17.9953 4.40677 -16.8348 5.56233ZM22.3876 4.89566C23.3623 5.47345 22.6197 5.91791 21.552 5.38456C20.2059 4.67343 18.3028 5.47345 17.9315 6.89569C17.6066 8.1846 16.8175 8.40683 16.8175 7.16237C16.8175 5.29566 20.5309 3.78453 22.3876 4.89566ZM29.5821 6.09568C31.5317 8.14015 31.9495 9.38462 31.2068 11.118C30.557 12.6736 29.9999 12.8069 29.6751 11.5624C29.4893 10.8957 29.0252 10.6735 27.9577 10.6735C26.89 10.6735 26.4259 10.8957 26.2402 11.5624C25.9153 12.6736 25.3582 12.718 24.7085 11.6069C23.8729 10.0513 24.1979 8.71794 26.0081 6.58458C26.9365 5.429 27.7719 4.49566 27.8184 4.45122C27.9112 4.45122 28.7003 5.20677 29.5821 6.09568ZM37.8908 5.38456C38.5408 5.87345 39.0977 6.67346 39.0977 7.16237C39.0977 8.36238 38.2621 8.22904 38.0765 7.02902C37.8909 5.65123 35.7556 4.67343 34.4096 5.34012C33.2956 5.91791 32.5064 5.51789 33.5276 4.89566C34.6881 4.18454 36.5912 4.40677 37.8908 5.38456ZM77.1597 4.89566C78.1808 5.51789 77.3917 5.91791 76.2777 5.34012C74.9317 4.67343 72.7965 5.65123 72.6109 7.02902C72.4252 8.22904 71.5897 8.36238 71.5897 7.16237C71.5897 5.29566 75.303 3.78453 77.1597 4.89566ZM86.2574 8.80683C86.536 9.82906 85.7004 12.4513 85.0505 12.4513C84.8649 12.4513 84.5864 12.0513 84.4471 11.518C84.2615 10.8069 83.8902 10.6291 82.6833 10.7624C81.4765 10.8513 81.0587 11.1624 80.8731 12.0069L80.5945 13.0736L79.8054 12.0069C78.5057 10.1846 78.7842 8.62906 80.9194 6.45124L82.869 4.45122L84.4008 6.09568C85.2827 7.02902 86.1182 8.22904 86.2574 8.80683ZM92.7093 5.56233C93.8698 6.62902 94.2411 8.00681 93.4521 8.00681C93.2199 8.00681 92.9415 7.56237 92.8486 7.02902C92.663 5.65123 90.5278 4.67343 89.1816 5.34012C88.0676 5.91791 87.2786 5.51789 88.2997 4.89566C89.5531 4.1401 91.549 4.40677 92.7093 5.56233ZM-33.2201 7.51792C-33.2664 8.36238 -33.4057 9.16239 -33.4986 9.25129C-33.777 9.4735 -36.562 8.05127 -36.562 7.6957C-36.562 6.98458 -34.891 5.74012 -34.0555 5.87345C-33.2664 5.96235 -33.1273 6.27346 -33.2201 7.51792ZM-17.9025 6.54014C-16.8348 7.42904 -16.8348 8.27348 -17.856 8.5846C-18.3201 8.6735 -19.0164 8.94017 -19.4341 9.0735C-19.9912 9.34017 -20.2697 9.0735 -20.5018 8.00681C-20.641 7.20681 -20.641 6.40679 -20.5018 6.18456C-20.1304 5.56233 -18.8307 5.69568 -17.9025 6.54014ZM21.552 7.51792C21.5057 8.36238 21.3664 9.16239 21.2736 9.25129C20.9951 9.4735 18.21 8.05127 18.21 7.6957C18.21 6.98458 19.8811 5.74012 20.7165 5.87345C21.5057 5.96235 21.6449 6.27346 21.552 7.51792ZM36.8697 6.54014C37.3339 6.94014 37.7052 7.42904 37.7052 7.60681C37.7052 7.91792 35.2915 9.34017 34.7809 9.34017C34.4096 9.34017 33.9919 6.58458 34.2703 6.18456C34.6416 5.56233 35.9413 5.69568 36.8697 6.54014ZM76.5098 6.36235C76.6491 6.71791 76.5098 7.51792 76.2777 8.1846C75.7671 9.34017 75.7671 9.34017 74.3746 8.6735C72.75 7.87348 72.7037 7.6957 73.7712 6.58458C74.6531 5.65123 76.1385 5.51789 76.5098 6.36235ZM91.6418 6.54014C92.7093 7.42904 92.7093 8.27348 91.6881 8.5846C91.224 8.6735 90.5278 8.94017 90.11 9.0735C89.5531 9.34017 89.2745 9.0735 89.0425 8.00681C88.9032 7.20681 88.9032 6.40679 89.0425 6.18456C89.4138 5.56233 90.7134 5.69568 91.6418 6.54014ZM-9.26885 12.1402C-9.4081 14.1847 -9.87227 16.4514 -10.2436 17.207C-11.4504 19.4293 -16.2314 20.807 -17.531 19.3403C-18.0416 18.7625 -17.856 18.6737 -16.2314 18.6737C-12.1003 18.6737 -10.5685 16.9403 -10.5685 12.2291V9.78462H-13.1215C-16.0921 9.78462 -18.6451 10.6735 -19.3413 11.918C-19.6198 12.4513 -19.8519 13.6513 -19.8519 14.6736C-19.8519 15.9625 -20.0375 16.4514 -20.409 16.3624C-21.2909 16.0514 -21.3837 14.8069 -20.7338 12.5847C-19.8984 9.5624 -17.7632 8.62906 -11.7754 8.49571L-9.03676 8.45127L-9.26885 12.1402ZM19.4168 9.4735C20.2059 9.87352 21.1343 10.8069 21.4592 11.5624C22.2483 13.3847 22.2948 16.0958 21.5985 16.318C21.1808 16.4514 20.9951 16.007 20.9951 14.8958C20.9951 11.3402 18.9527 9.78462 14.2182 9.78462H11.7117V12.2291C11.7117 15.0736 12.64 17.518 13.9397 18.1848C14.4967 18.4515 15.75 18.6737 16.8175 18.6737C18.1637 18.6737 18.6743 18.8514 18.5814 19.2069C17.978 20.8515 12.5936 19.4293 11.4796 17.3403C11.1082 16.6291 10.6441 14.318 10.5048 12.1847L10.1799 8.31793L14.0789 8.54016C16.3997 8.6735 18.5814 9.02906 19.4168 9.4735ZM45.5033 12.1402C45.2247 16.4514 44.3428 18.3181 42.3469 19.1181C40.4438 19.8737 37.6124 19.918 37.3803 19.2069C37.2411 18.8514 37.7052 18.6737 38.8656 18.6737C42.5791 18.6737 44.2035 16.7181 44.2035 12.1847V9.78462H41.6507C38.6799 9.78462 36.1271 10.6735 35.4307 11.918C35.1522 12.4513 34.9202 13.6513 34.9202 14.6736C34.9202 15.9625 34.7344 16.4514 34.3632 16.3624C32.785 15.8735 34.0847 10.718 35.9878 9.69573C37.1481 9.0735 40.2117 8.5846 43.4609 8.49571L45.7353 8.45127L45.5033 12.1402ZM73.9568 9.29573C75.5815 10.0513 76.742 12.0513 76.8348 14.318C76.9739 17.0292 75.9529 16.9403 75.6743 14.2291C75.303 10.8957 74.3746 10.1402 69.9186 9.87352L66.3445 9.65129L66.5767 13.118C66.8086 16.2292 66.9479 16.7181 68.062 17.6514C68.9903 18.407 69.8722 18.6737 71.404 18.6737C72.8893 18.6737 73.4462 18.8514 73.3534 19.2069C72.75 20.8958 67.3657 19.4293 66.2052 17.2958C65.8339 16.5403 65.3698 14.2291 65.2305 12.1402L64.9521 8.31793L68.851 8.54016C70.9862 8.6735 73.3071 9.02906 73.9568 9.29573ZM-11.5897 13.3847C-11.8218 16.318 -12.8894 17.7847 -14.7925 17.7847C-15.4887 17.7847 -15.628 17.5625 -15.3958 16.7181C-15.2566 16.0514 -15.4423 15.4291 -15.9064 14.9402C-16.7885 14.0958 -17.2526 14.0513 -18.5059 14.718C-19.3413 15.118 -19.3878 15.0736 -19.1093 13.918C-18.5059 11.4735 -17.2526 10.7624 -13.6321 10.718L-11.404 10.6735L-11.5897 13.3847ZM19.1849 11.9624C19.6955 12.5402 20.0667 13.3847 20.0667 13.8291C20.0667 14.4958 19.8346 14.6291 18.9527 14.4069C18.2565 14.2736 17.6066 14.4514 17.096 14.8958C16.2141 15.7403 16.1678 16.1847 16.864 17.3847C17.2816 18.1848 17.2353 18.2293 16.0285 17.9626C13.754 17.4737 12.9649 16.318 12.7328 13.2958L12.5007 10.5402L15.425 10.7624C17.7459 10.9402 18.535 11.1624 19.1849 11.9624ZM43.1825 13.3847C42.9503 16.318 41.8827 17.7847 39.9796 17.7847C39.2833 17.7847 39.1442 17.5625 39.3762 16.7181C39.7476 15.2514 38.4479 14.0958 36.7768 14.4514C35.57 14.718 35.4772 14.6291 35.7093 13.6958C36.2662 11.518 37.6587 10.7624 41.1401 10.718L43.3681 10.6735L43.1825 13.3847ZM73.9568 11.9624C74.4674 12.5402 74.8389 13.3847 74.8389 13.8291C74.8389 14.4958 74.6068 14.6291 73.7249 14.4069C73.0286 14.2736 72.3787 14.4514 71.8681 14.8958C70.9862 15.7403 70.9398 16.1847 71.5897 17.3847C72.1931 18.407 72.0538 18.407 69.9651 17.5625C68.1083 16.8513 67.4121 15.5181 67.4121 12.5847V10.5846L70.2435 10.7624C72.518 10.9402 73.3071 11.1624 73.9568 11.9624ZM-5.97323 15.8292C-4.95206 17.0736 -4.71998 18.8959 -5.46265 20.007C-6.06607 20.9403 -6.53024 20.2292 -5.97323 19.2069C-5.27699 17.9626 -6.06607 16.0958 -7.55142 15.5625C-8.94393 15.0736 -9.03677 14.6736 -7.82991 14.6736C-7.31933 14.6736 -6.48382 15.2069 -5.97323 15.8292ZM9.85498 14.8958C9.85498 15.0291 9.34438 15.3403 8.69455 15.5625C7.2092 16.0958 6.42011 17.9626 7.11636 19.2069C7.67337 20.1847 7.39488 20.7181 6.6522 20.2292C5.81669 19.7403 6.09519 17.0736 7.11636 15.8292C7.90546 14.8514 9.85498 14.1847 9.85498 14.8958ZM48.7989 15.8292C49.8201 17.0736 50.0521 18.8959 49.3095 20.007C48.7061 20.9403 48.2883 20.2737 48.7524 19.0736C49.3558 17.6514 48.6596 16.0958 47.2208 15.5625C45.8281 15.0736 45.7353 14.6736 46.9421 14.6736C47.4527 14.6736 48.2883 15.2069 48.7989 15.8292ZM64.395 15.118C64.2558 15.3403 63.7915 15.5625 63.4666 15.5625C63.0953 15.5625 62.4456 16.0514 62.0278 16.6736C61.3779 17.6069 61.3315 18.0069 61.7956 18.9847C62.3991 20.2292 62.0741 21.0293 61.3779 20.007C60.171 18.2293 61.7956 14.6736 63.7452 14.6736C64.2558 14.6736 64.5343 14.8514 64.395 15.118ZM-22.1728 16.4514C-21.2909 16.8958 -19.9447 17.8736 -19.2021 18.6292C-17.9025 19.918 -15.9993 24.3181 -16.417 24.9848C-16.9741 25.8293 -17.4847 25.207 -17.8095 23.3403C-17.9953 22.0958 -18.3201 21.3404 -18.7379 21.3404C-19.1093 21.3404 -19.2485 21.0737 -19.0628 20.6293C-18.8772 20.1847 -19.1093 19.8737 -19.7591 19.6958C-20.2697 19.607 -20.8268 19.0736 -20.9196 18.5847C-21.1052 17.9626 -21.4302 17.7404 -21.8943 17.9181C-22.3584 18.0958 -22.637 17.9626 -22.637 17.5625C-22.637 16.9403 -23.1475 16.8069 -26.1182 16.7181C-26.6288 16.6736 -27.2787 16.5403 -27.6035 16.318C-27.8821 16.1402 -28.2534 16.1847 -28.4391 16.4514C-28.5784 16.6736 -29.2281 16.8958 -29.878 16.8958C-30.5278 16.8958 -30.9921 17.1625 -30.9921 17.5625C-30.9921 17.9626 -31.2705 18.0958 -31.7346 17.9181C-32.1989 17.7404 -32.5237 17.9626 -32.7095 18.5847C-32.8023 19.0736 -33.3129 19.5625 -33.8235 19.6958C-34.2876 19.8292 -34.7054 20.2292 -34.7054 20.6293C-34.7054 21.0292 -34.891 21.3404 -35.1232 21.3404C-35.3552 21.3404 -35.6801 22.2293 -35.8194 23.3403C-36.0516 24.7181 -36.3764 25.3404 -36.8406 25.3404C-37.3975 25.3404 -37.4904 25.0293 -37.2584 23.8737C-35.6801 17.0292 -28.3926 13.3847 -22.1728 16.4514ZM32.5064 16.4069C33.4348 16.8513 34.8273 17.8736 35.57 18.6292C36.8697 19.918 38.7727 24.3181 38.355 24.9848C37.8909 25.6516 37.2411 25.3404 37.2411 24.4959C37.2411 24.007 37.0553 23.5181 36.8233 23.3848C36.5912 23.2515 36.4984 22.7182 36.6375 22.2293C36.8233 21.6069 36.6375 21.3404 36.1271 21.3404C35.6628 21.3404 35.5237 21.0737 35.7093 20.6293C35.895 20.1847 35.6628 19.8737 35.0131 19.6958C34.5025 19.607 33.9454 19.0736 33.8526 18.5847C33.6669 17.9626 33.342 17.7404 32.8779 17.9181C32.4136 18.0958 32.1351 17.9626 32.1351 17.5625C32.1351 16.9403 31.6245 16.8069 28.6539 16.7181C28.1433 16.6736 27.4934 16.5403 27.2149 16.3624C26.89 16.1847 26.4259 16.2737 26.1474 16.6291C25.8225 16.9848 25.1726 17.1625 24.7085 17.0292C24.0585 16.8513 23.7801 17.0292 23.7801 17.518C23.7801 17.9626 23.5016 18.0958 23.0373 17.9181C22.5732 17.7404 22.2483 17.9626 22.0626 18.5847C21.9698 19.0736 21.4592 19.5625 20.9486 19.6958C20.4845 19.8292 20.0667 20.2292 20.0667 20.6293C20.0667 21.0292 19.8811 21.3404 19.649 21.3404C19.4168 21.3404 19.092 22.2293 18.9527 23.3403C18.7206 24.7181 18.3956 25.3404 17.9315 25.3404C17.3746 25.3404 17.2816 25.0293 17.5138 23.8737C19.092 17.0292 26.3794 13.3847 32.5064 16.4069ZM87.3714 16.4514C90.2493 17.8736 92.4774 20.7626 93.0808 23.8737C93.3128 24.9848 93.2199 25.3404 92.7093 25.3404C92.2916 25.3404 91.9668 24.6293 91.7346 23.3403C91.549 22.0958 91.224 21.3404 90.8063 21.3404C90.435 21.3404 90.2956 21.0737 90.4813 20.6293C90.6671 20.1847 90.435 19.8737 89.7851 19.6958C89.2745 19.607 88.7175 19.0736 88.6247 18.5847C88.4391 17.9626 88.1141 17.7404 87.65 17.9181C87.1857 18.0958 86.9073 17.9626 86.9073 17.5625C86.9073 17.1625 86.443 16.8958 85.7933 16.8958C85.1434 16.8958 84.4936 16.6736 84.3543 16.4514C84.1223 16.0958 83.8437 16.1402 83.3796 16.4959C82.869 16.8958 82.5905 16.8958 82.0799 16.4959C81.6157 16.1402 81.3372 16.0958 81.1051 16.4514C80.9659 16.6736 80.316 16.8958 79.6662 16.8958C78.97 16.8958 78.5522 17.1625 78.5522 17.6069C78.5522 17.9626 78.3201 18.1403 78.088 18.0069C77.4845 17.6514 76.1385 18.6292 76.4633 19.1181C76.6027 19.2959 76.2314 19.5625 75.7208 19.6958C75.0245 19.8737 74.7924 20.1847 74.978 20.6293C75.1637 21.0737 75.0245 21.3404 74.6068 21.3404C74.189 21.3404 73.9105 21.7848 73.9105 22.407C73.9105 23.0293 73.7249 23.607 73.4462 23.7848C73.2143 23.9182 73.1214 24.3181 73.3071 24.6738C73.4462 25.1182 73.2606 25.3404 72.75 25.3404C72.1003 25.3404 72.0538 25.0737 72.2859 23.8737C73.864 17.0292 81.1516 13.3847 87.3714 16.4514ZM-7.13366 16.7181C-5.60189 18.1403 -6.53024 19.6958 -8.619 19.2959C-10.3364 18.9404 -10.3364 19.0292 -9.4081 17.3403C-8.57259 15.8292 -8.15484 15.6958 -7.13366 16.7181ZM10.6441 17.3847C11.1547 18.6292 11.1082 18.7625 9.99423 19.1626C8.46247 19.6958 7.53412 19.3848 7.53412 18.2736C7.53412 17.2958 8.69455 16.007 9.57647 16.007C9.85498 16.007 10.3656 16.6291 10.6441 17.3847ZM47.6384 16.8513C48.1955 17.4292 48.3346 18.0514 48.149 18.6737C47.8705 19.4736 47.592 19.5625 46.3852 19.2959C44.4356 18.9404 44.4821 18.9847 45.364 17.3847C46.1996 15.7848 46.5709 15.6958 47.6384 16.8513ZM65.4162 17.3847C65.9268 18.6292 65.8803 18.7625 64.7663 19.1626C63.2346 19.6958 62.3062 19.3848 62.3062 18.2736C62.3062 17.2958 63.4666 16.007 64.3486 16.007C64.6271 16.007 65.1377 16.6291 65.4162 17.3847ZM-23.751 19.1626C-21.7086 20.0959 -20.1769 21.9181 -19.6198 24.1404C-19.295 25.2959 -19.3413 25.3849 -20.5946 25.2515C-21.6158 25.1627 -22.1264 24.7181 -22.6834 23.5181C-24.4473 19.8737 -30.203 20.1847 -31.224 24.007C-31.4562 24.8515 -31.8275 25.1182 -32.8487 25.1627C-34.4733 25.207 -34.5661 24.896 -33.3129 22.407C-32.3381 20.4959 -30.8528 19.2514 -28.7175 18.6737C-26.7681 18.0958 -25.8398 18.1848 -23.751 19.1626ZM31.0211 19.1626C33.0635 20.0959 34.5953 21.9181 35.1522 24.1404C35.4772 25.2959 35.4307 25.3849 34.1775 25.2515C33.1563 25.1627 32.6457 24.7181 32.0423 23.4293C31.1139 21.5182 29.443 20.7181 27.0293 21.0737C25.3119 21.3404 23.316 23.0737 23.316 24.3626C23.316 24.896 22.8982 25.1182 21.877 25.1627C20.5773 25.207 20.4845 25.1182 20.763 24.0515C21.3199 21.9626 22.8517 20.0959 24.8476 19.1626C27.3078 18.0069 28.5611 18.0069 31.0211 19.1626ZM86.6751 19.5625C88.1604 20.4514 89.3673 22.1848 89.8779 24.0959C90.1565 25.207 90.0637 25.2959 88.8103 25.207C87.7428 25.1182 87.3714 24.807 86.9073 23.6515C85.5148 19.9625 79.202 20.1404 78.3201 23.9182C78.1344 24.896 77.8095 25.1182 76.6491 25.1627C75.3495 25.207 75.2565 25.1182 75.5351 24.0515C76.0921 21.8293 77.4382 20.2292 79.4806 19.2069C81.8943 18.0069 84.2615 18.1403 86.6751 19.5625ZM-8.01559 20.4069C-7.22649 20.8515 -5.55548 22.1403 -4.30222 23.2959C-2.39912 24.9405 -2.16704 25.2959 -2.95613 25.3404C-3.46671 25.3404 -4.30222 24.896 -4.81282 24.4071C-6.53024 22.496 -9.31526 20.8958 -10.7542 20.8958C-11.6825 20.8958 -12.843 21.3847 -13.9105 22.2293C-14.9781 23.0737 -15.7208 23.3848 -15.9064 23.1181C-16.3707 22.407 -15.4423 21.5626 -13.2143 20.4959C-10.8006 19.3403 -9.77943 19.3403 -8.01559 20.4069ZM15.2393 21.118C16.1213 21.7848 16.8175 22.6737 16.8175 23.2071C16.8175 24.007 16.5854 23.9182 14.9608 22.496C12.2222 20.1404 10.6441 20.2737 7.39488 23.1181C5.90953 24.4071 4.42418 25.3404 3.82076 25.3404C2.89242 25.3404 3.07809 25.0737 4.98119 23.4293C9.90139 19.2514 12.0366 18.7625 15.2393 21.118ZM46.7565 20.3626C47.5456 20.8515 49.2167 22.1403 50.4698 23.2515C52.1873 24.7626 52.5587 25.2959 51.9088 25.3404C51.4447 25.3404 50.0057 24.4516 48.7524 23.3403C45.3175 20.4069 43.3681 20.1847 40.583 22.4515C39.6548 23.1626 39.0514 23.4293 38.8656 23.1181C38.4014 22.407 39.3298 21.5626 41.5579 20.4959C43.9715 19.3403 44.9462 19.3403 46.7565 20.3626ZM70.0114 21.118C70.8934 21.7404 71.5897 22.5847 71.5897 22.9404C71.5897 23.8292 71.2182 23.7404 69.408 22.2293C66.9943 20.1847 65.2768 20.3626 62.1669 23.1181C60.6816 24.4071 59.1963 25.3404 58.5929 25.3404C57.6645 25.3404 57.8502 25.0737 59.7533 23.4293C64.6734 19.2514 66.8086 18.7625 70.0114 21.118ZM-24.2615 22.8959C-22.1728 24.8515 -22.637 25.3404 -26.8145 25.3404C-29.8316 25.3404 -30.5278 25.207 -30.5278 24.6738C-30.5278 23.4738 -28.3463 21.7848 -26.8145 21.7848C-25.9326 21.7848 -24.9579 22.1848 -24.2615 22.8959ZM-7.27292 23.5626C-5.69473 24.896 -5.41623 25.2959 -6.11249 25.3404C-6.62307 25.3404 -7.41217 25.0293 -7.87634 24.5848C-8.66542 23.9182 -8.75825 23.9182 -9.54735 24.5848C-10.6613 25.5626 -10.7542 25.5626 -12.2395 24.1404C-13.4 23.0293 -13.4464 22.9404 -12.6109 22.3625C-11.1255 21.2959 -9.4081 21.6959 -7.27292 23.5626ZM13.7076 22.407C14.7288 23.1626 14.7288 23.3848 13.5683 23.696C13.0578 23.8292 12.64 24.2293 12.64 24.6293C12.64 25.5626 11.2475 25.5182 10.5512 24.5848C9.9478 23.8292 9.90139 23.8292 9.01946 24.5848C8.50888 25.0293 7.62696 25.3404 7.02353 25.2515C6.09518 25.1182 6.23445 24.9405 8.23038 23.4293C10.5976 21.6959 12.2687 21.3847 13.7076 22.407ZM30.5105 22.8959C32.5994 24.8515 32.1351 25.3404 27.9577 25.3404C24.9406 25.3404 24.2442 25.207 24.2442 24.6738C24.2442 23.4738 26.4259 21.7848 27.9577 21.7848C28.8396 21.7848 29.8143 22.1848 30.5105 22.8959ZM47.4992 23.5626C49.0774 24.896 49.3558 25.2959 48.6596 25.3404C48.149 25.3404 47.3599 25.0293 46.8958 24.5848C46.1067 23.9182 46.0138 23.9182 45.2247 24.5848C44.0644 25.5626 43.4144 25.5182 43.136 24.4516C42.9967 23.8737 42.4861 23.5626 41.7898 23.5626L40.7223 23.5181L41.8363 22.6737C43.5538 21.2959 45.2247 21.5626 47.4992 23.5626ZM68.1083 22.3181C69.5009 22.9404 69.5938 23.3848 68.3404 23.696C67.8298 23.8292 67.4121 24.2293 67.4121 24.6293C67.4121 25.5626 66.0196 25.5182 65.3233 24.5848C64.7199 23.8292 64.6734 23.8292 63.7915 24.5848C63.2809 25.0293 62.3991 25.3404 61.7956 25.2515C60.8673 25.1182 61.0066 24.9405 63.0025 23.4293C65.4162 21.6514 66.2052 21.4737 68.1083 22.3181ZM85.2827 22.8959C87.3714 24.8515 86.9073 25.3404 82.7297 25.3404C79.7126 25.3404 79.0163 25.207 79.0163 24.6738C79.0163 23.4738 81.198 21.7848 82.7297 21.7848C83.6117 21.7848 84.5864 22.1848 85.2827 22.8959Z" fill="#FFFFD0"/>
<path d="M26.8437 7.42905C26.6579 7.82906 26.7972 8.45129 27.1685 8.76241C27.6791 9.2513 27.9112 9.2513 28.6539 8.71795C29.3965 8.18462 29.443 8.00684 28.9324 7.38461C28.1433 6.45126 27.215 6.4957 26.8437 7.42905Z" fill="#FFFFD0"/>
<path d="M14.2645 12.2736C13.5682 12.9402 13.5682 13.118 14.218 13.6958C15.0071 14.4514 16.3532 14.1403 16.3532 13.2069C16.3532 12.8514 16.0748 12.318 15.7033 12.0513C15.1928 11.6513 14.8679 11.6958 14.2645 12.2736Z" fill="#FFFFD0"/>
<path d="M40.0264 12.2291C39.2836 13.0735 39.7942 14.318 40.8154 14.1402C41.8366 13.9624 42.1614 12.2291 41.2332 11.8735C40.8618 11.7402 40.3048 11.918 40.0264 12.2291Z" fill="#FFFFD0"/>
</g>
</g>
</g>
<defs>
<clipPath id="clip0_740_1184">
<rect width="56" height="51" fill="white"/>
</clipPath>
</defs>
</svg>
