<svg width="47" height="49" viewBox="0 0 47 49" fill="none" xmlns="http://www.w3.org/2000/svg">
<path d="M41.4802 8.78012C43.3276 10.8321 44.7334 13.242 45.6102 15.8601C46.4916 19.0849 46.4396 22.4937 45.4602 25.6901C43.8202 31.5001 39.7302 36.5401 34.2602 38.6901C31.4446 39.7382 28.3933 39.9837 25.4464 39.3993C22.4994 38.8148 19.7726 37.4234 17.5701 35.3801C13.1101 31.1201 11.4902 23.8101 14.2202 18.5001C16.9502 13.1901 24.0802 10.8201 29.3802 13.8101C30.5373 14.4264 31.5459 15.2881 32.3353 16.3348C33.1247 17.3815 33.6758 18.5881 33.9501 19.8701C34.3901 22.4501 33.0902 25.3001 30.7302 26.0801C30.3002 23.2901 29.6202 20.2101 27.4202 18.4601C24.3002 15.9901 19.3302 17.9701 18.2602 21.7301C17.1902 25.4901 19.6102 29.8901 23.1402 31.6301C24.9006 32.4049 26.829 32.7196 28.7443 32.5446C30.6597 32.3697 32.4992 31.7109 34.0902 30.6301C39.3602 27.2501 41.8402 19.1501 37.9902 13.7601C36.6034 11.9724 34.8554 10.497 32.8602 9.43012C28.9502 7.14012 24.3802 5.58012 20.1402 6.57012C10.0002 8.94012 6.67018 22.0001 8.86018 30.9401C9.78292 34.8855 12.0845 38.3716 15.3502 40.7701C18.9002 43.2801 24.5102 43.9501 28.7802 43.8401C31.6137 43.7693 34.4115 43.1901 37.0402 42.1301C38.7261 41.4743 40.2757 40.5114 41.6102 39.2901C42.0102 38.8801 42.6102 37.8701 43.1802 38.8101C43.7502 39.7501 42.3402 41.1901 41.9102 41.9301C41.0422 43.4282 39.7564 44.641 38.2102 45.4201C36.6687 46.2642 35.0207 46.8965 33.3102 47.3001C31.9261 47.7347 30.5123 48.0689 29.0801 48.3001C27.6873 48.3667 26.2913 48.3031 24.9102 48.1101C17.4102 47.2701 9.58021 45.9401 5.40021 38.9901C2.16706 33.331 0.639016 26.8577 1.00019 20.3501C1.03204 18.0618 1.5466 15.8059 2.5102 13.7301C10.4302 -1.44988 29.3402 -5.39988 41.4802 8.78012Z" fill="#FFFDD0"/>
</svg>
