<svg width="53" height="57" viewBox="0 0 53 57" fill="none" xmlns="http://www.w3.org/2000/svg">
<path d="M32.2101 0.0898438C32.1845 1.12154 32.091 2.15044 31.9301 3.16984C31.7801 4.16984 31.7101 5.23984 31.4801 6.26984C31.2501 7.29984 30.9101 8.26984 30.6801 9.26984C30.4501 10.2698 30.1901 11.3298 30.0101 12.3298C29.8301 13.3298 29.5301 14.3298 29.3501 15.3298C29.1701 16.3298 28.9801 17.3298 28.7901 18.3298C28.6001 19.3298 28.4701 20.4298 28.3801 21.4598C28.1866 22.2858 28.0893 23.1315 28.0901 23.9798C28.2201 24.6698 29.0901 25.0798 29.9801 25.4198C30.7615 25.6725 31.556 25.8828 32.3601 26.0498C33.4801 26.3498 34.5801 26.7198 35.7001 27.0498C36.8201 27.3798 37.9301 27.7298 39.0501 28.0498C40.1701 28.3698 41.1801 28.6598 42.2601 28.9098C43.3401 29.1598 44.4301 29.3698 45.5201 29.5598C46.6101 29.7498 47.8501 29.8798 49.0101 30.0898C50.1701 30.2998 51.3101 30.5498 52.4401 30.8598C52.5746 30.876 52.7024 30.9278 52.8101 31.0098C52.9101 31.1198 52.8901 31.1798 52.8101 31.2698C52.7301 31.3598 52.7201 31.3998 52.6301 31.3998C51.6301 31.3998 50.6301 31.5798 49.6301 31.6398C48.6301 31.6998 47.6301 31.5798 46.6301 31.6398C45.6301 31.6998 44.6301 31.9398 43.6301 31.9998C42.6301 32.0598 41.8401 31.8898 40.8801 31.8898C39.9201 31.8898 39.0301 31.8898 38.1301 31.9798C37.2097 32.0363 36.2979 32.1905 35.4101 32.4398C35.1905 32.5197 34.9942 32.6529 34.8389 32.8275C34.6835 33.002 34.574 33.2125 34.5201 33.4398C34.2001 34.9098 34.8001 36.6398 35.0001 38.0998C35.1401 39.0998 35.2101 40.0398 35.3501 41.0098C35.4901 41.9798 35.7201 42.9298 35.8601 43.8898C36.0301 45.1098 36.2501 46.3198 36.4201 47.5398C36.5356 48.5705 36.7329 49.5904 37.0101 50.5898C37.1401 51.0398 37.2801 51.4898 37.3701 51.9498C37.5801 53.1598 38.0001 54.3198 38.2101 55.5198C38.2606 55.6759 38.2606 55.8438 38.2101 55.9998C38.1201 56.1298 37.7601 56.1398 37.6301 56.0698C37.5001 55.9998 37.4901 55.7398 37.4001 55.6098C36.8501 54.7698 36.2402 53.9698 35.7802 53.0898C35.3202 52.2098 34.9001 51.2998 34.4101 50.4198C33.9201 49.5398 33.3601 48.5298 32.8601 47.5698C32.3601 46.6098 32.0601 45.5698 31.5801 44.5698C31.1001 43.5698 30.4401 42.7298 29.9901 41.7598C29.5401 40.7898 29.2202 39.7598 28.7802 38.7598C28.4202 37.9398 27.9401 37.0198 27.5701 36.0798C27.3107 35.1238 26.8804 34.2226 26.3001 33.4198C26.0101 33.1198 25.6901 34.8798 25.6801 34.9598C25.5701 35.8998 25.5101 36.8398 25.4301 37.7798C25.3501 38.7198 25.4301 39.6798 25.3301 40.6198C25.2301 41.5598 25.1402 42.4998 25.0302 43.4298C24.9202 44.3598 24.7501 45.2998 24.6201 46.2298C24.4488 47.0625 24.3219 47.9037 24.2401 48.7498C24.2401 49.6598 23.9901 50.5598 23.8901 51.4598C23.7901 52.3598 23.8901 53.3098 23.7201 54.2098C23.7201 54.3498 23.4501 54.5598 23.3101 54.5398C23.2501 54.5123 23.1966 54.4721 23.1535 54.4221C23.1104 54.3721 23.0785 54.3133 23.0601 54.2498C22.8696 53.1508 22.8092 52.0331 22.8801 50.9198C22.8734 49.6124 22.7866 48.3066 22.6201 47.0098C22.4201 45.7798 22.3901 44.5298 22.2301 43.2898C22.0701 42.0498 21.7801 40.8198 21.6101 39.5898C21.4401 38.3598 21.3801 37.1698 21.1201 35.9898C20.8629 34.7697 20.4878 33.5775 20.0001 32.4298C19.8707 32.1755 19.6821 31.956 19.4501 31.7898C19.2872 31.6287 19.0978 31.4968 18.8901 31.3998C17.8901 31.0498 16.8901 30.7098 15.8901 30.3998C14.8901 30.0898 13.8901 29.7898 12.8901 29.4998C11.8901 29.2098 10.8201 29.0698 9.80011 28.7898C8.78011 28.5098 7.80011 27.9798 6.80011 27.7098C5.80011 27.4398 4.73014 27.2498 3.71014 26.9698C2.69014 26.6898 1.71015 26.4398 0.650146 26.1498C0.53487 26.1109 0.428559 26.0493 0.337524 25.9685C0.24649 25.8878 0.172552 25.7896 0.120117 25.6798C0.990117 25.0898 3.12013 25.6798 4.26013 25.6798C5.83013 25.6798 7.40014 25.5398 8.96014 25.4998C10.1501 25.4998 11.3402 25.4998 12.5302 25.4998C13.7202 25.4998 14.8901 25.0898 16.0601 24.9398C17.2351 24.7822 18.4003 24.5585 19.5501 24.2698C20.7288 24.083 21.892 23.8089 23.0302 23.4498C23.4702 23.2698 24.0301 21.9098 24.4701 20.6098C24.9101 19.3098 25.1601 18.0598 25.3501 17.6098C25.7701 16.6098 26.2401 15.6098 26.6401 14.6098C27.0401 13.6098 27.4801 12.6098 27.8701 11.5598C28.2601 10.5098 28.5901 9.48984 28.9701 8.45984C29.3501 7.42984 29.8601 6.45984 30.2301 5.45984C30.4401 4.86984 30.5301 3.66984 30.8701 2.58984C31.2101 1.50984 31.6301 0.329844 32.2101 0.0898438Z" fill="#FFFDD0"/>
</svg>
