<svg width="70" height="53" viewBox="0 0 70 53" fill="none" xmlns="http://www.w3.org/2000/svg">
<path d="M65.0602 26.23C63.7302 25.67 62.3702 25.17 61.0602 24.64C59.7502 24.11 58.3902 23.54 57.0602 23.04C55.7302 22.54 54.3501 22.04 52.9901 21.57C51.6301 21.1 50.2401 20.69 48.8701 20.25C47.5001 19.81 46.1602 19.55 44.7802 19.14C45.9402 18.35 47.0601 17.67 48.1501 16.79C49.2401 15.91 50.3102 15.01 51.3102 14.04C52.3102 13.07 53.0002 11.79 53.9102 10.73C54.8202 9.67004 55.7601 8.66004 56.5801 7.53004C57.4001 6.40004 58.3202 5.33004 59.0302 4.13004C59.4871 3.47894 59.6736 2.67588 59.5502 1.89004C59.2002 0.590043 57.4401 0.340043 56.1001 0.470043C54.6509 0.572134 53.2108 0.77597 51.7902 1.08004C49.0414 1.96534 46.3665 3.06539 43.7902 4.37004C42.479 5.00509 41.2097 5.72322 39.9901 6.52004C38.8008 7.36695 37.6776 8.30298 36.6301 9.32004C36.3101 9.63004 35.3301 10.91 34.3301 12.08C33.3301 13.25 32.3901 14.62 32.6901 15.08C32.0634 13.9811 31.3687 12.9224 30.6101 11.91C29.7358 10.9958 28.811 10.1311 27.8401 9.32004C26.937 8.44406 25.9856 7.61944 24.9901 6.85004C23.9901 6.08004 22.9901 5.26004 21.9901 4.57004C20.3801 3.57004 18.4201 2.74004 16.6101 3.40004C16.0311 3.64021 15.5221 4.02282 15.1305 4.51234C14.7389 5.00185 14.4773 5.5824 14.3701 6.20004C13.9029 7.41488 13.6753 8.7087 13.7001 10.01C13.8961 11.192 14.1769 12.3583 14.5402 13.5C14.7974 14.6642 15.1315 15.81 15.5402 16.93C15.9652 18.0481 16.4629 19.137 17.0302 20.19C17.6922 21.2379 18.4238 22.2401 19.2201 23.19C17.9601 23.52 16.5502 23.77 15.3102 24.19C14.0702 24.61 12.8801 25.12 11.6601 25.59C10.4401 26.06 9.26013 26.59 8.07013 27.12C6.88013 27.65 5.63009 28.05 4.47009 28.65C3.06739 29.2936 1.84981 30.2807 0.930115 31.52C0.46059 32.1213 0.205566 32.8622 0.205566 33.625C0.205566 34.3879 0.46059 35.1288 0.930115 35.73C1.84129 36.5435 3.01869 36.9952 4.24011 37C5.67011 37.09 7.11011 37.06 8.55011 37C9.99011 36.94 11.4101 36.78 12.8301 36.61C14.2501 36.44 15.6201 35.94 17.0201 35.61C18.4201 35.28 19.8901 35.28 21.2601 34.86C22.6301 34.44 23.9401 33.86 25.2601 33.28C26.5801 32.7 27.8101 32.28 29.0801 31.62C28.7701 32.75 28.4801 33.73 28.2401 34.88C28.0001 36.03 27.6801 37.19 27.5001 38.35C27.3201 39.51 27.4201 40.72 27.3201 41.89C27.2201 43.06 26.9301 44.23 26.8901 45.41C26.8999 46.6564 27.0849 47.8953 27.4401 49.09C27.517 49.7669 27.7611 50.414 28.1501 50.9731C28.5392 51.5323 29.0612 51.986 29.6691 52.2934C30.2769 52.6008 30.9516 52.7523 31.6326 52.7342C32.3135 52.7162 32.9793 52.5292 33.5701 52.19C34.8804 51.6078 36.0579 50.7639 37.0302 49.71C37.8714 48.7545 38.6277 47.7272 39.2902 46.64C39.9028 45.5342 40.4245 44.3804 40.8501 43.19C41.3407 42.03 41.7386 40.8329 42.0402 39.61C42.3331 38.3843 42.527 37.1369 42.6201 35.88C42.8075 34.6224 42.8912 33.3514 42.8701 32.08C42.618 30.7624 42.2568 29.4679 41.7902 28.21C43.0202 28.71 44.4701 29.21 45.7301 29.6C46.9901 29.99 48.1901 30.66 49.4801 31C50.7701 31.34 52.1102 31.43 53.4202 31.68C54.7302 31.93 56.0401 32.06 57.3601 32.22C58.6801 32.38 59.9802 32.84 61.3002 32.92C62.6202 33 63.9702 33.1 65.3002 33.09C65.9047 33.1406 66.513 33.0644 67.0864 32.8664C67.6598 32.6683 68.1856 32.3528 68.6301 31.94C69.4901 30.94 69.1101 29.47 68.2001 28.41C67.316 27.4733 66.2468 26.7309 65.0602 26.23ZM40.2201 24.32C40.1385 25.0675 39.8682 25.7819 39.4343 26.3959C39.0005 27.01 38.4174 27.5035 37.7401 27.83C36.8107 28.3946 35.7636 28.7368 34.6802 28.83C33.5985 28.9714 32.4986 28.8408 31.4801 28.45C30.4434 28.0729 29.5232 27.4318 28.8102 26.59C28.1183 25.7263 27.6787 24.688 27.5402 23.59C27.3537 22.1781 27.7112 20.7481 28.5402 19.59C29.7202 17.81 31.3801 16.49 33.4801 16.65C34.8174 16.7289 36.1337 17.0192 37.3801 17.51C37.9871 17.7804 38.534 18.1691 38.989 18.6533C39.444 19.1375 39.798 19.7075 40.0302 20.33C40.5121 21.6069 40.5785 23.0032 40.2201 24.32Z" fill="#FFFDD0"/>
</svg>
