<svg width="53" height="57" viewBox="0 0 53 57" fill="none" xmlns="http://www.w3.org/2000/svg">
<path d="M32.2199 0.0898438C32.1943 1.12154 32.1007 2.15044 31.9399 3.16984C31.7899 4.16984 31.7199 5.23984 31.4999 6.26984C31.2799 7.29984 30.9299 8.26984 30.6899 9.26984C30.4499 10.2698 30.2099 11.3298 30.0199 12.3298C29.8299 13.3298 29.5399 14.3298 29.3599 15.3298C29.1799 16.3298 28.9899 17.3298 28.8099 18.3298C28.618 19.3652 28.4811 20.41 28.3999 21.4598C28.203 22.2855 28.1023 23.1311 28.0999 23.9798C28.2299 24.6698 29.0999 25.0798 29.9899 25.4198C30.7717 25.6712 31.5661 25.8815 32.3699 26.0498C33.4899 26.3498 34.5899 26.7198 35.7199 27.0498C36.8499 27.3798 37.9399 27.7298 39.0599 28.0498C40.1799 28.3698 41.1899 28.6598 42.2699 28.9098C43.3499 29.1598 44.4399 29.3698 45.5299 29.5598C46.6199 29.7498 47.8599 29.8798 49.0199 30.0898C50.1799 30.2998 51.3199 30.5498 52.4499 30.8598C52.5844 30.876 52.7121 30.9278 52.8199 31.0098C52.9199 31.1198 52.8999 31.1798 52.8199 31.2698C52.7399 31.3598 52.7299 31.3998 52.6399 31.3998C51.6399 31.3998 50.6399 31.5798 49.6399 31.6398C48.6399 31.6998 47.6399 31.5798 46.6399 31.6398C45.6399 31.6998 44.6399 31.9398 43.6399 31.9998C42.6399 32.0598 41.8499 31.8898 40.8999 31.8898C39.9499 31.8898 39.0399 31.8898 38.1399 31.9798C37.2195 32.0363 36.3077 32.1905 35.4199 32.4398C35.2003 32.5197 35.004 32.6529 34.8486 32.8275C34.6933 33.002 34.5838 33.2125 34.5299 33.4398C34.2099 34.9098 34.8099 36.6398 35.0199 38.0998C35.1499 39.0998 35.2299 40.0398 35.3599 41.0098C35.4899 41.9798 35.7399 42.9298 35.8699 43.8898C36.0399 45.1098 36.2599 46.3198 36.4299 47.5398C36.5454 48.5705 36.7427 49.5904 37.0199 50.5898C37.169 51.035 37.2893 51.4892 37.3799 51.9498C37.5899 53.1598 38.0099 54.3198 38.2199 55.5198C38.2598 55.6808 38.2421 55.8506 38.1699 55.9998C38.0799 56.1298 37.7299 56.1398 37.5899 56.0698C37.4499 55.9998 37.4499 55.7398 37.3599 55.6098C36.8099 54.7698 36.2099 53.9698 35.7399 53.0898C35.2699 52.2098 34.8599 51.2998 34.3799 50.4198C33.8999 49.5398 33.3199 48.5298 32.8199 47.5698C32.3199 46.6098 32.0199 45.5698 31.5399 44.5698C31.0599 43.5698 30.4099 42.7298 29.9499 41.7598C29.4899 40.7898 29.1799 39.7598 28.7399 38.7598C28.3799 37.9398 27.9099 37.0198 27.5299 36.0798C27.2705 35.1238 26.8402 34.2226 26.2599 33.4198C25.9699 33.1198 25.6499 34.8798 25.6399 34.9598C25.5399 35.8998 25.4799 36.8398 25.3999 37.7798C25.3199 38.7198 25.3999 39.6798 25.2999 40.6198C25.1999 41.5598 25.1099 42.4998 24.9899 43.4298C24.8699 44.3598 24.7199 45.2998 24.5899 46.2298C24.4153 47.0623 24.2851 47.9035 24.1999 48.7498C24.1999 49.6598 23.9499 50.5598 23.8499 51.4598C23.7499 52.3598 23.8499 53.3098 23.6799 54.2098C23.6799 54.3498 23.4199 54.5598 23.2699 54.5398C23.2101 54.5135 23.1572 54.4736 23.1156 54.4232C23.0739 54.3729 23.0446 54.3135 23.0299 54.2498C22.8295 53.1519 22.769 52.033 22.8499 50.9198C22.8432 49.6124 22.7563 48.3066 22.5899 47.0098C22.3899 45.7798 22.3499 44.5298 22.1899 43.2898C22.0299 42.0498 21.7499 40.8198 21.5799 39.5898C21.4099 38.3598 21.3399 37.1698 21.0899 35.9898C20.8422 34.7708 20.4772 33.5786 19.9999 32.4298C19.8705 32.1755 19.6819 31.956 19.4499 31.7898C19.2869 31.6287 19.0975 31.4968 18.8899 31.3998C17.8899 31.0498 16.8899 30.7098 15.8899 30.3998C14.8899 30.0898 13.8899 29.7898 12.8899 29.4998C11.8899 29.2098 10.8199 29.0698 9.79989 28.7898C8.77989 28.5098 7.79989 27.9798 6.79989 27.7098C5.79989 27.4398 4.73989 27.2498 3.71989 26.9698C2.69989 26.6898 1.66989 26.4398 0.649887 26.1498C0.421889 26.067 0.235284 25.8983 0.129883 25.6798C0.989883 25.0898 3.12988 25.6798 4.26988 25.6798C5.82988 25.6798 7.39988 25.5398 8.95988 25.4998C10.1499 25.4998 11.3499 25.4998 12.5399 25.4998C13.7299 25.4998 14.8899 25.0898 16.0599 24.9398C17.235 24.7831 18.4002 24.5594 19.5499 24.2698C20.7288 24.0841 21.8921 23.81 23.0299 23.4498C23.4699 23.2698 24.0299 21.9098 24.4699 20.6098C24.9099 19.3098 25.1699 18.0598 25.3499 17.6098C25.7699 16.6098 26.2399 15.6098 26.6499 14.6098C27.0599 13.6098 27.4799 12.6098 27.8799 11.5598C28.2799 10.5098 28.5899 9.48984 28.9799 8.45984C29.3699 7.42984 29.8599 6.45984 30.2299 5.45984C30.4399 4.86984 30.5399 3.66984 30.8799 2.58984C31.2199 1.50984 31.6399 0.329844 32.2199 0.0898438Z" fill="#FFFDD0"/>
</svg>
