<svg width="99" height="41" viewBox="0 0 99 41" fill="none" xmlns="http://www.w3.org/2000/svg">
<path d="M3.17989 36.4398C1.87989 35.9898 0.389867 35.1198 0.409867 33.7398C0.429867 32.3598 1.67981 31.5198 2.84981 31.0098C4.26981 30.3998 5.84979 30.2498 7.32979 29.7798C8.77983 29.2624 10.2551 28.8185 11.7498 28.4498C13.2598 28.1298 14.7498 27.9798 16.3198 27.8098C17.8898 27.6398 19.3799 27.1998 20.9199 27.1798C22.4599 27.1598 24.2299 27.4098 25.7699 27.5498C25.1162 26.8239 24.681 25.928 24.5147 24.9654C24.3484 24.0029 24.4576 23.0129 24.8298 22.1098C25.2265 21.2356 25.825 20.468 26.576 19.8701C27.327 19.2721 28.2091 18.8607 29.1499 18.6698C30.1094 18.4793 31.0979 18.4876 32.0542 18.694C33.0104 18.9004 33.9142 19.3005 34.7098 19.8698C36.2594 20.9947 37.392 22.602 37.9299 24.4398C38.3699 22.9598 38.5199 21.6598 39.0399 20.1998C39.5599 18.7398 40.5099 17.4398 41.1599 16.0398C41.8335 14.663 42.5882 13.3273 43.4199 12.0398C44.1828 10.6971 45.0451 9.41355 45.9998 8.19977C46.9409 6.97021 47.9956 5.83187 49.1499 4.79977C50.4011 3.87305 51.7409 3.07248 53.1499 2.40977C54.4864 1.61314 55.9131 0.978669 57.3999 0.519771C58.9298 0.166637 60.502 0.0319663 62.0698 0.119772C63.7692 0.324896 65.424 0.804464 66.9698 1.53977C68.5363 2.16774 69.9942 3.0384 71.2899 4.11977C72.6027 5.18449 73.7311 6.45821 74.6298 7.88977C75.5158 9.3324 76.161 10.9097 76.5399 12.5598C76.9062 14.2165 77.0141 15.92 76.8598 17.6098C76.6733 19.2876 76.2104 20.9231 75.4898 22.4498C75.8598 21.6298 81.2798 22.3698 82.0998 22.4498C82.9198 22.5298 84.6798 22.1398 86.0998 22.4498C87.5198 22.7598 88.7199 23.5998 88.4199 25.0498C88.2399 25.9398 86.9398 29.5398 85.5898 29.1398C86.8561 29.4437 88.1588 29.5682 89.4598 29.5098C90.7398 29.5098 92.0798 29.0698 93.3398 29.2798C94.6378 29.5377 95.839 30.1504 96.8099 31.0498C97.3148 31.4932 97.6968 32.0592 97.9193 32.6933C98.1417 33.3274 98.197 34.0081 98.0798 34.6698C97.6498 36.3598 95.6898 37.2398 94.0798 37.8598C92.4294 38.4325 90.7285 38.8477 88.9998 39.0998C87.2822 39.3884 85.541 39.5123 83.7999 39.4698C82.071 39.4497 80.3448 39.3295 78.6298 39.1098C76.9098 38.8898 75.1898 38.5598 73.4698 38.3998C71.9698 38.2598 70.4698 38.6798 68.9398 38.6498C67.4098 38.6198 65.9398 38.5698 64.4598 38.6498C62.9798 38.7298 61.4598 38.6498 59.9598 38.7698C58.4598 38.8898 56.9598 39.1298 55.4898 39.2798C54.0198 39.4298 52.4898 39.2798 50.9798 39.3898C49.4698 39.4998 47.9798 39.7198 46.4998 39.8198C45.0198 39.9198 43.4999 40.0898 42.0199 40.1298C40.5399 40.1698 39.0199 40.3698 37.5199 40.2998C35.8077 40.2276 34.1014 40.054 32.4099 39.7798C30.7099 39.5198 28.9998 39.3298 27.3198 39.0698C25.6692 38.7059 24.0001 38.4321 22.3198 38.2498C20.6698 38.1898 19.0799 38.3798 17.5199 38.3698C15.9599 38.3598 14.2898 38.4498 12.6998 38.3698C11.0978 38.2316 9.50531 38.0012 7.92989 37.6798C6.31591 37.3943 4.72747 36.9796 3.17989 36.4398Z" fill="#FFFDD0"/>
</svg>
