<svg width="46" height="49" viewBox="0 0 46 49" fill="none" xmlns="http://www.w3.org/2000/svg">
<path d="M40.88 8.91982C42.7271 10.9703 44.1298 13.3808 45 15.9998C45.8864 19.224 45.8343 22.6342 44.85 25.8298C43.21 31.6398 39.12 36.6798 33.65 38.8298C30.8353 39.8635 27.7892 40.0967 24.85 39.5035C21.9108 38.9104 19.1935 37.5141 17 35.4698C12.54 31.2098 10.92 23.8998 13.66 18.5898C16.4 13.2798 23.51 10.9098 28.81 13.8998C29.966 14.5237 30.9715 15.393 31.7558 16.4468C32.5402 17.5006 33.0843 18.7133 33.35 19.9998C33.79 22.5798 32.49 25.4298 30.13 26.2098C29.7 23.4198 29.02 20.3398 26.82 18.5898C23.7 16.1198 18.73 18.0998 17.66 21.8598C16.59 25.6198 19 29.9998 22.54 31.7198C24.3069 32.5036 26.2448 32.8232 28.1698 32.6482C30.0949 32.4732 31.9433 31.8094 33.54 30.7198C38.81 27.3398 41.29 19.2398 37.44 13.8498C36.0532 12.0621 34.3052 10.5867 32.31 9.51982C28.4 7.22983 23.84 5.66982 19.59 6.65982C9.34998 9.07982 6.06997 22.1598 8.25997 31.0798C9.18272 35.0252 11.4843 38.5113 14.75 40.9098C18.3 43.4198 23.91 44.0898 28.18 43.9798C31.0135 43.909 33.8112 43.3298 36.44 42.2698C38.1223 41.6129 39.6684 40.65 41 39.4298C41.42 38.9998 42 37.9998 42.58 38.9998C43.16 39.9998 41.74 41.3798 41.31 42.1198C40.446 43.6176 39.1635 44.8306 37.62 45.6098C36.0751 46.4539 34.4236 47.0863 32.71 47.4898C31.3261 47.9255 29.9124 48.2597 28.48 48.4898C27.0871 48.5564 25.691 48.4928 24.31 48.2998C16.81 47.4598 8.97997 46.1298 4.79997 39.1798C1.56198 33.5226 0.0336247 27.0479 0.399975 20.5398C0.423532 18.2516 0.93491 15.9947 1.89997 13.9198C9.82997 -1.31017 28.74 -5.26018 40.88 8.91982Z" fill="#FFFDD0"/>
</svg>
