<svg width="62" height="54" viewBox="0 0 62 54" fill="none" xmlns="http://www.w3.org/2000/svg">
<path d="M61.7699 29.3699C61.6613 29.0659 61.5275 28.7716 61.3699 28.4899C60.9811 27.9554 60.5201 27.4775 59.9999 27.0699C58.9397 26.1741 57.7621 25.4272 56.4999 24.8499C55.7699 24.4799 55.0199 24.1699 54.2699 23.8499C53.3735 23.4086 52.5312 22.865 51.7599 22.2299C50.9734 21.6507 50.2962 20.9362 49.7599 20.1199C49.1725 19.3204 48.8255 18.3698 48.7599 17.3799C48.7196 16.4838 48.8485 15.5882 49.1399 14.7399C49.4822 13.9122 49.9077 13.1215 50.4099 12.3799C50.8987 11.6049 51.4295 10.8571 51.9999 10.1399C52.5211 9.43013 53.0961 8.76149 53.7198 8.13989C53.0604 8.26026 52.388 8.29388 51.7198 8.23989C50.4599 7.9999 49.7199 6.4999 48.4499 6.3499C47.6064 6.24798 46.7508 6.32638 45.9399 6.5799C45.1517 6.87342 44.4027 7.26303 43.7099 7.73989C42.823 8.3285 41.9746 8.97314 41.1699 9.6699C40.3844 10.3804 39.6399 11.135 38.9399 11.9299C38.2029 12.6418 37.5083 13.3964 36.8599 14.1899C36.2299 13.5899 35.6199 13.1399 34.9999 12.5099C34.3799 11.8799 33.8999 11.1399 33.3199 10.5099C32.7399 9.8799 32.1299 9.2199 31.6099 8.5099C31.0833 7.80508 30.5928 7.07415 30.1399 6.31989C29.6467 5.57253 29.1959 4.79797 28.7899 3.99989C28.4399 3.17989 28.3799 2.23989 28.0199 1.41989C27.9614 1.33831 27.8827 1.2733 27.7916 1.23124C27.7004 1.18917 27.5999 1.17148 27.4999 1.1799C27.3299 1.1799 27.2999 1.35989 27.2499 1.52989C26.9352 2.44603 26.7895 3.4117 26.8199 4.37989C26.9219 5.34011 27.0889 6.2923 27.3199 7.22989C27.4706 8.17023 27.698 9.09665 27.9999 9.9999C28.3326 10.8819 28.7442 11.732 29.2299 12.5399C28.6799 11.8999 28.2299 11.2199 27.7299 10.5399C27.2299 9.8599 26.7299 9.1899 26.1899 8.5399C25.6499 7.8899 25.1899 7.1899 24.6699 6.5399C23.8624 5.56445 23.108 4.54632 22.4099 3.48989C22.1022 2.9164 21.8285 2.32539 21.5899 1.7199C21.4299 1.3399 21.4098 0.919895 21.2198 0.549895C21.1243 0.396977 20.9742 0.286145 20.7999 0.239895C20.0899 0.139895 20.7399 3.6399 20.7999 4.0199C21.0203 5.30919 21.3276 6.5821 21.7198 7.8299C22.1018 8.57868 22.5293 9.30337 22.9999 9.9999C23.3399 10.7599 23.6499 11.5299 23.9999 12.2699C24.3499 13.0099 24.8599 13.6999 25.2399 14.4499C24.7458 13.5828 24.1734 12.7627 23.5299 11.9999C22.9399 11.1999 22.0999 10.5699 21.5299 9.79989C20.9599 9.02989 20.4099 8.25989 19.8299 7.46989C19.2962 6.70019 18.8532 5.87136 18.5099 4.9999C18.2899 4.48989 18.0999 3.99989 17.8799 3.43989C17.7399 3.09989 17.6999 2.5599 17.4199 2.3099C16.7599 1.7299 16.8399 3.5799 16.8299 3.8399C16.8226 4.50749 16.8493 5.17502 16.9099 5.8399C17.0612 7.19535 17.3357 8.53421 17.7299 9.8399C18.0111 11.1776 18.3956 12.4916 18.8799 13.7699C19.4489 15.0134 20.0969 16.2192 20.8199 17.3799C21.3699 18.2999 21.9299 19.1999 22.5599 20.0699C23.1899 20.9399 23.5599 21.5399 23.9899 22.2199C24.4573 22.9436 24.8398 23.7187 25.1299 24.5299C25.4593 25.3194 25.5831 26.1795 25.4899 27.0299C25.3671 27.8842 25.0488 28.6987 24.5599 29.4099C24.0392 30.0984 23.4458 30.7287 22.7899 31.2899C22.0299 32.0199 21.1999 32.6699 20.3999 33.3699C19.5999 34.0699 19.1499 34.8099 18.3999 35.3699C17.6499 35.9299 16.8099 36.3699 16.0599 36.9799C15.3099 37.5899 14.6999 38.3099 13.9299 38.8699C13.1599 39.4299 12.3499 39.8699 11.5599 40.4299C10.7699 40.9899 9.9899 41.4299 9.2099 41.9099C8.4299 42.3899 7.6499 42.9099 6.8399 43.3599C6.0299 43.8099 5.15988 44.1399 4.30988 44.5099C3.46727 44.8946 2.60236 45.2285 1.71985 45.5099C1.38985 45.6199 1.0699 45.6199 0.899902 45.9299C1.72776 46.0469 2.56497 46.0837 3.3999 46.0399C4.24155 45.914 5.07351 45.7302 5.88989 45.4899C6.72989 45.3099 7.63989 45.4199 8.44989 45.1799C9.25989 44.9399 10.0599 44.5299 10.8399 44.2499C11.6199 43.9699 12.4398 43.7199 13.2198 43.3899C13.9998 43.0599 14.7699 42.7099 15.5199 42.3299C16.2699 41.9499 17.0099 41.5299 17.7299 41.0899C18.4499 40.6499 19.0699 40.0899 19.7299 39.5599C18.9499 40.1299 18.2099 40.7499 17.4499 41.3499C16.6899 41.9499 15.8699 42.4699 15.1299 43.0999C14.3899 43.7299 13.7999 44.5199 13.1299 45.1699C12.4599 45.8199 11.8999 46.5099 11.2599 47.1699C10.6199 47.8299 9.8199 48.3299 9.1499 48.9399C8.53042 49.6135 7.8359 50.2141 7.0799 50.7299C6.77989 50.8999 5.77988 51.1999 5.74988 51.5999C5.71988 51.9999 6.14988 51.9999 6.37988 51.9599C7.21471 51.7446 8.02809 51.4534 8.80988 51.0899C9.65418 50.8901 10.4857 50.6397 11.2999 50.3399C12.0699 49.9599 12.8299 49.5199 13.5699 49.0799C14.3099 48.6399 14.9699 48.0799 15.6799 47.5799C16.3899 47.0799 17.1499 46.7499 17.8099 46.2399C18.4699 45.7299 19.1899 45.2399 19.8099 44.7099C20.4299 44.1799 20.9399 43.4599 21.5499 42.8799C22.1599 42.2999 22.7399 41.7099 23.3499 41.1199C22.5654 41.8176 21.8241 42.5623 21.1299 43.3499C20.4699 44.1599 20.1299 45.1799 19.5099 46.0399C18.8899 46.8999 18.2899 47.7299 17.7599 48.6299C17.2299 49.5299 16.8099 50.4799 16.3099 51.3999C16.1599 51.6899 15.3099 52.8799 15.7499 53.1499C15.9599 53.2699 16.6099 53.0099 16.7499 52.9099C17.1199 52.7099 17.3299 52.2299 17.7499 52.0299C18.4599 51.6199 19.2199 51.2999 19.8999 50.8399C20.6894 50.2765 21.441 49.6618 22.1499 48.9999C22.912 48.3974 23.6429 47.7566 24.3399 47.0799C25.0099 46.3799 25.5499 45.5699 26.1699 44.8199C26.7899 44.0699 27.5699 43.4499 28.1699 42.6799C28.7699 41.9099 29.3099 41.1099 29.9099 40.3399C30.5099 39.5699 31.0199 38.5299 31.6999 37.7199C32.3799 36.9099 33.3099 36.3299 34.0399 35.5599C34.7699 34.7899 35.3899 33.9299 36.1899 33.2399C36.82 32.7047 37.5197 32.2573 38.2699 31.9099C39.0159 31.526 39.8259 31.2819 40.6599 31.1899C41.5253 31.2188 42.3786 31.4017 43.1799 31.7299C43.993 31.979 44.7623 32.3535 45.4599 32.8399C46.2299 33.3699 47.0499 33.8399 47.7799 34.3999C48.5099 34.9599 49.2399 35.5599 49.9499 36.1599C50.6599 36.7599 51.3999 37.3299 52.0999 37.9399C52.7999 38.5499 53.3199 39.3599 54.0299 39.9399C54.4451 40.3048 54.8862 40.639 55.3499 40.9399C55.4099 40.9899 55.5899 41.1099 55.6499 41.0699C55.7099 41.0299 55.6999 40.7899 55.6499 40.7099C55.4352 39.851 55.1679 39.0061 54.8499 38.1799C54.5416 37.3544 54.1809 36.5494 53.7699 35.7699C53.47 34.9311 53.1159 34.1127 52.7099 33.3199C52.1762 32.6054 51.5842 31.9365 50.9399 31.3199C50.2959 30.7053 49.5848 30.1652 48.8199 29.7099C49.6941 30.2935 50.6024 30.8244 51.5399 31.2999C52.4907 31.7439 53.4656 32.1345 54.4599 32.4699C55.3911 32.9028 56.3498 33.2736 57.3299 33.5799C57.8399 33.6899 58.3299 33.8699 58.8199 33.9999C59.3324 34.1118 59.8553 34.1688 60.3799 34.1699C60.4993 34.1564 60.6097 34.0994 60.6899 34.0099C60.7699 33.8999 60.6199 33.7199 60.5299 33.6199C60.1299 33.1899 59.8599 32.6199 59.4599 32.2099C58.8599 31.5599 58.2299 30.9199 57.5899 30.3199C56.9529 29.716 56.2854 29.1453 55.5899 28.6099C54.8315 28.1479 54.0468 27.7305 53.2399 27.3599C52.5009 26.8883 51.7289 26.4706 50.9299 26.1099C51.7699 26.4599 52.6299 26.7599 53.4799 27.1099C54.3299 27.4599 55.2299 27.6399 56.0899 27.9399C56.7499 28.1699 57.3199 28.6399 57.9599 28.9399C58.2799 29.0599 58.6599 28.9399 58.9599 29.0399C59.8299 29.2999 60.6999 29.5999 61.5799 29.8499C61.6999 29.8499 61.8999 29.9999 61.9299 29.8499C61.9599 29.6999 61.8199 29.4799 61.7699 29.3699ZM48.4099 9.9999C48.2364 9.90809 48.1052 9.75271 48.0436 9.56631C47.9821 9.37991 47.9951 9.17693 48.0799 8.9999C48.3999 8.27989 49.6099 8.21989 49.6199 9.14989C49.6202 9.30317 49.5893 9.4549 49.5292 9.59587C49.469 9.73684 49.3808 9.8641 49.2699 9.96989C49.1405 10.0463 48.9939 10.0891 48.8437 10.0943C48.6935 10.0996 48.5443 10.0671 48.4099 9.9999Z" fill="#FFFDD0"/>
</svg>
