<svg width="47" height="49" viewBox="0 0 47 49" fill="none" xmlns="http://www.w3.org/2000/svg">
<path d="M41.4901 8.78012C43.3446 10.8269 44.7513 13.2384 45.6202 15.8601C46.5048 19.084 46.4563 22.4928 45.4801 25.6901C43.8301 31.5001 39.7402 36.5401 34.2702 38.6901C31.4546 39.7382 28.4032 39.9837 25.4563 39.3993C22.5093 38.8148 19.7827 37.4234 17.5802 35.3801C13.1302 31.1201 11.5001 23.8101 14.2401 18.5001C16.9801 13.1901 24.0902 10.8201 29.3902 13.8101C30.5492 14.4167 31.562 15.2686 32.3582 16.3065C33.1544 17.3445 33.7147 18.5435 34.0002 19.8201C34.4402 22.4001 33.1402 25.2501 30.7802 26.0301C30.3502 23.2401 29.6701 20.1601 27.4701 18.4101C24.3601 15.9401 19.3802 17.9201 18.3102 21.6801C17.2402 25.4401 19.6602 29.8401 23.1902 31.5801C24.9571 32.3639 26.8949 32.6835 28.82 32.5085C30.745 32.3335 32.5935 31.6697 34.1902 30.5801C39.4602 27.2001 41.9402 19.1001 38.0902 13.7101C36.7034 11.9224 34.9554 10.447 32.9602 9.38012C29.0502 7.09012 24.4901 5.53012 20.2401 6.52012C10.0001 8.94012 6.68015 22.0001 8.87015 30.9401C9.79289 34.8855 12.0945 38.3716 15.3601 40.7701C18.9101 43.2801 24.5201 43.9501 28.7901 43.8401C31.6236 43.7693 34.4214 43.1901 37.0501 42.1301C38.7361 41.4743 40.2856 40.5114 41.6202 39.2901C42.0302 38.8801 42.6202 37.8701 43.1902 38.8101C43.7602 39.7501 42.3601 41.1901 41.9301 41.9301C41.058 43.425 39.7734 44.6367 38.2301 45.4201C36.6852 46.2642 35.0338 46.8966 33.3202 47.3001C31.9363 47.7358 30.5226 48.07 29.0902 48.3001C27.7006 48.3669 26.3078 48.3032 24.9302 48.1101C17.4202 47.2701 9.59013 45.9401 5.41013 38.9901C2.16866 33.3339 0.636838 26.8592 1.00016 20.3501C1.0222 18.0606 1.53723 15.8027 2.51017 13.7301C10.4402 -1.44988 29.3501 -5.39988 41.4901 8.78012Z" fill="#FFFDD0"/>
</svg>
