<svg width="70" height="53" viewBox="0 0 70 53" fill="none" xmlns="http://www.w3.org/2000/svg">
<path d="M65.0701 26.23C63.7501 25.67 62.3901 25.17 61.0701 24.64C59.7501 24.11 58.4001 23.54 57.0701 23.04C55.7401 22.54 54.3601 22.04 53.0001 21.57C51.6401 21.1 50.2501 20.69 48.8801 20.25C47.5101 19.81 46.1801 19.55 44.7901 19.14C45.9501 18.35 47.0801 17.67 48.1601 16.79C49.2401 15.91 50.2901 15 51.2901 14C52.2901 13 52.9701 11.75 53.8801 10.69C54.7901 9.63 55.73 8.62 56.55 7.49C57.37 6.36 58.2901 5.29 59.0001 4.09C59.2298 3.76918 59.394 3.40618 59.4832 3.0218C59.5724 2.63743 59.5849 2.23923 59.5201 1.85C59.1701 0.550004 57.41 0.300004 56.08 0.430004C54.6276 0.532898 53.1842 0.736725 51.7601 1.04C50.3679 1.45353 49.002 1.95111 47.6701 2.53C44.9722 3.61564 42.3754 4.93744 39.9101 6.48C38.7208 7.32691 37.5975 8.26294 36.55 9.28C36.23 9.59 35.2601 10.87 34.2501 12.04C33.2401 13.21 32.31 14.58 32.61 15.04C31.9834 13.9411 31.2887 12.8823 30.5301 11.87C29.6591 10.9558 28.7377 10.0911 27.7701 9.28C26.8626 8.40885 25.9114 7.58445 24.9201 6.81C23.9201 6.04 22.9701 5.22 21.9201 4.53C20.3101 3.53 18.3501 2.7 16.5401 3.36C15.9621 3.60174 15.454 3.98481 15.0626 4.47405C14.6712 4.96329 14.409 5.54302 14.3 6.16C13.8376 7.37616 13.6103 8.66905 13.6301 9.97C13.8355 11.15 14.116 12.3157 14.4701 13.46C14.7273 14.6242 15.0614 15.77 15.4701 16.89C15.8917 18.0078 16.3861 19.0968 16.9501 20.15C17.6155 21.1956 18.347 22.1976 19.1401 23.15C17.8801 23.48 16.4701 23.73 15.2301 24.15C13.9901 24.57 12.8 25.08 11.58 25.55C10.36 26.02 9.18006 26.55 8.00006 27.08C6.82006 27.61 5.55005 28.01 4.40005 28.61C2.99573 29.2509 1.77752 30.2386 0.860046 31.48C0.388868 32.0805 0.132812 32.8217 0.132812 33.585C0.132812 34.3483 0.388868 35.0895 0.860046 35.69C1.76865 36.5011 2.9421 36.9527 4.16006 36.96C5.59006 37.05 7.04006 37.02 8.47006 36.96C9.90006 36.9 11.3301 36.74 12.7601 36.57C14.1901 36.4 15.5401 35.9 16.9401 35.57C18.3401 35.24 19.8101 35.24 21.1801 34.82C22.5501 34.4 23.8601 33.82 25.1801 33.24C26.5001 32.66 27.7401 32.24 29.0101 31.58C28.6901 32.71 28.4001 33.69 28.1601 34.84C27.9201 35.99 27.6001 37.15 27.4301 38.31C27.2601 39.47 27.3501 40.68 27.2401 41.85C27.1301 43.02 26.8601 44.19 26.8201 45.37C26.8249 46.6168 27.0101 47.8563 27.3701 49.05C27.4454 49.7266 27.6879 50.3737 28.0759 50.9331C28.4638 51.4925 28.985 51.9464 29.5922 52.254C30.1995 52.5617 30.8738 52.7132 31.5543 52.695C32.2348 52.6769 32.9001 52.4896 33.4901 52.15C34.8003 51.5678 35.9778 50.7238 36.9501 49.67C37.7914 48.7144 38.5476 47.6872 39.2101 46.6C39.8227 45.4942 40.3444 44.3404 40.7701 43.15C41.2746 42.0187 41.6859 40.8482 42.0001 39.65C42.293 38.4242 42.487 37.1769 42.58 35.92C42.7675 34.6623 42.8511 33.3914 42.83 32.12C42.5779 30.8023 42.2167 29.5079 41.7501 28.25C42.9901 28.75 44.4301 29.25 45.6901 29.64C46.9501 30.03 48.1501 30.7 49.4401 31.04C50.7301 31.38 52.0701 31.47 53.3801 31.72C54.6901 31.97 56.0001 32.1 57.3201 32.26C58.6401 32.42 59.9401 32.88 61.3201 32.96C62.7001 33.04 63.9901 33.14 65.3201 33.13C65.9053 33.169 66.4923 33.089 67.0458 32.8948C67.5992 32.7005 68.1076 32.3962 68.5401 32C69.4001 31 69.03 29.53 68.11 28.47C67.2631 27.5205 66.2278 26.7577 65.0701 26.23ZM40.2301 24.32C40.1306 25.0292 39.8855 25.7102 39.5101 26.32C39.0479 26.9539 38.45 27.4766 37.7601 27.85C36.8264 28.4131 35.7763 28.7551 34.6901 28.85C33.6084 28.9905 32.5087 28.8599 31.4901 28.47C30.4551 28.0951 29.5374 27.4534 28.83 26.61C28.1345 25.7474 27.6915 24.709 27.55 23.61C27.3636 22.1981 27.7211 20.7681 28.55 19.61C29.73 17.83 31.3901 16.51 33.5001 16.67C34.8342 16.7477 36.1475 17.038 37.3901 17.53C37.9915 17.807 38.5319 18.2007 38.9799 18.6882C39.428 19.1757 39.7747 19.7474 40.0001 20.37C40.4913 21.6295 40.5719 23.012 40.2301 24.32Z" fill="#FFFDD0"/>
</svg>
