<svg width="71" height="41" viewBox="0 0 71 41" fill="none" xmlns="http://www.w3.org/2000/svg">
<path d="M24.4597 0.509766C25.3997 0.509766 26.5797 1.36976 27.4597 2.62976C28.3397 3.88976 28.8298 5.22977 29.2998 5.84977C30.1198 6.93977 31.0197 7.97976 31.8397 9.06977C32.6597 10.1598 33.4698 11.2698 34.2898 12.3598C35.3898 13.8198 36.0597 15.6198 37.1997 17.0598C38.3397 18.4998 39.8498 19.6298 41.0398 21.0598C42.2298 22.4898 43.4697 23.7398 44.7497 25.0598C44.7497 24.5798 46.8398 23.2898 47.1798 22.9998C48.3888 21.8041 49.7877 20.8174 51.3197 20.0798C52.8697 19.4698 55.3197 22.8698 56.3197 23.8698C57.3197 24.8698 58.2498 25.5498 59.1598 26.4398C60.0698 27.3298 60.7997 28.4398 61.7097 29.2998C63.2997 30.8498 65.1398 32.1298 66.7798 33.6198C67.7798 34.4998 70.3497 35.7998 70.4397 37.3098C70.4397 38.0298 68.5597 38.3098 65.9397 38.7898C64.3197 39.0598 62.5597 39.7898 60.9397 39.9298C58.4397 40.1798 56.2898 40.1398 55.7898 40.1598C54.3898 40.1598 53.0097 39.8298 51.6097 39.7598C50.2097 39.6898 48.8098 39.7598 47.4198 39.6698C46.0298 39.5798 44.6297 39.7598 43.2297 39.7498C41.6397 39.7498 40.0298 39.7498 38.4298 39.6998C36.8298 39.6498 35.2598 39.2898 33.6598 39.1998C32.0598 39.1098 30.4898 38.7998 28.8998 38.6898C27.3098 38.5798 25.6697 39.0298 24.0797 38.9198L19.3098 38.6198C17.7098 38.5398 16.1298 38.3398 14.5298 38.2898C13.5898 38.2898 11.9497 38.5298 10.0897 38.6998C8.6297 38.8198 7.0297 38.5398 5.5897 38.5798C3.6497 38.5798 1.93978 38.7198 1.16978 38.1998C-0.150221 37.3098 0.169794 35.7998 1.05979 34.3998C1.81315 33.2243 2.64151 32.0986 3.53977 31.0298C4.71977 29.6098 5.93978 28.1698 7.16978 26.7598C8.49435 25.4427 9.74939 24.0575 10.9298 22.6098C11.7598 21.4298 12.3297 20.0798 13.0797 18.8398C13.8297 17.5998 14.7298 16.4498 15.4298 15.1898C16.1298 13.9298 16.5497 12.4998 17.2397 11.1898C17.9297 9.87977 18.6397 9.04977 19.2397 7.91977C19.8397 6.78977 20.6797 5.82977 21.3497 4.73977C22.0197 3.64977 22.8797 0.989765 24.2297 0.559765C24.3034 0.53156 24.3809 0.514702 24.4597 0.509766Z" fill="#FFFDD0"/>
</svg>
