<svg width="71" height="41" viewBox="0 0 71 41" fill="none" xmlns="http://www.w3.org/2000/svg">
<path d="M24.4699 0.509898C25.41 0.509898 26.59 1.3699 27.42 2.6299C28.25 3.8899 28.79 5.2299 29.26 5.8499C30.09 6.9399 30.99 7.9799 31.8 9.0699C32.61 10.1599 33.43 11.2699 34.25 12.3599C35.35 13.8199 36.02 15.6199 37.16 17.0599C38.3 18.4999 39.81 19.6299 41.01 21.0599C42.21 22.4899 43.43 23.7399 44.71 25.0599C44.71 24.5799 46.81 23.2899 47.14 22.9999C48.3448 21.778 49.7438 20.7643 51.28 19.9999C52.84 19.3899 55.28 22.7899 56.28 23.7899C57.28 24.7899 58.2 25.4699 59.11 26.3599C60.02 27.2499 60.75 28.3599 61.66 29.2199C63.25 30.7699 65.09 32.0499 66.73 33.5399C67.73 34.4199 70.3 35.7199 70.39 37.2299C70.44 37.9499 68.51 38.2299 65.89 38.7099C64.28 38.9799 62.52 39.7099 60.89 39.8499C58.4 40.0999 56.25 40.0599 55.74 40.0799C54.35 40.0799 52.96 39.7499 51.56 39.6799C50.16 39.6099 48.77 39.6799 47.37 39.5899C45.97 39.4999 44.58 39.6799 43.18 39.6699C41.59 39.6699 39.99 39.6699 38.39 39.6199C36.79 39.5699 35.21 39.2099 33.61 39.1199C32.01 39.0299 30.44 38.7199 28.85 38.6099C27.26 38.4999 25.63 38.9499 24.03 38.8399C22.43 38.7299 20.85 38.6299 19.26 38.5399C17.67 38.4499 16.08 38.2599 14.48 38.2099C13.54 38.2099 11.9 38.4499 10.04 38.6199C8.57996 38.7399 6.97996 38.4599 5.53996 38.4999C3.59996 38.4999 1.88997 38.6399 1.11997 38.1199C-0.200025 37.2299 0.11999 35.7199 1.00999 34.3199C1.76188 33.1593 2.59036 32.0502 3.48997 30.9999C4.65997 29.5799 5.87997 28.1399 7.10997 26.7299C8.43721 25.4154 9.69239 24.03 10.87 22.5799C11.7 21.3999 12.27 20.0499 13.02 18.8099C13.77 17.5699 14.67 16.4199 15.37 15.1599C16.07 13.8999 16.49 12.4699 17.18 11.1599C17.87 9.8499 18.58 9.0199 19.18 7.8899C19.78 6.7599 20.63 5.7999 21.29 4.7099C21.95 3.6199 22.83 0.959899 24.17 0.529899C24.2678 0.504332 24.3696 0.497545 24.4699 0.509898Z" fill="#FFFDD0"/>
</svg>
