<svg width="62" height="54" viewBox="0 0 62 54" fill="none" xmlns="http://www.w3.org/2000/svg">
<path d="M61.7899 29.3701C61.6729 29.0697 61.5394 28.7759 61.3899 28.4902C60.9918 27.9571 60.5243 27.4796 59.9999 27.0701C58.9429 26.17 57.7648 25.4227 56.4999 24.8501C55.7699 24.4801 55.0199 24.1701 54.2699 23.8501C53.3767 23.4087 52.5377 22.8651 51.7699 22.2301C50.9817 21.6529 50.3042 20.9381 49.7699 20.1201C49.1864 19.3186 48.8399 18.3691 48.7699 17.3801C48.7331 16.4835 48.8654 15.5879 49.1599 14.7401C49.4949 13.9109 49.9172 13.1198 50.4199 12.3801C50.9199 11.6001 51.4199 10.8601 52.0099 10.1401C52.5341 9.43273 53.109 8.76431 53.7299 8.14015C53.0706 8.26132 52.3981 8.29494 51.7299 8.24015C50.4599 8.00015 49.7299 6.50015 48.4499 6.35015C47.6097 6.24689 46.7572 6.32533 45.9499 6.58015C45.1586 6.87367 44.4063 7.26325 43.7099 7.74015C42.823 8.32875 41.9747 8.9734 41.1699 9.67015C40.3869 10.3833 39.6425 11.1377 38.9399 11.9301C38.2055 12.6446 37.5111 13.3991 36.8599 14.1901C36.2299 13.5901 35.6199 13.1401 34.9999 12.5101C34.3799 11.8801 33.8999 11.1401 33.3199 10.5101C32.7399 9.88015 32.1299 9.22015 31.6099 8.51015C31.0834 7.80533 30.5928 7.0744 30.1399 6.32015C29.6496 5.57473 29.2054 4.79995 28.8099 4.00015C28.4499 3.18015 28.3899 2.24015 28.0299 1.42015C27.9721 1.33782 27.8936 1.27225 27.8023 1.2301C27.7109 1.18795 27.6101 1.17071 27.5099 1.18015C27.3399 1.18015 27.3099 1.36015 27.2599 1.53015C26.9501 2.44746 26.8045 3.41225 26.8299 4.38015C26.9351 5.34061 27.1055 6.29281 27.3399 7.23015C27.495 8.17576 27.7326 9.10598 28.0499 10.0101C28.3826 10.8921 28.7943 11.7422 29.2799 12.5501C28.7299 11.9101 28.2799 11.2301 27.7899 10.5501C27.2999 9.87015 26.7899 9.20015 26.2399 8.55015C25.6899 7.90015 25.2399 7.20015 24.7199 6.55015C23.9125 5.5747 23.1581 4.55657 22.4599 3.50015C22.1555 2.9265 21.8851 2.33548 21.6499 1.73015C21.4799 1.35015 21.4599 0.930149 21.2799 0.560149C21.182 0.405177 21.0279 0.294093 20.8499 0.250149C20.1499 0.150149 20.7899 3.65015 20.8499 4.03015C21.0703 5.31944 21.3777 6.59235 21.7699 7.84015C22.136 8.58426 22.5468 9.30558 22.9999 10.0001C23.3499 10.7601 23.6499 11.5301 23.9999 12.2701C24.3499 13.0101 24.8599 13.7001 25.2299 14.4501C24.7422 13.5862 24.1801 12.7664 23.5499 12.0001C22.9499 11.2001 22.1199 10.5701 21.5499 9.80015C20.9799 9.03015 20.4299 8.26015 19.8499 7.47015C19.3127 6.70093 18.8664 5.87207 18.5199 5.00015C18.3099 4.49015 18.1099 4.00015 17.8899 3.44015C17.7499 3.10015 17.7099 2.56015 17.4299 2.31015C16.7699 1.73015 16.8499 3.58015 16.8499 3.84015C16.8499 4.52015 16.8499 5.19015 16.9199 5.84015C17.0762 7.19482 17.3506 8.53324 17.7399 9.84015C18.0211 11.1779 18.4056 12.4918 18.8899 13.7701C19.4585 15.0157 20.1099 16.2218 20.8399 17.3801C21.3799 18.3001 21.9399 19.2001 22.5699 20.0701C23.1999 20.9401 23.5699 21.5401 24.0099 22.2201C24.4705 22.9462 24.8494 23.7209 25.1399 24.5301C25.4693 25.3197 25.5932 26.1798 25.4999 27.0301C25.3818 27.8857 25.0631 28.7012 24.5699 29.4101C24.0528 30.0984 23.4627 30.7288 22.8099 31.2901C22.0399 32.0201 21.2099 32.6701 20.4099 33.3701C19.6099 34.0701 19.1599 34.8101 18.4099 35.3701C17.6599 35.9301 16.8199 36.3701 16.0799 36.9801C15.3399 37.5901 14.7099 38.3101 13.9499 38.8701C13.1899 39.4301 12.3599 39.8701 11.5799 40.4301C10.7999 40.9902 9.99992 41.4301 9.21992 41.9101C8.43993 42.3901 7.65993 42.9101 6.84993 43.3601C6.03993 43.8102 5.16993 44.1401 4.31993 44.5101C3.48072 44.8948 2.61917 45.2288 1.73993 45.5101C1.39993 45.6201 1.08992 45.6201 0.919922 45.9301C1.74441 46.0472 2.57832 46.0841 3.40993 46.0401C4.25177 45.9153 5.08381 45.7315 5.89992 45.4902C6.73992 45.3102 7.64992 45.4202 8.45992 45.1801C9.26992 44.9401 10.0699 44.5301 10.8599 44.2501C11.6499 43.9701 12.4599 43.7201 13.2399 43.3901C14.0199 43.0601 14.7799 42.7102 15.5399 42.3302C16.2999 41.9501 17.0299 41.5301 17.7499 41.0901C18.4699 40.6502 19.0799 40.0901 19.7499 39.5602C18.9699 40.1301 18.2199 40.7501 17.4699 41.3501C16.7199 41.9501 15.8799 42.4701 15.1399 43.1001C14.3999 43.7301 13.8199 44.5201 13.1399 45.1701C12.4599 45.8201 11.9099 46.5101 11.2699 47.1701C10.6299 47.8301 9.82993 48.3301 9.15993 48.9401C8.54291 49.6163 7.84807 50.2172 7.08992 50.7301C6.78992 50.9001 5.78993 51.2001 5.76993 51.6001C5.74993 52.0001 6.15992 52.0001 6.38992 51.9601C7.22751 51.7433 8.04406 51.4521 8.82991 51.0901C9.67056 50.889 10.4987 50.6385 11.3099 50.3401C12.0899 49.9601 12.8399 49.5201 13.5799 49.0802C14.3199 48.6402 14.9899 48.0802 15.6899 47.5802C16.3899 47.0802 17.1599 46.7501 17.8199 46.2402C18.4799 45.7302 19.1999 45.2401 19.8199 44.7101C20.4399 44.1801 20.9499 43.4602 21.5699 42.8801C22.1899 42.3001 22.7499 41.7101 23.3599 41.1201C22.5787 41.8179 21.8406 42.5627 21.1499 43.3501C20.4799 44.1601 20.0999 45.1801 19.5199 46.0401C18.9399 46.9002 18.2999 47.7301 17.7699 48.6301C17.2399 49.5302 16.8199 50.4802 16.3299 51.4002C16.1799 51.6902 15.3299 52.8801 15.7599 53.1502C15.9699 53.2701 16.6299 53.0102 16.8199 52.9102C17.1799 52.7102 17.3999 52.2301 17.7599 52.0301C18.4699 51.6201 19.2299 51.3001 19.9199 50.8401C20.7075 50.2742 21.459 49.6597 22.1699 49.0001C22.8999 48.3601 23.6899 47.7901 24.3599 47.0802C25.0299 46.3702 25.5699 45.5701 26.1799 44.8201C26.7899 44.0701 27.5799 43.4501 28.1799 42.6801C28.7799 41.9101 29.3199 41.1101 29.9099 40.3401C30.4999 39.5701 31.0299 38.5302 31.6999 37.7201C32.3699 36.9101 33.3199 36.3302 34.0399 35.5602C34.7599 34.7901 35.3899 33.9301 36.1899 33.2402C36.822 32.7026 37.5253 32.255 38.2799 31.9101C39.0259 31.5262 39.836 31.2822 40.6699 31.1901C41.5351 31.2212 42.388 31.4039 43.1899 31.7301C44.0022 31.9813 44.7712 32.3557 45.4699 32.8401C46.2399 33.3701 47.0599 33.8401 47.7899 34.4002C48.5199 34.9602 49.2399 35.5602 49.9499 36.1601C50.6599 36.7601 51.3999 37.3301 52.0999 37.9401C52.7999 38.5501 53.3299 39.3601 54.0399 39.9401C54.4536 40.3026 54.8913 40.6367 55.3499 40.9401C55.4099 40.9901 55.5899 41.1101 55.6599 41.0701C55.7299 41.0301 55.6599 40.7901 55.6599 40.7101C55.4452 39.8513 55.178 39.0063 54.8599 38.1801C54.5517 37.3546 54.191 36.5496 53.7799 35.7701C53.4843 34.9297 53.1301 34.111 52.7199 33.3201C52.1892 32.6033 51.597 31.9341 50.9499 31.3201C50.306 30.7056 49.5948 30.1655 48.8299 29.7101C49.7042 30.2937 50.6124 30.8247 51.5499 31.3001C52.5041 31.7442 53.4823 32.1348 54.4799 32.4701C55.4084 32.9013 56.3637 33.2721 57.3399 33.5802C57.8499 33.6902 58.3399 33.8701 58.8399 34.0001C59.349 34.1121 59.8687 34.1691 60.3899 34.1701C60.51 34.1586 60.621 34.1013 60.6999 34.0101C60.7799 33.9001 60.6299 33.7201 60.5399 33.6201C60.1499 33.1901 59.8699 32.6201 59.4699 32.2101C58.8699 31.5601 58.2499 30.9201 57.6099 30.3201C56.9699 29.7201 56.2599 29.1502 55.5599 28.6101C54.8038 28.1502 54.0226 27.7329 53.2199 27.3601C52.4763 26.8906 51.7011 26.473 50.8999 26.1101C51.7399 26.4601 52.5999 26.7601 53.4499 27.1101C54.2999 27.4601 55.1999 27.6401 56.0599 27.9401C56.7199 28.1701 57.2899 28.6401 57.9399 28.9401C58.2499 29.0601 58.6399 28.9401 58.9399 29.0401C59.8199 29.3001 60.6799 29.6001 61.5599 29.8501C61.6799 29.8501 61.8899 30.0001 61.9099 29.8501C61.9299 29.7001 61.8299 29.4801 61.7899 29.3701ZM48.4199 10.0001C48.2464 9.90834 48.1152 9.75297 48.0537 9.56656C47.9922 9.38016 48.0051 9.17719 48.0899 9.00015C48.4099 8.28015 49.6299 8.22015 49.6299 9.15015C49.6327 9.30378 49.6029 9.45625 49.5426 9.59757C49.4823 9.73889 49.3928 9.86586 49.2799 9.97015C49.1505 10.0466 49.004 10.0894 48.8537 10.0946C48.7035 10.0998 48.5544 10.0674 48.4199 10.0001Z" fill="#FFFDD0"/>
</svg>
