<svg width="99" height="41" viewBox="0 0 99 41" fill="none" xmlns="http://www.w3.org/2000/svg">
<path d="M3.19997 36.44C1.88997 35.99 0.409972 35.12 0.419972 33.74C0.429972 32.36 1.68994 31.52 2.85994 31.01C4.27994 30.4 5.85996 30.25 7.33996 29.78C8.79 29.2627 10.2652 28.8188 11.76 28.45C13.27 28.13 14.7599 27.98 16.3299 27.81C17.8999 27.64 19.3899 27.2 20.93 27.18C22.47 27.16 24.24 27.41 25.78 27.55C25.1258 26.8243 24.6912 25.9278 24.5265 24.9648C24.3619 24.0018 24.4741 23.0118 24.85 22.11C25.2419 21.2326 25.8389 20.4621 26.5907 19.8635C27.3425 19.2648 28.227 18.8555 29.17 18.67C30.128 18.4798 31.1148 18.4882 32.0694 18.6946C33.024 18.901 33.9261 19.301 34.72 19.87C36.2876 20.9897 37.4408 22.5965 38 24.44C38.44 22.96 38.5799 21.66 39.1099 20.2C39.6399 18.74 40.58 17.44 41.23 16.04C41.9002 14.6634 42.6515 13.3277 43.48 12.04C44.2236 10.6993 45.0659 9.41578 46 8.20003C46.9474 6.97269 48.0051 5.83462 49.16 4.80003C50.4094 3.87069 51.7495 3.06996 53.16 2.41003C54.499 1.61148 55.9293 0.97692 57.42 0.520027C58.9465 0.166366 60.5155 0.0316834 62.0799 0.120027C63.7793 0.325152 65.4342 0.804719 66.9799 1.54003C68.5487 2.16327 70.0073 3.03436 71.2999 4.12003C72.6128 5.18475 73.7412 6.45847 74.64 7.89003C75.526 9.33266 76.1711 10.91 76.5499 12.56C76.9163 14.2168 77.0242 15.9203 76.87 17.61C76.687 19.2874 76.2274 20.9228 75.51 22.45C75.87 21.63 81.2899 22.37 82.1099 22.45C82.9299 22.53 84.6899 22.14 86.1099 22.45C87.5299 22.76 88.74 23.6 88.44 25.05C88.25 25.94 86.9599 29.54 85.5999 29.14C86.8663 29.4435 88.169 29.5681 89.4699 29.51C90.7499 29.51 92.0899 29.07 93.3499 29.28C94.632 29.5289 95.8216 30.1237 96.7899 31C97.2949 31.4434 97.677 32.0095 97.8994 32.6436C98.1219 33.2776 98.1772 33.9584 98.06 34.62C97.64 36.31 95.67 37.19 94.06 37.81C92.4176 38.398 90.7234 38.8299 89 39.1C87.2823 39.388 85.5411 39.5119 83.7999 39.47C82.0678 39.45 80.3382 39.3298 78.62 39.11C76.9 38.89 75.19 38.56 73.46 38.4C71.96 38.26 70.46 38.68 68.94 38.65C67.42 38.62 65.94 38.57 64.45 38.65C62.96 38.73 61.45 38.65 59.95 38.77C58.45 38.89 56.95 39.13 55.48 39.28C54.01 39.43 52.48 39.28 50.97 39.39C49.46 39.5 47.97 39.72 46.5 39.82C45.03 39.92 43.5 40.09 42.01 40.13C40.52 40.17 39.01 40.37 37.51 40.3C35.7979 40.2273 34.0916 40.0537 32.4 39.78C30.7 39.52 29 39.33 27.32 39.07C25.6497 38.7035 23.9605 38.4298 22.26 38.25C20.62 38.19 19.0199 38.38 17.4599 38.37C15.9 38.36 14.23 38.45 12.65 38.37C11.0447 38.2319 9.44873 38.0015 7.86995 37.68C6.28294 37.3909 4.72138 36.9762 3.19997 36.44Z" fill="#FFFDD0"/>
</svg>
