<svg width="402" height="832" viewBox="0 0 402 832" fill="none" xmlns="http://www.w3.org/2000/svg">
<g clip-path="url(#clip0_751_2960)">
<rect width="1280" height="832" transform="translate(-409)" fill="#FF8343"/>
<path d="M369.983 93.8804C371.488 90.039 370.804 88.052 368.067 88.052C366.561 88.052 365.329 88.8468 365.329 89.9065C365.329 92.6882 366.835 95.9998 368.067 95.9998C368.614 95.9998 369.572 95.0726 369.983 93.8804Z" fill="#FFEFD5"/>
<path d="M289.097 93.0856C290.055 89.6416 289.234 88.052 286.497 88.052C284.444 88.052 284.033 90.4363 285.402 93.8804C286.634 96.7946 288.276 96.5297 289.097 93.0856Z" fill="#FFEFD5"/>
<path d="M208.484 93.0856C209.716 88.4494 209.579 88.052 206.568 88.052C203.831 88.052 203.147 90.039 204.652 93.8804C205.884 96.9271 207.526 96.5297 208.484 93.0856Z" fill="#FFEFD5"/>
<path d="M127.735 93.0856C128.967 88.4494 128.83 88.052 125.819 88.052C123.082 88.052 122.398 90.039 123.903 93.8804C125.135 96.9271 126.777 96.5297 127.735 93.0856Z" fill="#FFEFD5"/>
<path d="M46.9859 93.0856C48.2176 88.4494 48.0808 88.052 45.0698 88.052C42.3325 88.052 41.6482 90.039 43.1537 93.8804C44.3855 96.9271 46.0278 96.5297 46.9859 93.0856Z" fill="#FFEFD5"/>
<path d="M368.341 84.6082C369.025 84.0783 369.436 82.4888 369.436 81.0317C369.436 79.5746 370.667 78.2499 372.31 77.8525C374.363 77.3227 374.91 76.3954 374.363 74.1436C373.678 71.4943 373.952 71.2293 376.552 71.8917C379.016 72.4215 379.29 72.1566 378.742 69.7722C377.784 66.1957 379.563 64.8711 381.753 67.5204C382.711 68.5801 384.354 69.5073 385.449 69.5073C386.543 69.5073 386.954 70.1696 386.543 70.832C385.312 72.8189 388.46 76.1305 391.607 76.1305C392.976 76.1305 394.482 77.0578 395.029 78.2499C395.44 79.4421 397.219 80.1044 399.409 79.972C401.325 79.707 404.199 80.2369 405.704 81.0317C408.989 82.6212 411.863 81.9589 411.863 79.3096C411.863 78.2499 410.495 77.4551 408.715 77.4551C401.598 77.4551 394.618 74.276 388.596 68.5801C383.259 63.414 382.711 62.4867 384.627 61.0296C385.859 60.2349 387.228 58.1154 387.912 56.5259L388.87 53.3467L392.429 56.6583C397.629 61.2946 401.325 62.8841 406.936 62.8841C413.642 62.8841 413.095 60.7647 406.252 59.705C398.451 58.5128 393.113 54.5389 391.334 48.578C389.554 42.0873 389.554 42.0873 393.113 41.425C394.892 41.1601 397.219 41.8224 398.724 43.147C401.051 45.3989 401.051 45.5314 398.314 46.9885C394.618 48.843 394.482 53.6117 398.177 53.6117C400.367 53.6117 400.914 52.6844 400.914 49.6378C400.914 45.5314 402.693 44.7366 406.252 46.856C407.894 47.9157 407.894 48.4456 406.525 50.1676C404.336 52.6844 405.431 56.2609 408.305 56.2609C411.316 56.2609 412.137 54.0091 410.358 50.6975C409.126 48.578 409.126 47.6508 410.358 47.2534C413.505 46.1937 411.726 43.6769 407.62 43.5444C405.294 43.412 402.42 42.3522 401.188 41.0276C398.998 38.7757 398.998 38.7757 402.283 39.703C407.894 41.1601 410.905 41.1601 411.453 39.438C411.863 38.2459 410.631 37.716 407.62 37.716C403.514 37.716 403.378 37.5835 405.294 35.4641C409.673 30.6954 410.631 26.5891 411.316 13.0777L412 -0.698486L206.568 -0.698486L1.27366 -0.698486V5.12992C1.27366 8.44151 1.82111 11.3557 2.50543 11.7531C4.8321 13.2102 5.24269 20.6282 3.32661 26.1917C2.2317 29.2383 1.27366 32.6824 1.27366 33.7421C1.27366 36.7888 4.01092 33.3447 6.06387 27.6488C7.97996 22.6151 7.97996 22.6151 8.11682 26.4566C8.11682 28.7085 8.66427 31.3577 9.48545 32.4175C11.1278 34.9343 8.66427 37.716 4.55838 37.716C1.1368 37.716 0.178756 39.5705 2.77916 41.0276C4.55838 42.0873 12.2227 39.1731 12.2227 37.4511C12.2227 36.7888 12.907 36.6563 13.7282 37.1862C16.1917 38.6433 10.1698 43.412 5.51642 43.5444C1.41052 43.6769 -0.368697 46.1937 2.77916 47.2534C4.01092 47.6508 4.01092 48.578 2.77916 50.6975C0.999935 54.0091 1.82111 56.2609 4.8321 56.2609C7.70623 56.2609 8.80113 52.6844 6.61132 50.1676C5.24269 48.4456 5.24269 47.9157 6.88505 46.856C10.4435 44.6041 12.3596 45.5314 11.949 49.2404C11.6753 51.7572 12.2227 52.9493 14.0019 53.3467C17.6972 54.1415 18.6553 49.6378 15.0968 47.1209L12.2227 45.0015L15.0968 42.6172C19.4765 38.9082 22.6243 40.2328 22.0769 45.6638C21.8031 48.1806 20.982 51.3598 20.1608 52.6844C18.6553 55.5986 8.80113 60.1024 4.28465 60.2349C2.64229 60.2349 1.27366 60.8972 1.27366 61.5595C1.27366 63.5464 10.4435 63.1491 14.96 60.8972C17.1498 59.8375 19.8871 57.5856 20.982 55.996C22.2137 54.4064 23.3086 53.3467 23.4455 53.7441C23.7192 54.0091 25.2247 56.2609 27.0039 58.5128L30.1518 62.8841L23.9929 68.7125C18.929 73.6137 16.4655 74.9383 9.62231 76.263C4.96897 77.3227 1.27366 78.6473 1.27366 79.5746C1.27366 81.9589 4.28465 82.6212 7.4325 81.0317C8.938 80.2369 11.8121 79.707 13.7282 79.972C15.918 80.1044 17.6972 79.4421 18.1078 78.2499C18.6553 77.0578 20.1608 76.1305 21.5294 76.1305C24.6773 76.1305 27.8251 72.8189 26.5933 70.832C26.1828 70.1696 26.5933 69.5073 27.6883 69.5073C28.7832 69.5073 30.4255 68.5801 31.3836 67.5204C33.5734 64.8711 35.3526 66.1957 34.3945 69.7722C33.8471 72.1566 34.1208 72.4215 36.5844 71.8917C39.5953 71.0969 40.6903 72.6864 38.2267 74.1436C36.3106 75.3357 38.0899 77.7201 40.2797 76.9253C42.1957 76.263 43.7012 78.7798 43.7012 82.8862C43.7012 84.2108 44.2487 85.403 45.0699 85.403C45.7542 85.403 46.4385 83.9459 46.4385 82.0914C46.4385 79.707 47.3965 78.3824 50.1338 77.3227C52.8711 76.3954 53.2817 75.6007 52.1868 74.5409C49.7232 72.1566 50.2707 70.9644 53.5554 71.8917C56.0189 72.4215 56.2927 72.1566 55.7452 69.7722C54.7872 66.3282 56.977 64.3412 58.2087 67.3879C58.6193 68.5801 60.2617 69.5073 61.6303 69.5073C63.1358 69.5073 63.8201 70.1696 63.4095 71.2293C62.5884 73.6137 66.2837 76.6604 68.8841 75.7331C70.1158 75.2033 71.2107 75.998 71.7582 77.5876C72.4425 79.5746 73.6743 80.2369 76.2747 79.972C78.3276 79.707 81.3386 80.2369 82.8441 81.1641C85.1708 82.3563 86.2657 82.2238 88.3186 80.8992C90.0979 79.5746 91.6033 79.4421 93.2457 80.2369C95.0249 81.1641 96.2567 80.7667 98.0359 78.7798C99.4045 77.3227 101.457 76.1305 102.689 76.1305C105.563 76.1305 108.574 72.6864 107.343 70.832C106.932 70.1696 107.343 69.5073 108.438 69.5073C109.532 69.5073 111.175 68.5801 112.133 67.5204C114.323 64.8711 116.102 66.1957 115.144 69.7722C114.596 72.1566 114.87 72.4215 117.334 71.8917C120.618 70.9644 121.166 72.1566 118.702 74.5409C117.607 75.6007 118.018 76.3954 120.755 77.3227C123.492 78.3824 124.451 79.707 124.451 82.0914C124.451 84.0783 124.998 85.2705 125.819 84.7407C126.503 84.3433 127.188 82.7537 127.188 81.2966C127.188 79.707 128.556 78.2499 130.883 77.3227C133.62 76.3954 134.031 75.6007 132.936 74.5409C130.472 72.1566 131.02 70.9644 134.305 71.8917C136.768 72.4215 137.042 72.1566 136.494 69.7722C135.536 66.1957 137.316 64.8711 139.505 67.5204C140.463 68.5801 142.106 69.5073 143.201 69.5073C144.296 69.5073 144.706 70.1696 144.296 70.832C143.064 72.6864 146.075 76.1305 148.949 76.1305C150.181 76.1305 152.234 77.3227 153.602 78.7798C155.382 80.7667 156.613 81.1641 158.393 80.2369C160.035 79.4421 161.54 79.5746 163.32 80.8992C165.373 82.2238 166.467 82.3563 168.794 81.1641C170.3 80.2369 173.311 79.707 175.227 79.972C177.417 80.1044 179.196 79.4421 179.606 78.2499C180.154 77.0578 181.659 76.1305 183.028 76.1305C186.176 76.1305 189.324 72.8189 188.092 70.832C187.681 70.1696 188.092 69.5073 189.187 69.5073C190.282 69.5073 191.924 68.5801 192.882 67.5204C195.072 64.8711 196.851 66.1957 195.893 69.7722C195.346 72.1566 195.619 72.4215 198.083 71.8917C201.368 70.9644 201.915 72.1566 199.452 74.5409C198.357 75.6007 198.767 76.3954 201.504 77.3227C204.242 78.3824 205.2 79.707 205.2 82.0914C205.2 83.9459 205.747 85.403 206.568 85.403C207.253 85.403 207.937 83.9459 207.937 82.0914C207.937 79.707 208.895 78.3824 211.632 77.3227C214.37 76.3954 214.78 75.6007 213.685 74.5409C211.222 72.1566 211.769 70.9644 215.054 71.8917C217.517 72.4215 217.791 72.1566 217.244 69.7722C216.286 66.1957 218.065 64.8711 220.255 67.5204C221.213 68.5801 222.855 69.5073 223.95 69.5073C225.045 69.5073 225.456 70.1696 225.045 70.832C223.813 72.8189 226.961 76.1305 230.109 76.1305C231.477 76.1305 232.983 77.0578 233.53 78.2499C233.941 79.4421 235.72 80.1044 237.91 79.972C239.826 79.707 242.7 80.2369 244.206 81.0317C246.259 82.0914 247.764 82.0914 249.68 81.0317C251.186 80.2369 254.06 79.707 255.976 79.972C258.303 80.1044 259.945 79.4421 260.356 78.2499C260.903 77.0578 262.409 76.1305 263.777 76.1305C266.925 76.1305 270.073 72.8189 268.841 70.832C268.431 70.1696 268.841 69.5073 269.936 69.5073C271.031 69.5073 272.673 68.5801 273.631 67.5204C275.821 64.8711 277.6 66.1957 276.642 69.7722C276.095 72.1566 276.369 72.4215 278.832 71.8917C281.843 71.0969 282.938 72.6864 280.475 74.1436C278.558 75.3357 280.338 77.7201 282.527 76.9253C284.444 76.263 285.949 78.7798 285.949 82.8862C285.949 84.2108 286.496 85.403 287.318 85.403C288.002 85.403 288.686 83.9459 288.686 82.0914C288.686 79.707 289.644 78.3824 292.382 77.3227C295.119 76.3954 295.529 75.6007 294.435 74.5409C291.971 72.1566 292.518 70.9644 295.803 71.8917C298.267 72.4215 298.54 72.1566 297.993 69.7722C297.035 66.1957 298.814 64.8711 301.004 67.5204C301.962 68.5801 303.604 69.5073 304.699 69.5073C305.794 69.5073 306.205 70.1696 305.794 70.832C304.562 72.8189 307.71 76.1305 310.721 76.1305C312.09 76.1305 313.732 77.0578 314.417 78.2499C315.375 79.8395 316.88 80.2369 319.481 79.707C321.944 79.3096 324.134 79.8395 325.229 80.8992C326.871 82.3563 327.829 82.4888 330.156 81.1641C331.798 80.2369 334.809 79.707 336.999 79.972C339.599 80.2369 340.968 79.5746 341.789 77.8525C342.337 76.5279 343.979 75.4682 345.485 75.4682C346.99 75.4682 348.769 74.1436 349.59 72.554C350.275 70.832 351.643 69.5073 352.465 69.5073C353.423 69.5073 354.517 68.5801 354.928 67.3879C356.16 64.3412 358.35 66.3282 357.392 69.7722C356.844 72.1566 357.118 72.4215 359.581 71.8917C362.866 70.9644 363.414 72.1566 360.95 74.5409C359.855 75.6007 360.266 76.3954 363.003 77.3227C365.33 78.2499 366.698 79.8395 366.972 82.0914C367.246 84.0783 367.793 85.138 368.341 84.6082ZM320.849 75.998C314.28 74.276 306.889 69.1099 304.836 65.0036C303.878 62.6192 304.152 61.0296 306.205 57.8505L308.805 53.6117L311.406 56.3934C319.754 65.2685 337.41 65.136 343.979 55.996C345.211 54.4064 346.306 53.3467 346.443 53.7441C346.716 54.0091 348.222 56.1285 350.001 58.5128L353.012 62.7517L348.769 67.5204C343.979 72.8189 340.694 74.8059 334.535 76.263C328.513 77.5876 326.871 77.5876 320.849 75.998ZM233.804 74.1436C231.888 73.0838 228.33 70.1696 226.003 67.6528L221.76 62.8841L224.771 58.3804L227.782 53.8766L231.204 56.9233C236.405 61.5595 239.963 62.8841 246.943 62.8841C254.06 62.8841 260.082 60.3673 263.23 55.996C264.462 54.4064 265.556 53.3467 265.693 53.7441C265.967 54.0091 267.473 56.2609 269.252 58.5128L272.4 62.8841L266.378 68.7125C262.819 72.1566 258.166 75.0708 255.018 75.8656C248.859 77.4551 239.005 76.6604 233.804 74.1436ZM153.055 74.0111C151.002 73.0838 147.444 69.9047 145.117 67.2554C141.695 63.1491 141.148 61.9569 142.653 60.8972C143.748 60.1024 144.98 58.1154 145.664 56.5259L146.622 53.3467L150.181 56.6583C155.655 61.5595 159.214 62.8841 166.194 62.8841C173.311 62.8841 179.333 60.3673 182.48 55.996C183.712 54.4064 184.807 53.3467 185.081 53.7441C185.355 54.0091 186.86 56.2609 188.639 58.5128L191.65 62.8841L185.628 68.5801C182.07 72.1566 177.553 75.0708 174.269 75.8656C168.11 77.4551 158.256 76.6604 153.055 74.0111ZM72.3056 74.0111C70.2527 73.0838 66.6943 70.0372 64.5044 67.3879L60.3985 62.6192L63.4095 58.2479L66.2837 53.8766L69.7052 56.9233C74.906 61.5595 78.4645 62.8841 85.4445 62.8841C92.5614 62.8841 98.5834 60.3673 101.731 55.996C102.963 54.4064 104.058 53.3467 104.332 53.7441C104.605 54.0091 106.111 56.2609 107.89 58.5128L110.901 62.8841L104.879 68.5801C101.321 72.1566 96.8041 75.0708 93.5194 75.8656C87.3606 77.4551 77.5064 76.6604 72.3056 74.0111ZM366.698 73.6137C366.698 72.8189 363.414 68.845 359.445 64.6062C350.548 55.3337 348.906 52.552 348.906 46.4586C348.906 43.0146 349.454 41.6899 350.959 41.6899C352.738 41.6899 352.875 42.2198 351.643 44.3392C349.59 48.0482 352.738 53.8766 361.224 62.7517L368.067 70.0372L375.321 62.3543C383.943 52.9493 385.996 48.843 384.354 44.4717C382.985 41.0276 383.532 39.5705 385.722 41.0276C388.049 42.3522 387.501 51.3598 384.901 54.9363C383.669 56.7908 379.7 61.427 376.005 65.2685C372.447 69.2424 369.436 72.9514 369.436 73.6137C369.436 74.276 368.751 74.8059 368.067 74.8059C367.246 74.8059 366.698 74.276 366.698 73.6137ZM285.949 73.6137C285.949 72.9514 282.938 69.2424 279.38 65.2685C269.799 55.0688 268.157 52.287 268.157 46.7235C268.157 43.0146 268.704 41.6899 270.21 41.6899C271.989 41.6899 272.126 42.2198 270.894 44.3392C268.841 48.0482 271.989 53.8766 280.475 62.7517L287.318 70.0372L294.571 62.3543C303.194 52.9493 305.247 48.843 303.604 44.4717C302.236 41.0276 302.783 39.5705 304.973 41.0276C306.889 42.0873 306.889 50.4325 304.836 54.0091C304.015 55.5986 300.046 60.3673 295.94 64.6062C291.971 68.845 288.686 72.8189 288.686 73.6137C288.686 74.276 288.002 74.8059 287.318 74.8059C286.496 74.8059 285.949 74.276 285.949 73.6137ZM205.2 73.6137C205.2 72.8189 201.778 68.7125 197.672 64.4737C189.324 55.7311 186.176 49.7702 187.134 44.8691C188.092 40.1004 190.145 41.0276 189.871 46.1937C189.734 51.3598 191.24 53.8766 200.273 63.5464L206.568 70.0372L213.685 62.3543C222.445 52.9493 224.497 48.843 222.855 44.4717C221.486 41.0276 222.034 39.5705 224.224 41.0276C226.14 42.0873 226.14 50.4325 224.087 54.0091C223.266 55.5986 219.297 60.3673 215.191 64.6062C211.222 68.845 207.937 72.8189 207.937 73.6137C207.937 74.276 207.253 74.8059 206.568 74.8059C205.747 74.8059 205.2 74.276 205.2 73.6137ZM124.451 73.6137C124.451 72.8189 121.166 68.845 117.197 64.6062C108.301 55.3337 106.658 52.552 106.658 46.4586C106.658 43.0146 107.206 41.6899 108.711 41.6899C110.49 41.6899 110.627 42.2198 109.396 44.3392C107.343 48.0482 110.354 53.8766 118.839 62.8841L125.682 70.1696L132.936 62.3543C141.695 52.9493 143.748 48.9754 142.106 44.4717C140.737 41.0276 141.285 39.5705 143.474 41.0276C145.801 42.3522 145.254 51.3598 142.653 54.9363C141.422 56.7908 137.453 61.427 133.757 65.2685C130.199 69.2424 127.188 72.9514 127.188 73.6137C127.188 74.276 126.503 74.8059 125.819 74.8059C124.998 74.8059 124.451 74.276 124.451 73.6137ZM43.7012 73.6137C43.7012 72.8189 40.4165 68.845 36.4475 64.6062C27.5514 55.3337 25.909 52.552 25.909 46.4586C25.909 43.0146 26.4565 41.6899 27.962 41.6899C29.7412 41.6899 29.8781 42.2198 28.6463 44.3392C26.5933 48.0482 29.7412 53.8766 38.2267 62.7517L45.0699 70.0372L52.3236 62.3543C60.946 52.9493 62.9989 48.843 61.3566 44.4717C59.988 41.0276 60.5354 39.5705 62.7252 41.0276C65.0519 42.3522 64.5044 51.3598 61.904 54.9363C60.6723 56.7908 56.7032 61.427 53.0079 65.2685C49.4495 69.2424 46.4385 72.9514 46.4385 73.6137C46.4385 74.276 45.7542 74.8059 45.0699 74.8059C44.2487 74.8059 43.7012 74.276 43.7012 73.6137ZM360.813 58.1154C354.244 50.6975 352.465 44.6041 356.023 41.8224C365.056 34.8018 368.204 31.6227 368.888 28.9734C369.846 25.3969 372.173 26.0592 372.173 29.9006C372.173 31.3577 373.815 34.007 375.731 35.994C379.427 39.5705 381.753 44.3392 381.753 48.4456C381.753 50.565 369.846 65.2685 368.067 65.2685C367.656 65.2685 364.508 62.0893 360.813 58.1154ZM280.064 58.1154C273.494 50.6975 271.715 44.6041 275.274 41.8224C284.307 34.8018 287.455 31.6227 288.139 28.9734C289.097 25.3969 291.424 26.0592 291.424 29.9006C291.424 31.3577 293.066 34.007 294.982 35.994C298.677 39.5705 301.004 44.3392 301.004 48.4456C301.004 50.565 289.097 65.2685 287.318 65.2685C286.907 65.2685 283.759 62.0893 280.064 58.1154ZM199.315 58.1154C192.745 50.6975 190.966 44.6041 194.524 41.8224C203.557 34.8018 206.705 31.6227 207.39 28.9734C208.074 26.1917 210.948 24.2047 210.537 26.854C209.99 30.1656 211.085 32.9473 214.233 35.994C217.928 39.5705 220.255 44.3392 220.255 48.4456C220.255 50.565 208.348 65.2685 206.568 65.2685C206.158 65.2685 203.01 62.0893 199.315 58.1154ZM118.565 58.1154C111.996 50.6975 110.217 44.6041 113.775 41.8224C122.808 34.8018 125.956 31.6227 126.64 28.9734C127.598 25.3969 129.925 26.0592 129.925 29.9006C129.925 31.3577 131.567 34.007 133.483 35.994C137.179 39.5705 139.505 44.3392 139.505 48.4456C139.505 50.565 127.598 65.2685 125.819 65.2685C125.409 65.2685 122.261 62.0893 118.565 58.1154ZM37.8161 58.1154C31.2467 50.6975 29.4675 44.6041 33.0259 41.8224C42.0589 34.8018 45.2067 31.6227 45.8911 28.9734C46.8491 25.3969 49.1758 25.9267 49.1758 29.7682C49.1758 31.0928 51.3656 34.6693 53.966 37.716C60.6723 45.3989 60.3985 49.2404 52.1868 58.1154C48.6283 62.0893 45.4805 65.2685 45.0699 65.2685C44.6593 65.2685 41.5114 62.0893 37.8161 58.1154ZM315.922 56.1285C312.637 53.8766 309.216 46.9885 309.216 42.7496C309.216 41.0276 315.375 41.5575 318.112 43.5444C320.575 45.2664 320.575 45.3989 317.701 46.856C313.869 48.843 313.595 53.6117 317.428 53.6117C319.617 53.6117 320.165 52.6844 320.165 49.6378C320.165 45.6638 320.986 45.0015 324.818 46.4586C326.461 47.1209 326.597 47.7833 325.502 49.9027C323.723 53.0818 324.818 56.2609 327.692 56.2609C330.703 56.2609 331.798 52.6844 329.608 50.1676C328.24 48.4456 328.24 47.9157 329.882 46.856C333.441 44.6041 335.357 45.5314 334.946 49.2404C334.672 51.7572 335.22 52.9493 336.999 53.3467C340.694 54.1415 341.652 49.6378 338.094 47.1209L335.22 45.0015L338.094 42.6172C342.474 38.9082 345.621 40.2328 345.074 45.6638C344.253 52.4195 342.474 54.8038 336.178 57.718C329.335 60.7647 321.807 60.2349 315.922 56.1285ZM238.458 57.718C232.436 55.0688 230.793 52.8169 229.288 46.1937C228.467 42.6172 228.74 41.9549 231.477 41.425C233.394 41.1601 235.72 41.8224 237.226 43.147C239.552 45.3989 239.552 45.5314 236.815 46.9885C233.12 48.843 232.983 53.6117 236.678 53.6117C238.868 53.6117 239.416 52.6844 239.416 49.6378C239.416 45.6638 240.237 45.0015 244.069 46.4586C245.711 47.1209 245.848 47.7833 244.753 49.9027C242.974 53.0818 244.069 56.2609 246.943 56.2609C249.954 56.2609 251.049 52.6844 248.859 50.1676C247.49 48.4456 247.49 47.9157 249.133 46.856C252.691 44.6041 254.607 45.5314 254.197 49.3728C253.923 52.1546 254.471 53.0818 256.797 53.3467C260.903 53.8766 261.177 48.9754 257.071 46.856L254.197 45.3989L257.071 42.8821C259.945 40.2328 263.367 39.5705 264.598 41.425C266.104 43.9418 262.682 53.0818 258.987 55.8635C252.828 60.6322 246.532 61.1621 238.458 57.718ZM154.424 56.1285C151.276 54.0091 147.717 46.9885 147.717 42.8821C147.717 40.7627 154.15 41.0276 156.476 43.147C158.803 45.3989 158.803 45.5314 156.066 46.9885C152.371 48.843 152.234 53.6117 155.929 53.6117C158.119 53.6117 158.666 52.6844 158.666 49.6378C158.666 45.6638 159.487 45.0015 163.32 46.4586C164.962 47.1209 165.099 47.7833 164.004 49.9027C162.225 53.0818 163.32 56.2609 166.194 56.2609C169.205 56.2609 170.3 52.6844 168.11 50.1676C166.741 48.4456 166.741 47.9157 168.384 46.856C171.942 44.7366 173.721 45.5314 173.721 49.6378C173.721 52.287 174.406 53.6117 175.774 53.6117C179.333 53.6117 179.88 49.5053 176.595 47.1209L173.721 45.0015L176.595 42.6172C180.975 38.9082 184.123 40.2328 183.575 45.6638C182.754 52.4195 180.975 54.8038 174.679 57.718C167.836 60.7647 160.309 60.2349 154.424 56.1285ZM73.6743 56.1285C70.3896 53.8766 66.968 46.9885 66.968 42.7496C66.968 41.0276 73.1268 41.5575 75.8641 43.5444C78.3276 45.2664 78.3276 45.3989 75.4535 46.856C71.6213 48.843 71.3476 53.6117 75.1798 53.6117C77.3696 53.6117 77.917 52.6844 77.917 49.6378C77.917 45.6638 78.7382 45.0015 82.5704 46.4586C84.2127 47.1209 84.3496 47.7833 83.2547 49.9027C81.4755 53.0818 82.5704 56.2609 85.4445 56.2609C88.4555 56.2609 89.5504 52.6844 87.3606 50.1676C85.992 48.4456 85.992 47.9157 87.6343 46.856C91.1928 44.6041 93.1088 45.5314 92.6983 49.2404C92.4245 51.7572 92.972 52.9493 94.7512 53.3467C98.4465 54.1415 99.4045 49.6378 95.8461 47.1209L92.972 45.0015L95.8461 42.6172C100.226 38.9082 103.374 40.2328 102.826 45.5314C102.279 52.0221 100.226 54.9363 93.93 57.718C87.0869 60.7647 79.5594 60.2349 73.6743 56.1285ZM320.165 40.8951C317.701 38.6433 320.028 38.3783 324.955 40.6302C327.966 41.9549 329.061 41.6899 332.483 39.3056C336.725 36.1264 339.463 37.4511 335.493 40.6302C330.703 44.7366 324.271 44.8691 320.165 40.8951ZM239.416 40.8951C236.952 38.6433 239.552 38.2459 243.795 40.4978C246.669 42.0873 254.471 39.8354 254.471 37.4511C254.471 36.7888 255.155 36.6563 255.839 37.0537C257.755 38.1134 255.018 41.5575 251.049 43.147C247.627 44.4717 242.153 43.412 239.416 40.8951ZM158.666 40.8951C156.203 38.6433 158.803 38.2459 163.046 40.4978C165.92 42.0873 173.721 39.8354 173.721 37.4511C173.721 36.7888 174.406 36.6563 175.09 37.0537C177.006 38.1134 174.269 41.5575 170.3 43.147C166.878 44.4717 161.404 43.412 158.666 40.8951ZM77.917 40.8951C75.4535 38.6433 78.0539 38.2459 82.2967 40.4978C85.1708 42.0873 92.972 39.8354 92.972 37.4511C92.972 36.7888 93.6563 36.6563 94.3406 37.0537C96.2567 38.1134 93.5194 41.5575 89.5504 43.147C86.1288 44.4717 80.6543 43.412 77.917 40.8951ZM384.08 37.1862C377.51 34.5369 374.363 30.4305 374.499 24.7346C374.773 15.3296 386.133 10.4285 392.565 17.0517C396.671 21.2905 395.576 26.7215 390.649 27.9137C385.859 29.1059 383.122 27.6488 383.259 24.2047V21.158L384.491 24.2047C385.996 27.6488 388.87 28.0462 391.471 24.9995C393.934 22.0853 391.334 18.5088 386.543 18.5088C377.1 18.5088 377.921 30.0331 387.501 30.8279C398.177 31.7551 402.009 20.8931 393.387 14.2699C390.786 12.283 388.596 10.0311 388.596 9.36876C388.596 8.70644 389.691 9.10383 391.06 10.296C394.208 13.0777 399.409 13.2102 400.367 10.6934C400.914 9.2363 401.872 9.50123 404.473 11.8856C410.631 17.4491 407.62 32.1525 399.272 35.994C392.018 39.438 389.965 39.5705 384.08 37.1862ZM343.021 37.1862C337.957 35.1992 333.851 30.0331 333.851 25.7943C333.851 21.9528 337.41 15.727 340.01 14.6673C346.853 12.1505 354.381 15.8595 354.381 21.6879C354.381 23.6748 353.696 25.9267 352.738 26.854C349.317 30.1656 342.063 27.9137 342.063 23.4099C342.063 22.2177 343.021 22.6151 344.526 24.6021C347.948 28.576 352.054 27.2514 351.37 22.2177C350.959 18.9062 350.412 18.5088 346.169 18.5088C342.2 18.5088 341.242 19.1711 340.147 22.0853C338.368 26.9864 342.063 31.0928 348.222 31.0928C356.707 31.0928 360.676 21.158 354.791 14.7998C350.822 10.6934 352.328 7.51427 356.434 11.2233C359.034 13.6076 360.129 13.8725 362.592 12.5479C366.698 10.4285 367.383 11.6206 367.383 19.8334C367.383 28.0462 364.235 33.0798 356.981 36.6563C351.37 39.5705 348.906 39.5705 343.021 37.1862ZM303.331 37.1862C296.898 34.6693 293.613 30.4305 293.613 24.867C293.613 19.3035 299.088 13.8725 304.699 13.8725C308.668 13.8725 314.69 18.5088 314.69 21.5554C314.69 24.7346 310.448 28.4435 307.026 28.4435C303.741 28.4435 300.046 23.9398 302.236 22.6151C302.92 22.2177 303.741 23.0125 304.152 24.4696C304.973 27.6488 308.258 27.9137 310.721 24.9995C313.185 22.0853 310.584 18.5088 305.794 18.5088C300.593 18.5088 297.719 22.6151 300.046 27.1189C302.509 31.8876 312.09 32.5499 315.238 28.1786C317.975 24.4696 318.112 18.6412 315.375 16.5218C312.637 14.4024 312.774 13.4751 315.922 11.6206C319.617 9.36876 327.008 12.9453 327.145 16.9192C327.692 28.3111 323.45 34.9343 313.322 38.1134C309.9 39.3056 307.984 39.1731 303.331 37.1862ZM258.576 35.3317C246.259 26.4566 258.029 7.3818 270.62 15.992C273.905 18.2438 274.726 24.2047 271.989 26.854C268.567 30.1656 261.314 27.9137 261.314 23.4099C261.314 22.2177 262.272 22.6151 263.777 24.6021C267.199 28.576 271.305 27.2514 270.62 22.2177C270.21 18.9062 269.662 18.5088 265.42 18.5088C261.451 18.5088 260.492 19.1711 259.398 22.0853C257.618 26.9864 261.314 31.0928 267.473 31.0928C276.642 31.0928 280.201 20.2308 272.947 14.2699C270.073 11.8856 269.525 10.6934 270.757 9.50123C271.852 8.44151 272.263 8.44151 272.263 9.63369C272.263 10.4285 273.494 11.7531 274.863 12.4154C276.779 13.4751 278.285 13.2102 280.885 11.0908L284.444 8.44151L286.086 13.7401C291.424 30.9604 272.81 45.5314 258.576 35.3317ZM222.581 37.1862C216.012 34.5369 212.864 30.4305 213.001 24.7346C213.275 15.5946 224.087 10.6934 230.793 16.7867C234.625 20.2308 234.762 23.2775 231.341 26.3241C227.508 29.6357 222.445 28.576 222.034 24.4696C221.623 21.158 221.623 21.158 222.992 24.2047C224.497 27.6488 227.372 28.0462 229.972 24.9995C232.436 22.0853 229.835 18.5088 225.045 18.5088C219.844 18.5088 216.97 22.6151 219.297 27.1189C221.623 31.6227 229.835 32.4175 233.804 28.576C237.363 25.132 237.499 18.5088 234.078 15.727C231.751 13.7401 231.751 13.3427 233.804 11.3557C235.857 9.36876 236.131 9.36876 238.321 11.4882C239.689 12.8128 241.742 13.3427 243.385 12.9453C245.848 12.4154 246.259 12.8128 246.396 15.992C246.943 28.576 242.974 34.9343 232.572 38.1134C229.151 39.3056 227.235 39.1731 222.581 37.1862ZM177.964 35.3317C165.783 26.4566 177.417 7.51427 189.871 15.992C193.156 18.2438 193.977 24.2047 191.24 26.854C187.818 30.1656 180.564 27.9137 180.564 23.4099C180.564 22.2177 181.522 22.6151 183.028 24.6021C186.45 28.576 190.555 27.2514 189.871 22.2177C189.05 15.5946 177.827 16.7867 177.827 23.5424C177.827 27.6488 181.796 31.0928 186.723 31.0928C196.714 31.0928 199.999 17.714 190.829 13.6076C188.913 12.8128 187.408 11.3557 187.408 10.296C187.408 7.91166 189.597 8.04412 190.692 10.5609C191.65 13.0777 198.22 13.2102 199.178 10.5609C199.862 9.10383 200.683 9.50123 203.421 12.283C206.295 15.3296 206.705 16.7867 206.158 21.6879C204.515 35.7291 189.05 43.2795 177.964 35.3317ZM141.832 37.1862C131.704 33.0798 128.693 23.0125 135.947 17.0517C140.737 12.9453 146.349 12.9453 150.318 17.0517C154.424 21.2905 153.329 26.7215 148.402 27.9137C143.611 29.1059 140.874 27.6488 141.011 24.2047V21.158L142.243 24.2047C143.748 27.6488 146.622 28.0462 149.223 24.9995C151.686 22.0853 149.086 18.5088 144.296 18.5088C139.095 18.5088 136.221 22.6151 138.547 27.1189C141.011 31.8876 150.591 32.5499 153.739 28.1786C156.75 24.0722 156.476 18.9062 153.055 15.3296C150.865 13.0777 150.591 12.018 151.823 10.5609C153.055 9.10383 153.739 9.10383 156.066 11.3557C158.119 13.3427 159.351 13.6076 161.267 12.6804C164.825 10.8259 165.509 12.018 165.509 19.5685C165.509 29.2383 161.13 35.1992 151.823 38.1134C148.402 39.3056 146.485 39.1731 141.832 37.1862ZM97.0779 35.3317C84.7602 26.4566 96.5304 7.3818 109.122 15.992C112.407 18.2438 113.228 24.2047 110.49 26.854C107.069 30.1656 99.8151 27.9137 99.8151 23.4099C99.8151 22.2177 100.773 22.6151 102.279 24.6021C105.7 28.576 109.806 27.2514 109.122 22.2177C108.711 18.9062 108.164 18.5088 103.921 18.5088C99.952 18.5088 98.994 19.1711 97.8991 22.0853C96.1198 26.9864 99.8151 31.0928 105.974 31.0928C111.312 31.0928 115.281 27.1189 115.281 21.8204C115.281 19.7009 114.186 16.6543 112.817 15.1972C110.354 12.6804 110.354 12.5479 113.091 12.5479C114.733 12.5479 116.376 11.4882 116.923 10.296C117.744 8.04412 117.881 8.04412 119.113 10.296C119.934 11.4882 121.303 12.5479 122.398 12.5479C124.998 12.5479 126.367 17.9789 125.272 23.6748C122.808 36.5238 107.479 42.7496 97.0779 35.3317ZM61.0829 37.1862C50.955 33.0798 47.944 23.0125 55.1977 17.0517C59.988 12.9453 65.5993 12.9453 69.5684 17.0517C73.6743 21.2905 72.5794 26.7215 67.6523 27.9137C62.8621 29.1059 60.1248 27.6488 60.2617 24.2047V21.158L61.4935 24.2047C62.9989 27.6488 65.8731 28.0462 68.4735 24.9995C70.937 22.0853 68.3366 18.5088 63.5464 18.5088C54.1028 18.5088 54.924 30.0331 64.5044 30.8279C74.0849 31.6227 78.8751 21.6879 71.8951 15.3296C69.979 13.6076 68.8841 11.3557 69.2947 10.296C69.8421 8.83891 70.5264 8.97137 72.7162 11.0908C75.8641 14.4024 77.0959 14.5348 79.97 11.6206C81.8861 9.76615 82.4335 9.76615 83.5284 11.3557C87.7712 17.8464 83.5284 32.6824 76.2747 35.994C69.0209 39.438 66.968 39.5705 61.0829 37.1862ZM16.3286 35.3317C4.01092 26.4566 15.7812 7.3818 28.3726 15.992C31.6573 18.2438 32.4785 24.2047 29.7412 26.854C26.3196 30.1656 19.0659 27.9137 19.0659 23.4099C19.0659 22.2177 20.0239 22.6151 21.5294 24.6021C24.951 28.576 29.0569 27.2514 28.3726 22.2177C27.962 18.9062 27.4145 18.5088 23.1718 18.5088C19.2027 18.5088 18.2447 19.1711 17.1498 22.0853C14.4125 29.6357 26.3196 34.6693 32.0679 28.4435C35.0789 25.132 35.3526 18.7737 32.4785 15.5946C30.6992 13.4751 30.6992 12.9453 32.7522 11.0908C34.942 9.10383 35.3526 9.10383 37.4055 11.4882C38.7742 12.9453 40.6903 13.7401 41.7852 13.3427C44.2487 12.4154 45.6173 17.714 44.5224 23.6748C42.0589 36.5238 26.7302 42.7496 16.3286 35.3317ZM324.271 36.6563C324.271 36.1264 324.955 34.9343 325.776 34.1395C326.597 33.3447 328.103 30.4305 329.061 27.6488C330.977 22.6151 330.977 22.6151 331.114 26.4566C331.114 28.7085 331.661 31.3577 332.483 32.4175C334.125 34.9343 331.661 37.716 327.555 37.716C325.776 37.716 324.271 37.1862 324.271 36.6563ZM243.521 36.6563C243.521 36.1264 244.206 34.9343 245.027 34.1395C245.848 33.3447 247.354 30.4305 248.312 27.6488C250.228 22.6151 250.228 22.6151 250.365 26.4566C250.365 28.7085 250.912 31.3577 251.733 32.4175C253.376 34.9343 250.912 37.716 246.806 37.716C245.027 37.716 243.521 37.1862 243.521 36.6563ZM164.825 32.9473C168.11 28.3111 169.068 23.9398 168.52 16.2569C168.247 13.6076 168.931 12.5479 170.573 12.5479C171.805 12.5479 173.858 11.6206 175.09 10.5609C177.143 8.70644 177.553 8.70644 178.238 10.4285C178.785 11.6206 178.101 12.6804 176.322 13.2102C171.121 14.9322 167.562 27.2514 170.984 32.4175C172.763 35.1992 170.026 37.716 165.373 37.716H161.54L164.825 32.9473ZM82.0229 37.0537C82.0229 36.6563 82.981 34.8018 84.2127 32.9473C85.4445 31.2253 86.95 27.7812 87.4975 25.3969L88.5924 21.158L88.7292 25.7943C88.8661 28.3111 89.4135 31.3577 90.2347 32.4175C91.8771 34.9343 89.4135 37.716 85.3076 37.716C83.5284 37.716 82.0229 37.4511 82.0229 37.0537ZM370.804 17.8464C370.804 14.2699 371.352 12.5479 372.72 12.5479C373.678 12.5479 375.321 11.6206 376.279 10.5609C377.51 9.10383 378.332 8.83891 379.016 9.89862C379.563 10.6934 378.195 13.0777 376.142 15.1972C373.952 17.3166 372.173 19.9659 372.173 21.0256C372.173 22.2177 371.899 23.145 371.489 23.145C371.078 23.145 370.804 20.7606 370.804 17.8464ZM292.518 11.4882C294.435 9.63369 295.666 9.2363 296.761 10.296C297.719 11.2233 297.172 12.8128 294.845 15.4621C292.929 17.5815 291.287 20.3633 291.15 21.5554C291.013 22.7476 290.739 21.5554 290.466 18.9062C290.055 15.3296 290.602 13.3427 292.518 11.4882ZM128.146 10.296C128.693 9.10383 129.651 9.2363 131.978 10.9583C134.989 13.2102 134.989 13.2102 132.525 16.3893C131.02 18.1114 129.788 20.4957 129.788 21.6879C129.651 22.8801 129.104 21.158 128.556 17.8464C128.009 14.5348 127.872 11.0908 128.146 10.296ZM210.401 10.9583C212.317 8.70644 212.59 8.70644 214.096 10.8259C215.465 12.5479 215.191 13.7401 212.864 17.1841L209.99 21.423L209.169 17.3166C208.758 14.6673 209.169 12.4154 210.401 10.9583ZM47.2597 14.5348C46.5754 9.50123 46.7122 8.44151 47.8071 10.296C48.6283 11.4882 50.5444 12.5479 51.913 12.5479C54.3766 12.5479 54.3766 12.8128 51.5024 17.0517C49.8601 19.436 48.3546 21.423 48.3546 21.2905C48.2177 21.2905 47.8071 18.2438 47.2597 14.5348ZM329.472 10.0311C330.019 8.70644 330.43 8.70644 331.388 10.4285C332.072 11.6206 333.577 12.5479 334.535 12.5479C335.63 12.5479 336.588 13.2102 336.588 13.8725C336.588 14.6673 336.041 15.1972 335.357 15.1972C334.672 15.1972 333.577 16.5218 333.03 18.2438C332.072 20.8931 331.935 20.8931 330.43 16.5218C329.472 14.005 329.061 11.0908 329.472 10.0311ZM247.764 9.89862C247.764 8.30905 248.038 8.44151 249.133 10.296C250.912 13.2102 256.66 13.2102 258.303 10.4285C259.124 8.97137 259.945 8.70644 260.492 9.63369C260.903 10.4285 259.534 12.1505 257.208 13.3427C255.018 14.6673 252.691 16.9192 252.144 18.5088C251.46 20.7606 251.049 20.4957 249.543 16.5218C248.585 14.005 247.764 10.9583 247.764 9.89862ZM87.4975 14.9322C87.4975 13.6076 88.4555 12.5479 89.5504 12.5479C90.5084 12.5479 92.0139 11.6206 92.6983 10.4285C93.6563 8.70644 94.0669 8.57398 95.5724 10.4285C96.941 12.018 96.8041 12.6804 94.4775 13.7401C92.972 14.5348 91.3296 16.5218 90.919 17.9789C90.0979 20.2308 89.6873 20.4957 88.7292 19.0386C88.0449 17.9789 87.4975 16.1244 87.4975 14.9322ZM9.21172 11.4882C11.6753 9.10383 11.8121 9.10383 13.4545 11.3557C14.4125 12.9453 14.4125 13.8725 13.5913 13.8725C12.7702 13.8725 11.4015 15.4621 10.5804 17.3166L8.938 20.7606L7.70623 17.4491C6.88505 14.7998 7.15878 13.4751 9.21172 11.4882ZM405.02 6.58702C405.02 4.20267 405.704 3.27543 407.757 3.27543C410.495 3.27543 411.589 6.98441 409.536 8.97137C407.484 11.0908 405.02 9.76615 405.02 6.58702ZM392.976 6.18963C392.565 3.93775 393.25 3.27543 395.303 3.27543C397.219 3.27543 398.177 4.07021 398.177 5.65978C398.177 10.6934 393.66 11.0908 392.976 6.18963ZM381.753 6.58702C381.753 4.20267 382.438 3.27543 384.354 3.27543C386.27 3.27543 386.68 4.07021 386.133 6.58702C385.859 8.44151 384.627 9.89862 383.669 9.89862C382.574 9.89862 381.753 8.57398 381.753 6.58702ZM369.436 6.58702C369.436 4.20267 370.12 3.27543 372.173 3.27543C374.91 3.27543 376.005 6.98441 373.952 8.97137C371.899 11.0908 369.436 9.76615 369.436 6.58702ZM357.392 6.18963C356.981 3.93775 357.665 3.27543 359.718 3.27543C361.908 3.27543 362.592 4.07021 362.592 6.71949C362.592 11.0908 358.076 10.6934 357.392 6.18963ZM346.169 6.58702C346.169 4.20267 346.853 3.27543 348.769 3.27543C350.685 3.27543 351.096 4.07021 350.548 6.58702C350.275 8.44151 349.043 9.89862 348.085 9.89862C346.99 9.89862 346.169 8.57398 346.169 6.58702ZM334.125 6.18963C333.714 3.93775 334.399 3.27543 336.452 3.27543C338.368 3.27543 339.326 4.07021 339.326 5.65978C339.326 10.6934 334.809 11.0908 334.125 6.18963ZM321.807 6.18963C321.397 3.93775 322.081 3.27543 324.134 3.27543C326.324 3.27543 327.008 4.07021 327.008 6.71949C327.008 11.0908 322.491 10.6934 321.807 6.18963ZM310.584 6.58702C310.584 4.20267 311.269 3.27543 313.322 3.27543C316.059 3.27543 317.154 6.98441 315.101 8.97137C313.048 11.0908 310.584 9.76615 310.584 6.58702ZM298.54 6.18963C298.13 3.93775 298.814 3.27543 300.867 3.27543C302.783 3.27543 303.741 4.07021 303.741 5.65978C303.741 10.6934 299.225 11.0908 298.54 6.18963ZM286.77 7.7792C285.402 4.33514 285.812 3.27543 288.686 3.27543C290.739 3.27543 291.424 4.20267 291.424 6.58702C291.424 10.296 288.139 11.0908 286.77 7.7792ZM275 6.58702C275 4.20267 275.684 3.27543 277.737 3.27543C280.475 3.27543 281.569 6.98441 279.516 8.97137C277.464 11.0908 275 9.76615 275 6.58702ZM262.956 6.18963C262.545 3.93775 263.23 3.27543 265.283 3.27543C267.199 3.27543 268.157 4.07021 268.157 5.65978C268.157 10.6934 263.64 11.0908 262.956 6.18963ZM251.733 6.58702C251.733 4.4676 252.554 3.27543 253.786 3.27543C255.018 3.27543 255.839 4.4676 255.839 6.58702C255.839 8.70644 255.018 9.89862 253.786 9.89862C252.554 9.89862 251.733 8.70644 251.733 6.58702ZM239.689 6.18963C239.279 3.93775 239.963 3.27543 242.016 3.27543C243.932 3.27543 244.89 4.07021 244.89 5.65978C244.89 10.6934 240.374 11.0908 239.689 6.18963ZM227.372 6.18963C226.961 3.93775 227.645 3.27543 229.698 3.27543C231.888 3.27543 232.572 4.07021 232.572 6.71949C232.572 11.0908 228.056 10.6934 227.372 6.18963ZM216.149 6.58702C216.149 4.20267 216.833 3.27543 218.749 3.27543C220.665 3.27543 221.076 4.07021 220.528 6.58702C220.255 8.44151 219.023 9.89862 218.065 9.89862C216.97 9.89862 216.149 8.57398 216.149 6.58702ZM204.105 6.18963C203.694 3.93775 204.379 3.27543 206.432 3.27543C208.348 3.27543 209.306 4.07021 209.306 5.65978C209.306 10.6934 204.789 11.0908 204.105 6.18963ZM191.787 6.18963C191.377 3.93775 192.061 3.27543 194.114 3.27543C196.304 3.27543 196.988 4.07021 196.988 6.71949C196.988 11.0908 192.471 10.6934 191.787 6.18963ZM180.564 6.58702C180.564 4.20267 181.249 3.27543 183.302 3.27543C186.039 3.27543 187.134 6.98441 185.081 8.97137C183.028 11.0908 180.564 9.76615 180.564 6.58702ZM168.52 6.18963C168.11 3.93775 168.794 3.27543 170.847 3.27543C172.763 3.27543 173.721 4.07021 173.721 5.65978C173.721 10.6934 169.205 11.0908 168.52 6.18963ZM156.75 7.7792C155.382 4.33514 155.792 3.27543 158.666 3.27543C160.719 3.27543 161.404 4.20267 161.404 6.58702C161.404 10.296 158.119 11.0908 156.75 7.7792ZM144.98 6.58702C144.98 4.20267 145.664 3.27543 147.717 3.27543C150.455 3.27543 151.549 6.98441 149.496 8.97137C147.444 11.0908 144.98 9.76615 144.98 6.58702ZM132.936 6.18963C132.525 3.93775 133.21 3.27543 135.263 3.27543C137.453 3.27543 138.137 4.07021 138.137 6.71949C138.137 11.0908 133.62 10.6934 132.936 6.18963ZM121.44 6.58702C120.892 4.07021 121.303 3.27543 123.219 3.27543C125.135 3.27543 125.819 4.20267 125.819 6.58702C125.819 8.57398 124.998 9.89862 123.903 9.89862C122.945 9.89862 121.713 8.44151 121.44 6.58702ZM109.396 6.58702C109.396 4.20267 110.08 3.27543 112.133 3.27543C114.87 3.27543 115.965 6.98441 113.912 8.97137C111.859 11.0908 109.396 9.76615 109.396 6.58702ZM97.3516 6.18963C96.941 3.93775 97.6253 3.27543 99.6783 3.27543C101.868 3.27543 102.552 4.07021 102.552 6.71949C102.552 11.0908 98.0359 10.6934 97.3516 6.18963ZM86.1288 6.58702C86.1288 4.20267 86.8131 3.27543 88.8661 3.27543C91.6033 3.27543 92.6983 6.98441 90.6453 8.97137C88.5924 11.0908 86.1288 9.76615 86.1288 6.58702ZM74.0849 6.18963C73.6743 3.93775 74.3586 3.27543 76.4115 3.27543C78.3276 3.27543 79.2857 4.07021 79.2857 5.65978C79.2857 10.6934 74.7692 11.0908 74.0849 6.18963ZM62.3146 7.7792C60.946 4.33514 61.3566 3.27543 64.2307 3.27543C66.2837 3.27543 66.968 4.20267 66.968 6.58702C66.968 10.296 63.6833 11.0908 62.3146 7.7792ZM50.5444 6.58702C50.5444 4.20267 51.2287 3.27543 53.2817 3.27543C56.0189 3.27543 57.1138 6.98441 55.0609 8.97137C53.0079 11.0908 50.5444 9.76615 50.5444 6.58702ZM38.5004 6.18963C38.0899 3.93775 38.7742 3.27543 40.8271 3.27543C42.7432 3.27543 43.7012 4.07021 43.7012 5.65978C43.7012 10.6934 39.1848 11.0908 38.5004 6.18963ZM26.7302 7.7792C25.3616 4.33514 25.7722 3.27543 28.6463 3.27543C30.6992 3.27543 31.3836 4.20267 31.3836 6.58702C31.3836 10.296 28.0988 11.0908 26.7302 7.7792ZM14.96 6.58702C14.96 4.20267 15.6443 3.27543 17.6972 3.27543C20.4345 3.27543 21.5294 6.98441 19.4765 8.97137C17.4235 11.0908 14.96 9.76615 14.96 6.58702ZM2.91602 6.18963C2.50543 3.93775 3.18975 3.27543 5.24269 3.27543C7.4325 3.27543 8.11682 4.07021 8.11682 6.71949C8.11682 11.0908 3.60033 10.6934 2.91602 6.18963Z" fill="#FFEFD5"/>
<path d="M371.762 54.5389C373.542 52.1545 374.91 49.1079 374.91 47.9157C374.91 45.6638 369.436 36.3914 368.067 36.3914C366.698 36.3914 361.224 45.2664 361.224 47.5183C361.224 50.1676 366.288 58.9102 367.793 58.9102C368.341 58.9102 370.12 56.9232 371.762 54.5389ZM365.603 47.9157C365.33 46.3261 366.014 45.6638 367.93 45.6638C369.572 45.6638 370.804 46.4586 370.804 47.3859C370.804 51.4922 366.425 51.8896 365.603 47.9157Z" fill="#FFEFD5"/>
<path d="M291.013 54.5389C292.792 52.1545 294.161 49.1079 294.161 47.9157C294.161 45.6638 288.686 36.3914 287.317 36.3914C285.949 36.3914 280.474 45.2664 280.474 47.5183C280.474 50.1676 285.538 58.9102 287.044 58.9102C287.591 58.9102 289.37 56.9232 291.013 54.5389ZM284.854 47.9157C284.58 46.3261 285.265 45.6638 287.181 45.6638C288.823 45.6638 290.055 46.4586 290.055 47.3859C290.055 51.4922 285.675 51.8896 284.854 47.9157Z" fill="#FFEFD5"/>
<path d="M210.264 54.5389C212.043 52.1545 213.412 49.1079 213.412 47.9157C213.412 45.6638 207.937 36.3914 206.568 36.3914C205.2 36.3914 199.725 45.2664 199.725 47.5183C199.725 50.1676 204.789 58.9102 206.295 58.9102C206.842 58.9102 208.621 56.9232 210.264 54.5389ZM204.105 47.9157C203.831 46.3261 204.516 45.6638 206.432 45.6638C208.074 45.6638 209.306 46.4586 209.306 47.3859C209.306 51.4922 204.926 51.8896 204.105 47.9157Z" fill="#FFEFD5"/>
<path d="M129.514 54.5389C131.293 52.1545 132.662 49.1079 132.662 47.9157C132.662 45.6638 127.188 36.3914 125.819 36.3914C124.45 36.3914 118.976 45.2664 118.976 47.5183C118.976 50.1676 124.04 58.9102 125.545 58.9102C126.093 58.9102 127.872 56.9232 129.514 54.5389ZM123.355 47.9157C123.082 46.3261 123.766 45.6638 125.682 45.6638C127.324 45.6638 128.556 46.4586 128.556 47.3859C128.556 51.4922 124.177 51.8896 123.355 47.9157Z" fill="#FFEFD5"/>
<path d="M48.7652 54.5389C50.5445 52.1545 51.9131 49.1079 51.9131 47.9157C51.9131 45.6638 46.4386 36.3914 45.0699 36.3914C43.7013 36.3914 38.2268 45.2664 38.2268 47.6508C38.2268 50.0351 43.5644 58.9102 45.0699 58.9102C45.4805 58.9102 47.1229 56.9232 48.7652 54.5389ZM42.6064 47.9157C42.3327 46.3261 43.017 45.6638 44.9331 45.6638C46.5754 45.6638 47.8072 46.4586 47.8072 47.3859C47.8072 51.4922 43.4276 51.8896 42.6064 47.9157Z" fill="#FFEFD5"/>
<path d="M-41.6593 84.6082C-40.975 84.0783 -40.5644 82.4888 -40.5644 81.0317C-40.5644 79.5746 -39.3327 78.2499 -37.6903 77.8525C-35.6374 77.3227 -35.0899 76.3954 -35.6374 74.1436C-36.3217 71.4943 -36.048 71.2293 -33.4476 71.8917C-30.984 72.4215 -30.7103 72.1566 -31.2577 69.7722C-32.2158 66.1957 -30.4366 64.8711 -28.2468 67.5204C-27.2887 68.5801 -25.6464 69.5073 -24.5515 69.5073C-23.4565 69.5073 -23.046 70.1696 -23.4565 70.832C-24.6883 72.8189 -21.5405 76.1305 -18.3926 76.1305C-17.024 76.1305 -15.5185 77.0578 -14.971 78.2499C-14.5604 79.4421 -12.7812 80.1044 -10.5914 79.972C-8.67533 79.707 -5.8012 80.2369 -4.29571 81.0317C-1.01099 82.6212 1.86314 81.9589 1.86314 79.3096C1.86314 78.2499 0.494505 77.4551 -1.28472 77.4551C-8.4016 77.4551 -15.3816 74.276 -21.4036 68.5801C-26.7413 63.414 -27.2887 62.4867 -25.3726 61.0296C-24.1409 60.2349 -22.7722 58.1154 -22.0879 56.5259L-21.1299 53.3467L-17.5714 56.6583C-12.3706 61.2946 -8.67533 62.8841 -3.06394 62.8841C3.64236 62.8841 3.09491 60.7647 -3.74825 59.705C-11.5495 58.5128 -16.8871 54.5389 -18.6663 48.578C-20.4456 42.0873 -20.4456 42.0873 -16.8871 41.425C-15.1079 41.1601 -12.7812 41.8224 -11.2757 43.147C-8.94905 45.3989 -8.94905 45.5314 -11.6863 46.9885C-15.3816 48.843 -15.5185 53.6117 -11.8232 53.6117C-9.63337 53.6117 -9.08592 52.6844 -9.08592 49.6378C-9.08592 45.5314 -7.30669 44.7366 -3.74825 46.856C-2.10589 47.9157 -2.10589 48.4456 -3.47453 50.1676C-5.66434 52.6844 -4.56943 56.2609 -1.69531 56.2609C1.31568 56.2609 2.13686 54.0091 0.357642 50.6975C-0.874126 48.578 -0.874126 47.6508 0.357642 47.2534C3.50549 46.1937 1.72627 43.6769 -2.37962 43.5444C-4.70629 43.412 -7.58042 42.3522 -8.81219 41.0276C-11.002 38.7757 -11.002 38.7757 -7.71728 39.703C-2.10589 41.1601 0.905095 41.1601 1.45255 39.438C1.86314 38.2459 0.631368 37.716 -2.37962 37.716C-6.48552 37.716 -6.62238 37.5835 -4.70629 35.4641C-0.326674 30.6954 0.631368 26.5891 1.31568 13.0777L2 -0.698486L-203.432 -0.698486L-408.726 -0.698486V5.12992C-408.726 8.44151 -408.179 11.3557 -407.495 11.7531C-405.168 13.2102 -404.757 20.6282 -406.673 26.1917C-407.768 29.2383 -408.726 32.6824 -408.726 33.7421C-408.726 36.7888 -405.989 33.3447 -403.936 27.6488C-402.02 22.6151 -402.02 22.6151 -401.883 26.4566C-401.883 28.7085 -401.336 31.3577 -400.515 32.4175C-398.872 34.9343 -401.336 37.716 -405.442 37.716C-408.863 37.716 -409.821 39.5705 -407.221 41.0276C-405.442 42.0873 -397.777 39.1731 -397.777 37.4511C-397.777 36.7888 -397.093 36.6563 -396.272 37.1862C-393.808 38.6433 -399.83 43.412 -404.484 43.5444C-408.589 43.6769 -410.369 46.1937 -407.221 47.2534C-405.989 47.6508 -405.989 48.578 -407.221 50.6975C-409 54.0091 -408.179 56.2609 -405.168 56.2609C-402.294 56.2609 -401.199 52.6844 -403.389 50.1676C-404.757 48.4456 -404.757 47.9157 -403.115 46.856C-399.557 44.6041 -397.64 45.5314 -398.051 49.2404C-398.325 51.7572 -397.777 52.9493 -395.998 53.3467C-392.303 54.1415 -391.345 49.6378 -394.903 47.1209L-397.777 45.0015L-394.903 42.6172C-390.524 38.9082 -387.376 40.2328 -387.923 45.6638C-388.197 48.1806 -389.018 51.3598 -389.839 52.6844C-391.345 55.5986 -401.199 60.1024 -405.715 60.2349C-407.358 60.2349 -408.726 60.8972 -408.726 61.5595C-408.726 63.5464 -399.557 63.1491 -395.04 60.8972C-392.85 59.8375 -390.113 57.5856 -389.018 55.996C-387.786 54.4064 -386.691 53.3467 -386.555 53.7441C-386.281 54.0091 -384.775 56.2609 -382.996 58.5128L-379.848 62.8841L-386.007 68.7125C-391.071 73.6137 -393.535 74.9383 -400.378 76.263C-405.031 77.3227 -408.726 78.6473 -408.726 79.5746C-408.726 81.9589 -405.715 82.6212 -402.567 81.0317C-401.062 80.2369 -398.188 79.707 -396.272 79.972C-394.082 80.1044 -392.303 79.4421 -391.892 78.2499C-391.345 77.0578 -389.839 76.1305 -388.471 76.1305C-385.323 76.1305 -382.175 72.8189 -383.407 70.832C-383.817 70.1696 -383.407 69.5073 -382.312 69.5073C-381.217 69.5073 -379.574 68.5801 -378.616 67.5204C-376.427 64.8711 -374.647 66.1957 -375.605 69.7722C-376.153 72.1566 -375.879 72.4215 -373.416 71.8917C-370.405 71.0969 -369.31 72.6864 -371.773 74.1436C-373.689 75.3357 -371.91 77.7201 -369.72 76.9253C-367.804 76.263 -366.299 78.7798 -366.299 82.8862C-366.299 84.2108 -365.751 85.403 -364.93 85.403C-364.246 85.403 -363.561 83.9459 -363.561 82.0914C-363.561 79.707 -362.603 78.3824 -359.866 77.3227C-357.129 76.3954 -356.718 75.6007 -357.813 74.5409C-360.277 72.1566 -359.729 70.9644 -356.445 71.8917C-353.981 72.4215 -353.707 72.1566 -354.255 69.7722C-355.213 66.3282 -353.023 64.3412 -351.791 67.3879C-351.381 68.5801 -349.738 69.5073 -348.37 69.5073C-346.864 69.5073 -346.18 70.1696 -346.59 71.2293C-347.412 73.6137 -343.716 76.6604 -341.116 75.7331C-339.884 75.2033 -338.789 75.998 -338.242 77.5876C-337.557 79.5746 -336.326 80.2369 -333.725 79.972C-331.672 79.707 -328.661 80.2369 -327.156 81.1641C-324.829 82.3563 -323.734 82.2238 -321.681 80.8992C-319.902 79.5746 -318.397 79.4421 -316.754 80.2369C-314.975 81.1641 -313.743 80.7667 -311.964 78.7798C-310.595 77.3227 -308.543 76.1305 -307.311 76.1305C-304.437 76.1305 -301.426 72.6864 -302.657 70.832C-303.068 70.1696 -302.657 69.5073 -301.562 69.5073C-300.468 69.5073 -298.825 68.5801 -297.867 67.5204C-295.677 64.8711 -293.898 66.1957 -294.856 69.7722C-295.404 72.1566 -295.13 72.4215 -292.666 71.8917C-289.382 70.9644 -288.834 72.1566 -291.298 74.5409C-292.393 75.6007 -291.982 76.3954 -289.245 77.3227C-286.508 78.3824 -285.549 79.707 -285.549 82.0914C-285.549 84.0783 -285.002 85.2705 -284.181 84.7407C-283.497 84.3433 -282.812 82.7537 -282.812 81.2966C-282.812 79.707 -281.444 78.2499 -279.117 77.3227C-276.38 76.3954 -275.969 75.6007 -277.064 74.5409C-279.528 72.1566 -278.98 70.9644 -275.695 71.8917C-273.232 72.4215 -272.958 72.1566 -273.506 69.7722C-274.464 66.1957 -272.684 64.8711 -270.495 67.5204C-269.537 68.5801 -267.894 69.5073 -266.799 69.5073C-265.704 69.5073 -265.294 70.1696 -265.704 70.832C-266.936 72.6864 -263.925 76.1305 -261.051 76.1305C-259.819 76.1305 -257.766 77.3227 -256.398 78.7798C-254.618 80.7667 -253.387 81.1641 -251.607 80.2369C-249.965 79.4421 -248.46 79.5746 -246.68 80.8992C-244.627 82.2238 -243.533 82.3563 -241.206 81.1641C-239.7 80.2369 -236.689 79.707 -234.773 79.972C-232.583 80.1044 -230.804 79.4421 -230.394 78.2499C-229.846 77.0578 -228.341 76.1305 -226.972 76.1305C-223.824 76.1305 -220.676 72.8189 -221.908 70.832C-222.319 70.1696 -221.908 69.5073 -220.813 69.5073C-219.718 69.5073 -218.076 68.5801 -217.118 67.5204C-214.928 64.8711 -213.149 66.1957 -214.107 69.7722C-214.654 72.1566 -214.381 72.4215 -211.917 71.8917C-208.632 70.9644 -208.085 72.1566 -210.548 74.5409C-211.643 75.6007 -211.233 76.3954 -208.496 77.3227C-205.758 78.3824 -204.8 79.707 -204.8 82.0914C-204.8 83.9459 -204.253 85.403 -203.432 85.403C-202.747 85.403 -202.063 83.9459 -202.063 82.0914C-202.063 79.707 -201.105 78.3824 -198.368 77.3227C-195.63 76.3954 -195.22 75.6007 -196.315 74.5409C-198.778 72.1566 -198.231 70.9644 -194.946 71.8917C-192.483 72.4215 -192.209 72.1566 -192.756 69.7722C-193.714 66.1957 -191.935 64.8711 -189.745 67.5204C-188.787 68.5801 -187.145 69.5073 -186.05 69.5073C-184.955 69.5073 -184.544 70.1696 -184.955 70.832C-186.187 72.8189 -183.039 76.1305 -179.891 76.1305C-178.523 76.1305 -177.017 77.0578 -176.47 78.2499C-176.059 79.4421 -174.28 80.1044 -172.09 79.972C-170.174 79.707 -167.3 80.2369 -165.794 81.0317C-163.741 82.0914 -162.236 82.0914 -160.32 81.0317C-158.814 80.2369 -155.94 79.707 -154.024 79.972C-151.697 80.1044 -150.055 79.4421 -149.644 78.2499C-149.097 77.0578 -147.591 76.1305 -146.223 76.1305C-143.075 76.1305 -139.927 72.8189 -141.159 70.832C-141.569 70.1696 -141.159 69.5073 -140.064 69.5073C-138.969 69.5073 -137.327 68.5801 -136.369 67.5204C-134.179 64.8711 -132.4 66.1957 -133.358 69.7722C-133.905 72.1566 -133.631 72.4215 -131.168 71.8917C-128.157 71.0969 -127.062 72.6864 -129.525 74.1436C-131.442 75.3357 -129.662 77.7201 -127.473 76.9253C-125.556 76.263 -124.051 78.7798 -124.051 82.8862C-124.051 84.2108 -123.504 85.403 -122.682 85.403C-121.998 85.403 -121.314 83.9459 -121.314 82.0914C-121.314 79.707 -120.356 78.3824 -117.618 77.3227C-114.881 76.3954 -114.471 75.6007 -115.565 74.5409C-118.029 72.1566 -117.482 70.9644 -114.197 71.8917C-111.733 72.4215 -111.46 72.1566 -112.007 69.7722C-112.965 66.1957 -111.186 64.8711 -108.996 67.5204C-108.038 68.5801 -106.396 69.5073 -105.301 69.5073C-104.206 69.5073 -103.795 70.1696 -104.206 70.832C-105.438 72.8189 -102.29 76.1305 -99.2787 76.1305C-97.9101 76.1305 -96.2677 77.0578 -95.5834 78.2499C-94.6254 79.8395 -93.1199 80.2369 -90.5195 79.707C-88.056 79.3096 -85.8661 79.8395 -84.7712 80.8992C-83.1289 82.3563 -82.1708 82.4888 -79.8442 81.1641C-78.2018 80.2369 -75.1908 79.707 -73.001 79.972C-70.4006 80.2369 -69.032 79.5746 -68.2108 77.8525C-67.6633 76.5279 -66.021 75.4682 -64.5155 75.4682C-63.01 75.4682 -61.2308 74.1436 -60.4096 72.554C-59.7253 70.832 -58.3567 69.5073 -57.5355 69.5073C-56.5774 69.5073 -55.4825 68.5801 -55.0719 67.3879C-53.8402 64.3412 -51.6504 66.3282 -52.6084 69.7722C-53.1559 72.1566 -52.8821 72.4215 -50.4186 71.8917C-47.1339 70.9644 -46.5864 72.1566 -49.05 74.5409C-50.1449 75.6007 -49.7343 76.3954 -46.997 77.3227C-44.6703 78.2499 -43.3017 79.8395 -43.028 82.0914C-42.7543 84.0783 -42.2068 85.138 -41.6593 84.6082ZM-89.1509 75.998C-95.7203 74.276 -103.111 69.1099 -105.164 65.0036C-106.122 62.6192 -105.848 61.0296 -103.795 57.8505L-101.195 53.6117L-98.5944 56.3934C-90.2458 65.2685 -72.5904 65.136 -66.021 55.996C-64.7892 54.4064 -63.6943 53.3467 -63.5575 53.7441C-63.2837 54.0091 -61.7782 56.1285 -59.999 58.5128L-56.988 62.7517L-61.2308 67.5204C-66.021 72.8189 -69.3057 74.8059 -75.4645 76.263C-81.4865 77.5876 -83.1289 77.5876 -89.1509 75.998ZM-176.196 74.1436C-178.112 73.0838 -181.67 70.1696 -183.997 67.6528L-188.24 62.8841L-185.229 58.3804L-182.218 53.8766L-178.796 56.9233C-173.595 61.5595 -170.037 62.8841 -163.057 62.8841C-155.94 62.8841 -149.918 60.3673 -146.77 55.996C-145.538 54.4064 -144.444 53.3467 -144.307 53.7441C-144.033 54.0091 -142.527 56.2609 -140.748 58.5128L-137.6 62.8841L-143.622 68.7125C-147.181 72.1566 -151.834 75.0708 -154.982 75.8656C-161.141 77.4551 -170.995 76.6604 -176.196 74.1436ZM-256.945 74.0111C-258.998 73.0838 -262.556 69.9047 -264.883 67.2554C-268.305 63.1491 -268.852 61.9569 -267.347 60.8972C-266.252 60.1024 -265.02 58.1154 -264.336 56.5259L-263.378 53.3467L-259.819 56.6583C-254.345 61.5595 -250.786 62.8841 -243.806 62.8841C-236.689 62.8841 -230.667 60.3673 -227.52 55.996C-226.288 54.4064 -225.193 53.3467 -224.919 53.7441C-224.645 54.0091 -223.14 56.2609 -221.361 58.5128L-218.35 62.8841L-224.372 68.5801C-227.93 72.1566 -232.447 75.0708 -235.731 75.8656C-241.89 77.4551 -251.744 76.6604 -256.945 74.0111ZM-337.694 74.0111C-339.747 73.0838 -343.306 70.0372 -345.496 67.3879L-349.601 62.6192L-346.59 58.2479L-343.716 53.8766L-340.295 56.9233C-335.094 61.5595 -331.536 62.8841 -324.555 62.8841C-317.439 62.8841 -311.417 60.3673 -308.269 55.996C-307.037 54.4064 -305.942 53.3467 -305.668 53.7441C-305.395 54.0091 -303.889 56.2609 -302.11 58.5128L-299.099 62.8841L-305.121 68.5801C-308.679 72.1566 -313.196 75.0708 -316.481 75.8656C-322.639 77.4551 -332.494 76.6604 -337.694 74.0111ZM-43.3017 73.6137C-43.3017 72.8189 -46.5864 68.845 -50.5555 64.6062C-59.4516 55.3337 -61.0939 52.552 -61.0939 46.4586C-61.0939 43.0146 -60.5465 41.6899 -59.041 41.6899C-57.2617 41.6899 -57.1249 42.2198 -58.3567 44.3392C-60.4096 48.0482 -57.2617 53.8766 -48.7762 62.7517L-41.9331 70.0372L-34.6793 62.3543C-26.0569 52.9493 -24.004 48.843 -25.6464 44.4717C-27.015 41.0276 -26.4675 39.5705 -24.2777 41.0276C-21.9511 42.3522 -22.4985 51.3598 -25.0989 54.9363C-26.3307 56.7908 -30.2997 61.427 -33.995 65.2685C-37.5535 69.2424 -40.5644 72.9514 -40.5644 73.6137C-40.5644 74.276 -41.2488 74.8059 -41.9331 74.8059C-42.7543 74.8059 -43.3017 74.276 -43.3017 73.6137ZM-124.051 73.6137C-124.051 72.9514 -127.062 69.2424 -130.62 65.2685C-140.201 55.0688 -141.843 52.287 -141.843 46.7235C-141.843 43.0146 -141.296 41.6899 -139.79 41.6899C-138.011 41.6899 -137.874 42.2198 -139.106 44.3392C-141.159 48.0482 -138.011 53.8766 -129.525 62.7517L-122.682 70.0372L-115.429 62.3543C-106.806 52.9493 -104.753 48.843 -106.396 44.4717C-107.764 41.0276 -107.217 39.5705 -105.027 41.0276C-103.111 42.0873 -103.111 50.4325 -105.164 54.0091C-105.985 55.5986 -109.954 60.3673 -114.06 64.6062C-118.029 68.845 -121.314 72.8189 -121.314 73.6137C-121.314 74.276 -121.998 74.8059 -122.682 74.8059C-123.504 74.8059 -124.051 74.276 -124.051 73.6137ZM-204.8 73.6137C-204.8 72.8189 -208.222 68.7125 -212.328 64.4737C-220.676 55.7311 -223.824 49.7702 -222.866 44.8691C-221.908 40.1004 -219.855 41.0276 -220.129 46.1937C-220.266 51.3598 -218.76 53.8766 -209.727 63.5464L-203.432 70.0372L-196.315 62.3543C-187.555 52.9493 -185.503 48.843 -187.145 44.4717C-188.514 41.0276 -187.966 39.5705 -185.776 41.0276C-183.86 42.0873 -183.86 50.4325 -185.913 54.0091C-186.734 55.5986 -190.703 60.3673 -194.809 64.6062C-198.778 68.845 -202.063 72.8189 -202.063 73.6137C-202.063 74.276 -202.747 74.8059 -203.432 74.8059C-204.253 74.8059 -204.8 74.276 -204.8 73.6137ZM-285.549 73.6137C-285.549 72.8189 -288.834 68.845 -292.803 64.6062C-301.699 55.3337 -303.342 52.552 -303.342 46.4586C-303.342 43.0146 -302.794 41.6899 -301.289 41.6899C-299.51 41.6899 -299.373 42.2198 -300.604 44.3392C-302.657 48.0482 -299.646 53.8766 -291.161 62.8841L-284.318 70.1696L-277.064 62.3543C-268.305 52.9493 -266.252 48.9754 -267.894 44.4717C-269.263 41.0276 -268.715 39.5705 -266.526 41.0276C-264.199 42.3522 -264.746 51.3598 -267.347 54.9363C-268.578 56.7908 -272.547 61.427 -276.243 65.2685C-279.801 69.2424 -282.812 72.9514 -282.812 73.6137C-282.812 74.276 -283.497 74.8059 -284.181 74.8059C-285.002 74.8059 -285.549 74.276 -285.549 73.6137ZM-366.299 73.6137C-366.299 72.8189 -369.583 68.845 -373.553 64.6062C-382.449 55.3337 -384.091 52.552 -384.091 46.4586C-384.091 43.0146 -383.544 41.6899 -382.038 41.6899C-380.259 41.6899 -380.122 42.2198 -381.354 44.3392C-383.407 48.0482 -380.259 53.8766 -371.773 62.7517L-364.93 70.0372L-357.676 62.3543C-349.054 52.9493 -347.001 48.843 -348.643 44.4717C-350.012 41.0276 -349.465 39.5705 -347.275 41.0276C-344.948 42.3522 -345.496 51.3598 -348.096 54.9363C-349.328 56.7908 -353.297 61.427 -356.992 65.2685C-360.551 69.2424 -363.561 72.9514 -363.561 73.6137C-363.561 74.276 -364.246 74.8059 -364.93 74.8059C-365.751 74.8059 -366.299 74.276 -366.299 73.6137ZM-49.1868 58.1154C-55.7563 50.6975 -57.5355 44.6041 -53.977 41.8224C-44.9441 34.8018 -41.7962 31.6227 -41.1119 28.9734C-40.1539 25.3969 -37.8272 26.0592 -37.8272 29.9006C-37.8272 31.3577 -36.1848 34.007 -34.2687 35.994C-30.5734 39.5705 -28.2468 44.3392 -28.2468 48.4456C-28.2468 50.565 -40.1539 65.2685 -41.9331 65.2685C-42.3437 65.2685 -45.4915 62.0893 -49.1868 58.1154ZM-129.936 58.1154C-136.506 50.6975 -138.285 44.6041 -134.726 41.8224C-125.693 34.8018 -122.545 31.6227 -121.861 28.9734C-120.903 25.3969 -118.576 26.0592 -118.576 29.9006C-118.576 31.3577 -116.934 34.007 -115.018 35.994C-111.323 39.5705 -108.996 44.3392 -108.996 48.4456C-108.996 50.565 -120.903 65.2685 -122.682 65.2685C-123.093 65.2685 -126.241 62.0893 -129.936 58.1154ZM-210.685 58.1154C-217.255 50.6975 -219.034 44.6041 -215.476 41.8224C-206.443 34.8018 -203.295 31.6227 -202.61 28.9734C-201.926 26.1917 -199.052 24.2047 -199.463 26.854C-200.01 30.1656 -198.915 32.9473 -195.767 35.994C-192.072 39.5705 -189.745 44.3392 -189.745 48.4456C-189.745 50.565 -201.652 65.2685 -203.432 65.2685C-203.842 65.2685 -206.99 62.0893 -210.685 58.1154ZM-291.435 58.1154C-298.004 50.6975 -299.783 44.6041 -296.225 41.8224C-287.192 34.8018 -284.044 31.6227 -283.36 28.9734C-282.402 25.3969 -280.075 26.0592 -280.075 29.9006C-280.075 31.3577 -278.433 34.007 -276.517 35.994C-272.821 39.5705 -270.495 44.3392 -270.495 48.4456C-270.495 50.565 -282.402 65.2685 -284.181 65.2685C-284.591 65.2685 -287.739 62.0893 -291.435 58.1154ZM-372.184 58.1154C-378.753 50.6975 -380.533 44.6041 -376.974 41.8224C-367.941 34.8018 -364.793 31.6227 -364.109 28.9734C-363.151 25.3969 -360.824 25.9267 -360.824 29.7682C-360.824 31.0928 -358.634 34.6693 -356.034 37.716C-349.328 45.3989 -349.601 49.2404 -357.813 58.1154C-361.372 62.0893 -364.52 65.2685 -364.93 65.2685C-365.341 65.2685 -368.489 62.0893 -372.184 58.1154ZM-94.0779 56.1285C-97.3627 53.8766 -100.784 46.9885 -100.784 42.7496C-100.784 41.0276 -94.6254 41.5575 -91.8881 43.5444C-89.4246 45.2664 -89.4246 45.3989 -92.2987 46.856C-96.1309 48.843 -96.4046 53.6117 -92.5724 53.6117C-90.3826 53.6117 -89.8352 52.6844 -89.8352 49.6378C-89.8352 45.6638 -89.014 45.0015 -85.1818 46.4586C-83.5395 47.1209 -83.4026 47.7833 -84.4975 49.9027C-86.2767 53.0818 -85.1818 56.2609 -82.3077 56.2609C-79.2967 56.2609 -78.2018 52.6844 -80.3916 50.1676C-81.7603 48.4456 -81.7603 47.9157 -80.1179 46.856C-76.5595 44.6041 -74.6434 45.5314 -75.054 49.2404C-75.3277 51.7572 -74.7802 52.9493 -73.001 53.3467C-69.3057 54.1415 -68.3477 49.6378 -71.9061 47.1209L-74.7802 45.0015L-71.9061 42.6172C-67.5265 38.9082 -64.3786 40.2328 -64.9261 45.6638C-65.7473 52.4195 -67.5265 54.8038 -73.8222 57.718C-80.6653 60.7647 -88.1928 60.2349 -94.0779 56.1285ZM-171.542 57.718C-177.564 55.0688 -179.207 52.8169 -180.712 46.1937C-181.533 42.6172 -181.26 41.9549 -178.523 41.425C-176.606 41.1601 -174.28 41.8224 -172.774 43.147C-170.448 45.3989 -170.448 45.5314 -173.185 46.9885C-176.88 48.843 -177.017 53.6117 -173.322 53.6117C-171.132 53.6117 -170.584 52.6844 -170.584 49.6378C-170.584 45.6638 -169.763 45.0015 -165.931 46.4586C-164.289 47.1209 -164.152 47.7833 -165.247 49.9027C-167.026 53.0818 -165.931 56.2609 -163.057 56.2609C-160.046 56.2609 -158.951 52.6844 -161.141 50.1676C-162.51 48.4456 -162.51 47.9157 -160.867 46.856C-157.309 44.6041 -155.393 45.5314 -155.803 49.3728C-156.077 52.1546 -155.529 53.0818 -153.203 53.3467C-149.097 53.8766 -148.823 48.9754 -152.929 46.856L-155.803 45.3989L-152.929 42.8821C-150.055 40.2328 -146.633 39.5705 -145.402 41.425C-143.896 43.9418 -147.318 53.0818 -151.013 55.8635C-157.172 60.6322 -163.468 61.1621 -171.542 57.718ZM-255.576 56.1285C-258.724 54.0091 -262.283 46.9885 -262.283 42.8821C-262.283 40.7627 -255.85 41.0276 -253.524 43.147C-251.197 45.3989 -251.197 45.5314 -253.934 46.9885C-257.629 48.843 -257.766 53.6117 -254.071 53.6117C-251.881 53.6117 -251.334 52.6844 -251.334 49.6378C-251.334 45.6638 -250.513 45.0015 -246.68 46.4586C-245.038 47.1209 -244.901 47.7833 -245.996 49.9027C-247.775 53.0818 -246.68 56.2609 -243.806 56.2609C-240.795 56.2609 -239.7 52.6844 -241.89 50.1676C-243.259 48.4456 -243.259 47.9157 -241.616 46.856C-238.058 44.7366 -236.279 45.5314 -236.279 49.6378C-236.279 52.287 -235.594 53.6117 -234.226 53.6117C-230.667 53.6117 -230.12 49.5053 -233.405 47.1209L-236.279 45.0015L-233.405 42.6172C-229.025 38.9082 -225.877 40.2328 -226.425 45.6638C-227.246 52.4195 -229.025 54.8038 -235.321 57.718C-242.164 60.7647 -249.691 60.2349 -255.576 56.1285ZM-336.326 56.1285C-339.61 53.8766 -343.032 46.9885 -343.032 42.7496C-343.032 41.0276 -336.873 41.5575 -334.136 43.5444C-331.672 45.2664 -331.672 45.3989 -334.547 46.856C-338.379 48.843 -338.652 53.6117 -334.82 53.6117C-332.63 53.6117 -332.083 52.6844 -332.083 49.6378C-332.083 45.6638 -331.262 45.0015 -327.43 46.4586C-325.787 47.1209 -325.65 47.7833 -326.745 49.9027C-328.525 53.0818 -327.43 56.2609 -324.555 56.2609C-321.545 56.2609 -320.45 52.6844 -322.639 50.1676C-324.008 48.4456 -324.008 47.9157 -322.366 46.856C-318.807 44.6041 -316.891 45.5314 -317.302 49.2404C-317.575 51.7572 -317.028 52.9493 -315.249 53.3467C-311.553 54.1415 -310.595 49.6378 -314.154 47.1209L-317.028 45.0015L-314.154 42.6172C-309.774 38.9082 -306.626 40.2328 -307.174 45.5314C-307.721 52.0221 -309.774 54.9363 -316.07 57.718C-322.913 60.7647 -330.441 60.2349 -336.326 56.1285ZM-89.8352 40.8951C-92.2987 38.6433 -89.972 38.3783 -85.045 40.6302C-82.034 41.9549 -80.9391 41.6899 -77.5175 39.3056C-73.2747 36.1264 -70.5375 37.4511 -74.5065 40.6302C-79.2967 44.7366 -85.7293 44.8691 -89.8352 40.8951ZM-170.584 40.8951C-173.048 38.6433 -170.448 38.2459 -166.205 40.4978C-163.331 42.0873 -155.529 39.8354 -155.529 37.4511C-155.529 36.7888 -154.845 36.6563 -154.161 37.0537C-152.245 38.1134 -154.982 41.5575 -158.951 43.147C-162.373 44.4717 -167.847 43.412 -170.584 40.8951ZM-251.334 40.8951C-253.797 38.6433 -251.197 38.2459 -246.954 40.4978C-244.08 42.0873 -236.279 39.8354 -236.279 37.4511C-236.279 36.7888 -235.594 36.6563 -234.91 37.0537C-232.994 38.1134 -235.731 41.5575 -239.7 43.147C-243.122 44.4717 -248.596 43.412 -251.334 40.8951ZM-332.083 40.8951C-334.547 38.6433 -331.946 38.2459 -327.703 40.4978C-324.829 42.0873 -317.028 39.8354 -317.028 37.4511C-317.028 36.7888 -316.344 36.6563 -315.659 37.0537C-313.743 38.1134 -316.481 41.5575 -320.45 43.147C-323.871 44.4717 -329.346 43.412 -332.083 40.8951ZM-25.9201 37.1862C-32.4895 34.5369 -35.6374 30.4305 -35.5005 24.7346C-35.2268 15.3296 -23.8671 10.4285 -17.4346 17.0517C-13.3287 21.2905 -14.4236 26.7215 -19.3507 27.9137C-24.1409 29.1059 -26.8781 27.6488 -26.7413 24.2047V21.158L-25.5095 24.2047C-24.004 27.6488 -21.1299 28.0462 -18.5295 24.9995C-16.0659 22.0853 -18.6663 18.5088 -23.4565 18.5088C-32.9001 18.5088 -32.0789 30.0331 -22.4985 30.8279C-11.8232 31.7551 -7.99101 20.8931 -16.6134 14.2699C-19.2138 12.283 -21.4036 10.0311 -21.4036 9.36876C-21.4036 8.70644 -20.3087 9.10383 -18.9401 10.296C-15.7922 13.0777 -10.5914 13.2102 -9.63337 10.6934C-9.08592 9.2363 -8.12787 9.50123 -5.52747 11.8856C0.631368 17.4491 -2.37962 32.1525 -10.7283 35.994C-17.982 39.438 -20.035 39.5705 -25.9201 37.1862ZM-66.979 37.1862C-72.043 35.1992 -76.1489 30.0331 -76.1489 25.7943C-76.1489 21.9528 -72.5904 15.727 -69.99 14.6673C-63.1469 12.1505 -55.6194 15.8595 -55.6194 21.6879C-55.6194 23.6748 -56.3037 25.9267 -57.2617 26.854C-60.6833 30.1656 -67.9371 27.9137 -67.9371 23.4099C-67.9371 22.2177 -66.979 22.6151 -65.4735 24.6021C-62.052 28.576 -57.9461 27.2514 -58.6304 22.2177C-59.041 18.9062 -59.5884 18.5088 -63.8312 18.5088C-67.8002 18.5088 -68.7583 19.1711 -69.8532 22.0853C-71.6324 26.9864 -67.9371 31.0928 -61.7782 31.0928C-53.2927 31.0928 -49.3237 21.158 -55.2088 14.7998C-59.1778 10.6934 -57.6723 7.51427 -53.5664 11.2233C-50.966 13.6076 -49.8711 13.8725 -47.4076 12.5479C-43.3017 10.4285 -42.6174 11.6206 -42.6174 19.8334C-42.6174 28.0462 -45.7652 33.0798 -53.019 36.6563C-58.6304 39.5705 -61.0939 39.5705 -66.979 37.1862ZM-106.669 37.1862C-113.102 34.6693 -116.387 30.4305 -116.387 24.867C-116.387 19.3035 -110.912 13.8725 -105.301 13.8725C-101.332 13.8725 -95.3097 18.5088 -95.3097 21.5554C-95.3097 24.7346 -99.5525 28.4435 -102.974 28.4435C-106.259 28.4435 -109.954 23.9398 -107.764 22.6151C-107.08 22.2177 -106.259 23.0125 -105.848 24.4696C-105.027 27.6488 -101.742 27.9137 -99.2787 24.9995C-96.8152 22.0853 -99.4156 18.5088 -104.206 18.5088C-109.407 18.5088 -112.281 22.6151 -109.954 27.1189C-107.491 31.8876 -97.9101 32.5499 -94.7623 28.1786C-92.025 24.4696 -91.8881 18.6412 -94.6254 16.5218C-97.3627 14.4024 -97.2258 13.4751 -94.0779 11.6206C-90.3826 9.36876 -82.992 12.9453 -82.8552 16.9192C-82.3077 28.3111 -86.5505 34.9343 -96.6783 38.1134C-100.1 39.3056 -102.016 39.1731 -106.669 37.1862ZM-151.424 35.3317C-163.741 26.4566 -151.971 7.3818 -139.38 15.992C-136.095 18.2438 -135.274 24.2047 -138.011 26.854C-141.433 30.1656 -148.686 27.9137 -148.686 23.4099C-148.686 22.2177 -147.728 22.6151 -146.223 24.6021C-142.801 28.576 -138.695 27.2514 -139.38 22.2177C-139.79 18.9062 -140.338 18.5088 -144.58 18.5088C-148.549 18.5088 -149.508 19.1711 -150.602 22.0853C-152.382 26.9864 -148.686 31.0928 -142.527 31.0928C-133.358 31.0928 -129.799 20.2308 -137.053 14.2699C-139.927 11.8856 -140.475 10.6934 -139.243 9.50123C-138.148 8.44151 -137.737 8.44151 -137.737 9.63369C-137.737 10.4285 -136.506 11.7531 -135.137 12.4154C-133.221 13.4751 -131.715 13.2102 -129.115 11.0908L-125.556 8.44151L-123.914 13.7401C-118.576 30.9604 -137.19 45.5314 -151.424 35.3317ZM-187.419 37.1862C-193.988 34.5369 -197.136 30.4305 -196.999 24.7346C-196.725 15.5946 -185.913 10.6934 -179.207 16.7867C-175.375 20.2308 -175.238 23.2775 -178.659 26.3241C-182.492 29.6357 -187.555 28.576 -187.966 24.4696C-188.377 21.158 -188.377 21.158 -187.008 24.2047C-185.503 27.6488 -182.628 28.0462 -180.028 24.9995C-177.564 22.0853 -180.165 18.5088 -184.955 18.5088C-190.156 18.5088 -193.03 22.6151 -190.703 27.1189C-188.377 31.6227 -180.165 32.4175 -176.196 28.576C-172.637 25.132 -172.501 18.5088 -175.922 15.727C-178.249 13.7401 -178.249 13.3427 -176.196 11.3557C-174.143 9.36876 -173.869 9.36876 -171.679 11.4882C-170.311 12.8128 -168.258 13.3427 -166.615 12.9453C-164.152 12.4154 -163.741 12.8128 -163.604 15.992C-163.057 28.576 -167.026 34.9343 -177.428 38.1134C-180.849 39.3056 -182.765 39.1731 -187.419 37.1862ZM-232.036 35.3317C-244.217 26.4566 -232.583 7.51427 -220.129 15.992C-216.844 18.2438 -216.023 24.2047 -218.76 26.854C-222.182 30.1656 -229.436 27.9137 -229.436 23.4099C-229.436 22.2177 -228.478 22.6151 -226.972 24.6021C-223.55 28.576 -219.445 27.2514 -220.129 22.2177C-220.95 15.5946 -232.173 16.7867 -232.173 23.5424C-232.173 27.6488 -228.204 31.0928 -223.277 31.0928C-213.286 31.0928 -210.001 17.714 -219.171 13.6076C-221.087 12.8128 -222.592 11.3557 -222.592 10.296C-222.592 7.91166 -220.403 8.04412 -219.308 10.5609C-218.35 13.0777 -211.78 13.2102 -210.822 10.5609C-210.138 9.10383 -209.317 9.50123 -206.579 12.283C-203.705 15.3296 -203.295 16.7867 -203.842 21.6879C-205.485 35.7291 -220.95 43.2795 -232.036 35.3317ZM-268.168 37.1862C-278.296 33.0798 -281.307 23.0125 -274.053 17.0517C-269.263 12.9453 -263.651 12.9453 -259.682 17.0517C-255.576 21.2905 -256.671 26.7215 -261.598 27.9137C-266.389 29.1059 -269.126 27.6488 -268.989 24.2047V21.158L-267.757 24.2047C-266.252 27.6488 -263.378 28.0462 -260.777 24.9995C-258.314 22.0853 -260.914 18.5088 -265.704 18.5088C-270.905 18.5088 -273.779 22.6151 -271.453 27.1189C-268.989 31.8876 -259.409 32.5499 -256.261 28.1786C-253.25 24.0722 -253.524 18.9062 -256.945 15.3296C-259.135 13.0777 -259.409 12.018 -258.177 10.5609C-256.945 9.10383 -256.261 9.10383 -253.934 11.3557C-251.881 13.3427 -250.649 13.6076 -248.733 12.6804C-245.175 10.8259 -244.491 12.018 -244.491 19.5685C-244.491 29.2383 -248.87 35.1992 -258.177 38.1134C-261.598 39.3056 -263.515 39.1731 -268.168 37.1862ZM-312.922 35.3317C-325.24 26.4566 -313.47 7.3818 -300.878 15.992C-297.593 18.2438 -296.772 24.2047 -299.51 26.854C-302.931 30.1656 -310.185 27.9137 -310.185 23.4099C-310.185 22.2177 -309.227 22.6151 -307.721 24.6021C-304.3 28.576 -300.194 27.2514 -300.878 22.2177C-301.289 18.9062 -301.836 18.5088 -306.079 18.5088C-310.048 18.5088 -311.006 19.1711 -312.101 22.0853C-313.88 26.9864 -310.185 31.0928 -304.026 31.0928C-298.688 31.0928 -294.719 27.1189 -294.719 21.8204C-294.719 19.7009 -295.814 16.6543 -297.183 15.1972C-299.646 12.6804 -299.646 12.5479 -296.909 12.5479C-295.267 12.5479 -293.624 11.4882 -293.077 10.296C-292.256 8.04412 -292.119 8.04412 -290.887 10.296C-290.066 11.4882 -288.697 12.5479 -287.602 12.5479C-285.002 12.5479 -283.633 17.9789 -284.728 23.6748C-287.192 36.5238 -302.521 42.7496 -312.922 35.3317ZM-348.917 37.1862C-359.045 33.0798 -362.056 23.0125 -354.802 17.0517C-350.012 12.9453 -344.401 12.9453 -340.432 17.0517C-336.326 21.2905 -337.421 26.7215 -342.348 27.9137C-347.138 29.1059 -349.875 27.6488 -349.738 24.2047V21.158L-348.507 24.2047C-347.001 27.6488 -344.127 28.0462 -341.527 24.9995C-339.063 22.0853 -341.663 18.5088 -346.454 18.5088C-355.897 18.5088 -355.076 30.0331 -345.496 30.8279C-335.915 31.6227 -331.125 21.6879 -338.105 15.3296C-340.021 13.6076 -341.116 11.3557 -340.705 10.296C-340.158 8.83891 -339.474 8.97137 -337.284 11.0908C-334.136 14.4024 -332.904 14.5348 -330.03 11.6206C-328.114 9.76615 -327.566 9.76615 -326.472 11.3557C-322.229 17.8464 -326.472 32.6824 -333.725 35.994C-340.979 39.438 -343.032 39.5705 -348.917 37.1862ZM-393.671 35.3317C-405.989 26.4566 -394.219 7.3818 -381.627 15.992C-378.343 18.2438 -377.522 24.2047 -380.259 26.854C-383.68 30.1656 -390.934 27.9137 -390.934 23.4099C-390.934 22.2177 -389.976 22.6151 -388.471 24.6021C-385.049 28.576 -380.943 27.2514 -381.627 22.2177C-382.038 18.9062 -382.585 18.5088 -386.828 18.5088C-390.797 18.5088 -391.755 19.1711 -392.85 22.0853C-395.587 29.6357 -383.68 34.6693 -377.932 28.4435C-374.921 25.132 -374.647 18.7737 -377.522 15.5946C-379.301 13.4751 -379.301 12.9453 -377.248 11.0908C-375.058 9.10383 -374.647 9.10383 -372.594 11.4882C-371.226 12.9453 -369.31 13.7401 -368.215 13.3427C-365.751 12.4154 -364.383 17.714 -365.478 23.6748C-367.941 36.5238 -383.27 42.7496 -393.671 35.3317ZM-85.7293 36.6563C-85.7293 36.1264 -85.045 34.9343 -84.2238 34.1395C-83.4026 33.3447 -81.8971 30.4305 -80.9391 27.6488C-79.023 22.6151 -79.023 22.6151 -78.8861 26.4566C-78.8861 28.7085 -78.3387 31.3577 -77.5175 32.4175C-75.8751 34.9343 -78.3387 37.716 -82.4446 37.716C-84.2238 37.716 -85.7293 37.1862 -85.7293 36.6563ZM-166.479 36.6563C-166.479 36.1264 -165.794 34.9343 -164.973 34.1395C-164.152 33.3447 -162.646 30.4305 -161.688 27.6488C-159.772 22.6151 -159.772 22.6151 -159.635 26.4566C-159.635 28.7085 -159.088 31.3577 -158.267 32.4175C-156.624 34.9343 -159.088 37.716 -163.194 37.716C-164.973 37.716 -166.479 37.1862 -166.479 36.6563ZM-245.175 32.9473C-241.89 28.3111 -240.932 23.9398 -241.48 16.2569C-241.753 13.6076 -241.069 12.5479 -239.427 12.5479C-238.195 12.5479 -236.142 11.6206 -234.91 10.5609C-232.857 8.70644 -232.447 8.70644 -231.762 10.4285C-231.215 11.6206 -231.899 12.6804 -233.678 13.2102C-238.879 14.9322 -242.438 27.2514 -239.016 32.4175C-237.237 35.1992 -239.974 37.716 -244.627 37.716H-248.46L-245.175 32.9473ZM-327.977 37.0537C-327.977 36.6563 -327.019 34.8018 -325.787 32.9473C-324.555 31.2253 -323.05 27.7812 -322.503 25.3969L-321.408 21.158L-321.271 25.7943C-321.134 28.3111 -320.586 31.3577 -319.765 32.4175C-318.123 34.9343 -320.586 37.716 -324.692 37.716C-326.472 37.716 -327.977 37.4511 -327.977 37.0537ZM-39.1958 17.8464C-39.1958 14.2699 -38.6484 12.5479 -37.2797 12.5479C-36.3217 12.5479 -34.6793 11.6206 -33.7213 10.5609C-32.4895 9.10383 -31.6683 8.83891 -30.984 9.89862C-30.4366 10.6934 -31.8052 13.0777 -33.8581 15.1972C-36.048 17.3166 -37.8272 19.9659 -37.8272 21.0256C-37.8272 22.2177 -38.1009 23.145 -38.5115 23.145C-38.9221 23.145 -39.1958 20.7606 -39.1958 17.8464ZM-117.482 11.4882C-115.565 9.63369 -114.334 9.2363 -113.239 10.296C-112.281 11.2233 -112.828 12.8128 -115.155 15.4621C-117.071 17.5815 -118.713 20.3633 -118.85 21.5554C-118.987 22.7476 -119.261 21.5554 -119.534 18.9062C-119.945 15.3296 -119.398 13.3427 -117.482 11.4882ZM-281.854 10.296C-281.307 9.10383 -280.349 9.2363 -278.022 10.9583C-275.011 13.2102 -275.011 13.2102 -277.475 16.3893C-278.98 18.1114 -280.212 20.4957 -280.212 21.6879C-280.349 22.8801 -280.896 21.158 -281.444 17.8464C-281.991 14.5348 -282.128 11.0908 -281.854 10.296ZM-199.599 10.9583C-197.683 8.70644 -197.41 8.70644 -195.904 10.8259C-194.535 12.5479 -194.809 13.7401 -197.136 17.1841L-200.01 21.423L-200.831 17.3166C-201.242 14.6673 -200.831 12.4154 -199.599 10.9583ZM-362.74 14.5348C-363.425 9.50123 -363.288 8.44151 -362.193 10.296C-361.372 11.4882 -359.456 12.5479 -358.087 12.5479C-355.623 12.5479 -355.623 12.8128 -358.498 17.0517C-360.14 19.436 -361.645 21.423 -361.645 21.2905C-361.782 21.2905 -362.193 18.2438 -362.74 14.5348ZM-80.5285 10.0311C-79.981 8.70644 -79.5704 8.70644 -78.6124 10.4285C-77.9281 11.6206 -76.4226 12.5479 -75.4645 12.5479C-74.3696 12.5479 -73.4116 13.2102 -73.4116 13.8725C-73.4116 14.6673 -73.9591 15.1972 -74.6434 15.1972C-75.3277 15.1972 -76.4226 16.5218 -76.97 18.2438C-77.9281 20.8931 -78.0649 20.8931 -79.5704 16.5218C-80.5285 14.005 -80.9391 11.0908 -80.5285 10.0311ZM-162.236 9.89862C-162.236 8.30905 -161.962 8.44151 -160.867 10.296C-159.088 13.2102 -153.34 13.2102 -151.697 10.4285C-150.876 8.97137 -150.055 8.70644 -149.508 9.63369C-149.097 10.4285 -150.466 12.1505 -152.792 13.3427C-154.982 14.6673 -157.309 16.9192 -157.856 18.5088C-158.54 20.7606 -158.951 20.4957 -160.457 16.5218C-161.415 14.005 -162.236 10.9583 -162.236 9.89862ZM-322.503 14.9322C-322.503 13.6076 -321.545 12.5479 -320.45 12.5479C-319.492 12.5479 -317.986 11.6206 -317.302 10.4285C-316.344 8.70644 -315.933 8.57398 -314.428 10.4285C-313.059 12.018 -313.196 12.6804 -315.523 13.7401C-317.028 14.5348 -318.67 16.5218 -319.081 17.9789C-319.902 20.2308 -320.313 20.4957 -321.271 19.0386C-321.955 17.9789 -322.503 16.1244 -322.503 14.9322ZM-400.788 11.4882C-398.325 9.10383 -398.188 9.10383 -396.546 11.3557C-395.587 12.9453 -395.587 13.8725 -396.409 13.8725C-397.23 13.8725 -398.598 15.4621 -399.42 17.3166L-401.062 20.7606L-402.294 17.4491C-403.115 14.7998 -402.841 13.4751 -400.788 11.4882ZM-4.98002 6.58702C-4.98002 4.20267 -4.29571 3.27543 -2.24276 3.27543C0.494505 3.27543 1.58941 6.98441 -0.463537 8.97137C-2.51648 11.0908 -4.98002 9.76615 -4.98002 6.58702ZM-17.024 6.18963C-17.4346 3.93775 -16.7503 3.27543 -14.6973 3.27543C-12.7812 3.27543 -11.8232 4.07021 -11.8232 5.65978C-11.8232 10.6934 -16.3397 11.0908 -17.024 6.18963ZM-28.2468 6.58702C-28.2468 4.20267 -27.5624 3.27543 -25.6464 3.27543C-23.7303 3.27543 -23.3197 4.07021 -23.8671 6.58702C-24.1409 8.44151 -25.3726 9.89862 -26.3307 9.89862C-27.4256 9.89862 -28.2468 8.57398 -28.2468 6.58702ZM-40.5644 6.58702C-40.5644 4.20267 -39.8801 3.27543 -37.8272 3.27543C-35.0899 3.27543 -33.995 6.98441 -36.048 8.97137C-38.1009 11.0908 -40.5644 9.76615 -40.5644 6.58702ZM-52.6084 6.18963C-53.019 3.93775 -52.3347 3.27543 -50.2817 3.27543C-48.0919 3.27543 -47.4076 4.07021 -47.4076 6.71949C-47.4076 11.0908 -51.9241 10.6934 -52.6084 6.18963ZM-63.8312 6.58702C-63.8312 4.20267 -63.1469 3.27543 -61.2308 3.27543C-59.3147 3.27543 -58.9041 4.07021 -59.4516 6.58702C-59.7253 8.44151 -60.9571 9.89862 -61.9151 9.89862C-63.01 9.89862 -63.8312 8.57398 -63.8312 6.58702ZM-75.8751 6.18963C-76.2857 3.93775 -75.6014 3.27543 -73.5485 3.27543C-71.6324 3.27543 -70.6743 4.07021 -70.6743 5.65978C-70.6743 10.6934 -75.1908 11.0908 -75.8751 6.18963ZM-88.1928 6.18963C-88.6034 3.93775 -87.9191 3.27543 -85.8661 3.27543C-83.6763 3.27543 -82.992 4.07021 -82.992 6.71949C-82.992 11.0908 -87.5085 10.6934 -88.1928 6.18963ZM-99.4156 6.58702C-99.4156 4.20267 -98.7313 3.27543 -96.6783 3.27543C-93.9411 3.27543 -92.8462 6.98441 -94.8991 8.97137C-96.9521 11.0908 -99.4156 9.76615 -99.4156 6.58702ZM-111.46 6.18963C-111.87 3.93775 -111.186 3.27543 -109.133 3.27543C-107.217 3.27543 -106.259 4.07021 -106.259 5.65978C-106.259 10.6934 -110.775 11.0908 -111.46 6.18963ZM-123.23 7.7792C-124.598 4.33514 -124.188 3.27543 -121.314 3.27543C-119.261 3.27543 -118.576 4.20267 -118.576 6.58702C-118.576 10.296 -121.861 11.0908 -123.23 7.7792ZM-135 6.58702C-135 4.20267 -134.316 3.27543 -132.263 3.27543C-129.525 3.27543 -128.431 6.98441 -130.484 8.97137C-132.536 11.0908 -135 9.76615 -135 6.58702ZM-147.044 6.18963C-147.455 3.93775 -146.77 3.27543 -144.717 3.27543C-142.801 3.27543 -141.843 4.07021 -141.843 5.65978C-141.843 10.6934 -146.36 11.0908 -147.044 6.18963ZM-158.267 6.58702C-158.267 4.4676 -157.446 3.27543 -156.214 3.27543C-154.982 3.27543 -154.161 4.4676 -154.161 6.58702C-154.161 8.70644 -154.982 9.89862 -156.214 9.89862C-157.446 9.89862 -158.267 8.70644 -158.267 6.58702ZM-170.311 6.18963C-170.721 3.93775 -170.037 3.27543 -167.984 3.27543C-166.068 3.27543 -165.11 4.07021 -165.11 5.65978C-165.11 10.6934 -169.626 11.0908 -170.311 6.18963ZM-182.628 6.18963C-183.039 3.93775 -182.355 3.27543 -180.302 3.27543C-178.112 3.27543 -177.428 4.07021 -177.428 6.71949C-177.428 11.0908 -181.944 10.6934 -182.628 6.18963ZM-193.851 6.58702C-193.851 4.20267 -193.167 3.27543 -191.251 3.27543C-189.335 3.27543 -188.924 4.07021 -189.472 6.58702C-189.745 8.44151 -190.977 9.89862 -191.935 9.89862C-193.03 9.89862 -193.851 8.57398 -193.851 6.58702ZM-205.895 6.18963C-206.306 3.93775 -205.621 3.27543 -203.568 3.27543C-201.652 3.27543 -200.694 4.07021 -200.694 5.65978C-200.694 10.6934 -205.211 11.0908 -205.895 6.18963ZM-218.213 6.18963C-218.623 3.93775 -217.939 3.27543 -215.886 3.27543C-213.696 3.27543 -213.012 4.07021 -213.012 6.71949C-213.012 11.0908 -217.529 10.6934 -218.213 6.18963ZM-229.436 6.58702C-229.436 4.20267 -228.751 3.27543 -226.698 3.27543C-223.961 3.27543 -222.866 6.98441 -224.919 8.97137C-226.972 11.0908 -229.436 9.76615 -229.436 6.58702ZM-241.48 6.18963C-241.89 3.93775 -241.206 3.27543 -239.153 3.27543C-237.237 3.27543 -236.279 4.07021 -236.279 5.65978C-236.279 10.6934 -240.795 11.0908 -241.48 6.18963ZM-253.25 7.7792C-254.618 4.33514 -254.208 3.27543 -251.334 3.27543C-249.281 3.27543 -248.596 4.20267 -248.596 6.58702C-248.596 10.296 -251.881 11.0908 -253.25 7.7792ZM-265.02 6.58702C-265.02 4.20267 -264.336 3.27543 -262.283 3.27543C-259.545 3.27543 -258.451 6.98441 -260.504 8.97137C-262.556 11.0908 -265.02 9.76615 -265.02 6.58702ZM-277.064 6.18963C-277.475 3.93775 -276.79 3.27543 -274.737 3.27543C-272.547 3.27543 -271.863 4.07021 -271.863 6.71949C-271.863 11.0908 -276.38 10.6934 -277.064 6.18963ZM-288.56 6.58702C-289.108 4.07021 -288.697 3.27543 -286.781 3.27543C-284.865 3.27543 -284.181 4.20267 -284.181 6.58702C-284.181 8.57398 -285.002 9.89862 -286.097 9.89862C-287.055 9.89862 -288.287 8.44151 -288.56 6.58702ZM-300.604 6.58702C-300.604 4.20267 -299.92 3.27543 -297.867 3.27543C-295.13 3.27543 -294.035 6.98441 -296.088 8.97137C-298.141 11.0908 -300.604 9.76615 -300.604 6.58702ZM-312.648 6.18963C-313.059 3.93775 -312.375 3.27543 -310.322 3.27543C-308.132 3.27543 -307.448 4.07021 -307.448 6.71949C-307.448 11.0908 -311.964 10.6934 -312.648 6.18963ZM-323.871 6.58702C-323.871 4.20267 -323.187 3.27543 -321.134 3.27543C-318.397 3.27543 -317.302 6.98441 -319.355 8.97137C-321.408 11.0908 -323.871 9.76615 -323.871 6.58702ZM-335.915 6.18963C-336.326 3.93775 -335.641 3.27543 -333.588 3.27543C-331.672 3.27543 -330.714 4.07021 -330.714 5.65978C-330.714 10.6934 -335.231 11.0908 -335.915 6.18963ZM-347.685 7.7792C-349.054 4.33514 -348.643 3.27543 -345.769 3.27543C-343.716 3.27543 -343.032 4.20267 -343.032 6.58702C-343.032 10.296 -346.317 11.0908 -347.685 7.7792ZM-359.456 6.58702C-359.456 4.20267 -358.771 3.27543 -356.718 3.27543C-353.981 3.27543 -352.886 6.98441 -354.939 8.97137C-356.992 11.0908 -359.456 9.76615 -359.456 6.58702ZM-371.5 6.18963C-371.91 3.93775 -371.226 3.27543 -369.173 3.27543C-367.257 3.27543 -366.299 4.07021 -366.299 5.65978C-366.299 10.6934 -370.815 11.0908 -371.5 6.18963ZM-383.27 7.7792C-384.638 4.33514 -384.228 3.27543 -381.354 3.27543C-379.301 3.27543 -378.616 4.20267 -378.616 6.58702C-378.616 10.296 -381.901 11.0908 -383.27 7.7792ZM-395.04 6.58702C-395.04 4.20267 -394.356 3.27543 -392.303 3.27543C-389.565 3.27543 -388.471 6.98441 -390.524 8.97137C-392.576 11.0908 -395.04 9.76615 -395.04 6.58702ZM-407.084 6.18963C-407.495 3.93775 -406.81 3.27543 -404.757 3.27543C-402.567 3.27543 -401.883 4.07021 -401.883 6.71949C-401.883 11.0908 -406.4 10.6934 -407.084 6.18963Z" fill="#FFEFD5"/>
</g>
<defs>
<clipPath id="clip0_751_2960">
<rect width="1280" height="832" fill="white" transform="translate(-409)"/>
</clipPath>
</defs>
</svg>
