<svg width="1000" height="832" viewBox="0 0 1000 832" fill="none" xmlns="http://www.w3.org/2000/svg">
<g clip-path="url(#clip0_721_4302)">
<rect width="1280" height="832" transform="translate(-123)" fill="#FFEFD5"/>
<path d="M1045.27 547.012C1039.24 544.264 1033.04 541.811 1027.02 539.211C1021 536.611 1014.84 533.815 1008.77 531.362C1002.71 528.909 996.412 526.456 990.209 524.15C984.005 521.844 977.665 519.833 971.415 517.674C965.166 515.516 959.099 514.24 952.759 512.229C958.05 508.353 963.205 505.017 968.131 500.7C973.057 496.382 977.847 491.918 982.408 487.012C986.97 482.106 990.072 475.974 994.223 470.774C998.374 465.573 1002.66 460.618 1006.4 455.075C1010.14 449.531 1014.34 444.281 1017.58 438.394C1018.63 436.82 1019.37 435.04 1019.78 433.154C1020.19 431.268 1020.25 429.315 1019.95 427.405C1018.35 421.027 1010.32 419.801 1004.26 420.439C997.633 420.943 991.048 421.943 984.552 423.431C978.202 425.46 971.972 427.901 965.896 430.741C953.589 436.067 941.744 442.552 930.499 450.12C925.074 454.274 919.95 458.866 915.172 463.856C913.713 465.377 909.288 471.657 904.681 477.397C900.074 483.136 895.832 489.858 897.2 492.114C894.342 486.723 891.173 481.529 887.712 476.563C883.74 472.078 879.536 467.835 875.123 463.856C870.983 459.582 866.644 455.538 862.123 451.738C857.561 447.961 853.228 443.938 848.438 440.553C841.094 435.647 832.154 431.575 823.897 434.813C821.261 435.999 818.943 437.878 817.158 440.278C815.373 442.679 814.177 445.523 813.68 448.55C811.57 454.516 810.533 460.859 810.623 467.241C811.56 473.03 812.84 478.749 814.455 484.363C815.628 490.074 817.152 495.696 819.017 501.19C820.94 506.674 823.195 512.017 825.768 517.184C828.803 522.313 832.14 527.229 835.757 531.901C830.01 533.52 823.578 534.747 817.922 536.807C812.266 538.868 806.837 541.37 801.272 543.676C795.707 545.981 790.325 548.582 784.942 551.182C779.56 553.782 773.767 555.744 768.521 558.688C762.115 561.832 756.558 566.677 752.373 572.768C750.224 575.714 749.056 579.35 749.056 583.095C749.056 586.839 750.224 590.476 752.373 593.422C756.518 597.401 761.871 599.617 767.426 599.652C773.949 600.094 780.563 599.947 787.086 599.652C793.609 599.358 800.132 598.573 806.655 597.739C813.178 596.905 819.336 594.452 825.722 592.833C832.108 591.214 838.813 591.214 845.063 589.154C851.312 587.093 857.287 584.248 863.308 581.402C869.33 578.557 874.986 576.496 880.779 573.258C879.319 578.802 877.996 583.61 876.902 589.252C875.807 594.894 874.347 600.584 873.572 606.275C872.796 611.966 873.207 617.902 872.705 623.642C872.203 629.382 870.972 635.122 870.789 640.911C870.811 647.028 871.656 653.109 873.298 658.965C873.641 662.284 874.748 665.459 876.518 668.203C878.287 670.948 880.664 673.175 883.434 674.684C886.204 676.193 889.28 676.936 892.384 676.847C895.488 676.758 898.523 675.839 901.214 674.173C907.191 671.317 912.562 667.177 916.997 662.007C920.835 657.319 924.284 652.279 927.306 646.945C930.1 641.52 932.48 635.86 934.422 630.02C936.723 624.47 938.6 618.727 940.032 612.849C941.369 606.836 942.253 600.716 942.678 594.55C943.533 588.38 943.914 582.145 943.818 575.908C942.668 569.443 941.02 563.093 938.892 556.922C944.548 559.375 951.117 561.828 956.864 563.741C962.612 565.654 968.085 568.941 973.97 570.609C979.854 572.277 985.966 572.719 991.942 573.945C997.917 575.172 1003.89 575.809 1009.91 576.594C1015.94 577.379 1021.87 579.636 1028.16 580.029C1034.45 580.421 1040.34 580.912 1046.41 580.863C1049.08 581.054 1051.75 580.661 1054.28 579.709C1056.8 578.756 1059.12 577.262 1061.09 575.319C1065.02 570.413 1063.33 563.201 1059.13 558.001C1055.27 553.343 1050.55 549.6 1045.27 547.012ZM931.959 537.641C931.505 541.121 930.387 544.461 928.674 547.453C926.566 550.563 923.839 553.127 920.692 554.959C916.433 557.722 911.643 559.4 906.688 559.865C901.754 560.555 896.738 559.914 892.091 558.001C887.37 556.162 883.184 553.014 879.958 548.876C876.785 544.644 874.764 539.55 874.119 534.158C873.268 527.231 874.899 520.216 878.681 514.534C884.063 505.802 891.635 499.326 901.26 500.111C907.346 500.492 913.336 501.917 919.004 504.33C921.747 505.689 924.212 507.62 926.256 510.012C928.3 512.404 929.882 515.208 930.909 518.263C933.15 524.442 933.518 531.225 931.959 537.641Z" fill="#FFFDD0" fill-opacity="0.75"/>
<path d="M273.012 304.674C277.525 303.006 282.624 299.783 282.59 294.67C282.555 289.556 278.214 286.444 274.184 284.554C269.292 282.294 263.848 281.738 258.749 279.997C253.754 278.08 248.671 276.435 243.522 275.069C238.32 273.883 233.186 273.327 227.778 272.697C222.369 272.067 217.235 270.437 211.93 270.363C206.624 270.289 200.527 271.215 195.221 271.734C197.475 269.045 198.972 265.723 199.539 262.155C200.106 258.586 199.72 254.918 198.425 251.577C197.075 248.326 195.018 245.471 192.428 243.253C189.838 241.035 186.79 239.518 183.542 238.831C180.242 238.126 176.842 238.157 173.553 238.922C170.264 239.686 167.156 241.169 164.421 243.277C159.021 247.426 155.048 253.38 153.121 260.21C151.606 254.726 151.123 249.91 149.297 244.5C147.471 239.09 144.233 234.273 141.994 229.086C139.684 223.985 137.096 219.036 134.242 214.265C131.68 209.297 128.778 204.541 125.56 200.036C122.296 195.489 118.652 191.272 114.674 187.438C110.369 183.995 105.752 181.028 100.893 178.582C96.2798 175.624 91.3522 173.272 86.2167 171.579C80.9577 170.269 75.5522 169.77 70.1625 170.097C64.3078 170.857 58.6066 172.634 53.2813 175.359C47.8765 177.668 42.8516 180.896 38.3983 184.919C33.8755 188.864 29.9877 193.583 26.8914 198.888C23.839 204.233 21.6166 210.077 20.3113 216.191C19.0493 222.33 18.6774 228.642 19.2088 234.903C19.8393 241.118 21.4224 247.178 23.8942 252.837C22.6539 249.798 3.98132 252.54 1.15631 252.837C-1.6687 253.133 -7.73215 251.688 -12.6242 252.837C-17.5163 253.985 -21.685 257.098 -20.6515 262.471C-19.9969 265.768 -15.5526 279.107 -10.8672 277.625C-15.2301 278.75 -19.7179 279.211 -24.1999 278.996C-28.6096 278.996 -33.2261 277.366 -37.567 278.144C-41.9839 279.066 -46.0822 281.27 -49.4183 284.517C-51.1578 286.16 -52.4743 288.257 -53.2407 290.607C-54.007 292.956 -54.1975 295.479 -53.7937 297.93C-52.3467 304.192 -45.5598 307.453 -40.0132 309.75C-34.3548 311.929 -28.5182 313.529 -22.5807 314.53C-16.6631 315.597 -10.6645 316.056 -4.66599 315.901C1.30157 315.827 7.2601 315.381 13.1798 314.567C19.1055 313.752 24.9966 312.529 30.9566 311.936C36.1244 311.418 41.2921 312.974 46.5287 312.863C51.7654 312.751 56.8641 312.566 61.9974 312.863C67.1306 313.159 72.3328 312.863 77.5005 313.307C82.6682 313.752 87.836 314.641 92.9003 315.197C97.9647 315.753 103.236 315.197 108.438 315.605C113.64 316.012 118.773 316.827 123.838 317.198C128.902 317.568 134.173 318.198 139.306 318.346C144.44 318.495 149.642 319.236 154.809 318.976C160.708 318.707 166.586 318.064 172.414 317.05C178.271 316.086 184.128 315.382 189.915 314.419C195.67 313.061 201.489 312.047 207.348 311.38C212.998 311.158 218.51 311.862 223.885 311.825C229.259 311.788 235.012 312.122 240.456 311.825C245.986 311.313 251.484 310.46 256.923 309.268C262.391 308.197 267.771 306.661 273.012 304.674Z" fill="#FFFDD0" fill-opacity="0.75"/>
<path d="M57.2077 745.008C50.6175 745.356 46.0618 748.932 44.4794 755.002C43.9578 756.991 43.923 761.474 44.4099 763.724C46.5834 774.05 53.4692 780.817 60.0246 779.091C61.6939 778.655 62.772 778.114 64.1804 776.98C69.1883 773.003 72.5616 764.421 71.8313 757.584C71.414 753.677 70.3359 751.252 67.9885 748.88C66.7539 747.624 66.2497 747.24 64.8586 746.56C63.9544 746.124 62.7198 745.636 62.1112 745.479C60.9288 745.182 58.4423 744.955 57.2077 745.008Z" fill="#FF8343"/>
<path d="M47.0355 784.498C37.8719 789.591 31.0556 793.882 27.804 796.586C26.4303 797.72 25.7522 798.958 25.1436 801.4C24.4481 804.156 23.8221 810.505 23.8221 814.918V816.662L21.2312 817.936C16.6407 820.203 11.3372 823.57 7.0249 826.954C5.42517 828.209 1.32152 831.838 0.486874 832.745L0 833.25L7.70305 840.943L15.3887 848.652L17.3884 846.821C25.8739 839.076 36.3765 833.843 47.2964 831.942C51.4696 831.227 52.5129 831.14 57.9902 831.14C63.4676 831.14 64.5282 831.227 68.6841 831.96C79.7605 833.896 90.8195 839.46 98.9051 847.187L100.435 848.652L108.121 840.943C112.346 836.704 115.807 833.181 115.807 833.128C115.807 832.971 111.512 829.099 109.721 827.634C105.147 823.919 100.505 820.901 95.0448 818.11L92.1931 816.68L92.0888 813.784C91.6889 804.016 90.8195 799.499 88.9241 797.388C87.2201 795.504 81.4297 791.667 72.9268 786.783C67.0669 783.434 65.4498 782.562 65.0847 782.562C64.8934 782.562 64.2326 782.789 63.6067 783.068C61.6418 783.957 60.4768 784.202 57.9902 784.202C55.5385 784.202 54.4256 783.975 52.3564 783.05C51.7478 782.789 51.087 782.562 50.8784 782.562C50.6697 782.562 48.9483 783.434 47.0355 784.498Z" fill="#FF8343"/>
<path d="M173.208 745.008C166.618 745.356 162.062 748.932 160.479 755.002C159.958 756.991 159.923 761.474 160.41 763.724C162.583 774.05 169.469 780.817 176.025 779.091C177.694 778.655 178.772 778.114 180.18 776.98C185.188 773.003 188.562 764.421 187.831 757.584C187.414 753.677 186.336 751.252 183.988 748.88C182.754 747.624 182.25 747.24 180.859 746.56C179.954 746.124 178.72 745.636 178.111 745.479C176.929 745.182 174.442 744.955 173.208 745.008Z" fill="#FF8343"/>
<path d="M163.036 784.498C153.872 789.591 147.056 793.882 143.804 796.586C142.43 797.72 141.752 798.958 141.144 801.4C140.448 804.156 139.822 810.505 139.822 814.918V816.662L137.231 817.936C132.641 820.203 127.337 823.57 123.025 826.954C121.425 828.209 117.322 831.838 116.487 832.745L116 833.25L123.703 840.943L131.389 848.652L133.388 846.821C141.874 839.076 152.376 833.843 163.296 831.942C167.47 831.227 168.513 831.14 173.99 831.14C179.468 831.14 180.528 831.227 184.684 831.96C195.76 833.896 206.819 839.46 214.905 847.187L216.435 848.652L224.121 840.943C228.346 836.704 231.807 833.181 231.807 833.128C231.807 832.971 227.512 829.099 225.721 827.634C221.147 823.919 216.505 820.901 211.045 818.11L208.193 816.68L208.089 813.784C207.689 804.016 206.819 799.499 204.924 797.388C203.22 795.504 197.43 791.667 188.927 786.783C183.067 783.434 181.45 782.562 181.085 782.562C180.893 782.562 180.233 782.789 179.607 783.068C177.642 783.957 176.477 784.202 173.99 784.202C171.538 784.202 170.426 783.975 168.356 783.05C167.748 782.789 167.087 782.562 166.878 782.562C166.67 782.562 164.948 783.434 163.036 784.498Z" fill="#FF8343"/>
<path d="M826.208 741.008C819.618 741.356 815.062 744.932 813.479 751.002C812.958 752.991 812.923 757.474 813.41 759.724C815.583 770.05 822.469 776.817 829.025 775.091C830.694 774.655 831.772 774.114 833.18 772.98C838.188 769.003 841.562 760.421 840.831 753.584C840.414 749.677 839.336 747.252 836.988 744.88C835.754 743.624 835.25 743.24 833.859 742.56C832.954 742.124 831.72 741.636 831.111 741.479C829.929 741.182 827.442 740.955 826.208 741.008Z" fill="#FF8343"/>
<path d="M816.036 780.498C806.872 785.591 800.056 789.882 796.804 792.586C795.43 793.72 794.752 794.958 794.144 797.4C793.448 800.156 792.822 806.505 792.822 810.918V812.662L790.231 813.936C785.641 816.203 780.337 819.57 776.025 822.954C774.425 824.209 770.322 827.838 769.487 828.745L769 829.25L776.703 836.943L784.389 844.652L786.388 842.821C794.874 835.076 805.376 829.843 816.296 827.942C820.47 827.227 821.513 827.14 826.99 827.14C832.468 827.14 833.528 827.227 837.684 827.96C848.76 829.896 859.819 835.46 867.905 843.187L869.435 844.652L877.121 836.943C881.346 832.704 884.807 829.181 884.807 829.128C884.807 828.971 880.512 825.099 878.721 823.634C874.147 819.919 869.505 816.901 864.045 814.11L861.193 812.68L861.089 809.784C860.689 800.016 859.819 795.499 857.924 793.388C856.22 791.504 850.43 787.667 841.927 782.783C836.067 779.434 834.45 778.562 834.085 778.562C833.893 778.562 833.233 778.789 832.607 779.068C830.642 779.957 829.477 780.202 826.99 780.202C824.538 780.202 823.426 779.975 821.356 779.05C820.748 778.789 820.087 778.562 819.878 778.562C819.67 778.562 817.948 779.434 816.036 780.498Z" fill="#FF8343"/>
<path d="M941.208 741.008C934.618 741.356 930.062 744.932 928.479 751.002C927.958 752.991 927.923 757.474 928.41 759.724C930.583 770.05 937.469 776.817 944.025 775.091C945.694 774.655 946.772 774.114 948.18 772.98C953.188 769.003 956.562 760.421 955.831 753.584C955.414 749.677 954.336 747.252 951.988 744.88C950.754 743.624 950.25 743.24 948.859 742.56C947.954 742.124 946.72 741.636 946.111 741.479C944.929 741.182 942.442 740.955 941.208 741.008Z" fill="#FF8343"/>
<path d="M931.036 780.498C921.872 785.591 915.056 789.882 911.804 792.586C910.43 793.72 909.752 794.958 909.144 797.4C908.448 800.156 907.822 806.505 907.822 810.918V812.662L905.231 813.936C900.641 816.203 895.337 819.57 891.025 822.954C889.425 824.209 885.322 827.838 884.487 828.745L884 829.25L891.703 836.943L899.389 844.652L901.388 842.821C909.874 835.076 920.376 829.843 931.296 827.942C935.47 827.227 936.513 827.14 941.99 827.14C947.468 827.14 948.528 827.227 952.684 827.96C963.76 829.896 974.819 835.46 982.905 843.187L984.435 844.652L992.121 836.943C996.346 832.704 999.807 829.181 999.807 829.128C999.807 828.971 995.512 825.099 993.721 823.634C989.147 819.919 984.505 816.901 979.045 814.11L976.193 812.68L976.089 809.784C975.689 800.016 974.819 795.499 972.924 793.388C971.22 791.504 965.43 787.667 956.927 782.783C951.067 779.434 949.45 778.562 949.085 778.562C948.893 778.562 948.233 778.789 947.607 779.068C945.642 779.957 944.477 780.202 941.99 780.202C939.538 780.202 938.426 779.975 936.356 779.05C935.748 778.789 935.087 778.562 934.878 778.562C934.67 778.562 932.948 779.434 931.036 780.498Z" fill="#FF8343"/>
</g>
<defs>
<clipPath id="clip0_721_4302">
<rect width="1280" height="832" fill="white" transform="translate(-123)"/>
</clipPath>
</defs>
</svg>
