<svg width="1280" height="832" viewBox="0 0 1280 832" fill="none" xmlns="http://www.w3.org/2000/svg">
<g clip-path="url(#clip0_721_2195)">
<rect width="1280" height="832" fill="#FFEFD5"/>
<path d="M1238.27 547.012C1232.24 544.264 1226.04 541.811 1220.02 539.211C1214 536.611 1207.84 533.815 1201.77 531.362C1195.71 528.909 1189.41 526.456 1183.21 524.15C1177 521.844 1170.66 519.833 1164.42 517.674C1158.17 515.516 1152.1 514.24 1145.76 512.229C1151.05 508.353 1156.2 505.017 1161.13 500.7C1166.06 496.382 1170.85 491.918 1175.41 487.012C1179.97 482.106 1183.07 475.974 1187.22 470.774C1191.37 465.573 1195.66 460.618 1199.4 455.075C1203.14 449.531 1207.34 444.281 1210.58 438.394C1211.63 436.82 1212.37 435.04 1212.78 433.154C1213.19 431.268 1213.25 429.315 1212.95 427.405C1211.35 421.027 1203.32 419.801 1197.26 420.439C1190.63 420.943 1184.05 421.943 1177.55 423.431C1171.2 425.46 1164.97 427.901 1158.9 430.741C1146.59 436.067 1134.74 442.552 1123.5 450.12C1118.07 454.274 1112.95 458.866 1108.17 463.856C1106.71 465.377 1102.29 471.657 1097.68 477.397C1093.07 483.136 1088.83 489.858 1090.2 492.114C1087.34 486.723 1084.17 481.529 1080.71 476.563C1076.74 472.078 1072.54 467.835 1068.12 463.856C1063.98 459.582 1059.64 455.538 1055.12 451.738C1050.56 447.961 1046.23 443.938 1041.44 440.553C1034.09 435.647 1025.15 431.575 1016.9 434.813C1014.26 435.999 1011.94 437.878 1010.16 440.278C1008.37 442.679 1007.18 445.523 1006.68 448.55C1004.57 454.516 1003.53 460.859 1003.62 467.241C1004.56 473.03 1005.84 478.749 1007.46 484.363C1008.63 490.074 1010.15 495.696 1012.02 501.19C1013.94 506.674 1016.19 512.017 1018.77 517.184C1021.8 522.313 1025.14 527.229 1028.76 531.901C1023.01 533.52 1016.58 534.747 1010.92 536.807C1005.27 538.868 999.837 541.37 994.272 543.676C988.707 545.981 983.325 548.582 977.942 551.182C972.56 553.782 966.767 555.744 961.521 558.688C955.115 561.832 949.558 566.677 945.373 572.768C943.224 575.714 942.056 579.35 942.056 583.095C942.056 586.839 943.224 590.476 945.373 593.422C949.518 597.401 954.871 599.617 960.426 599.652C966.949 600.094 973.563 599.947 980.086 599.652C986.609 599.358 993.132 598.573 999.655 597.739C1006.18 596.905 1012.34 594.452 1018.72 592.833C1025.11 591.214 1031.81 591.214 1038.06 589.154C1044.31 587.093 1050.29 584.248 1056.31 581.402C1062.33 578.557 1067.99 576.496 1073.78 573.258C1072.32 578.802 1071 583.61 1069.9 589.252C1068.81 594.894 1067.35 600.584 1066.57 606.275C1065.8 611.966 1066.21 617.902 1065.71 623.642C1065.2 629.382 1063.97 635.122 1063.79 640.911C1063.81 647.028 1064.66 653.109 1066.3 658.965C1066.64 662.284 1067.75 665.459 1069.52 668.203C1071.29 670.948 1073.66 673.175 1076.43 674.684C1079.2 676.193 1082.28 676.936 1085.38 676.847C1088.49 676.758 1091.52 675.839 1094.21 674.173C1100.19 671.317 1105.56 667.177 1110 662.007C1113.83 657.319 1117.28 652.279 1120.31 646.945C1123.1 641.52 1125.48 635.86 1127.42 630.02C1129.72 624.47 1131.6 618.727 1133.03 612.849C1134.37 606.836 1135.25 600.716 1135.68 594.55C1136.53 588.38 1136.91 582.145 1136.82 575.908C1135.67 569.443 1134.02 563.093 1131.89 556.922C1137.55 559.375 1144.12 561.828 1149.86 563.741C1155.61 565.654 1161.09 568.941 1166.97 570.609C1172.85 572.277 1178.97 572.719 1184.94 573.945C1190.92 575.172 1196.89 575.809 1202.91 576.594C1208.94 577.379 1214.87 579.636 1221.16 580.029C1227.45 580.421 1233.34 580.912 1239.41 580.863C1242.08 581.054 1244.75 580.661 1247.28 579.709C1249.8 578.756 1252.12 577.262 1254.09 575.319C1258.02 570.413 1256.33 563.201 1252.13 558.001C1248.27 553.343 1243.55 549.6 1238.27 547.012ZM1124.96 537.641C1124.5 541.121 1123.39 544.461 1121.67 547.453C1119.57 550.563 1116.84 553.127 1113.69 554.959C1109.43 557.722 1104.64 559.4 1099.69 559.865C1094.75 560.555 1089.74 559.914 1085.09 558.001C1080.37 556.162 1076.18 553.014 1072.96 548.876C1069.79 544.644 1067.76 539.55 1067.12 534.158C1066.27 527.231 1067.9 520.216 1071.68 514.534C1077.06 505.802 1084.64 499.326 1094.26 500.111C1100.35 500.492 1106.34 501.917 1112 504.33C1114.75 505.689 1117.21 507.62 1119.26 510.012C1121.3 512.404 1122.88 515.208 1123.91 518.263C1126.15 524.442 1126.52 531.225 1124.96 537.641Z" fill="#FFFDD0" fill-opacity="0.75"/>
<path d="M308.012 304.674C312.525 303.006 317.624 299.783 317.59 294.67C317.555 289.556 313.214 286.444 309.184 284.554C304.292 282.294 298.848 281.738 293.749 279.997C288.754 278.08 283.671 276.435 278.522 275.069C273.32 273.883 268.186 273.327 262.778 272.697C257.369 272.067 252.235 270.437 246.93 270.363C241.624 270.289 235.527 271.215 230.221 271.734C232.475 269.045 233.972 265.723 234.539 262.155C235.106 258.586 234.72 254.918 233.425 251.577C232.075 248.326 230.018 245.471 227.428 243.253C224.838 241.035 221.79 239.518 218.542 238.831C215.242 238.126 211.842 238.157 208.553 238.922C205.264 239.686 202.156 241.169 199.421 243.277C194.021 247.426 190.048 253.38 188.121 260.21C186.606 254.726 186.123 249.91 184.297 244.5C182.471 239.09 179.233 234.273 176.994 229.086C174.684 223.985 172.096 219.036 169.242 214.265C166.68 209.297 163.778 204.541 160.56 200.036C157.296 195.489 153.652 191.272 149.674 187.438C145.369 183.995 140.752 181.028 135.893 178.582C131.28 175.624 126.352 173.272 121.217 171.579C115.958 170.269 110.552 169.77 105.162 170.097C99.3078 170.857 93.6066 172.634 88.2813 175.359C82.8765 177.668 77.8516 180.896 73.3983 184.919C68.8755 188.864 64.9877 193.583 61.8914 198.888C58.839 204.233 56.6166 210.077 55.3113 216.191C54.0493 222.33 53.6774 228.642 54.2088 234.903C54.8393 241.118 56.4224 247.178 58.8942 252.837C57.6539 249.798 38.9813 252.54 36.1563 252.837C33.3313 253.133 27.2679 251.688 22.3758 252.837C17.4837 253.985 13.315 257.098 14.3485 262.471C15.0031 265.768 19.4474 279.107 24.1328 277.625C19.7699 278.75 15.2821 279.211 10.8001 278.996C6.39036 278.996 1.77386 277.366 -2.56702 278.144C-6.98394 279.066 -11.0822 281.27 -14.4183 284.517C-16.1578 286.16 -17.4743 288.257 -18.2407 290.607C-19.0071 292.956 -19.1975 295.479 -18.7937 297.93C-17.3467 304.192 -10.5598 307.453 -5.01314 309.75C0.645173 311.929 6.48176 313.529 12.4193 314.53C18.3369 315.597 24.3355 316.056 30.334 315.901C36.3016 315.827 42.2601 315.381 48.1798 314.567C54.1055 313.752 59.9966 312.529 65.9566 311.936C71.1244 311.418 76.2921 312.974 81.5287 312.863C86.7654 312.751 91.8641 312.566 96.9974 312.863C102.131 313.159 107.333 312.863 112.501 313.307C117.668 313.752 122.836 314.641 127.9 315.197C132.965 315.753 138.236 315.197 143.438 315.605C148.64 316.012 153.773 316.827 158.838 317.198C163.902 317.568 169.173 318.198 174.306 318.346C179.44 318.495 184.642 319.236 189.809 318.976C195.708 318.707 201.586 318.064 207.414 317.05C213.271 316.086 219.128 315.382 224.915 314.419C230.67 313.061 236.489 312.047 242.348 311.38C247.998 311.158 253.51 311.862 258.885 311.825C264.259 311.788 270.012 312.122 275.456 311.825C280.986 311.313 286.484 310.46 291.923 309.268C297.391 308.197 302.771 306.661 308.012 304.674Z" fill="#FFFDD0" fill-opacity="0.75"/>
<path d="M57.2077 745.008C50.6175 745.356 46.0618 748.932 44.4794 755.002C43.9578 756.991 43.923 761.474 44.4099 763.724C46.5834 774.05 53.4692 780.817 60.0246 779.091C61.6939 778.655 62.772 778.114 64.1804 776.98C69.1883 773.003 72.5616 764.421 71.8313 757.584C71.414 753.677 70.3359 751.252 67.9885 748.88C66.7539 747.624 66.2497 747.24 64.8586 746.56C63.9544 746.124 62.7198 745.636 62.1112 745.479C60.9288 745.182 58.4423 744.955 57.2077 745.008Z" fill="#FF8343"/>
<path d="M47.0355 784.498C37.8719 789.591 31.0556 793.882 27.804 796.586C26.4303 797.72 25.7522 798.958 25.1436 801.4C24.4481 804.156 23.8221 810.505 23.8221 814.918V816.662L21.2312 817.936C16.6407 820.203 11.3372 823.57 7.0249 826.954C5.42517 828.209 1.32152 831.838 0.486874 832.745L0 833.25L7.70305 840.943L15.3887 848.652L17.3884 846.821C25.8739 839.076 36.3765 833.843 47.2964 831.942C51.4696 831.227 52.5129 831.14 57.9902 831.14C63.4676 831.14 64.5282 831.227 68.6841 831.96C79.7605 833.896 90.8195 839.46 98.9051 847.187L100.435 848.652L108.121 840.943C112.346 836.704 115.807 833.181 115.807 833.128C115.807 832.971 111.512 829.099 109.721 827.634C105.147 823.919 100.505 820.901 95.0448 818.11L92.1931 816.68L92.0888 813.784C91.6889 804.016 90.8195 799.499 88.9241 797.388C87.2201 795.504 81.4297 791.667 72.9268 786.783C67.0669 783.434 65.4498 782.562 65.0847 782.562C64.8934 782.562 64.2326 782.789 63.6067 783.068C61.6418 783.957 60.4768 784.202 57.9902 784.202C55.5385 784.202 54.4256 783.975 52.3564 783.05C51.7478 782.789 51.087 782.562 50.8784 782.562C50.6697 782.562 48.9483 783.434 47.0355 784.498Z" fill="#FF8343"/>
<path d="M173.208 745.008C166.618 745.356 162.062 748.932 160.479 755.002C159.958 756.991 159.923 761.474 160.41 763.724C162.583 774.05 169.469 780.817 176.025 779.091C177.694 778.655 178.772 778.114 180.18 776.98C185.188 773.003 188.562 764.421 187.831 757.584C187.414 753.677 186.336 751.252 183.988 748.88C182.754 747.624 182.25 747.24 180.859 746.56C179.954 746.124 178.72 745.636 178.111 745.479C176.929 745.182 174.442 744.955 173.208 745.008Z" fill="#FF8343"/>
<path d="M163.036 784.498C153.872 789.591 147.056 793.882 143.804 796.586C142.43 797.72 141.752 798.958 141.144 801.4C140.448 804.156 139.822 810.505 139.822 814.918V816.662L137.231 817.936C132.641 820.203 127.337 823.57 123.025 826.954C121.425 828.209 117.322 831.838 116.487 832.745L116 833.25L123.703 840.943L131.389 848.652L133.388 846.821C141.874 839.076 152.376 833.843 163.296 831.942C167.47 831.227 168.513 831.14 173.99 831.14C179.468 831.14 180.528 831.227 184.684 831.96C195.76 833.896 206.819 839.46 214.905 847.187L216.435 848.652L224.121 840.943C228.346 836.704 231.807 833.181 231.807 833.128C231.807 832.971 227.512 829.099 225.721 827.634C221.147 823.919 216.505 820.901 211.045 818.11L208.193 816.68L208.089 813.784C207.689 804.016 206.819 799.499 204.924 797.388C203.22 795.504 197.43 791.667 188.927 786.783C183.067 783.434 181.45 782.562 181.085 782.562C180.893 782.562 180.233 782.789 179.607 783.068C177.642 783.957 176.477 784.202 173.99 784.202C171.538 784.202 170.426 783.975 168.356 783.05C167.748 782.789 167.087 782.562 166.878 782.562C166.67 782.562 164.948 783.434 163.036 784.498Z" fill="#FF8343"/>
<path d="M1106.21 745.008C1099.62 745.356 1095.06 748.932 1093.48 755.002C1092.96 756.991 1092.92 761.474 1093.41 763.724C1095.58 774.05 1102.47 780.817 1109.02 779.091C1110.69 778.655 1111.77 778.114 1113.18 776.98C1118.19 773.003 1121.56 764.421 1120.83 757.584C1120.41 753.677 1119.34 751.252 1116.99 748.88C1115.75 747.624 1115.25 747.24 1113.86 746.56C1112.95 746.124 1111.72 745.636 1111.11 745.479C1109.93 745.182 1107.44 744.955 1106.21 745.008Z" fill="#FF8343"/>
<path d="M1096.04 784.498C1086.87 789.591 1080.06 793.882 1076.8 796.586C1075.43 797.72 1074.75 798.958 1074.14 801.4C1073.45 804.156 1072.82 810.505 1072.82 814.918V816.662L1070.23 817.936C1065.64 820.203 1060.34 823.57 1056.02 826.954C1054.43 828.209 1050.32 831.838 1049.49 832.745L1049 833.25L1056.7 840.943L1064.39 848.652L1066.39 846.821C1074.87 839.076 1085.38 833.843 1096.3 831.942C1100.47 831.227 1101.51 831.14 1106.99 831.14C1112.47 831.14 1113.53 831.227 1117.68 831.96C1128.76 833.896 1139.82 839.46 1147.91 847.187L1149.44 848.652L1157.12 840.943C1161.35 836.704 1164.81 833.181 1164.81 833.128C1164.81 832.971 1160.51 829.099 1158.72 827.634C1154.15 823.919 1149.5 820.901 1144.04 818.11L1141.19 816.68L1141.09 813.784C1140.69 804.016 1139.82 799.499 1137.92 797.388C1136.22 795.504 1130.43 791.667 1121.93 786.783C1116.07 783.434 1114.45 782.562 1114.08 782.562C1113.89 782.562 1113.23 782.789 1112.61 783.068C1110.64 783.957 1109.48 784.202 1106.99 784.202C1104.54 784.202 1103.43 783.975 1101.36 783.05C1100.75 782.789 1100.09 782.562 1099.88 782.562C1099.67 782.562 1097.95 783.434 1096.04 784.498Z" fill="#FF8343"/>
<path d="M1221.21 745.008C1214.62 745.356 1210.06 748.932 1208.48 755.002C1207.96 756.991 1207.92 761.474 1208.41 763.724C1210.58 774.05 1217.47 780.817 1224.02 779.091C1225.69 778.655 1226.77 778.114 1228.18 776.98C1233.19 773.003 1236.56 764.421 1235.83 757.584C1235.41 753.677 1234.34 751.252 1231.99 748.88C1230.75 747.624 1230.25 747.24 1228.86 746.56C1227.95 746.124 1226.72 745.636 1226.11 745.479C1224.93 745.182 1222.44 744.955 1221.21 745.008Z" fill="#FF8343"/>
<path d="M1211.04 784.498C1201.87 789.591 1195.06 793.882 1191.8 796.586C1190.43 797.72 1189.75 798.958 1189.14 801.4C1188.45 804.156 1187.82 810.505 1187.82 814.918V816.662L1185.23 817.936C1180.64 820.203 1175.34 823.57 1171.02 826.954C1169.43 828.209 1165.32 831.838 1164.49 832.745L1164 833.25L1171.7 840.943L1179.39 848.652L1181.39 846.821C1189.87 839.076 1200.38 833.843 1211.3 831.942C1215.47 831.227 1216.51 831.14 1221.99 831.14C1227.47 831.14 1228.53 831.227 1232.68 831.96C1243.76 833.896 1254.82 839.46 1262.91 847.187L1264.44 848.652L1272.12 840.943C1276.35 836.704 1279.81 833.181 1279.81 833.128C1279.81 832.971 1275.51 829.099 1273.72 827.634C1269.15 823.919 1264.5 820.901 1259.04 818.11L1256.19 816.68L1256.09 813.784C1255.69 804.016 1254.82 799.499 1252.92 797.388C1251.22 795.504 1245.43 791.667 1236.93 786.783C1231.07 783.434 1229.45 782.562 1229.08 782.562C1228.89 782.562 1228.23 782.789 1227.61 783.068C1225.64 783.957 1224.48 784.202 1221.99 784.202C1219.54 784.202 1218.43 783.975 1216.36 783.05C1215.75 782.789 1215.09 782.562 1214.88 782.562C1214.67 782.562 1212.95 783.434 1211.04 784.498Z" fill="#FF8343"/>
</g>
<defs>
<clipPath id="clip0_721_2195">
<rect width="1280" height="832" fill="white"/>
</clipPath>
</defs>
</svg>
