<svg width="402" height="832" viewBox="0 0 402 832" fill="none" xmlns="http://www.w3.org/2000/svg">
<rect width="1280" height="832" transform="translate(-389)" fill="#FFEFD5"/>
<path d="M449.209 516.723C443.188 513.976 436.985 511.523 430.963 508.923C424.942 506.323 418.784 503.526 412.718 501.073C406.651 498.62 400.356 496.167 394.152 493.861C387.949 491.556 381.608 489.544 375.359 487.386C369.11 485.227 363.043 483.951 356.703 481.94C361.994 478.064 367.148 474.728 372.075 470.411C377.001 466.094 381.791 461.629 386.352 456.724C390.914 451.818 394.016 445.685 398.166 440.485C402.317 435.285 406.605 430.33 410.346 424.786C414.086 419.242 418.283 413.993 421.521 408.106C422.569 406.532 423.318 404.751 423.725 402.865C424.132 400.98 424.189 399.026 423.893 397.116C422.297 390.739 414.268 389.512 408.202 390.15C401.577 390.655 394.992 391.655 388.496 393.143C382.146 395.171 375.915 397.613 369.84 400.453C357.533 405.779 345.688 412.263 334.443 419.831C329.018 423.986 323.894 428.578 319.116 433.568C317.656 435.088 313.232 441.368 308.625 447.108C304.018 452.848 299.775 459.569 301.144 461.826C298.285 456.434 295.117 451.24 291.656 446.274C287.683 441.789 283.48 437.547 279.066 433.568C274.927 429.294 270.588 425.249 266.066 421.45C261.505 417.672 257.171 413.649 252.382 410.264C245.038 405.358 236.097 401.287 227.841 404.524C225.205 405.71 222.887 407.59 221.102 409.99C219.317 412.39 218.12 415.234 217.623 418.261C215.514 424.227 214.477 430.57 214.567 436.953C215.504 442.742 216.784 448.461 218.399 454.074C219.572 459.786 221.096 465.407 222.96 470.902C224.884 476.386 227.139 481.728 229.711 486.895C232.747 492.025 236.083 496.941 239.701 501.613C233.954 503.232 227.522 504.458 221.866 506.519C216.209 508.579 210.781 511.081 205.216 513.387C199.651 515.693 194.269 518.293 188.886 520.893C183.504 523.493 177.711 525.456 172.465 528.399C166.059 531.544 160.502 536.389 156.317 542.479C154.168 545.425 153 549.062 153 552.806C153 556.551 154.168 560.187 156.317 563.133C160.462 567.113 165.814 569.328 171.37 569.364C177.893 569.805 184.507 569.658 191.03 569.364C197.553 569.069 204.076 568.284 210.599 567.45C217.122 566.616 223.28 564.163 229.666 562.545C236.052 560.926 242.757 560.926 249.006 558.865C255.256 556.805 261.231 553.959 267.252 551.114C273.273 548.268 278.93 546.208 284.723 542.97C283.263 548.514 281.94 553.321 280.845 558.963C279.751 564.605 278.291 570.296 277.516 575.987C276.74 581.678 277.151 587.614 276.649 593.354C276.147 599.094 274.916 604.834 274.733 610.623C274.755 616.739 275.6 622.82 277.242 628.676C277.585 631.996 278.692 635.171 280.461 637.915C282.231 640.659 284.608 642.886 287.378 644.395C290.148 645.904 293.224 646.648 296.328 646.559C299.432 646.47 302.467 645.551 305.158 643.885C311.135 641.028 316.506 636.888 320.941 631.718C324.778 627.03 328.228 621.991 331.25 616.657C334.044 611.232 336.424 605.571 338.366 599.731C340.667 594.182 342.543 588.439 343.976 582.561C345.313 576.547 346.197 570.428 346.622 564.262C347.477 558.092 347.858 551.856 347.762 545.619C346.612 539.155 344.964 532.804 342.836 526.633C348.492 529.086 355.061 531.539 360.808 533.452C366.555 535.366 372.029 538.653 377.914 540.321C383.798 541.989 389.91 542.43 395.886 543.657C401.861 544.883 407.837 545.521 413.858 546.306C419.879 547.091 425.809 549.348 432.104 549.74C438.399 550.132 444.283 550.623 450.35 550.574C453.019 550.765 455.697 550.373 458.221 549.42C460.746 548.467 463.065 546.974 465.038 545.03C468.961 540.124 467.273 532.913 463.076 527.712C459.213 523.054 454.49 519.312 449.209 516.723ZM335.902 507.353C335.449 510.832 334.331 514.173 332.618 517.165C330.51 520.274 327.783 522.839 324.636 524.671C320.377 527.433 315.587 529.111 310.632 529.577C305.698 530.266 300.682 529.625 296.035 527.712C291.314 525.873 287.128 522.725 283.902 518.587C280.729 514.355 278.708 509.261 278.063 503.87C277.212 496.943 278.843 489.927 282.624 484.246C288.007 475.513 295.579 469.037 305.204 469.822C311.29 470.204 317.28 471.628 322.948 474.041C325.691 475.4 328.156 477.332 330.2 479.724C332.244 482.115 333.825 484.92 334.853 487.974C337.094 494.153 337.462 500.936 335.902 507.353Z" fill="#FFFDD0" fill-opacity="0.75"/>
<path d="M201.012 266.674C205.525 265.006 210.624 261.783 210.59 256.67C210.555 251.556 206.214 248.444 202.184 246.554C197.292 244.294 191.848 243.738 186.749 241.997C181.754 240.08 176.671 238.435 171.522 237.069C166.32 235.883 161.186 235.327 155.778 234.697C150.369 234.067 145.235 232.437 139.93 232.363C134.624 232.289 128.527 233.215 123.221 233.734C125.475 231.045 126.972 227.723 127.539 224.155C128.106 220.586 127.72 216.918 126.425 213.577C125.075 210.326 123.018 207.471 120.428 205.253C117.838 203.035 114.79 201.518 111.542 200.831C108.242 200.126 104.842 200.157 101.553 200.922C98.2642 201.686 95.1563 203.169 92.4214 205.277C87.0208 209.426 83.0478 215.38 81.1214 222.21C79.6055 216.726 79.1232 211.91 77.2973 206.5C75.4714 201.09 72.2329 196.273 69.9935 191.086C67.6844 185.985 65.096 181.036 62.242 176.265C59.68 171.297 56.7782 166.541 53.5603 162.036C50.2962 157.489 46.6521 153.272 42.6736 149.438C38.3691 145.995 33.7521 143.028 28.8931 140.582C24.2798 137.624 19.3522 135.272 14.2167 133.579C8.95771 132.269 3.55219 131.77 -1.83753 132.097C-7.6922 132.857 -13.3934 134.634 -18.7187 137.359C-24.1235 139.668 -29.1484 142.896 -33.6017 146.919C-38.1245 150.864 -42.0123 155.583 -45.1086 160.888C-48.161 166.233 -50.3834 172.077 -51.6887 178.191C-52.9507 184.33 -53.3226 190.642 -52.7912 196.903C-52.1607 203.118 -50.5776 209.178 -48.1058 214.837C-49.3461 211.798 -68.0187 214.54 -70.8437 214.837C-73.6687 215.133 -79.7321 213.688 -84.6242 214.837C-89.5163 215.985 -93.685 219.098 -92.6515 224.471C-91.9969 227.768 -87.5526 241.107 -82.8672 239.625C-87.2301 240.75 -91.7179 241.211 -96.1999 240.996C-100.61 240.996 -105.226 239.366 -109.567 240.144C-113.984 241.066 -118.082 243.27 -121.418 246.517C-123.158 248.16 -124.474 250.257 -125.241 252.607C-126.007 254.956 -126.198 257.479 -125.794 259.93C-124.347 266.192 -117.56 269.453 -112.013 271.75C-106.355 273.929 -100.518 275.529 -94.5807 276.53C-88.6631 277.597 -82.6645 278.056 -76.666 277.901C-70.6984 277.827 -64.7399 277.381 -58.8202 276.567C-52.8945 275.752 -47.0034 274.529 -41.0434 273.936C-35.8756 273.418 -30.7079 274.974 -25.4713 274.863C-20.2346 274.751 -15.1359 274.566 -10.0026 274.863C-4.86935 275.159 0.332819 274.863 5.50053 275.307C10.6682 275.752 15.836 276.641 20.9003 277.197C25.9647 277.753 31.2358 277.197 36.4379 277.605C41.6401 278.012 46.7733 278.827 51.8377 279.198C56.9021 279.568 62.1731 280.198 67.3063 280.346C72.4396 280.495 77.6418 281.236 82.8095 280.976C88.7078 280.707 94.5863 280.064 100.414 279.05C106.271 278.086 112.128 277.382 117.915 276.419C123.67 275.061 129.489 274.047 135.348 273.38C140.998 273.158 146.51 273.862 151.885 273.825C157.259 273.788 163.012 274.122 168.456 273.825C173.986 273.313 179.484 272.46 184.923 271.268C190.391 270.197 195.771 268.661 201.012 266.674Z" fill="#FFFDD0" fill-opacity="0.75"/>
<path d="M46.5555 746.006C41.1733 746.291 37.4527 749.211 36.1604 754.169C35.7343 755.793 35.7059 759.454 36.1036 761.291C37.8787 769.725 43.5023 775.252 48.8561 773.842C50.2194 773.485 51.0998 773.044 52.2501 772.118C56.34 768.87 59.095 761.861 58.4985 756.277C58.1577 753.086 57.2773 751.106 55.3601 749.169C54.3519 748.143 53.94 747.83 52.8039 747.274C52.0655 746.918 51.0572 746.519 50.5602 746.391C49.5945 746.149 47.5638 745.963 46.5555 746.006Z" fill="#FF8343"/>
<path d="M38.2482 778.258C30.7643 782.417 25.1975 785.922 22.5419 788.13C21.42 789.056 20.8662 790.067 20.3691 792.062C19.8011 794.312 19.2899 799.498 19.2899 803.102V804.526L17.1739 805.566C13.4248 807.418 9.09353 810.167 5.57168 812.931C4.26519 813.957 0.913749 816.92 0.232101 817.661L-0.165527 818.074L6.12552 824.356L12.4024 830.652L14.0355 829.157C20.9656 822.832 29.543 818.558 38.4612 817.005C41.8695 816.421 42.7215 816.35 47.1948 816.35C51.6681 816.35 52.5344 816.421 55.9284 817.02C64.9745 818.601 74.0063 823.145 80.6098 829.456L81.8595 830.652L88.1363 824.356C91.5872 820.894 94.4132 818.017 94.4132 817.974C94.4132 817.846 90.9055 814.683 89.4428 813.487C85.708 810.452 81.9163 807.988 77.4572 805.709L75.1282 804.541L75.043 802.176C74.7164 794.198 74.0063 790.509 72.4584 788.785C71.0667 787.247 66.3378 784.113 59.3935 780.124C54.6078 777.389 53.2871 776.677 52.9888 776.677C52.8326 776.677 52.293 776.862 51.7818 777.09C50.177 777.816 49.2256 778.016 47.1948 778.016C45.1925 778.016 44.2836 777.83 42.5937 777.075C42.0967 776.862 41.557 776.677 41.3866 776.677C41.2162 776.677 39.8103 777.389 38.2482 778.258Z" fill="#FF8343"/>
<path d="M141.293 746.006C135.911 746.291 132.19 749.211 130.898 754.169C130.472 755.793 130.443 759.454 130.841 761.291C132.616 769.725 138.24 775.252 143.593 773.842C144.957 773.485 145.837 773.044 146.987 772.118C151.077 768.87 153.832 761.861 153.236 756.277C152.895 753.086 152.015 751.106 150.097 749.169C149.089 748.143 148.677 747.83 147.541 747.274C146.803 746.918 145.795 746.519 145.297 746.391C144.332 746.149 142.301 745.963 141.293 746.006Z" fill="#FF8343"/>
<path d="M132.985 778.258C125.501 782.417 119.934 785.922 117.279 788.13C116.157 789.056 115.603 790.067 115.106 792.062C114.538 794.312 114.027 799.498 114.027 803.102V804.526L111.911 805.566C108.162 807.418 103.83 810.167 100.308 812.931C99.002 813.957 95.6506 816.92 94.9689 817.661L94.5713 818.074L100.862 824.356L107.139 830.652L108.772 829.157C115.702 822.832 124.28 818.558 133.198 817.005C136.606 816.421 137.458 816.35 141.932 816.35C146.405 816.35 147.271 816.421 150.665 817.02C159.711 818.601 168.743 823.145 175.347 829.456L176.596 830.652L182.873 824.356C186.324 820.894 189.15 818.017 189.15 817.974C189.15 817.846 185.642 814.683 184.18 813.487C180.445 810.452 176.653 807.988 172.194 805.709L169.865 804.541L169.78 802.176C169.453 794.198 168.743 790.509 167.195 788.785C165.804 787.247 161.075 784.113 154.13 780.124C149.345 777.389 148.024 776.677 147.726 776.677C147.569 776.677 147.03 776.862 146.519 777.09C144.914 777.816 143.962 778.016 141.932 778.016C139.929 778.016 139.02 777.83 137.331 777.075C136.833 776.862 136.294 776.677 136.123 776.677C135.953 776.677 134.547 777.389 132.985 778.258Z" fill="#FF8343"/>
<path d="M261.029 746.006C255.647 746.291 251.926 749.211 250.634 754.169C250.208 755.793 250.18 759.454 250.577 761.291C252.352 769.725 257.976 775.252 263.33 773.842C264.693 773.485 265.573 773.044 266.724 772.118C270.814 768.87 273.569 761.861 272.972 756.277C272.631 753.086 271.751 751.106 269.834 749.169C268.825 748.143 268.414 747.83 267.278 747.274C266.539 746.918 265.531 746.519 265.034 746.391C264.068 746.149 262.037 745.963 261.029 746.006Z" fill="#FF8343"/>
<path d="M252.721 778.258C245.237 782.417 239.671 785.922 237.015 788.13C235.893 789.056 235.339 790.067 234.842 792.062C234.274 794.312 233.763 799.498 233.763 803.102V804.526L231.647 805.566C227.898 807.418 223.567 810.167 220.045 812.931C218.738 813.957 215.387 816.92 214.705 817.661L214.308 818.074L220.599 824.356L226.876 830.652L228.509 829.157C235.439 822.832 244.016 818.558 252.934 817.005C256.343 816.421 257.195 816.35 261.668 816.35C266.141 816.35 267.008 816.421 270.402 817.02C279.448 818.601 288.479 823.145 295.083 829.456L296.333 830.652L302.609 824.356C306.06 820.894 308.886 818.017 308.886 817.974C308.886 817.846 305.379 814.683 303.916 813.487C300.181 810.452 296.389 807.988 291.93 805.709L289.601 804.541L289.516 802.176C289.19 794.198 288.479 790.509 286.932 788.785C285.54 787.247 280.811 784.113 273.867 780.124C269.081 777.389 267.76 776.677 267.462 776.677C267.306 776.677 266.766 776.862 266.255 777.09C264.65 777.816 263.699 778.016 261.668 778.016C259.666 778.016 258.757 777.83 257.067 777.075C256.57 776.862 256.03 776.677 255.86 776.677C255.689 776.677 254.283 777.389 252.721 778.258Z" fill="#FF8343"/>
<path d="M354.95 746.006C349.567 746.291 345.847 749.211 344.554 754.169C344.128 755.793 344.1 759.454 344.498 761.291C346.273 769.725 351.896 775.252 357.25 773.842C358.613 773.485 359.494 773.044 360.644 772.118C364.734 768.87 367.489 761.861 366.893 756.277C366.552 753.086 365.671 751.106 363.754 749.169C362.746 748.143 362.334 747.83 361.198 747.274C360.46 746.918 359.451 746.519 358.954 746.391C357.989 746.149 355.958 745.963 354.95 746.006Z" fill="#FF8343"/>
<path d="M346.642 778.258C339.158 782.417 333.591 785.922 330.935 788.13C329.814 789.056 329.26 790.067 328.763 792.062C328.195 794.312 327.683 799.498 327.683 803.102V804.526L325.567 805.566C321.818 807.418 317.487 810.167 313.965 812.931C312.659 813.957 309.307 816.92 308.626 817.661L308.228 818.074L314.519 824.356L320.796 830.652L322.429 829.157C329.359 822.832 337.937 818.558 346.855 817.005C350.263 816.421 351.115 816.35 355.588 816.35C360.062 816.35 360.928 816.421 364.322 817.02C373.368 818.601 382.4 823.145 389.003 829.456L390.253 830.652L396.53 824.356C399.981 820.894 402.807 818.017 402.807 817.974C402.807 817.846 399.299 814.683 397.836 813.487C394.102 810.452 390.31 807.988 385.851 805.709L383.522 804.541L383.437 802.176C383.11 794.198 382.4 790.509 380.852 788.785C379.46 787.247 374.731 784.113 367.787 780.124C363.001 777.389 361.681 776.677 361.382 776.677C361.226 776.677 360.687 776.862 360.175 777.09C358.571 777.816 357.619 778.016 355.588 778.016C353.586 778.016 352.677 777.83 350.987 777.075C350.49 776.862 349.951 776.677 349.78 776.677C349.61 776.677 348.204 777.389 346.642 778.258Z" fill="#FF8343"/>
</svg>
