<svg width="1280" height="832" viewBox="0 0 1280 832" fill="none" xmlns="http://www.w3.org/2000/svg">
<g clip-path="url(#clip0_431_4944)">
<rect width="1280" height="832" fill="#FF8343"/>
<path d="M570.697 494.997C577.428 502.469 582.539 511.252 585.71 520.795C588.94 532.544 588.75 544.97 585.163 556.614C579.187 577.785 564.284 596.15 544.352 603.984C534.096 607.751 522.996 608.601 512.286 606.439C501.576 604.278 491.675 599.19 483.682 591.741C467.431 576.218 461.528 549.582 471.512 530.233C481.496 510.884 507.403 502.248 526.716 513.143C530.928 515.417 534.592 518.584 537.45 522.424C540.308 526.264 542.291 530.683 543.259 535.371C544.862 544.772 540.125 555.157 531.526 557.999C529.959 547.833 527.481 536.61 519.465 530.233C508.096 521.233 489.986 528.448 486.087 542.148C482.188 555.849 490.97 571.809 503.869 578.077C510.307 580.933 517.369 582.097 524.383 581.46C531.398 580.822 538.133 578.403 543.951 574.433C563.154 562.117 572.191 532.601 558.162 512.961C553.109 506.447 546.739 501.071 539.469 497.183C525.222 488.839 508.606 483.155 493.12 486.762C455.807 495.58 443.855 543.242 451.835 575.745C455.197 590.121 463.584 602.824 475.483 611.564C488.419 620.71 508.861 623.151 524.42 622.75C534.745 622.492 544.939 620.382 554.518 616.519C560.648 614.126 566.282 610.617 571.134 606.171C572.665 604.604 574.778 600.96 576.892 604.604C579.005 608.248 573.831 613.276 572.264 615.973C569.116 621.43 564.442 625.85 558.818 628.69C553.189 631.765 547.171 634.07 540.927 635.54C535.884 637.128 530.733 638.345 525.513 639.184C520.438 639.427 515.351 639.195 510.319 638.492C482.99 635.431 454.458 630.584 439.227 605.26C427.428 584.646 421.859 561.053 423.194 537.338C423.28 529.001 425.143 520.777 428.66 513.216C457.556 457.721 526.461 443.327 570.697 494.997Z" fill="#FFFDD0" fill-opacity="0.3"/>
<circle cx="1055.5" cy="668.5" r="443.5" fill="#FFEFD5"/>
<ellipse cx="1183.7" cy="168.823" rx="361.696" ry="360.823" fill="#FFEFD5"/>
<path d="M26.0173 736.12C24.5118 739.961 25.1961 741.948 27.9334 741.948C29.4389 741.948 30.6706 741.153 30.6706 740.094C30.6706 737.312 29.1651 734 27.9334 734C27.3859 734 26.4279 734.927 26.0173 736.12Z" fill="#FFEFD5"/>
<path d="M106.903 736.914C105.945 740.358 106.766 741.948 109.503 741.948C111.556 741.948 111.967 739.564 110.598 736.12C109.366 733.205 107.724 733.47 106.903 736.914Z" fill="#FFEFD5"/>
<path d="M187.516 736.914C186.284 741.551 186.421 741.948 189.432 741.948C192.169 741.948 192.853 739.961 191.348 736.12C190.116 733.073 188.474 733.47 187.516 736.914Z" fill="#FFEFD5"/>
<path d="M268.265 736.914C267.033 741.551 267.17 741.948 270.181 741.948C272.918 741.948 273.602 739.961 272.097 736.12C270.865 733.073 269.223 733.47 268.265 736.914Z" fill="#FFEFD5"/>
<path d="M349.014 736.914C347.782 741.551 347.919 741.948 350.93 741.948C353.667 741.948 354.352 739.961 352.846 736.12C351.615 733.073 349.972 733.47 349.014 736.914Z" fill="#FFEFD5"/>
<path d="M27.6593 745.392C26.975 745.922 26.5644 747.511 26.5644 748.968C26.5644 750.425 25.3327 751.75 23.6903 752.147C21.6374 752.677 21.0899 753.605 21.6374 755.856C22.3217 758.506 22.048 758.771 19.4476 758.108C16.984 757.578 16.7103 757.843 17.2577 760.228C18.2158 763.804 16.4366 765.129 14.2468 762.48C13.2887 761.42 11.6464 760.493 10.5515 760.493C9.45655 760.493 9.04596 759.83 9.45655 759.168C10.6883 757.181 7.54046 753.869 4.39261 753.869C3.02398 753.869 1.51848 752.942 0.971031 751.75C0.560442 750.558 -1.21878 749.896 -3.40859 750.028C-5.32467 750.293 -8.1988 749.763 -9.70429 748.968C-12.989 747.379 -15.8631 748.041 -15.8631 750.69C-15.8631 751.75 -14.4945 752.545 -12.7153 752.545C-5.5984 752.545 1.38162 755.724 7.4036 761.42C12.7413 766.586 13.2887 767.513 11.3726 768.97C10.1409 769.765 8.77223 771.885 8.08792 773.474L7.12987 776.653L3.57143 773.342C-1.62937 768.705 -5.32467 767.116 -10.9361 767.116C-17.6424 767.116 -17.0949 769.235 -10.2517 770.295C-2.45055 771.487 2.88712 775.461 4.66634 781.422C6.44556 787.913 6.44556 787.913 2.88712 788.575C1.1079 788.84 -1.21878 788.178 -2.72427 786.853C-5.05095 784.601 -5.05095 784.469 -2.31368 783.012C1.38162 781.157 1.51848 776.388 -2.17682 776.388C-4.36663 776.388 -4.91408 777.316 -4.91408 780.362C-4.91408 784.469 -6.6933 785.263 -10.2517 783.144C-11.8941 782.084 -11.8941 781.554 -10.5255 779.832C-8.33566 777.316 -9.43057 773.739 -12.3047 773.739C-15.3157 773.739 -16.1369 775.991 -14.3576 779.303C-13.1259 781.422 -13.1259 782.349 -14.3576 782.747C-17.5055 783.806 -15.7263 786.323 -11.6204 786.456C-9.29371 786.588 -6.41958 787.648 -5.18781 788.972C-2.998 791.224 -2.998 791.224 -6.28272 790.297C-11.8941 788.84 -14.9051 788.84 -15.4525 790.562C-15.8631 791.754 -14.6314 792.284 -11.6204 792.284C-7.51448 792.284 -7.37762 792.416 -9.29371 794.536C-13.6733 799.305 -14.6314 803.411 -15.3157 816.922L-16 830.698H189.432H394.726V824.87C394.726 821.558 394.179 818.644 393.495 818.247C391.168 816.79 390.757 809.372 392.673 803.808C393.768 800.762 394.726 797.318 394.726 796.258C394.726 793.211 391.989 796.655 389.936 802.351C388.02 807.385 388.02 807.385 387.883 803.543C387.883 801.292 387.336 798.642 386.515 797.583C384.872 795.066 387.336 792.284 391.442 792.284C394.863 792.284 395.821 790.429 393.221 788.972C391.442 787.913 383.777 790.827 383.777 792.549C383.777 793.211 383.093 793.344 382.272 792.814C379.808 791.357 385.83 786.588 390.484 786.456C394.589 786.323 396.369 783.806 393.221 782.747C391.989 782.349 391.989 781.422 393.221 779.303C395 775.991 394.179 773.739 391.168 773.739C388.294 773.739 387.199 777.316 389.389 779.832C390.757 781.554 390.757 782.084 389.115 783.144C385.557 785.396 383.64 784.469 384.051 780.76C384.325 778.243 383.777 777.051 381.998 776.653C378.303 775.858 377.345 780.362 380.903 782.879L383.777 784.998L380.903 787.383C376.524 791.092 373.376 789.767 373.923 784.336C374.197 781.819 375.018 778.64 375.839 777.316C377.345 774.401 387.199 769.898 391.715 769.765C393.358 769.765 394.726 769.103 394.726 768.441C394.726 766.454 385.557 766.851 381.04 769.103C378.85 770.163 376.113 772.414 375.018 774.004C373.786 775.594 372.691 776.653 372.555 776.256C372.281 775.991 370.775 773.739 368.996 771.487L365.848 767.116L372.007 761.287C377.071 756.386 379.535 755.062 386.378 753.737C391.031 752.677 394.726 751.353 394.726 750.425C394.726 748.041 391.715 747.379 388.567 748.968C387.062 749.763 384.188 750.293 382.272 750.028C380.082 749.896 378.303 750.558 377.892 751.75C377.345 752.942 375.839 753.869 374.471 753.869C371.323 753.869 368.175 757.181 369.407 759.168C369.817 759.83 369.407 760.493 368.312 760.493C367.217 760.493 365.574 761.42 364.616 762.48C362.427 765.129 360.647 763.804 361.605 760.228C362.153 757.843 361.879 757.578 359.416 758.108C356.405 758.903 355.31 757.314 357.773 755.856C359.689 754.664 357.91 752.28 355.72 753.075C353.804 753.737 352.299 751.22 352.299 747.114C352.299 745.789 351.751 744.597 350.93 744.597C350.246 744.597 349.562 746.054 349.562 747.909C349.562 750.293 348.603 751.618 345.866 752.677C343.129 753.605 342.718 754.399 343.813 755.459C346.277 757.843 345.729 759.036 342.445 758.108C339.981 757.578 339.707 757.843 340.255 760.228C341.213 763.672 339.023 765.659 337.791 762.612C337.381 761.42 335.738 760.493 334.37 760.493C332.864 760.493 332.18 759.83 332.59 758.771C333.412 756.386 329.716 753.34 327.116 754.267C325.884 754.797 324.789 754.002 324.242 752.412C323.558 750.425 322.326 749.763 319.725 750.028C317.672 750.293 314.661 749.763 313.156 748.836C310.829 747.644 309.734 747.776 307.681 749.101C305.902 750.425 304.397 750.558 302.754 749.763C300.975 748.836 299.743 749.233 297.964 751.22C296.595 752.677 294.543 753.869 293.311 753.869C290.437 753.869 287.426 757.314 288.657 759.168C289.068 759.83 288.657 760.493 287.562 760.493C286.468 760.493 284.825 761.42 283.867 762.48C281.677 765.129 279.898 763.804 280.856 760.228C281.404 757.843 281.13 757.578 278.666 758.108C275.382 759.036 274.834 757.843 277.298 755.459C278.393 754.399 277.982 753.605 275.245 752.677C272.508 751.618 271.55 750.293 271.55 747.909C271.55 745.922 271.002 744.729 270.181 745.259C269.497 745.657 268.812 747.246 268.812 748.703C268.812 750.293 267.444 751.75 265.117 752.677C262.38 753.605 261.969 754.399 263.064 755.459C265.528 757.843 264.98 759.036 261.695 758.108C259.232 757.578 258.958 757.843 259.506 760.228C260.464 763.804 258.684 765.129 256.495 762.48C255.537 761.42 253.894 760.493 252.799 760.493C251.704 760.493 251.294 759.83 251.704 759.168C252.936 757.314 249.925 753.869 247.051 753.869C245.819 753.869 243.766 752.677 242.398 751.22C240.618 749.233 239.387 748.836 237.607 749.763C235.965 750.558 234.46 750.425 232.68 749.101C230.627 747.776 229.532 747.644 227.206 748.836C225.7 749.763 222.689 750.293 220.773 750.028C218.583 749.896 216.804 750.558 216.394 751.75C215.846 752.942 214.341 753.869 212.972 753.869C209.824 753.869 206.676 757.181 207.908 759.168C208.319 759.83 207.908 760.493 206.813 760.493C205.718 760.493 204.076 761.42 203.118 762.48C200.928 765.129 199.149 763.804 200.107 760.228C200.654 757.843 200.381 757.578 197.917 758.108C194.632 759.036 194.085 757.843 196.548 755.459C197.643 754.399 197.233 753.605 194.496 752.677C191.758 751.618 190.8 750.293 190.8 747.909C190.8 746.054 190.253 744.597 189.432 744.597C188.747 744.597 188.063 746.054 188.063 747.909C188.063 750.293 187.105 751.618 184.368 752.677C181.63 753.605 181.22 754.399 182.315 755.459C184.778 757.843 184.231 759.036 180.946 758.108C178.483 757.578 178.209 757.843 178.756 760.228C179.714 763.804 177.935 765.129 175.745 762.48C174.787 761.42 173.145 760.493 172.05 760.493C170.955 760.493 170.544 759.83 170.955 759.168C172.187 757.181 169.039 753.869 165.891 753.869C164.523 753.869 163.017 752.942 162.47 751.75C162.059 750.558 160.28 749.896 158.09 750.028C156.174 750.293 153.3 749.763 151.794 748.968C149.741 747.909 148.236 747.909 146.32 748.968C144.814 749.763 141.94 750.293 140.024 750.028C137.697 749.896 136.055 750.558 135.644 751.75C135.097 752.942 133.591 753.869 132.223 753.869C129.075 753.869 125.927 757.181 127.159 759.168C127.569 759.83 127.159 760.493 126.064 760.493C124.969 760.493 123.327 761.42 122.369 762.48C120.179 765.129 118.4 763.804 119.358 760.228C119.905 757.843 119.631 757.578 117.168 758.108C114.157 758.903 113.062 757.314 115.525 755.856C117.442 754.664 115.662 752.28 113.473 753.075C111.556 753.737 110.051 751.22 110.051 747.114C110.051 745.789 109.504 744.597 108.682 744.597C107.998 744.597 107.314 746.054 107.314 747.909C107.314 750.293 106.356 751.618 103.618 752.677C100.881 753.605 100.471 754.399 101.565 755.459C104.029 757.843 103.482 759.036 100.197 758.108C97.7333 757.578 97.4596 757.843 98.007 760.228C98.9651 763.804 97.1858 765.129 94.996 762.48C94.038 761.42 92.3956 760.493 91.3007 760.493C90.2058 760.493 89.7952 759.83 90.2058 759.168C91.4376 757.181 88.2897 753.869 85.2787 753.869C83.9101 753.869 82.2678 752.942 81.5834 751.75C80.6254 750.161 79.1199 749.763 76.5195 750.293C74.056 750.69 71.8661 750.161 70.7712 749.101C69.1289 747.644 68.1708 747.511 65.8442 748.836C64.2018 749.763 61.1908 750.293 59.001 750.028C56.4006 749.763 55.032 750.425 54.2108 752.147C53.6633 753.472 52.021 754.532 50.5155 754.532C49.01 754.532 47.2308 755.856 46.4096 757.446C45.7253 759.168 44.3567 760.493 43.5355 760.493C42.5774 760.493 41.4825 761.42 41.0719 762.612C39.8402 765.659 37.6504 763.672 38.6084 760.228C39.1559 757.843 38.8821 757.578 36.4186 758.108C33.1339 759.036 32.5864 757.843 35.05 755.459C36.1449 754.399 35.7343 753.605 32.997 752.677C30.6703 751.75 29.3017 750.161 29.028 747.909C28.7543 745.922 28.2068 744.862 27.6593 745.392ZM75.1509 754.002C81.7203 755.724 89.1109 760.89 91.1639 764.996C92.1219 767.381 91.8482 768.97 89.7952 772.149L87.1948 776.388L84.5944 773.607C76.2458 764.732 58.5904 764.864 52.021 774.004C50.7892 775.594 49.6943 776.653 49.5574 776.256C49.2837 775.991 47.7782 773.872 45.999 771.487L42.988 767.248L47.2308 762.48C52.021 757.181 55.3057 755.194 61.4645 753.737C67.4865 752.412 69.1289 752.412 75.1509 754.002ZM162.196 755.856C164.112 756.916 167.67 759.83 169.997 762.347L174.24 767.116L171.229 771.62L168.218 776.123L164.796 773.077C159.595 768.441 156.037 767.116 149.057 767.116C141.94 767.116 135.918 769.633 132.77 774.004C131.538 775.594 130.444 776.653 130.307 776.256C130.033 775.991 128.527 773.739 126.748 771.487L123.6 767.116L129.622 761.287C133.181 757.843 137.834 754.929 140.982 754.134C147.141 752.545 156.995 753.34 162.196 755.856ZM242.945 755.989C244.998 756.916 248.556 760.095 250.883 762.745C254.305 766.851 254.852 768.043 253.347 769.103C252.252 769.898 251.02 771.885 250.336 773.474L249.378 776.653L245.819 773.342C240.345 768.441 236.786 767.116 229.806 767.116C222.689 767.116 216.667 769.633 213.52 774.004C212.288 775.594 211.193 776.653 210.919 776.256C210.645 775.991 209.14 773.739 207.361 771.487L204.35 767.116L210.372 761.42C213.93 757.843 218.447 754.929 221.731 754.134C227.89 752.545 237.744 753.34 242.945 755.989ZM323.694 755.989C325.747 756.916 329.306 759.963 331.496 762.612L335.601 767.381L332.59 771.752L329.716 776.123L326.295 773.077C321.094 768.441 317.536 767.116 310.555 767.116C303.439 767.116 297.417 769.633 294.269 774.004C293.037 775.594 291.942 776.653 291.668 776.256C291.395 775.991 289.889 773.739 288.11 771.487L285.099 767.116L291.121 761.42C294.679 757.843 299.196 754.929 302.481 754.134C308.639 752.545 318.494 753.34 323.694 755.989ZM29.3017 756.386C29.3017 757.181 32.5864 761.155 36.5555 765.394C45.4516 774.666 47.0939 777.448 47.0939 783.541C47.0939 786.985 46.5465 788.31 45.041 788.31C43.2617 788.31 43.1249 787.78 44.3567 785.661C46.4096 781.952 43.2617 776.123 34.7762 767.248L27.9331 759.963L20.6793 767.646C12.0569 777.051 10.004 781.157 11.6464 785.528C13.015 788.972 12.4675 790.429 10.2777 788.972C7.95105 787.648 8.49851 778.64 11.0989 775.064C12.3307 773.209 16.2997 768.573 19.995 764.732C23.5535 760.758 26.5644 757.049 26.5644 756.386C26.5644 755.724 27.2488 755.194 27.9331 755.194C28.7543 755.194 29.3017 755.724 29.3017 756.386ZM110.051 756.386C110.051 757.049 113.062 760.758 116.62 764.732C126.201 774.931 127.843 777.713 127.843 783.276C127.843 786.985 127.296 788.31 125.79 788.31C124.011 788.31 123.874 787.78 125.106 785.661C127.159 781.952 124.011 776.123 115.525 767.248L108.682 759.963L101.429 767.646C92.8062 777.051 90.7533 781.157 92.3956 785.528C93.7642 788.972 93.2168 790.429 91.027 788.972C89.1109 787.913 89.1109 779.567 91.1639 775.991C91.985 774.401 95.9541 769.633 100.06 765.394C104.029 761.155 107.314 757.181 107.314 756.386C107.314 755.724 107.998 755.194 108.682 755.194C109.504 755.194 110.051 755.724 110.051 756.386ZM190.8 756.386C190.8 757.181 194.222 761.287 198.328 765.526C206.676 774.269 209.824 780.23 208.866 785.131C207.908 789.9 205.855 788.972 206.129 783.806C206.266 778.64 204.76 776.123 195.727 766.454L189.432 759.963L182.315 767.646C173.555 777.051 171.503 781.157 173.145 785.528C174.514 788.972 173.966 790.429 171.776 788.972C169.86 787.913 169.86 779.567 171.913 775.991C172.734 774.401 176.703 769.633 180.809 765.394C184.778 761.155 188.063 757.181 188.063 756.386C188.063 755.724 188.747 755.194 189.432 755.194C190.253 755.194 190.8 755.724 190.8 756.386ZM271.55 756.386C271.55 757.181 274.834 761.155 278.803 765.394C287.699 774.666 289.342 777.448 289.342 783.541C289.342 786.985 288.794 788.31 287.289 788.31C285.51 788.31 285.373 787.78 286.604 785.661C288.657 781.952 285.646 776.123 277.161 767.116L270.318 759.83L263.064 767.646C254.305 777.051 252.252 781.025 253.894 785.528C255.263 788.972 254.715 790.429 252.526 788.972C250.199 787.648 250.746 778.64 253.347 775.064C254.578 773.209 258.547 768.573 262.243 764.732C265.801 760.758 268.812 757.049 268.812 756.386C268.812 755.724 269.497 755.194 270.181 755.194C271.002 755.194 271.55 755.724 271.55 756.386ZM352.299 756.386C352.299 757.181 355.583 761.155 359.553 765.394C368.449 774.666 370.091 777.448 370.091 783.541C370.091 786.985 369.544 788.31 368.038 788.31C366.259 788.31 366.122 787.78 367.354 785.661C369.407 781.952 366.259 776.123 357.773 767.248L350.93 759.963L343.676 767.646C335.054 777.051 333.001 781.157 334.643 785.528C336.012 788.972 335.465 790.429 333.275 788.972C330.948 787.648 331.496 778.64 334.096 775.064C335.328 773.209 339.297 768.573 342.992 764.732C346.551 760.758 349.562 757.049 349.562 756.386C349.562 755.724 350.246 755.194 350.93 755.194C351.751 755.194 352.299 755.724 352.299 756.386ZM35.1868 771.885C41.7563 779.303 43.5355 785.396 39.977 788.178C30.9441 795.198 27.7962 798.377 27.1119 801.027C26.1539 804.603 23.8272 803.941 23.8272 800.099C23.8272 798.642 22.1848 795.993 20.2687 794.006C16.5734 790.429 14.2468 785.661 14.2468 781.554C14.2468 779.435 26.1539 764.732 27.9331 764.732C28.3437 764.732 31.4915 767.911 35.1868 771.885ZM115.936 771.885C122.506 779.303 124.285 785.396 120.726 788.178C111.693 795.198 108.545 798.377 107.861 801.027C106.903 804.603 104.576 803.941 104.576 800.099C104.576 798.642 102.934 795.993 101.018 794.006C97.3227 790.429 94.996 785.661 94.996 781.554C94.996 779.435 106.903 764.732 108.682 764.732C109.093 764.732 112.241 767.911 115.936 771.885ZM196.685 771.885C203.255 779.303 205.034 785.396 201.476 788.178C192.443 795.198 189.295 798.377 188.61 801.027C187.926 803.808 185.052 805.795 185.463 803.146C186.01 799.834 184.915 797.053 181.767 794.006C178.072 790.429 175.745 785.661 175.745 781.554C175.745 779.435 187.652 764.732 189.432 764.732C189.842 764.732 192.99 767.911 196.685 771.885ZM277.435 771.885C284.004 779.303 285.783 785.396 282.225 788.178C273.192 795.198 270.044 798.377 269.36 801.027C268.402 804.603 266.075 803.941 266.075 800.099C266.075 798.642 264.433 795.993 262.517 794.006C258.821 790.429 256.495 785.661 256.495 781.554C256.495 779.435 268.402 764.732 270.181 764.732C270.591 764.732 273.739 767.911 277.435 771.885ZM358.184 771.885C364.753 779.303 366.533 785.396 362.974 788.178C353.941 795.198 350.793 798.377 350.109 801.027C349.151 804.603 346.824 804.073 346.824 800.232C346.824 798.907 344.634 795.331 342.034 792.284C335.328 784.601 335.601 780.76 343.813 771.885C347.372 767.911 350.52 764.732 350.93 764.732C351.341 764.732 354.489 767.911 358.184 771.885ZM80.0779 773.872C83.3627 776.123 86.7842 783.012 86.7842 787.25C86.7842 788.972 80.6254 788.443 77.8881 786.456C75.4246 784.734 75.4246 784.601 78.2987 783.144C82.1309 781.157 82.4046 776.388 78.5724 776.388C76.3826 776.388 75.8352 777.316 75.8352 780.362C75.8352 784.336 75.014 784.998 71.1818 783.541C69.5395 782.879 69.4026 782.217 70.4975 780.097C72.2767 776.918 71.1818 773.739 68.3077 773.739C65.2967 773.739 64.2018 777.316 66.3916 779.832C67.7603 781.554 67.7603 782.084 66.1179 783.144C62.5594 785.396 60.6434 784.469 61.054 780.76C61.3277 778.243 60.7802 777.051 59.001 776.653C55.3057 775.858 54.3477 780.362 57.9061 782.879L60.7802 784.998L57.9061 787.383C53.5265 791.092 50.3786 789.767 50.9261 784.336C51.7473 777.581 53.5265 775.196 59.8222 772.282C66.6653 769.235 74.1928 769.765 80.0779 773.872ZM157.542 772.282C163.564 774.931 165.207 777.183 166.712 783.806C167.533 787.383 167.26 788.045 164.523 788.575C162.606 788.84 160.28 788.178 158.774 786.853C156.448 784.601 156.448 784.469 159.185 783.012C162.88 781.157 163.017 776.388 159.322 776.388C157.132 776.388 156.584 777.316 156.584 780.362C156.584 784.336 155.763 784.998 151.931 783.541C150.289 782.879 150.152 782.217 151.247 780.097C153.026 776.918 151.931 773.739 149.057 773.739C146.046 773.739 144.951 777.316 147.141 779.832C148.51 781.554 148.51 782.084 146.867 783.144C143.309 785.396 141.393 784.469 141.803 780.627C142.077 777.845 141.529 776.918 139.203 776.653C135.097 776.123 134.823 781.025 138.929 783.144L141.803 784.601L138.929 787.118C136.055 789.767 132.633 790.429 131.402 788.575C129.896 786.058 133.318 776.918 137.013 774.136C143.172 769.368 149.468 768.838 157.542 772.282ZM241.576 773.872C244.724 775.991 248.283 783.012 248.283 787.118C248.283 789.237 241.85 788.972 239.524 786.853C237.197 784.601 237.197 784.469 239.934 783.012C243.629 781.157 243.766 776.388 240.071 776.388C237.881 776.388 237.334 777.316 237.334 780.362C237.334 784.336 236.513 784.998 232.68 783.541C231.038 782.879 230.901 782.217 231.996 780.097C233.775 776.918 232.68 773.739 229.806 773.739C226.795 773.739 225.7 777.316 227.89 779.832C229.259 781.554 229.259 782.084 227.616 783.144C224.058 785.263 222.279 784.469 222.279 780.362C222.279 777.713 221.594 776.388 220.226 776.388C216.667 776.388 216.12 780.495 219.405 782.879L222.279 784.998L219.405 787.383C215.025 791.092 211.877 789.767 212.425 784.336C213.246 777.581 215.025 775.196 221.321 772.282C228.164 769.235 235.691 769.765 241.576 773.872ZM322.326 773.872C325.61 776.123 329.032 783.012 329.032 787.25C329.032 788.972 322.873 788.443 320.136 786.456C317.672 784.734 317.672 784.601 320.547 783.144C324.379 781.157 324.652 776.388 320.82 776.388C318.63 776.388 318.083 777.316 318.083 780.362C318.083 784.336 317.262 784.998 313.43 783.541C311.787 782.879 311.65 782.217 312.745 780.097C314.525 776.918 313.43 773.739 310.555 773.739C307.545 773.739 306.45 777.316 308.639 779.832C310.008 781.554 310.008 782.084 308.366 783.144C304.807 785.396 302.891 784.469 303.302 780.76C303.575 778.243 303.028 777.051 301.249 776.653C297.554 775.858 296.595 780.362 300.154 782.879L303.028 784.998L300.154 787.383C295.774 791.092 292.626 789.767 293.174 784.469C293.721 777.978 295.774 775.064 302.07 772.282C308.913 769.235 316.441 769.765 322.326 773.872ZM75.8352 789.105C78.2987 791.357 75.972 791.622 71.045 789.37C68.034 788.045 66.9391 788.31 63.5175 790.694C59.2747 793.874 56.5375 792.549 60.5065 789.37C65.2967 785.263 71.7293 785.131 75.8352 789.105ZM156.584 789.105C159.048 791.357 156.448 791.754 152.205 789.502C149.331 787.913 141.529 790.165 141.529 792.549C141.529 793.211 140.845 793.344 140.161 792.946C138.245 791.887 140.982 788.443 144.951 786.853C148.373 785.528 153.847 786.588 156.584 789.105ZM237.334 789.105C239.797 791.357 237.197 791.754 232.954 789.502C230.08 787.913 222.279 790.165 222.279 792.549C222.279 793.211 221.594 793.344 220.91 792.946C218.994 791.887 221.731 788.443 225.7 786.853C229.122 785.528 234.596 786.588 237.334 789.105ZM318.083 789.105C320.547 791.357 317.946 791.754 313.703 789.502C310.829 787.913 303.028 790.165 303.028 792.549C303.028 793.211 302.344 793.344 301.659 792.946C299.743 791.887 302.481 788.443 306.45 786.853C309.871 785.528 315.346 786.588 318.083 789.105ZM11.9201 792.814C18.4895 795.463 21.6374 799.569 21.5005 805.265C21.2268 814.67 9.86714 819.572 3.43457 812.948C-0.671326 808.709 0.423578 803.278 5.35065 802.086C10.1409 800.894 12.8781 802.351 12.7413 805.795L12.7413 808.842L11.5095 805.795C10.004 802.351 7.12987 801.954 4.52947 805.001C2.06594 807.915 4.66634 811.491 9.45655 811.491C18.9001 811.491 18.0789 799.967 8.49851 799.172C-2.17682 798.245 -6.00899 809.107 2.61339 815.73C5.21379 817.717 7.4036 819.969 7.4036 820.631C7.4036 821.294 6.3087 820.896 4.94006 819.704C1.79221 816.922 -3.40859 816.79 -4.36663 819.307C-4.91408 820.764 -5.87213 820.499 -8.47253 818.114C-14.6314 812.551 -11.6204 797.847 -3.27173 794.006C3.98202 790.562 6.03497 790.429 11.9201 792.814ZM52.979 792.814C58.043 794.801 62.1489 799.967 62.1489 804.206C62.1489 808.047 58.5904 814.273 55.99 815.333C49.1469 817.849 41.6194 814.141 41.6194 808.312C41.6194 806.325 42.3037 804.073 43.2617 803.146C46.6833 799.834 53.9371 802.086 53.9371 806.59C53.9371 807.782 52.979 807.385 51.4735 805.398C48.052 801.424 43.9461 802.749 44.6304 807.782C45.041 811.094 45.5884 811.491 49.8312 811.491C53.8002 811.491 54.7583 810.829 55.8532 807.915C57.6324 803.014 53.9371 798.907 47.7782 798.907C39.2927 798.907 35.3237 808.842 41.2088 815.2C45.1778 819.307 43.6723 822.486 39.5664 818.777C36.966 816.392 35.8711 816.127 33.4076 817.452C29.3017 819.572 28.6174 818.379 28.6174 810.167C28.6174 801.954 31.7652 796.92 39.019 793.344C44.6304 790.429 47.0939 790.429 52.979 792.814ZM92.6693 792.814C99.1019 795.331 102.387 799.569 102.387 805.133C102.387 810.696 96.9121 816.127 91.3007 816.127C87.3317 816.127 81.3097 811.491 81.3097 808.445C81.3097 805.265 85.5525 801.556 88.974 801.556C92.2588 801.556 95.9541 806.06 93.7642 807.385C93.0799 807.782 92.2588 806.987 91.8482 805.53C91.027 802.351 87.7423 802.086 85.2787 805.001C82.8152 807.915 85.4156 811.491 90.2058 811.491C95.4066 811.491 98.2807 807.385 95.9541 802.881C93.4905 798.112 83.9101 797.45 80.7623 801.821C78.025 805.53 77.8881 811.359 80.6254 813.478C83.3627 815.598 83.2258 816.525 80.0779 818.379C76.3826 820.631 68.992 817.055 68.8552 813.081C68.3077 801.689 72.5505 795.066 82.6783 791.887C86.0999 790.694 88.016 790.827 92.6693 792.814ZM137.424 794.668C149.741 803.543 137.971 822.618 125.38 814.008C122.095 811.756 121.274 805.795 124.011 803.146C127.433 799.834 134.686 802.086 134.686 806.59C134.686 807.782 133.728 807.385 132.223 805.398C128.801 801.424 124.695 802.749 125.38 807.782C125.79 811.094 126.338 811.491 130.58 811.491C134.549 811.491 135.508 810.829 136.602 807.915C138.382 803.014 134.686 798.907 128.527 798.907C119.358 798.907 115.799 809.769 123.053 815.73C125.927 818.114 126.475 819.307 125.243 820.499C124.148 821.558 123.737 821.558 123.737 820.366C123.737 819.572 122.506 818.247 121.137 817.585C119.221 816.525 117.715 816.79 115.115 818.909L111.556 821.558L109.914 816.26C104.576 799.04 123.19 784.469 137.424 794.668ZM173.419 792.814C179.988 795.463 183.136 799.569 182.999 805.265C182.725 814.405 171.913 819.307 165.207 813.213C161.375 809.769 161.238 806.723 164.659 803.676C168.492 800.364 173.555 801.424 173.966 805.53C174.377 808.842 174.377 808.842 173.008 805.795C171.503 802.351 168.628 801.954 166.028 805.001C163.564 807.915 166.165 811.491 170.955 811.491C176.156 811.491 179.03 807.385 176.703 802.881C174.377 798.377 166.165 797.583 162.196 801.424C158.637 804.868 158.501 811.491 161.922 814.273C164.249 816.26 164.249 816.657 162.196 818.644C160.143 820.631 159.869 820.631 157.679 818.512C156.311 817.187 154.258 816.657 152.615 817.055C150.152 817.585 149.741 817.187 149.604 814.008C149.057 801.424 153.026 795.066 163.428 791.887C166.849 790.694 168.765 790.827 173.419 792.814ZM218.036 794.668C230.217 803.543 218.583 822.486 206.129 814.008C202.844 811.756 202.023 805.795 204.76 803.146C208.182 799.834 215.436 802.086 215.436 806.59C215.436 807.782 214.478 807.385 212.972 805.398C209.55 801.424 205.445 802.749 206.129 807.782C206.95 814.405 218.173 813.213 218.173 806.458C218.173 802.351 214.204 798.907 209.277 798.907C199.286 798.907 196.001 812.286 205.171 816.392C207.087 817.187 208.592 818.644 208.592 819.704C208.592 822.088 206.403 821.956 205.308 819.439C204.35 816.922 197.78 816.79 196.822 819.439C196.138 820.896 195.317 820.499 192.579 817.717C189.705 814.67 189.295 813.213 189.842 808.312C191.485 794.271 206.95 786.721 218.036 794.668ZM254.168 792.814C264.296 796.92 267.307 806.987 260.053 812.948C255.263 817.055 249.651 817.055 245.682 812.948C241.576 808.709 242.671 803.278 247.598 802.086C252.389 800.894 255.126 802.351 254.989 805.795V808.842L253.757 805.795C252.252 802.351 249.378 801.954 246.777 805.001C244.314 807.915 246.914 811.491 251.704 811.491C256.905 811.491 259.779 807.385 257.453 802.881C254.989 798.112 245.409 797.45 242.261 801.821C239.25 805.928 239.524 811.094 242.945 814.67C245.135 816.922 245.409 817.982 244.177 819.439C242.945 820.896 242.261 820.896 239.934 818.644C237.881 816.657 236.649 816.392 234.733 817.32C231.175 819.174 230.491 817.982 230.491 810.432C230.491 800.762 234.87 794.801 244.177 791.887C247.598 790.694 249.515 790.827 254.168 792.814ZM298.922 794.668C311.24 803.543 299.47 822.618 286.878 814.008C283.593 811.756 282.772 805.795 285.51 803.146C288.931 799.834 296.185 802.086 296.185 806.59C296.185 807.782 295.227 807.385 293.721 805.398C290.3 801.424 286.194 802.749 286.878 807.782C287.289 811.094 287.836 811.491 292.079 811.491C296.048 811.491 297.006 810.829 298.101 807.915C299.88 803.014 296.185 798.907 290.026 798.907C284.688 798.907 280.719 802.881 280.719 808.18C280.719 810.299 281.814 813.346 283.183 814.803C285.646 817.32 285.646 817.452 282.909 817.452C281.267 817.452 279.624 818.512 279.077 819.704C278.256 821.956 278.119 821.956 276.887 819.704C276.066 818.512 274.697 817.452 273.602 817.452C271.002 817.452 269.633 812.021 270.728 806.325C273.192 793.476 288.521 787.25 298.922 794.668ZM334.917 792.814C345.045 796.92 348.056 806.987 340.802 812.948C336.012 817.055 330.401 817.055 326.432 812.948C322.326 808.709 323.421 803.278 328.348 802.086C333.138 800.894 335.875 802.351 335.738 805.795V808.842L334.507 805.795C333.001 802.351 330.127 801.954 327.527 805.001C325.063 807.915 327.663 811.491 332.454 811.491C341.897 811.491 341.076 799.967 331.496 799.172C321.915 798.377 317.125 808.312 324.105 814.67C326.021 816.392 327.116 818.644 326.705 819.704C326.158 821.161 325.474 821.029 323.284 818.909C320.136 815.598 318.904 815.465 316.03 818.379C314.114 820.234 313.566 820.234 312.472 818.644C308.229 812.154 312.472 797.318 319.725 794.006C326.979 790.562 329.032 790.429 334.917 792.814ZM379.671 794.668C391.989 803.543 380.219 822.618 367.627 814.008C364.343 811.756 363.522 805.795 366.259 803.146C369.68 799.834 376.934 802.086 376.934 806.59C376.934 807.782 375.976 807.385 374.471 805.398C371.049 801.424 366.943 802.749 367.627 807.782C368.038 811.094 368.585 811.491 372.828 811.491C376.797 811.491 377.755 810.829 378.85 807.915C381.587 800.364 369.68 795.331 363.932 801.556C360.921 804.868 360.647 811.226 363.522 814.405C365.301 816.525 365.301 817.055 363.248 818.909C361.058 820.896 360.647 820.896 358.594 818.512C357.226 817.055 355.31 816.26 354.215 816.657C351.751 817.585 350.383 812.286 351.478 806.325C353.941 793.476 369.27 787.25 379.671 794.668ZM71.7293 793.344C71.7293 793.874 71.045 795.066 70.2238 795.861C69.4026 796.655 67.8971 799.569 66.9391 802.351C65.023 807.385 65.023 807.385 64.8861 803.543C64.8861 801.292 64.3387 798.642 63.5175 797.583C61.8751 795.066 64.3387 792.284 68.4446 792.284C70.2238 792.284 71.7293 792.814 71.7293 793.344ZM152.479 793.344C152.479 793.874 151.794 795.066 150.973 795.861C150.152 796.655 148.646 799.569 147.688 802.351C145.772 807.385 145.772 807.385 145.635 803.543C145.635 801.292 145.088 798.642 144.267 797.583C142.624 795.066 145.088 792.284 149.194 792.284C150.973 792.284 152.479 792.814 152.479 793.344ZM231.175 797.053C227.89 801.689 226.932 806.06 227.48 813.743C227.753 816.392 227.069 817.452 225.427 817.452C224.195 817.452 222.142 818.379 220.91 819.439C218.857 821.294 218.447 821.294 217.762 819.572C217.215 818.379 217.899 817.32 219.678 816.79C224.879 815.068 228.438 802.749 225.016 797.583C223.237 794.801 225.974 792.284 230.627 792.284H234.46L231.175 797.053ZM313.977 792.946C313.977 793.344 313.019 795.198 311.787 797.053C310.555 798.775 309.05 802.219 308.503 804.603L307.408 808.842L307.271 804.206C307.134 801.689 306.586 798.642 305.765 797.583C304.123 795.066 306.586 792.284 310.692 792.284C312.472 792.284 313.977 792.549 313.977 792.946ZM25.1958 812.154C25.1958 815.73 24.6484 817.452 23.2797 817.452C22.3217 817.452 20.6793 818.379 19.7213 819.439C18.4895 820.896 17.6683 821.161 16.984 820.101C16.4366 819.307 17.8052 816.922 19.8581 814.803C22.048 812.683 23.8272 810.034 23.8272 808.974C23.8272 807.782 24.1009 806.855 24.5115 806.855C24.9221 806.855 25.1958 809.239 25.1958 812.154ZM103.482 818.512C101.565 820.366 100.334 820.764 99.2388 819.704C98.2807 818.777 98.8282 817.187 101.155 814.538C103.071 812.418 104.713 809.637 104.85 808.445C104.987 807.252 105.261 808.445 105.534 811.094C105.945 814.67 105.398 816.657 103.482 818.512ZM267.854 819.704C267.307 820.896 266.349 820.764 264.022 819.042C261.011 816.79 261.011 816.79 263.475 813.611C264.98 811.889 266.212 809.504 266.212 808.312C266.349 807.12 266.896 808.842 267.444 812.154C267.991 815.465 268.128 818.909 267.854 819.704ZM185.599 819.042C183.683 821.294 183.41 821.294 181.904 819.174C180.536 817.452 180.809 816.26 183.136 812.816L186.01 808.577L186.831 812.683C187.242 815.333 186.831 817.585 185.599 819.042ZM348.74 815.465C349.425 820.499 349.288 821.558 348.193 819.704C347.372 818.512 345.456 817.452 344.087 817.452C341.623 817.452 341.623 817.187 344.498 812.948C346.14 810.564 347.645 808.577 347.645 808.709C347.782 808.709 348.193 811.756 348.74 815.465ZM66.5285 819.969C65.981 821.294 65.5704 821.294 64.6124 819.572C63.9281 818.379 62.4226 817.452 61.4645 817.452C60.3696 817.452 59.4116 816.79 59.4116 816.127C59.4116 815.333 59.9591 814.803 60.6434 814.803C61.3277 814.803 62.4226 813.478 62.97 811.756C63.9281 809.107 64.065 809.107 65.5704 813.478C66.5285 815.995 66.9391 818.909 66.5285 819.969ZM148.236 820.101C148.236 821.691 147.962 821.558 146.867 819.704C145.088 816.79 139.34 816.79 137.697 819.572C136.876 821.029 136.055 821.294 135.508 820.366C135.097 819.572 136.466 817.849 138.792 816.657C140.982 815.333 143.309 813.081 143.856 811.491C144.54 809.239 144.951 809.504 146.457 813.478C147.415 815.995 148.236 819.042 148.236 820.101ZM308.503 815.068C308.503 816.392 307.545 817.452 306.45 817.452C305.492 817.452 303.986 818.379 303.302 819.572C302.344 821.294 301.933 821.426 300.428 819.572C299.059 817.982 299.196 817.32 301.523 816.26C303.028 815.465 304.67 813.478 305.081 812.021C305.902 809.769 306.313 809.504 307.271 810.961C307.955 812.021 308.503 813.876 308.503 815.068ZM386.788 818.512C384.325 820.896 384.188 820.896 382.546 818.644C381.587 817.055 381.587 816.127 382.409 816.127C383.23 816.127 384.598 814.538 385.42 812.683L387.062 809.239L388.294 812.551C389.115 815.2 388.841 816.525 386.788 818.512ZM-9.01998 823.413C-9.01998 825.797 -9.70429 826.725 -11.7572 826.725C-14.4945 826.725 -15.5894 823.016 -13.5365 821.029C-11.4835 818.909 -9.01998 820.234 -9.01998 823.413ZM3.02398 823.81C3.43457 826.062 2.75025 826.725 0.697306 826.725C-1.21878 826.725 -2.17682 825.93 -2.17682 824.34C-2.17682 819.307 2.33966 818.909 3.02398 823.81ZM14.2468 823.413C14.2468 825.797 13.5624 826.725 11.6464 826.725C9.73027 826.725 9.31968 825.93 9.86714 823.413C10.1409 821.558 11.3726 820.101 12.3307 820.101C13.4256 820.101 14.2468 821.426 14.2468 823.413ZM26.5644 823.413C26.5644 825.797 25.8801 826.725 23.8272 826.725C21.0899 826.725 19.995 823.016 22.048 821.029C24.1009 818.909 26.5644 820.234 26.5644 823.413ZM38.6084 823.81C39.019 826.062 38.3347 826.725 36.2817 826.725C34.0919 826.725 33.4076 825.93 33.4076 823.281C33.4076 818.909 37.9241 819.307 38.6084 823.81ZM49.8312 823.413C49.8312 825.797 49.1469 826.725 47.2308 826.725C45.3147 826.725 44.9041 825.93 45.4516 823.413C45.7253 821.558 46.9571 820.101 47.9151 820.101C49.01 820.101 49.8312 821.426 49.8312 823.413ZM61.8751 823.81C62.2857 826.062 61.6014 826.725 59.5485 826.725C57.6324 826.725 56.6743 825.93 56.6743 824.34C56.6743 819.307 61.1908 818.909 61.8751 823.81ZM74.1928 823.81C74.6034 826.062 73.9191 826.725 71.8661 826.725C69.6763 826.725 68.992 825.93 68.992 823.281C68.992 818.909 73.5085 819.307 74.1928 823.81ZM85.4156 823.413C85.4156 825.797 84.7313 826.725 82.6783 826.725C79.9411 826.725 78.8462 823.016 80.8991 821.029C82.9521 818.909 85.4156 820.234 85.4156 823.413ZM97.4596 823.81C97.8701 826.062 97.1858 826.725 95.1329 826.725C93.2168 826.725 92.2588 825.93 92.2588 824.34C92.2588 819.307 96.7752 818.909 97.4596 823.81ZM109.23 822.221C110.598 825.665 110.188 826.725 107.314 826.725C105.261 826.725 104.576 825.797 104.576 823.413C104.576 819.704 107.861 818.909 109.23 822.221ZM121 823.413C121 825.797 120.316 826.725 118.263 826.725C115.525 826.725 114.431 823.016 116.484 821.029C118.536 818.909 121 820.234 121 823.413ZM133.044 823.81C133.455 826.062 132.77 826.725 130.717 826.725C128.801 826.725 127.843 825.93 127.843 824.34C127.843 819.307 132.36 818.909 133.044 823.81ZM144.267 823.413C144.267 825.532 143.446 826.725 142.214 826.725C140.982 826.725 140.161 825.532 140.161 823.413C140.161 821.294 140.982 820.101 142.214 820.101C143.446 820.101 144.267 821.294 144.267 823.413ZM156.311 823.81C156.721 826.062 156.037 826.725 153.984 826.725C152.068 826.725 151.11 825.93 151.11 824.34C151.11 819.307 155.626 818.909 156.311 823.81ZM168.628 823.81C169.039 826.062 168.355 826.725 166.302 826.725C164.112 826.725 163.428 825.93 163.428 823.281C163.428 818.909 167.944 819.307 168.628 823.81ZM179.851 823.413C179.851 825.797 179.167 826.725 177.251 826.725C175.335 826.725 174.924 825.93 175.472 823.413C175.745 821.558 176.977 820.101 177.935 820.101C179.03 820.101 179.851 821.426 179.851 823.413ZM191.895 823.81C192.306 826.062 191.621 826.725 189.568 826.725C187.652 826.725 186.694 825.93 186.694 824.34C186.694 819.307 191.211 818.909 191.895 823.81ZM204.213 823.81C204.623 826.062 203.939 826.725 201.886 826.725C199.696 826.725 199.012 825.93 199.012 823.281C199.012 818.909 203.528 819.307 204.213 823.81ZM215.436 823.413C215.436 825.797 214.751 826.725 212.698 826.725C209.961 826.725 208.866 823.016 210.919 821.029C212.972 818.909 215.436 820.234 215.436 823.413ZM227.48 823.81C227.89 826.062 227.206 826.725 225.153 826.725C223.237 826.725 222.279 825.93 222.279 824.34C222.279 819.307 226.795 818.909 227.48 823.81ZM239.25 822.221C240.618 825.665 240.208 826.725 237.334 826.725C235.281 826.725 234.596 825.797 234.596 823.413C234.596 819.704 237.881 818.909 239.25 822.221ZM251.02 823.413C251.02 825.797 250.336 826.725 248.283 826.725C245.546 826.725 244.451 823.016 246.504 821.029C248.556 818.909 251.02 820.234 251.02 823.413ZM263.064 823.81C263.475 826.062 262.79 826.725 260.737 826.725C258.547 826.725 257.863 825.93 257.863 823.281C257.863 818.909 262.38 819.307 263.064 823.81ZM274.56 823.413C275.108 825.93 274.697 826.725 272.781 826.725C270.865 826.725 270.181 825.797 270.181 823.413C270.181 821.426 271.002 820.101 272.097 820.101C273.055 820.101 274.287 821.558 274.56 823.413ZM286.604 823.413C286.604 825.797 285.92 826.725 283.867 826.725C281.13 826.725 280.035 823.016 282.088 821.029C284.141 818.909 286.604 820.234 286.604 823.413ZM298.648 823.81C299.059 826.062 298.375 826.725 296.322 826.725C294.132 826.725 293.448 825.93 293.448 823.281C293.448 818.909 297.964 819.307 298.648 823.81ZM309.871 823.413C309.871 825.797 309.187 826.725 307.134 826.725C304.397 826.725 303.302 823.016 305.355 821.029C307.408 818.909 309.871 820.234 309.871 823.413ZM321.915 823.81C322.326 826.062 321.641 826.725 319.588 826.725C317.672 826.725 316.714 825.93 316.714 824.34C316.714 819.307 321.231 818.909 321.915 823.81ZM333.685 822.221C335.054 825.665 334.643 826.725 331.769 826.725C329.716 826.725 329.032 825.797 329.032 823.413C329.032 819.704 332.317 818.909 333.685 822.221ZM345.456 823.413C345.456 825.797 344.771 826.725 342.718 826.725C339.981 826.725 338.886 823.016 340.939 821.029C342.992 818.909 345.456 820.234 345.456 823.413ZM357.5 823.81C357.91 826.062 357.226 826.725 355.173 826.725C353.257 826.725 352.299 825.93 352.299 824.34C352.299 819.307 356.815 818.909 357.5 823.81ZM369.27 822.221C370.638 825.665 370.228 826.725 367.354 826.725C365.301 826.725 364.616 825.797 364.616 823.413C364.616 819.704 367.901 818.909 369.27 822.221ZM381.04 823.413C381.04 825.797 380.356 826.725 378.303 826.725C375.566 826.725 374.471 823.016 376.524 821.029C378.576 818.909 381.04 820.234 381.04 823.413ZM393.084 823.81C393.495 826.062 392.81 826.725 390.757 826.725C388.567 826.725 387.883 825.93 387.883 823.281C387.883 818.909 392.4 819.307 393.084 823.81Z" fill="#FFEFD5"/>
<path d="M24.2377 775.461C22.4585 777.845 21.0898 780.892 21.0898 782.084C21.0898 784.336 26.5644 793.609 27.933 793.609C29.3016 793.609 34.7762 784.734 34.7762 782.482C34.7762 779.832 29.7122 771.09 28.2067 771.09C27.6593 771.09 25.8801 773.077 24.2377 775.461ZM30.3965 782.084C30.6703 783.674 29.9859 784.336 28.0699 784.336C26.4275 784.336 25.1957 783.541 25.1957 782.614C25.1957 778.508 29.5754 778.11 30.3965 782.084Z" fill="#FFEFD5"/>
<path d="M104.987 775.461C103.208 777.845 101.839 780.892 101.839 782.084C101.839 784.336 107.314 793.609 108.683 793.609C110.051 793.609 115.526 784.734 115.526 782.482C115.526 779.832 110.462 771.09 108.956 771.09C108.409 771.09 106.63 773.077 104.987 775.461ZM111.146 782.084C111.42 783.674 110.735 784.336 108.819 784.336C107.177 784.336 105.945 783.541 105.945 782.614C105.945 778.508 110.325 778.11 111.146 782.084Z" fill="#FFEFD5"/>
<path d="M185.736 775.461C183.957 777.845 182.588 780.892 182.588 782.084C182.588 784.336 188.063 793.609 189.432 793.609C190.8 793.609 196.275 784.734 196.275 782.482C196.275 779.832 191.211 771.09 189.705 771.09C189.158 771.09 187.379 773.077 185.736 775.461ZM191.895 782.084C192.169 783.674 191.484 784.336 189.568 784.336C187.926 784.336 186.694 783.541 186.694 782.614C186.694 778.508 191.074 778.11 191.895 782.084Z" fill="#FFEFD5"/>
<path d="M266.486 775.461C264.707 777.845 263.338 780.892 263.338 782.084C263.338 784.336 268.812 793.609 270.181 793.609C271.55 793.609 277.024 784.734 277.024 782.482C277.024 779.832 271.96 771.09 270.455 771.09C269.907 771.09 268.128 773.077 266.486 775.461ZM272.645 782.084C272.918 783.674 272.234 784.336 270.318 784.336C268.676 784.336 267.444 783.541 267.444 782.614C267.444 778.508 271.823 778.11 272.645 782.084Z" fill="#FFEFD5"/>
<path d="M347.235 775.461C345.456 777.845 344.087 780.892 344.087 782.084C344.087 784.336 349.561 793.609 350.93 793.609C352.299 793.609 357.773 784.734 357.773 782.349C357.773 779.965 352.436 771.09 350.93 771.09C350.519 771.09 348.877 773.077 347.235 775.461ZM353.394 782.084C353.667 783.674 352.983 784.336 351.067 784.336C349.425 784.336 348.193 783.541 348.193 782.614C348.193 778.508 352.572 778.11 353.394 782.084Z" fill="#FFEFD5"/>
<path d="M436.017 736.12C434.512 739.961 435.196 741.948 437.933 741.948C439.439 741.948 440.671 741.153 440.671 740.094C440.671 737.312 439.165 734 437.933 734C437.386 734 436.428 734.927 436.017 736.12Z" fill="#FFEFD5"/>
<path d="M516.903 736.914C515.945 740.358 516.766 741.948 519.503 741.948C521.556 741.948 521.967 739.564 520.598 736.12C519.366 733.205 517.724 733.47 516.903 736.914Z" fill="#FFEFD5"/>
<path d="M597.516 736.914C596.284 741.551 596.421 741.948 599.432 741.948C602.169 741.948 602.853 739.961 601.348 736.12C600.116 733.073 598.474 733.47 597.516 736.914Z" fill="#FFEFD5"/>
<path d="M678.265 736.914C677.033 741.551 677.17 741.948 680.181 741.948C682.918 741.948 683.602 739.961 682.097 736.12C680.865 733.073 679.223 733.47 678.265 736.914Z" fill="#FFEFD5"/>
<path d="M759.014 736.914C757.782 741.551 757.919 741.948 760.93 741.948C763.667 741.948 764.352 739.961 762.846 736.12C761.615 733.073 759.972 733.47 759.014 736.914Z" fill="#FFEFD5"/>
<path d="M437.659 745.392C436.975 745.922 436.564 747.511 436.564 748.968C436.564 750.425 435.333 751.75 433.69 752.147C431.637 752.677 431.09 753.605 431.637 755.856C432.322 758.506 432.048 758.771 429.448 758.108C426.984 757.578 426.71 757.843 427.258 760.228C428.216 763.804 426.437 765.129 424.247 762.48C423.289 761.42 421.646 760.493 420.551 760.493C419.457 760.493 419.046 759.83 419.457 759.168C420.688 757.181 417.54 753.869 414.393 753.869C413.024 753.869 411.518 752.942 410.971 751.75C410.56 750.558 408.781 749.896 406.591 750.028C404.675 750.293 401.801 749.763 400.296 748.968C397.011 747.379 394.137 748.041 394.137 750.69C394.137 751.75 395.505 752.545 397.285 752.545C404.402 752.545 411.382 755.724 417.404 761.42C422.741 766.586 423.289 767.513 421.373 768.97C420.141 769.765 418.772 771.885 418.088 773.474L417.13 776.653L413.571 773.342C408.371 768.705 404.675 767.116 399.064 767.116C392.358 767.116 392.905 769.235 399.748 770.295C407.549 771.487 412.887 775.461 414.666 781.422C416.446 787.913 416.446 787.913 412.887 788.575C411.108 788.84 408.781 788.178 407.276 786.853C404.949 784.601 404.949 784.469 407.686 783.012C411.382 781.157 411.518 776.388 407.823 776.388C405.633 776.388 405.086 777.316 405.086 780.362C405.086 784.469 403.307 785.263 399.748 783.144C398.106 782.084 398.106 781.554 399.475 779.832C401.664 777.316 400.569 773.739 397.695 773.739C394.684 773.739 393.863 775.991 395.642 779.303C396.874 781.422 396.874 782.349 395.642 782.747C392.495 783.806 394.274 786.323 398.38 786.456C400.706 786.588 403.58 787.648 404.812 788.972C407.002 791.224 407.002 791.224 403.717 790.297C398.106 788.84 395.095 788.84 394.547 790.562C394.137 791.754 395.369 792.284 398.38 792.284C402.486 792.284 402.622 792.416 400.706 794.536C396.327 799.305 395.369 803.411 394.684 816.922L394 830.698H599.432H804.726V824.87C804.726 821.558 804.179 818.644 803.495 818.247C801.168 816.79 800.757 809.372 802.673 803.808C803.768 800.762 804.726 797.318 804.726 796.258C804.726 793.211 801.989 796.655 799.936 802.351C798.02 807.385 798.02 807.385 797.883 803.543C797.883 801.292 797.336 798.642 796.515 797.583C794.872 795.066 797.336 792.284 801.442 792.284C804.863 792.284 805.821 790.429 803.221 788.972C801.442 787.913 793.777 790.827 793.777 792.549C793.777 793.211 793.093 793.344 792.272 792.814C789.808 791.357 795.83 786.588 800.484 786.456C804.589 786.323 806.369 783.806 803.221 782.747C801.989 782.349 801.989 781.422 803.221 779.303C805 775.991 804.179 773.739 801.168 773.739C798.294 773.739 797.199 777.316 799.389 779.832C800.757 781.554 800.757 782.084 799.115 783.144C795.557 785.396 793.64 784.469 794.051 780.76C794.325 778.243 793.777 777.051 791.998 776.653C788.303 775.858 787.345 780.362 790.903 782.879L793.777 784.998L790.903 787.383C786.524 791.092 783.376 789.767 783.923 784.336C784.197 781.819 785.018 778.64 785.839 777.316C787.345 774.401 797.199 769.898 801.715 769.765C803.358 769.765 804.726 769.103 804.726 768.441C804.726 766.454 795.557 766.851 791.04 769.103C788.85 770.163 786.113 772.414 785.018 774.004C783.786 775.594 782.691 776.653 782.555 776.256C782.281 775.991 780.775 773.739 778.996 771.487L775.848 767.116L782.007 761.287C787.071 756.386 789.535 755.062 796.378 753.737C801.031 752.677 804.726 751.353 804.726 750.425C804.726 748.041 801.715 747.379 798.567 748.968C797.062 749.763 794.188 750.293 792.272 750.028C790.082 749.896 788.303 750.558 787.892 751.75C787.345 752.942 785.839 753.869 784.471 753.869C781.323 753.869 778.175 757.181 779.407 759.168C779.817 759.83 779.407 760.493 778.312 760.493C777.217 760.493 775.574 761.42 774.616 762.48C772.427 765.129 770.647 763.804 771.605 760.228C772.153 757.843 771.879 757.578 769.416 758.108C766.405 758.903 765.31 757.314 767.773 755.856C769.689 754.664 767.91 752.28 765.72 753.075C763.804 753.737 762.299 751.22 762.299 747.114C762.299 745.789 761.751 744.597 760.93 744.597C760.246 744.597 759.562 746.054 759.562 747.909C759.562 750.293 758.603 751.618 755.866 752.677C753.129 753.605 752.718 754.399 753.813 755.459C756.277 757.843 755.729 759.036 752.445 758.108C749.981 757.578 749.707 757.843 750.255 760.228C751.213 763.672 749.023 765.659 747.791 762.612C747.381 761.42 745.738 760.493 744.37 760.493C742.864 760.493 742.18 759.83 742.59 758.771C743.412 756.386 739.716 753.34 737.116 754.267C735.884 754.797 734.789 754.002 734.242 752.412C733.558 750.425 732.326 749.763 729.725 750.028C727.672 750.293 724.661 749.763 723.156 748.836C720.829 747.644 719.734 747.776 717.681 749.101C715.902 750.425 714.397 750.558 712.754 749.763C710.975 748.836 709.743 749.233 707.964 751.22C706.595 752.677 704.543 753.869 703.311 753.869C700.437 753.869 697.426 757.314 698.657 759.168C699.068 759.83 698.657 760.493 697.562 760.493C696.468 760.493 694.825 761.42 693.867 762.48C691.677 765.129 689.898 763.804 690.856 760.228C691.404 757.843 691.13 757.578 688.666 758.108C685.382 759.036 684.834 757.843 687.298 755.459C688.393 754.399 687.982 753.605 685.245 752.677C682.508 751.618 681.55 750.293 681.55 747.909C681.55 745.922 681.002 744.729 680.181 745.259C679.497 745.657 678.812 747.246 678.812 748.703C678.812 750.293 677.444 751.75 675.117 752.677C672.38 753.605 671.969 754.399 673.064 755.459C675.528 757.843 674.98 759.036 671.695 758.108C669.232 757.578 668.958 757.843 669.506 760.228C670.464 763.804 668.684 765.129 666.495 762.48C665.537 761.42 663.894 760.493 662.799 760.493C661.704 760.493 661.294 759.83 661.704 759.168C662.936 757.314 659.925 753.869 657.051 753.869C655.819 753.869 653.766 752.677 652.398 751.22C650.618 749.233 649.387 748.836 647.607 749.763C645.965 750.558 644.46 750.425 642.68 749.101C640.627 747.776 639.532 747.644 637.206 748.836C635.7 749.763 632.689 750.293 630.773 750.028C628.583 749.896 626.804 750.558 626.394 751.75C625.846 752.942 624.341 753.869 622.972 753.869C619.824 753.869 616.676 757.181 617.908 759.168C618.319 759.83 617.908 760.493 616.813 760.493C615.718 760.493 614.076 761.42 613.118 762.48C610.928 765.129 609.149 763.804 610.107 760.228C610.654 757.843 610.381 757.578 607.917 758.108C604.632 759.036 604.085 757.843 606.548 755.459C607.643 754.399 607.233 753.605 604.496 752.677C601.758 751.618 600.8 750.293 600.8 747.909C600.8 746.054 600.253 744.597 599.432 744.597C598.747 744.597 598.063 746.054 598.063 747.909C598.063 750.293 597.105 751.618 594.368 752.677C591.63 753.605 591.22 754.399 592.315 755.459C594.778 757.843 594.231 759.036 590.946 758.108C588.483 757.578 588.209 757.843 588.756 760.228C589.714 763.804 587.935 765.129 585.745 762.48C584.787 761.42 583.145 760.493 582.05 760.493C580.955 760.493 580.544 759.83 580.955 759.168C582.187 757.181 579.039 753.869 575.891 753.869C574.523 753.869 573.017 752.942 572.47 751.75C572.059 750.558 570.28 749.896 568.09 750.028C566.174 750.293 563.3 749.763 561.794 748.968C559.741 747.909 558.236 747.909 556.32 748.968C554.814 749.763 551.94 750.293 550.024 750.028C547.697 749.896 546.055 750.558 545.644 751.75C545.097 752.942 543.591 753.869 542.223 753.869C539.075 753.869 535.927 757.181 537.159 759.168C537.569 759.83 537.159 760.493 536.064 760.493C534.969 760.493 533.327 761.42 532.369 762.48C530.179 765.129 528.4 763.804 529.358 760.228C529.905 757.843 529.631 757.578 527.168 758.108C524.157 758.903 523.062 757.314 525.525 755.856C527.442 754.664 525.662 752.28 523.473 753.075C521.556 753.737 520.051 751.22 520.051 747.114C520.051 745.789 519.504 744.597 518.682 744.597C517.998 744.597 517.314 746.054 517.314 747.909C517.314 750.293 516.356 751.618 513.618 752.677C510.881 753.605 510.471 754.399 511.565 755.459C514.029 757.843 513.482 759.036 510.197 758.108C507.733 757.578 507.46 757.843 508.007 760.228C508.965 763.804 507.186 765.129 504.996 762.48C504.038 761.42 502.396 760.493 501.301 760.493C500.206 760.493 499.795 759.83 500.206 759.168C501.438 757.181 498.29 753.869 495.279 753.869C493.91 753.869 492.268 752.942 491.583 751.75C490.625 750.161 489.12 749.763 486.519 750.293C484.056 750.69 481.866 750.161 480.771 749.101C479.129 747.644 478.171 747.511 475.844 748.836C474.202 749.763 471.191 750.293 469.001 750.028C466.401 749.763 465.032 750.425 464.211 752.147C463.663 753.472 462.021 754.532 460.515 754.532C459.01 754.532 457.231 755.856 456.41 757.446C455.725 759.168 454.357 760.493 453.535 760.493C452.577 760.493 451.483 761.42 451.072 762.612C449.84 765.659 447.65 763.672 448.608 760.228C449.156 757.843 448.882 757.578 446.419 758.108C443.134 759.036 442.586 757.843 445.05 755.459C446.145 754.399 445.734 753.605 442.997 752.677C440.67 751.75 439.302 750.161 439.028 747.909C438.754 745.922 438.207 744.862 437.659 745.392ZM485.151 754.002C491.72 755.724 499.111 760.89 501.164 764.996C502.122 767.381 501.848 768.97 499.795 772.149L497.195 776.388L494.594 773.607C486.246 764.732 468.59 764.864 462.021 774.004C460.789 775.594 459.694 776.653 459.557 776.256C459.284 775.991 457.778 773.872 455.999 771.487L452.988 767.248L457.231 762.48C462.021 757.181 465.306 755.194 471.465 753.737C477.487 752.412 479.129 752.412 485.151 754.002ZM572.196 755.856C574.112 756.916 577.67 759.83 579.997 762.347L584.24 767.116L581.229 771.62L578.218 776.123L574.796 773.077C569.595 768.441 566.037 767.116 559.057 767.116C551.94 767.116 545.918 769.633 542.77 774.004C541.538 775.594 540.444 776.653 540.307 776.256C540.033 775.991 538.527 773.739 536.748 771.487L533.6 767.116L539.622 761.287C543.181 757.843 547.834 754.929 550.982 754.134C557.141 752.545 566.995 753.34 572.196 755.856ZM652.945 755.989C654.998 756.916 658.556 760.095 660.883 762.745C664.305 766.851 664.852 768.043 663.347 769.103C662.252 769.898 661.02 771.885 660.336 773.474L659.378 776.653L655.819 773.342C650.345 768.441 646.786 767.116 639.806 767.116C632.689 767.116 626.667 769.633 623.52 774.004C622.288 775.594 621.193 776.653 620.919 776.256C620.645 775.991 619.14 773.739 617.361 771.487L614.35 767.116L620.372 761.42C623.93 757.843 628.447 754.929 631.731 754.134C637.89 752.545 647.744 753.34 652.945 755.989ZM733.694 755.989C735.747 756.916 739.306 759.963 741.496 762.612L745.601 767.381L742.59 771.752L739.716 776.123L736.295 773.077C731.094 768.441 727.536 767.116 720.555 767.116C713.439 767.116 707.417 769.633 704.269 774.004C703.037 775.594 701.942 776.653 701.668 776.256C701.395 775.991 699.889 773.739 698.11 771.487L695.099 767.116L701.121 761.42C704.679 757.843 709.196 754.929 712.481 754.134C718.639 752.545 728.494 753.34 733.694 755.989ZM439.302 756.386C439.302 757.181 442.586 761.155 446.555 765.394C455.452 774.666 457.094 777.448 457.094 783.541C457.094 786.985 456.546 788.31 455.041 788.31C453.262 788.31 453.125 787.78 454.357 785.661C456.41 781.952 453.262 776.123 444.776 767.248L437.933 759.963L430.679 767.646C422.057 777.051 420.004 781.157 421.646 785.528C423.015 788.972 422.468 790.429 420.278 788.972C417.951 787.648 418.499 778.64 421.099 775.064C422.331 773.209 426.3 768.573 429.995 764.732C433.553 760.758 436.564 757.049 436.564 756.386C436.564 755.724 437.249 755.194 437.933 755.194C438.754 755.194 439.302 755.724 439.302 756.386ZM520.051 756.386C520.051 757.049 523.062 760.758 526.62 764.732C536.201 774.931 537.843 777.713 537.843 783.276C537.843 786.985 537.296 788.31 535.79 788.31C534.011 788.31 533.874 787.78 535.106 785.661C537.159 781.952 534.011 776.123 525.525 767.248L518.682 759.963L511.429 767.646C502.806 777.051 500.753 781.157 502.396 785.528C503.764 788.972 503.217 790.429 501.027 788.972C499.111 787.913 499.111 779.567 501.164 775.991C501.985 774.401 505.954 769.633 510.06 765.394C514.029 761.155 517.314 757.181 517.314 756.386C517.314 755.724 517.998 755.194 518.682 755.194C519.504 755.194 520.051 755.724 520.051 756.386ZM600.8 756.386C600.8 757.181 604.222 761.287 608.328 765.526C616.676 774.269 619.824 780.23 618.866 785.131C617.908 789.9 615.855 788.972 616.129 783.806C616.266 778.64 614.76 776.123 605.727 766.454L599.432 759.963L592.315 767.646C583.555 777.051 581.503 781.157 583.145 785.528C584.514 788.972 583.966 790.429 581.776 788.972C579.86 787.913 579.86 779.567 581.913 775.991C582.734 774.401 586.703 769.633 590.809 765.394C594.778 761.155 598.063 757.181 598.063 756.386C598.063 755.724 598.747 755.194 599.432 755.194C600.253 755.194 600.8 755.724 600.8 756.386ZM681.55 756.386C681.55 757.181 684.834 761.155 688.803 765.394C697.699 774.666 699.342 777.448 699.342 783.541C699.342 786.985 698.794 788.31 697.289 788.31C695.51 788.31 695.373 787.78 696.604 785.661C698.657 781.952 695.646 776.123 687.161 767.116L680.318 759.83L673.064 767.646C664.305 777.051 662.252 781.025 663.894 785.528C665.263 788.972 664.715 790.429 662.526 788.972C660.199 787.648 660.746 778.64 663.347 775.064C664.578 773.209 668.547 768.573 672.243 764.732C675.801 760.758 678.812 757.049 678.812 756.386C678.812 755.724 679.497 755.194 680.181 755.194C681.002 755.194 681.55 755.724 681.55 756.386ZM762.299 756.386C762.299 757.181 765.583 761.155 769.553 765.394C778.449 774.666 780.091 777.448 780.091 783.541C780.091 786.985 779.544 788.31 778.038 788.31C776.259 788.31 776.122 787.78 777.354 785.661C779.407 781.952 776.259 776.123 767.773 767.248L760.93 759.963L753.676 767.646C745.054 777.051 743.001 781.157 744.643 785.528C746.012 788.972 745.465 790.429 743.275 788.972C740.948 787.648 741.496 778.64 744.096 775.064C745.328 773.209 749.297 768.573 752.992 764.732C756.551 760.758 759.562 757.049 759.562 756.386C759.562 755.724 760.246 755.194 760.93 755.194C761.751 755.194 762.299 755.724 762.299 756.386ZM445.187 771.885C451.756 779.303 453.535 785.396 449.977 788.178C440.944 795.198 437.796 798.377 437.112 801.027C436.154 804.603 433.827 803.941 433.827 800.099C433.827 798.642 432.185 795.993 430.269 794.006C426.573 790.429 424.247 785.661 424.247 781.554C424.247 779.435 436.154 764.732 437.933 764.732C438.344 764.732 441.492 767.911 445.187 771.885ZM525.936 771.885C532.506 779.303 534.285 785.396 530.726 788.178C521.693 795.198 518.545 798.377 517.861 801.027C516.903 804.603 514.576 803.941 514.576 800.099C514.576 798.642 512.934 795.993 511.018 794.006C507.323 790.429 504.996 785.661 504.996 781.554C504.996 779.435 516.903 764.732 518.682 764.732C519.093 764.732 522.241 767.911 525.936 771.885ZM606.685 771.885C613.255 779.303 615.034 785.396 611.476 788.178C602.443 795.198 599.295 798.377 598.61 801.027C597.926 803.808 595.052 805.795 595.463 803.146C596.01 799.834 594.915 797.053 591.767 794.006C588.072 790.429 585.745 785.661 585.745 781.554C585.745 779.435 597.652 764.732 599.432 764.732C599.842 764.732 602.99 767.911 606.685 771.885ZM687.435 771.885C694.004 779.303 695.783 785.396 692.225 788.178C683.192 795.198 680.044 798.377 679.36 801.027C678.402 804.603 676.075 803.941 676.075 800.099C676.075 798.642 674.433 795.993 672.517 794.006C668.821 790.429 666.495 785.661 666.495 781.554C666.495 779.435 678.402 764.732 680.181 764.732C680.591 764.732 683.739 767.911 687.435 771.885ZM768.184 771.885C774.753 779.303 776.533 785.396 772.974 788.178C763.941 795.198 760.793 798.377 760.109 801.027C759.151 804.603 756.824 804.073 756.824 800.232C756.824 798.907 754.634 795.331 752.034 792.284C745.328 784.601 745.601 780.76 753.813 771.885C757.372 767.911 760.52 764.732 760.93 764.732C761.341 764.732 764.489 767.911 768.184 771.885ZM490.078 773.872C493.363 776.123 496.784 783.012 496.784 787.25C496.784 788.972 490.625 788.443 487.888 786.456C485.425 784.734 485.425 784.601 488.299 783.144C492.131 781.157 492.405 776.388 488.572 776.388C486.383 776.388 485.835 777.316 485.835 780.362C485.835 784.336 485.014 784.998 481.182 783.541C479.539 782.879 479.403 782.217 480.498 780.097C482.277 776.918 481.182 773.739 478.308 773.739C475.297 773.739 474.202 777.316 476.392 779.832C477.76 781.554 477.76 782.084 476.118 783.144C472.559 785.396 470.643 784.469 471.054 780.76C471.328 778.243 470.78 777.051 469.001 776.653C465.306 775.858 464.348 780.362 467.906 782.879L470.78 784.998L467.906 787.383C463.526 791.092 460.379 789.767 460.926 784.336C461.747 777.581 463.526 775.196 469.822 772.282C476.665 769.235 484.193 769.765 490.078 773.872ZM567.542 772.282C573.564 774.931 575.207 777.183 576.712 783.806C577.533 787.383 577.26 788.045 574.523 788.575C572.606 788.84 570.28 788.178 568.774 786.853C566.448 784.601 566.448 784.469 569.185 783.012C572.88 781.157 573.017 776.388 569.322 776.388C567.132 776.388 566.584 777.316 566.584 780.362C566.584 784.336 565.763 784.998 561.931 783.541C560.289 782.879 560.152 782.217 561.247 780.097C563.026 776.918 561.931 773.739 559.057 773.739C556.046 773.739 554.951 777.316 557.141 779.832C558.51 781.554 558.51 782.084 556.867 783.144C553.309 785.396 551.393 784.469 551.803 780.627C552.077 777.845 551.529 776.918 549.203 776.653C545.097 776.123 544.823 781.025 548.929 783.144L551.803 784.601L548.929 787.118C546.055 789.767 542.633 790.429 541.402 788.575C539.896 786.058 543.318 776.918 547.013 774.136C553.172 769.368 559.468 768.838 567.542 772.282ZM651.576 773.872C654.724 775.991 658.283 783.012 658.283 787.118C658.283 789.237 651.85 788.972 649.524 786.853C647.197 784.601 647.197 784.469 649.934 783.012C653.629 781.157 653.766 776.388 650.071 776.388C647.881 776.388 647.334 777.316 647.334 780.362C647.334 784.336 646.513 784.998 642.68 783.541C641.038 782.879 640.901 782.217 641.996 780.097C643.775 776.918 642.68 773.739 639.806 773.739C636.795 773.739 635.7 777.316 637.89 779.832C639.259 781.554 639.259 782.084 637.616 783.144C634.058 785.263 632.279 784.469 632.279 780.362C632.279 777.713 631.594 776.388 630.226 776.388C626.667 776.388 626.12 780.495 629.405 782.879L632.279 784.998L629.405 787.383C625.025 791.092 621.877 789.767 622.425 784.336C623.246 777.581 625.025 775.196 631.321 772.282C638.164 769.235 645.691 769.765 651.576 773.872ZM732.326 773.872C735.61 776.123 739.032 783.012 739.032 787.25C739.032 788.972 732.873 788.443 730.136 786.456C727.672 784.734 727.672 784.601 730.547 783.144C734.379 781.157 734.652 776.388 730.82 776.388C728.63 776.388 728.083 777.316 728.083 780.362C728.083 784.336 727.262 784.998 723.43 783.541C721.787 782.879 721.65 782.217 722.745 780.097C724.525 776.918 723.43 773.739 720.555 773.739C717.545 773.739 716.45 777.316 718.639 779.832C720.008 781.554 720.008 782.084 718.366 783.144C714.807 785.396 712.891 784.469 713.302 780.76C713.575 778.243 713.028 777.051 711.249 776.653C707.554 775.858 706.595 780.362 710.154 782.879L713.028 784.998L710.154 787.383C705.774 791.092 702.626 789.767 703.174 784.469C703.721 777.978 705.774 775.064 712.07 772.282C718.913 769.235 726.441 769.765 732.326 773.872ZM485.835 789.105C488.299 791.357 485.972 791.622 481.045 789.37C478.034 788.045 476.939 788.31 473.517 790.694C469.275 793.874 466.537 792.549 470.507 789.37C475.297 785.263 481.729 785.131 485.835 789.105ZM566.584 789.105C569.048 791.357 566.448 791.754 562.205 789.502C559.331 787.913 551.529 790.165 551.529 792.549C551.529 793.211 550.845 793.344 550.161 792.946C548.245 791.887 550.982 788.443 554.951 786.853C558.373 785.528 563.847 786.588 566.584 789.105ZM647.334 789.105C649.797 791.357 647.197 791.754 642.954 789.502C640.08 787.913 632.279 790.165 632.279 792.549C632.279 793.211 631.594 793.344 630.91 792.946C628.994 791.887 631.731 788.443 635.7 786.853C639.122 785.528 644.596 786.588 647.334 789.105ZM728.083 789.105C730.547 791.357 727.946 791.754 723.703 789.502C720.829 787.913 713.028 790.165 713.028 792.549C713.028 793.211 712.344 793.344 711.659 792.946C709.743 791.887 712.481 788.443 716.45 786.853C719.871 785.528 725.346 786.588 728.083 789.105ZM421.92 792.814C428.49 795.463 431.637 799.569 431.501 805.265C431.227 814.67 419.867 819.572 413.435 812.948C409.329 808.709 410.424 803.278 415.351 802.086C420.141 800.894 422.878 802.351 422.741 805.795V808.842L421.509 805.795C420.004 802.351 417.13 801.954 414.529 805.001C412.066 807.915 414.666 811.491 419.457 811.491C428.9 811.491 428.079 799.967 418.499 799.172C407.823 798.245 403.991 809.107 412.613 815.73C415.214 817.717 417.404 819.969 417.404 820.631C417.404 821.294 416.309 820.896 414.94 819.704C411.792 816.922 406.591 816.79 405.633 819.307C405.086 820.764 404.128 820.499 401.527 818.114C395.369 812.551 398.38 797.847 406.728 794.006C413.982 790.562 416.035 790.429 421.92 792.814ZM462.979 792.814C468.043 794.801 472.149 799.967 472.149 804.206C472.149 808.047 468.59 814.273 465.99 815.333C459.147 817.849 451.619 814.141 451.619 808.312C451.619 806.325 452.304 804.073 453.262 803.146C456.683 799.834 463.937 802.086 463.937 806.59C463.937 807.782 462.979 807.385 461.474 805.398C458.052 801.424 453.946 802.749 454.63 807.782C455.041 811.094 455.588 811.491 459.831 811.491C463.8 811.491 464.758 810.829 465.853 807.915C467.632 803.014 463.937 798.907 457.778 798.907C449.293 798.907 445.324 808.842 451.209 815.2C455.178 819.307 453.672 822.486 449.566 818.777C446.966 816.392 445.871 816.127 443.408 817.452C439.302 819.572 438.617 818.379 438.617 810.167C438.617 801.954 441.765 796.92 449.019 793.344C454.63 790.429 457.094 790.429 462.979 792.814ZM502.669 792.814C509.102 795.331 512.387 799.569 512.387 805.133C512.387 810.696 506.912 816.127 501.301 816.127C497.332 816.127 491.31 811.491 491.31 808.445C491.31 805.265 495.552 801.556 498.974 801.556C502.259 801.556 505.954 806.06 503.764 807.385C503.08 807.782 502.259 806.987 501.848 805.53C501.027 802.351 497.742 802.086 495.279 805.001C492.815 807.915 495.416 811.491 500.206 811.491C505.407 811.491 508.281 807.385 505.954 802.881C503.491 798.112 493.91 797.45 490.762 801.821C488.025 805.53 487.888 811.359 490.625 813.478C493.363 815.598 493.226 816.525 490.078 818.379C486.383 820.631 478.992 817.055 478.855 813.081C478.308 801.689 482.55 795.066 492.678 791.887C496.1 790.694 498.016 790.827 502.669 792.814ZM547.424 794.668C559.741 803.543 547.971 822.618 535.38 814.008C532.095 811.756 531.274 805.795 534.011 803.146C537.433 799.834 544.686 802.086 544.686 806.59C544.686 807.782 543.728 807.385 542.223 805.398C538.801 801.424 534.695 802.749 535.38 807.782C535.79 811.094 536.338 811.491 540.58 811.491C544.549 811.491 545.508 810.829 546.602 807.915C548.382 803.014 544.686 798.907 538.527 798.907C529.358 798.907 525.799 809.769 533.053 815.73C535.927 818.114 536.475 819.307 535.243 820.499C534.148 821.558 533.737 821.558 533.737 820.366C533.737 819.572 532.506 818.247 531.137 817.585C529.221 816.525 527.715 816.79 525.115 818.909L521.556 821.558L519.914 816.26C514.576 799.04 533.19 784.469 547.424 794.668ZM583.419 792.814C589.988 795.463 593.136 799.569 592.999 805.265C592.725 814.405 581.913 819.307 575.207 813.213C571.375 809.769 571.238 806.723 574.659 803.676C578.492 800.364 583.555 801.424 583.966 805.53C584.377 808.842 584.377 808.842 583.008 805.795C581.503 802.351 578.628 801.954 576.028 805.001C573.564 807.915 576.165 811.491 580.955 811.491C586.156 811.491 589.03 807.385 586.703 802.881C584.377 798.377 576.165 797.583 572.196 801.424C568.637 804.868 568.501 811.491 571.922 814.273C574.249 816.26 574.249 816.657 572.196 818.644C570.143 820.631 569.869 820.631 567.679 818.512C566.311 817.187 564.258 816.657 562.615 817.055C560.152 817.585 559.741 817.187 559.604 814.008C559.057 801.424 563.026 795.066 573.428 791.887C576.849 790.694 578.765 790.827 583.419 792.814ZM628.036 794.668C640.217 803.543 628.583 822.486 616.129 814.008C612.844 811.756 612.023 805.795 614.76 803.146C618.182 799.834 625.436 802.086 625.436 806.59C625.436 807.782 624.478 807.385 622.972 805.398C619.55 801.424 615.445 802.749 616.129 807.782C616.95 814.405 628.173 813.213 628.173 806.458C628.173 802.351 624.204 798.907 619.277 798.907C609.286 798.907 606.001 812.286 615.171 816.392C617.087 817.187 618.592 818.644 618.592 819.704C618.592 822.088 616.403 821.956 615.308 819.439C614.35 816.922 607.78 816.79 606.822 819.439C606.138 820.896 605.317 820.499 602.579 817.717C599.705 814.67 599.295 813.213 599.842 808.312C601.485 794.271 616.95 786.721 628.036 794.668ZM664.168 792.814C674.296 796.92 677.307 806.987 670.053 812.948C665.263 817.055 659.651 817.055 655.682 812.948C651.576 808.709 652.671 803.278 657.598 802.086C662.389 800.894 665.126 802.351 664.989 805.795V808.842L663.757 805.795C662.252 802.351 659.378 801.954 656.777 805.001C654.314 807.915 656.914 811.491 661.704 811.491C666.905 811.491 669.779 807.385 667.453 802.881C664.989 798.112 655.409 797.45 652.261 801.821C649.25 805.928 649.524 811.094 652.945 814.67C655.135 816.922 655.409 817.982 654.177 819.439C652.945 820.896 652.261 820.896 649.934 818.644C647.881 816.657 646.649 816.392 644.733 817.32C641.175 819.174 640.491 817.982 640.491 810.432C640.491 800.762 644.87 794.801 654.177 791.887C657.598 790.694 659.515 790.827 664.168 792.814ZM708.922 794.668C721.24 803.543 709.47 822.618 696.878 814.008C693.593 811.756 692.772 805.795 695.51 803.146C698.931 799.834 706.185 802.086 706.185 806.59C706.185 807.782 705.227 807.385 703.721 805.398C700.3 801.424 696.194 802.749 696.878 807.782C697.289 811.094 697.836 811.491 702.079 811.491C706.048 811.491 707.006 810.829 708.101 807.915C709.88 803.014 706.185 798.907 700.026 798.907C694.688 798.907 690.719 802.881 690.719 808.18C690.719 810.299 691.814 813.346 693.183 814.803C695.646 817.32 695.646 817.452 692.909 817.452C691.267 817.452 689.624 818.512 689.077 819.704C688.256 821.956 688.119 821.956 686.887 819.704C686.066 818.512 684.697 817.452 683.602 817.452C681.002 817.452 679.633 812.021 680.728 806.325C683.192 793.476 698.521 787.25 708.922 794.668ZM744.917 792.814C755.045 796.92 758.056 806.987 750.802 812.948C746.012 817.055 740.401 817.055 736.432 812.948C732.326 808.709 733.421 803.278 738.348 802.086C743.138 800.894 745.875 802.351 745.738 805.795V808.842L744.507 805.795C743.001 802.351 740.127 801.954 737.527 805.001C735.063 807.915 737.663 811.491 742.454 811.491C751.897 811.491 751.076 799.967 741.496 799.172C731.915 798.377 727.125 808.312 734.105 814.67C736.021 816.392 737.116 818.644 736.705 819.704C736.158 821.161 735.474 821.029 733.284 818.909C730.136 815.598 728.904 815.465 726.03 818.379C724.114 820.234 723.566 820.234 722.472 818.644C718.229 812.154 722.472 797.318 729.725 794.006C736.979 790.562 739.032 790.429 744.917 792.814ZM789.671 794.668C801.989 803.543 790.219 822.618 777.627 814.008C774.343 811.756 773.522 805.795 776.259 803.146C779.68 799.834 786.934 802.086 786.934 806.59C786.934 807.782 785.976 807.385 784.471 805.398C781.049 801.424 776.943 802.749 777.627 807.782C778.038 811.094 778.585 811.491 782.828 811.491C786.797 811.491 787.755 810.829 788.85 807.915C791.587 800.364 779.68 795.331 773.932 801.556C770.921 804.868 770.647 811.226 773.522 814.405C775.301 816.525 775.301 817.055 773.248 818.909C771.058 820.896 770.647 820.896 768.594 818.512C767.226 817.055 765.31 816.26 764.215 816.657C761.751 817.585 760.383 812.286 761.478 806.325C763.941 793.476 779.27 787.25 789.671 794.668ZM481.729 793.344C481.729 793.874 481.045 795.066 480.224 795.861C479.403 796.655 477.897 799.569 476.939 802.351C475.023 807.385 475.023 807.385 474.886 803.543C474.886 801.292 474.339 798.642 473.517 797.583C471.875 795.066 474.339 792.284 478.445 792.284C480.224 792.284 481.729 792.814 481.729 793.344ZM562.479 793.344C562.479 793.874 561.794 795.066 560.973 795.861C560.152 796.655 558.646 799.569 557.688 802.351C555.772 807.385 555.772 807.385 555.635 803.543C555.635 801.292 555.088 798.642 554.267 797.583C552.624 795.066 555.088 792.284 559.194 792.284C560.973 792.284 562.479 792.814 562.479 793.344ZM641.175 797.053C637.89 801.689 636.932 806.06 637.48 813.743C637.753 816.392 637.069 817.452 635.427 817.452C634.195 817.452 632.142 818.379 630.91 819.439C628.857 821.294 628.447 821.294 627.762 819.572C627.215 818.379 627.899 817.32 629.678 816.79C634.879 815.068 638.438 802.749 635.016 797.583C633.237 794.801 635.974 792.284 640.627 792.284H644.46L641.175 797.053ZM723.977 792.946C723.977 793.344 723.019 795.198 721.787 797.053C720.555 798.775 719.05 802.219 718.503 804.603L717.408 808.842L717.271 804.206C717.134 801.689 716.586 798.642 715.765 797.583C714.123 795.066 716.586 792.284 720.692 792.284C722.472 792.284 723.977 792.549 723.977 792.946ZM435.196 812.154C435.196 815.73 434.648 817.452 433.28 817.452C432.322 817.452 430.679 818.379 429.721 819.439C428.49 820.896 427.668 821.161 426.984 820.101C426.437 819.307 427.805 816.922 429.858 814.803C432.048 812.683 433.827 810.034 433.827 808.974C433.827 807.782 434.101 806.855 434.511 806.855C434.922 806.855 435.196 809.239 435.196 812.154ZM513.482 818.512C511.565 820.366 510.334 820.764 509.239 819.704C508.281 818.777 508.828 817.187 511.155 814.538C513.071 812.418 514.713 809.637 514.85 808.445C514.987 807.252 515.261 808.445 515.534 811.094C515.945 814.67 515.398 816.657 513.482 818.512ZM677.854 819.704C677.307 820.896 676.349 820.764 674.022 819.042C671.011 816.79 671.011 816.79 673.475 813.611C674.98 811.889 676.212 809.504 676.212 808.312C676.349 807.12 676.896 808.842 677.444 812.154C677.991 815.465 678.128 818.909 677.854 819.704ZM595.599 819.042C593.683 821.294 593.41 821.294 591.904 819.174C590.536 817.452 590.809 816.26 593.136 812.816L596.01 808.577L596.831 812.683C597.242 815.333 596.831 817.585 595.599 819.042ZM758.74 815.465C759.425 820.499 759.288 821.558 758.193 819.704C757.372 818.512 755.456 817.452 754.087 817.452C751.623 817.452 751.623 817.187 754.498 812.948C756.14 810.564 757.645 808.577 757.645 808.709C757.782 808.709 758.193 811.756 758.74 815.465ZM476.528 819.969C475.981 821.294 475.57 821.294 474.612 819.572C473.928 818.379 472.423 817.452 471.465 817.452C470.37 817.452 469.412 816.79 469.412 816.127C469.412 815.333 469.959 814.803 470.643 814.803C471.328 814.803 472.423 813.478 472.97 811.756C473.928 809.107 474.065 809.107 475.57 813.478C476.528 815.995 476.939 818.909 476.528 819.969ZM558.236 820.101C558.236 821.691 557.962 821.558 556.867 819.704C555.088 816.79 549.34 816.79 547.697 819.572C546.876 821.029 546.055 821.294 545.508 820.366C545.097 819.572 546.466 817.849 548.792 816.657C550.982 815.333 553.309 813.081 553.856 811.491C554.54 809.239 554.951 809.504 556.457 813.478C557.415 815.995 558.236 819.042 558.236 820.101ZM718.503 815.068C718.503 816.392 717.545 817.452 716.45 817.452C715.492 817.452 713.986 818.379 713.302 819.572C712.344 821.294 711.933 821.426 710.428 819.572C709.059 817.982 709.196 817.32 711.523 816.26C713.028 815.465 714.67 813.478 715.081 812.021C715.902 809.769 716.313 809.504 717.271 810.961C717.955 812.021 718.503 813.876 718.503 815.068ZM796.788 818.512C794.325 820.896 794.188 820.896 792.546 818.644C791.587 817.055 791.587 816.127 792.409 816.127C793.23 816.127 794.598 814.538 795.42 812.683L797.062 809.239L798.294 812.551C799.115 815.2 798.841 816.525 796.788 818.512ZM400.98 823.413C400.98 825.797 400.296 826.725 398.243 826.725C395.505 826.725 394.411 823.016 396.464 821.029C398.516 818.909 400.98 820.234 400.98 823.413ZM413.024 823.81C413.435 826.062 412.75 826.725 410.697 826.725C408.781 826.725 407.823 825.93 407.823 824.34C407.823 819.307 412.34 818.909 413.024 823.81ZM424.247 823.413C424.247 825.797 423.562 826.725 421.646 826.725C419.73 826.725 419.32 825.93 419.867 823.413C420.141 821.558 421.373 820.101 422.331 820.101C423.426 820.101 424.247 821.426 424.247 823.413ZM436.564 823.413C436.564 825.797 435.88 826.725 433.827 826.725C431.09 826.725 429.995 823.016 432.048 821.029C434.101 818.909 436.564 820.234 436.564 823.413ZM448.608 823.81C449.019 826.062 448.335 826.725 446.282 826.725C444.092 826.725 443.408 825.93 443.408 823.281C443.408 818.909 447.924 819.307 448.608 823.81ZM459.831 823.413C459.831 825.797 459.147 826.725 457.231 826.725C455.315 826.725 454.904 825.93 455.452 823.413C455.725 821.558 456.957 820.101 457.915 820.101C459.01 820.101 459.831 821.426 459.831 823.413ZM471.875 823.81C472.286 826.062 471.601 826.725 469.548 826.725C467.632 826.725 466.674 825.93 466.674 824.34C466.674 819.307 471.191 818.909 471.875 823.81ZM484.193 823.81C484.603 826.062 483.919 826.725 481.866 826.725C479.676 826.725 478.992 825.93 478.992 823.281C478.992 818.909 483.509 819.307 484.193 823.81ZM495.416 823.413C495.416 825.797 494.731 826.725 492.678 826.725C489.941 826.725 488.846 823.016 490.899 821.029C492.952 818.909 495.416 820.234 495.416 823.413ZM507.46 823.81C507.87 826.062 507.186 826.725 505.133 826.725C503.217 826.725 502.259 825.93 502.259 824.34C502.259 819.307 506.775 818.909 507.46 823.81ZM519.23 822.221C520.598 825.665 520.188 826.725 517.314 826.725C515.261 826.725 514.576 825.797 514.576 823.413C514.576 819.704 517.861 818.909 519.23 822.221ZM531 823.413C531 825.797 530.316 826.725 528.263 826.725C525.525 826.725 524.431 823.016 526.484 821.029C528.536 818.909 531 820.234 531 823.413ZM543.044 823.81C543.455 826.062 542.77 826.725 540.717 826.725C538.801 826.725 537.843 825.93 537.843 824.34C537.843 819.307 542.36 818.909 543.044 823.81ZM554.267 823.413C554.267 825.532 553.446 826.725 552.214 826.725C550.982 826.725 550.161 825.532 550.161 823.413C550.161 821.294 550.982 820.101 552.214 820.101C553.446 820.101 554.267 821.294 554.267 823.413ZM566.311 823.81C566.721 826.062 566.037 826.725 563.984 826.725C562.068 826.725 561.11 825.93 561.11 824.34C561.11 819.307 565.626 818.909 566.311 823.81ZM578.628 823.81C579.039 826.062 578.355 826.725 576.302 826.725C574.112 826.725 573.428 825.93 573.428 823.281C573.428 818.909 577.944 819.307 578.628 823.81ZM589.851 823.413C589.851 825.797 589.167 826.725 587.251 826.725C585.335 826.725 584.924 825.93 585.472 823.413C585.745 821.558 586.977 820.101 587.935 820.101C589.03 820.101 589.851 821.426 589.851 823.413ZM601.895 823.81C602.306 826.062 601.621 826.725 599.568 826.725C597.652 826.725 596.694 825.93 596.694 824.34C596.694 819.307 601.211 818.909 601.895 823.81ZM614.213 823.81C614.623 826.062 613.939 826.725 611.886 826.725C609.696 826.725 609.012 825.93 609.012 823.281C609.012 818.909 613.528 819.307 614.213 823.81ZM625.436 823.413C625.436 825.797 624.751 826.725 622.698 826.725C619.961 826.725 618.866 823.016 620.919 821.029C622.972 818.909 625.436 820.234 625.436 823.413ZM637.48 823.81C637.89 826.062 637.206 826.725 635.153 826.725C633.237 826.725 632.279 825.93 632.279 824.34C632.279 819.307 636.795 818.909 637.48 823.81ZM649.25 822.221C650.618 825.665 650.208 826.725 647.334 826.725C645.281 826.725 644.596 825.797 644.596 823.413C644.596 819.704 647.881 818.909 649.25 822.221ZM661.02 823.413C661.02 825.797 660.336 826.725 658.283 826.725C655.546 826.725 654.451 823.016 656.504 821.029C658.556 818.909 661.02 820.234 661.02 823.413ZM673.064 823.81C673.475 826.062 672.79 826.725 670.737 826.725C668.547 826.725 667.863 825.93 667.863 823.281C667.863 818.909 672.38 819.307 673.064 823.81ZM684.56 823.413C685.108 825.93 684.697 826.725 682.781 826.725C680.865 826.725 680.181 825.797 680.181 823.413C680.181 821.426 681.002 820.101 682.097 820.101C683.055 820.101 684.287 821.558 684.56 823.413ZM696.604 823.413C696.604 825.797 695.92 826.725 693.867 826.725C691.13 826.725 690.035 823.016 692.088 821.029C694.141 818.909 696.604 820.234 696.604 823.413ZM708.648 823.81C709.059 826.062 708.375 826.725 706.322 826.725C704.132 826.725 703.448 825.93 703.448 823.281C703.448 818.909 707.964 819.307 708.648 823.81ZM719.871 823.413C719.871 825.797 719.187 826.725 717.134 826.725C714.397 826.725 713.302 823.016 715.355 821.029C717.408 818.909 719.871 820.234 719.871 823.413ZM731.915 823.81C732.326 826.062 731.641 826.725 729.588 826.725C727.672 826.725 726.714 825.93 726.714 824.34C726.714 819.307 731.231 818.909 731.915 823.81ZM743.685 822.221C745.054 825.665 744.643 826.725 741.769 826.725C739.716 826.725 739.032 825.797 739.032 823.413C739.032 819.704 742.317 818.909 743.685 822.221ZM755.456 823.413C755.456 825.797 754.771 826.725 752.718 826.725C749.981 826.725 748.886 823.016 750.939 821.029C752.992 818.909 755.456 820.234 755.456 823.413ZM767.5 823.81C767.91 826.062 767.226 826.725 765.173 826.725C763.257 826.725 762.299 825.93 762.299 824.34C762.299 819.307 766.815 818.909 767.5 823.81ZM779.27 822.221C780.638 825.665 780.228 826.725 777.354 826.725C775.301 826.725 774.616 825.797 774.616 823.413C774.616 819.704 777.901 818.909 779.27 822.221ZM791.04 823.413C791.04 825.797 790.356 826.725 788.303 826.725C785.566 826.725 784.471 823.016 786.524 821.029C788.576 818.909 791.04 820.234 791.04 823.413ZM803.084 823.81C803.495 826.062 802.81 826.725 800.757 826.725C798.567 826.725 797.883 825.93 797.883 823.281C797.883 818.909 802.4 819.307 803.084 823.81Z" fill="#FFEFD5"/>
<path d="M434.238 775.461C432.458 777.845 431.09 780.892 431.09 782.084C431.09 784.336 436.564 793.609 437.933 793.609C439.302 793.609 444.776 784.734 444.776 782.482C444.776 779.832 439.712 771.09 438.207 771.09C437.659 771.09 435.88 773.077 434.238 775.461ZM440.397 782.084C440.67 783.674 439.986 784.336 438.07 784.336C436.428 784.336 435.196 783.541 435.196 782.614C435.196 778.508 439.575 778.11 440.397 782.084Z" fill="#FFEFD5"/>
<path d="M514.987 775.461C513.208 777.845 511.839 780.892 511.839 782.084C511.839 784.336 517.314 793.609 518.683 793.609C520.051 793.609 525.526 784.734 525.526 782.482C525.526 779.832 520.462 771.09 518.956 771.09C518.409 771.09 516.63 773.077 514.987 775.461ZM521.146 782.084C521.42 783.674 520.735 784.336 518.819 784.336C517.177 784.336 515.945 783.541 515.945 782.614C515.945 778.508 520.325 778.11 521.146 782.084Z" fill="#FFEFD5"/>
<path d="M595.736 775.461C593.957 777.845 592.588 780.892 592.588 782.084C592.588 784.336 598.063 793.609 599.432 793.609C600.8 793.609 606.275 784.734 606.275 782.482C606.275 779.832 601.211 771.09 599.705 771.09C599.158 771.09 597.379 773.077 595.736 775.461ZM601.895 782.084C602.169 783.674 601.484 784.336 599.568 784.336C597.926 784.336 596.694 783.541 596.694 782.614C596.694 778.508 601.074 778.11 601.895 782.084Z" fill="#FFEFD5"/>
<path d="M676.486 775.461C674.707 777.845 673.338 780.892 673.338 782.084C673.338 784.336 678.812 793.609 680.181 793.609C681.55 793.609 687.024 784.734 687.024 782.482C687.024 779.832 681.96 771.09 680.455 771.09C679.907 771.09 678.128 773.077 676.486 775.461ZM682.645 782.084C682.918 783.674 682.234 784.336 680.318 784.336C678.676 784.336 677.444 783.541 677.444 782.614C677.444 778.508 681.823 778.11 682.645 782.084Z" fill="#FFEFD5"/>
<path d="M757.235 775.461C755.456 777.845 754.087 780.892 754.087 782.084C754.087 784.336 759.561 793.609 760.93 793.609C762.299 793.609 767.773 784.734 767.773 782.349C767.773 779.965 762.436 771.09 760.93 771.09C760.519 771.09 758.877 773.077 757.235 775.461ZM763.394 782.084C763.667 783.674 762.983 784.336 761.067 784.336C759.425 784.336 758.193 783.541 758.193 782.614C758.193 778.508 762.572 778.11 763.394 782.084Z" fill="#FFEFD5"/>
<path d="M249.099 294.087C248.646 292.186 248.093 290.312 247.442 288.476C245.538 284.966 243.191 281.743 240.465 278.891C235.026 272.691 228.774 267.33 221.89 262.966C217.947 260.207 213.843 257.798 209.747 255.328C204.914 252.022 200.469 248.135 196.505 243.746C192.379 239.691 188.995 234.883 186.516 229.551C183.74 224.283 182.444 218.288 182.774 212.25C183.228 206.795 184.659 201.466 186.991 196.542C189.543 191.759 192.572 187.269 196.026 183.146C199.496 178.778 202.935 174.652 206.88 170.711C210.435 166.8 214.254 163.161 218.306 159.822C214.406 160.088 210.495 159.815 206.674 159.009C199.514 156.654 196.411 147.054 189.125 145.238C184.347 144.016 179.362 143.886 174.508 144.856C169.717 146.072 165.08 147.897 160.701 150.291C155.138 153.225 149.757 156.527 144.588 160.175C139.533 163.937 134.671 167.977 130.021 172.276C125.246 176.081 120.673 180.157 116.321 184.485C113.127 180.405 109.936 177.247 106.822 172.992C103.708 168.738 101.484 163.917 98.6007 159.691C95.7174 155.465 92.6831 151.036 90.206 146.368C87.6875 141.726 85.3959 136.953 83.3395 132.064C81.0604 127.203 79.0695 122.196 77.3786 117.073C75.9079 111.853 76.26 106.118 74.7893 100.898C74.5165 100.358 74.1116 99.9056 73.6154 99.5856C73.1185 99.2656 72.5489 99.0896 71.9628 99.0757C70.9804 98.9551 70.6733 100.024 70.2579 101.018C67.7857 106.352 66.2271 112.09 65.6543 117.969C65.5481 123.859 65.8249 129.746 66.4825 135.588C66.6758 141.423 67.3572 147.224 68.5187 152.924C69.7855 158.5 71.5326 163.94 73.7381 169.176C71.0356 164.911 68.9407 160.474 66.6147 156.009C64.2887 151.544 61.8396 147.126 59.1446 142.8C56.4496 138.474 54.3696 133.916 51.8479 129.611C47.9073 123.132 44.3048 116.432 41.0555 109.54C39.723 105.851 38.5998 102.08 37.6907 98.248C36.9908 95.8265 37.1875 93.2693 36.4224 90.9012C35.9719 89.8934 35.164 89.1115 34.168 88.7191C30.1973 87.6169 31.2935 109.263 31.3578 111.607C31.6729 119.57 32.5029 127.495 33.8416 135.329C35.404 140.094 37.2416 144.753 39.3436 149.28C40.8011 154.13 41.9623 159.005 43.4347 163.734C44.9071 168.463 47.3412 173.003 48.9217 177.807C46.7458 172.23 44.107 166.867 41.035 161.78C38.1625 156.511 33.8346 152.107 31.1131 147.041C28.3917 141.974 25.7859 136.921 23.0216 131.726C20.4891 126.688 18.5263 121.352 17.1722 115.827C16.3378 112.59 15.5464 109.481 14.6914 105.934C14.1352 103.776 14.3055 100.478 12.8733 98.7657C9.49056 94.7855 8.57747 106.044 8.38417 107.618C7.87862 111.736 7.38051 115.792 7.30178 119.778C7.19786 128.091 7.78848 136.39 9.0665 144.579C9.69691 152.879 10.942 161.107 12.7903 169.191C15.15 177.137 18.0176 184.902 21.3749 192.433C23.8114 198.387 26.3784 204.234 29.3722 209.948C32.3659 215.663 34.058 219.559 36.0951 223.988C38.2169 228.712 39.8305 233.671 40.9076 238.777C42.2241 243.792 42.3007 249.087 41.1293 254.17C39.8108 259.267 37.3628 263.978 33.9857 267.921C30.4858 271.721 26.6071 275.12 22.4175 278.055C17.4252 281.929 12.1456 285.276 7.0022 288.947C1.85882 292.617 -1.29176 296.779 -6.04212 299.637C-10.7925 302.496 -15.9737 304.564 -20.7035 307.733C-25.4332 310.901 -29.6091 314.814 -34.4173 317.665C-39.2254 320.517 -44.3489 322.592 -49.2726 325.429C-54.1964 328.267 -59.1463 330.363 -64.0106 332.716C-68.8748 335.069 -73.7687 337.664 -78.7841 339.814C-83.7994 341.965 -89.0722 343.345 -94.2592 344.982C-99.3947 346.716 -104.622 348.127 -109.912 349.207C-111.958 349.632 -113.75 349.412 -114.963 351.168C-110.285 352.462 -105.494 353.277 -100.655 353.601C-95.6978 353.442 -90.753 352.92 -85.8575 352.038C-80.8696 351.544 -75.6927 352.856 -70.8335 351.977C-65.9743 351.098 -61.0466 349.183 -56.2733 348.048C-51.4999 346.914 -46.6333 345.975 -41.8806 344.53C-37.1278 343.085 -32.4759 341.506 -27.8016 339.744C-23.1271 337.982 -18.5964 335.957 -14.1086 333.804C-9.62092 331.651 -5.6795 328.692 -1.41381 325.959C-6.3449 328.856 -11.1399 332.078 -15.92 335.179C-20.7001 338.28 -25.9408 340.833 -30.6854 344.122C-35.43 347.412 -39.369 351.784 -43.7818 355.237C-48.1946 358.69 -51.8858 362.478 -56.0749 366.02C-60.264 369.562 -65.2585 372.022 -69.5837 375.24C-73.652 378.897 -78.114 382.042 -82.8765 384.61C-84.7365 385.426 -90.7382 386.533 -91.1511 388.941C-91.5641 391.349 -89.1949 391.64 -87.836 391.561C-82.8347 390.842 -77.8996 389.658 -73.0892 388.024C-68.0819 387.403 -63.11 386.474 -58.2005 385.242C-53.4106 383.495 -48.7494 381.363 -44.1461 379.224C-39.5428 377.085 -35.2547 374.17 -30.8379 371.639C-26.4211 369.108 -21.726 367.656 -17.533 365.037C-13.3399 362.417 -8.81484 359.96 -4.83802 357.191C-0.861177 354.422 2.62117 350.425 6.63525 347.352C10.6493 344.28 14.324 341.105 18.2876 337.966C13.2545 341.637 8.43552 345.623 3.85877 349.9C-0.615168 354.329 -3.5694 360.236 -7.56043 365.031C-11.5515 369.828 -15.8669 374.399 -19.5987 379.472C-23.3306 384.546 -26.464 390 -29.9795 395.223C-31.0619 396.873 -36.8585 403.474 -34.5744 405.415C-33.45 406.29 -29.4429 405.184 -28.2706 404.714C-26.0415 403.758 -24.4133 401.007 -22.1843 400.052C-17.7766 398.073 -13.1468 396.675 -8.81752 394.379C-3.84548 391.511 0.95407 388.324 5.55253 384.834C10.2468 381.477 15.2357 378.586 19.6353 374.763C24.0349 370.94 27.7502 366.478 31.8328 362.37C35.9154 358.262 40.9415 355.068 44.9812 350.831C49.0209 346.595 52.7362 342.134 56.7181 337.89C60.7 333.647 64.5358 327.726 69.0098 323.296C73.4838 318.867 79.4047 316.03 84.1378 311.879C88.871 307.727 93.151 302.966 98.2868 299.357C102.339 296.55 106.736 294.339 111.353 292.786C115.95 290.991 120.812 290.088 125.7 290.122C130.676 290.924 135.469 292.636 139.861 295.18C144.368 297.277 148.533 300.09 152.211 303.519C156.266 307.274 160.655 310.702 164.457 314.611C168.26 318.52 171.974 322.664 175.631 326.8C179.288 330.936 183.14 334.913 186.732 339.103C190.324 343.293 192.784 348.574 196.456 352.589C198.577 355.078 200.858 357.411 203.282 359.574C203.592 359.919 204.543 360.773 204.977 360.581C205.411 360.388 205.185 358.886 205.245 358.401C204.643 353.049 203.727 347.743 202.503 342.515C201.336 337.297 199.85 332.167 198.054 327.156C196.97 321.857 195.532 316.649 193.75 311.569C191.216 306.852 188.291 302.38 185.008 298.203C181.744 294.026 178.036 290.251 173.954 286.951C178.573 291.105 183.426 294.964 188.49 298.508C193.674 301.874 199.036 304.933 204.552 307.671C209.597 310.941 214.842 313.864 220.254 316.422C223.119 317.45 225.817 318.887 228.61 320.029C231.468 321.068 234.429 321.782 237.44 322.158C238.143 322.173 238.827 321.905 239.351 321.409C239.895 320.8 239.162 319.603 238.716 318.934C236.782 316.054 235.588 312.404 233.581 309.637C230.597 305.276 227.49 300.961 224.238 296.874C220.985 292.787 217.306 288.832 213.663 285.065C209.635 281.744 205.431 278.663 201.07 275.836C197.122 272.466 192.953 269.387 188.593 266.621C193.186 269.337 197.933 271.763 202.585 274.486C207.237 277.208 212.304 278.937 217.05 281.363C220.693 283.224 223.638 286.474 227.171 288.752C228.873 289.699 231.216 289.249 232.875 290.067C237.767 292.266 242.514 294.693 247.413 296.831C248.107 296.916 249.209 297.973 249.436 297.079C249.663 296.185 249.248 294.782 249.099 294.087ZM186.238 167.317C185.304 166.638 184.661 165.604 184.445 164.432C184.228 163.259 184.453 162.04 185.075 161.028C187.459 156.895 194.554 157.398 193.863 163.029C193.765 163.961 193.479 164.863 193.025 165.676C192.572 166.489 191.96 167.194 191.23 167.745C190.426 168.116 189.547 168.272 188.675 168.196C187.803 168.121 186.966 167.819 186.238 167.317Z" fill="#FFFDD0" fill-opacity="0.3"/>
</g>
<defs>
<clipPath id="clip0_431_4944">
<rect width="1280" height="832" fill="white"/>
</clipPath>
</defs>
</svg>
