<svg width="402" height="874" viewBox="0 0 402 874" fill="none" xmlns="http://www.w3.org/2000/svg">
<g clip-path="url(#clip0_627_2513)">
<rect width="402" height="874" fill="#FF8343"/>
<path d="M92.3337 97.5181C99.5946 105.578 105.108 115.054 108.529 125.349C112.014 138.023 111.809 151.428 107.94 163.99C101.493 186.829 85.4153 206.641 63.9131 215.092C52.8487 219.156 40.8747 220.072 29.3209 217.74C17.7671 215.409 7.08557 209.92 -1.53693 201.884C-19.0689 185.138 -25.437 156.403 -14.6662 135.53C-3.89548 114.657 24.0534 105.341 44.8874 117.094C49.4315 119.547 53.3841 122.964 56.4671 127.106C59.5506 131.249 61.6894 136.016 62.7338 141.073C64.4634 151.215 59.3532 162.418 50.0762 165.484C48.3859 154.517 45.7129 142.409 37.0648 135.53C24.8003 125.821 5.26359 133.604 1.05749 148.384C-3.14861 163.165 6.32494 180.382 20.2404 187.143C27.186 190.224 34.8038 191.481 42.3708 190.793C49.9382 190.105 57.2042 187.495 63.4807 183.212C84.1967 169.926 93.9454 138.085 78.8113 116.898C73.3599 109.87 66.4886 104.071 58.6457 99.8767C43.2757 90.8749 25.3507 84.7426 8.64419 88.6342C-31.6086 98.1471 -44.5021 149.564 -35.8934 184.627C-32.2661 200.137 -23.2188 213.84 -10.3815 223.269C3.57329 233.135 25.6258 235.769 42.4109 235.337C53.5492 235.058 64.5468 232.781 74.8804 228.615C81.4934 226.032 87.571 222.247 92.8055 217.451C94.4564 215.76 96.7364 211.83 99.0163 215.76C101.296 219.691 95.7143 225.116 94.024 228.025C90.6277 233.913 85.5863 238.681 79.5189 241.744C73.446 245.062 66.9541 247.548 60.218 249.134C54.778 250.847 49.2208 252.16 43.5902 253.065C38.1148 253.327 32.6268 253.077 27.1982 252.318C-2.28381 249.016 -33.0631 243.788 -49.4944 216.468C-62.2227 194.23 -68.2306 168.778 -66.7905 143.195C-66.6979 134.201 -64.6877 125.329 -60.8941 117.173C-29.7218 57.3047 44.6122 41.7775 92.3337 97.5181Z" fill="#FFFDD0" fill-opacity="0.35"/>
<path d="M472 -122.5C472 24.6839 352.684 144 205.5 144C58.3161 144 -61 24.6839 -61 -122.5C-61 -269.684 58.3161 -389 205.5 -389C352.684 -389 472 -269.684 472 -122.5Z" fill="#FFEFD5"/>
<path d="M525 828.5C525 1017.66 366.509 1171 171 1171C-24.5088 1171 -183 1017.66 -183 828.5C-183 639.342 -24.5088 486 171 486C366.509 486 525 639.342 525 828.5Z" fill="#FFEFD5"/>
<path d="M302.254 443.95C295.932 450.944 291.13 459.165 288.152 468.098C285.117 479.095 285.296 490.726 288.665 501.626C294.279 521.442 308.279 538.632 327.003 545.965C336.637 549.491 347.064 550.286 357.125 548.263C367.186 546.24 376.487 541.478 383.996 534.505C399.262 519.975 404.807 495.043 395.428 476.932C386.049 458.821 361.712 450.737 343.57 460.936C339.613 463.064 336.171 466.028 333.486 469.623C330.801 473.217 328.939 477.353 328.03 481.741C326.523 490.541 330.973 500.261 339.052 502.922C340.524 493.406 342.851 482.901 350.382 476.932C361.062 468.507 378.074 475.261 381.736 488.085C385.399 500.909 377.15 515.848 365.032 521.715C358.984 524.388 352.351 525.478 345.761 524.881C339.172 524.284 332.845 522.02 327.379 518.304C309.34 506.776 300.851 479.149 314.029 460.765C318.776 454.668 324.76 449.635 331.589 445.997C344.973 438.186 360.582 432.865 375.13 436.242C410.182 444.496 421.409 489.108 413.913 519.532C410.754 532.989 402.876 544.879 391.697 553.059C379.546 561.62 360.343 563.906 345.726 563.53C336.027 563.289 326.451 561.313 317.452 557.698C311.694 555.458 306.402 552.173 301.844 548.012C300.406 546.545 298.421 543.134 296.435 546.545C294.45 549.956 299.311 554.663 300.782 557.186C303.74 562.295 308.13 566.432 313.413 569.09C318.702 571.969 324.355 574.126 330.22 575.502C334.957 576.988 339.796 578.128 344.7 578.913C349.467 579.14 354.246 578.923 358.973 578.265C384.646 575.4 411.448 570.863 425.756 547.159C436.84 527.864 442.072 505.78 440.818 483.583C440.737 475.778 438.986 468.081 435.683 461.004C408.539 409.058 343.81 395.586 302.254 443.95Z" fill="#FFFDD0" fill-opacity="0.35"/>
</g>
<defs>
<clipPath id="clip0_627_2513">
<rect width="402" height="874" fill="white"/>
</clipPath>
</defs>
</svg>
