<svg width="1280" height="832" viewBox="0 0 1280 832" fill="none" xmlns="http://www.w3.org/2000/svg">
<g clip-path="url(#clip0_431_4944)">
<rect width="1280" height="832" fill="#FF8343"/>
<path d="M570.697 494.997C577.428 502.469 582.539 511.252 585.71 520.795C588.94 532.544 588.75 544.97 585.163 556.614C579.187 577.785 564.284 596.15 544.352 603.984C534.096 607.751 522.996 608.601 512.286 606.439C501.576 604.278 491.675 599.19 483.682 591.741C467.431 576.218 461.528 549.582 471.512 530.233C481.496 510.884 507.403 502.248 526.716 513.143C530.928 515.417 534.592 518.584 537.45 522.424C540.308 526.264 542.291 530.683 543.259 535.371C544.862 544.772 540.125 555.157 531.526 557.999C529.959 547.833 527.481 536.61 519.465 530.233C508.096 521.233 489.986 528.448 486.087 542.148C482.188 555.849 490.97 571.809 503.869 578.077C510.307 580.933 517.369 582.097 524.383 581.46C531.398 580.822 538.133 578.403 543.951 574.433C563.154 562.117 572.191 532.601 558.162 512.961C553.109 506.447 546.739 501.071 539.469 497.183C525.222 488.839 508.606 483.155 493.12 486.762C455.807 495.58 443.855 543.242 451.835 575.745C455.197 590.121 463.584 602.824 475.483 611.564C488.419 620.71 508.861 623.151 524.42 622.75C534.745 622.492 544.939 620.382 554.518 616.519C560.648 614.126 566.282 610.617 571.134 606.171C572.665 604.604 574.778 600.96 576.892 604.604C579.005 608.248 573.831 613.276 572.264 615.973C569.116 621.43 564.442 625.85 558.818 628.69C553.189 631.765 547.171 634.07 540.927 635.54C535.884 637.128 530.733 638.345 525.513 639.184C520.438 639.427 515.351 639.195 510.319 638.492C482.99 635.431 454.458 630.584 439.227 605.26C427.428 584.646 421.859 561.053 423.194 537.338C423.28 529.001 425.143 520.777 428.66 513.216C457.556 457.721 526.461 443.327 570.697 494.997Z" fill="#FFFDD0" fill-opacity="0.3"/>
<circle cx="1055.5" cy="668.5" r="443.5" fill="#FFEFD5"/>
<ellipse cx="1183.7" cy="168.823" rx="361.696" ry="360.823" fill="#FFEFD5"/>
<path d="M26.0173 738.12C24.5118 741.961 25.1961 743.948 27.9334 743.948C29.4389 743.948 30.6706 743.153 30.6706 742.094C30.6706 739.312 29.1651 736 27.9334 736C27.3859 736 26.4279 736.927 26.0173 738.12Z" fill="#FFEFD5"/>
<path d="M106.903 738.914C105.945 742.358 106.766 743.948 109.503 743.948C111.556 743.948 111.967 741.564 110.598 738.12C109.366 735.205 107.724 735.47 106.903 738.914Z" fill="#FFEFD5"/>
<path d="M187.516 738.914C186.284 743.551 186.421 743.948 189.432 743.948C192.169 743.948 192.853 741.961 191.348 738.12C190.116 735.073 188.474 735.47 187.516 738.914Z" fill="#FFEFD5"/>
<path d="M268.265 738.914C267.033 743.551 267.17 743.948 270.181 743.948C272.918 743.948 273.602 741.961 272.097 738.12C270.865 735.073 269.223 735.47 268.265 738.914Z" fill="#FFEFD5"/>
<path d="M349.014 738.914C347.782 743.551 347.919 743.948 350.93 743.948C353.667 743.948 354.352 741.961 352.846 738.12C351.615 735.073 349.972 735.47 349.014 738.914Z" fill="#FFEFD5"/>
<path d="M27.6593 747.392C26.975 747.922 26.5644 749.511 26.5644 750.968C26.5644 752.425 25.3327 753.75 23.6903 754.147C21.6374 754.677 21.0899 755.605 21.6374 757.856C22.3217 760.506 22.048 760.771 19.4476 760.108C16.984 759.578 16.7103 759.843 17.2577 762.228C18.2158 765.804 16.4366 767.129 14.2468 764.48C13.2887 763.42 11.6464 762.493 10.5515 762.493C9.45655 762.493 9.04596 761.83 9.45655 761.168C10.6883 759.181 7.54046 755.869 4.39261 755.869C3.02398 755.869 1.51848 754.942 0.971031 753.75C0.560442 752.558 -1.21878 751.896 -3.40859 752.028C-5.32467 752.293 -8.1988 751.763 -9.70429 750.968C-12.989 749.379 -15.8631 750.041 -15.8631 752.69C-15.8631 753.75 -14.4945 754.545 -12.7153 754.545C-5.5984 754.545 1.38162 757.724 7.4036 763.42C12.7413 768.586 13.2887 769.513 11.3726 770.97C10.1409 771.765 8.77223 773.885 8.08792 775.474L7.12987 778.653L3.57143 775.342C-1.62937 770.705 -5.32467 769.116 -10.9361 769.116C-17.6424 769.116 -17.0949 771.235 -10.2517 772.295C-2.45055 773.487 2.88712 777.461 4.66634 783.422C6.44556 789.913 6.44556 789.913 2.88712 790.575C1.1079 790.84 -1.21878 790.178 -2.72427 788.853C-5.05095 786.601 -5.05095 786.469 -2.31368 785.012C1.38162 783.157 1.51848 778.388 -2.17682 778.388C-4.36663 778.388 -4.91408 779.316 -4.91408 782.362C-4.91408 786.469 -6.6933 787.263 -10.2517 785.144C-11.8941 784.084 -11.8941 783.554 -10.5255 781.832C-8.33566 779.316 -9.43057 775.739 -12.3047 775.739C-15.3157 775.739 -16.1369 777.991 -14.3576 781.303C-13.1259 783.422 -13.1259 784.349 -14.3576 784.747C-17.5055 785.806 -15.7263 788.323 -11.6204 788.456C-9.29371 788.588 -6.41958 789.648 -5.18781 790.972C-2.998 793.224 -2.998 793.224 -6.28272 792.297C-11.8941 790.84 -14.9051 790.84 -15.4525 792.562C-15.8631 793.754 -14.6314 794.284 -11.6204 794.284C-7.51448 794.284 -7.37762 794.416 -9.29371 796.536C-13.6733 801.305 -14.6314 805.411 -15.3157 818.922L-16 832.698H189.432H394.726V826.87C394.726 823.558 394.179 820.644 393.495 820.247C391.168 818.79 390.757 811.372 392.673 805.808C393.768 802.762 394.726 799.318 394.726 798.258C394.726 795.211 391.989 798.655 389.936 804.351C388.02 809.385 388.02 809.385 387.883 805.543C387.883 803.292 387.336 800.642 386.515 799.583C384.872 797.066 387.336 794.284 391.442 794.284C394.863 794.284 395.821 792.429 393.221 790.972C391.442 789.913 383.777 792.827 383.777 794.549C383.777 795.211 383.093 795.344 382.272 794.814C379.808 793.357 385.83 788.588 390.484 788.456C394.589 788.323 396.369 785.806 393.221 784.747C391.989 784.349 391.989 783.422 393.221 781.303C395 777.991 394.179 775.739 391.168 775.739C388.294 775.739 387.199 779.316 389.389 781.832C390.757 783.554 390.757 784.084 389.115 785.144C385.557 787.396 383.64 786.469 384.051 782.76C384.325 780.243 383.777 779.051 381.998 778.653C378.303 777.858 377.345 782.362 380.903 784.879L383.777 786.998L380.903 789.383C376.524 793.092 373.376 791.767 373.923 786.336C374.197 783.819 375.018 780.64 375.839 779.316C377.345 776.401 387.199 771.898 391.715 771.765C393.358 771.765 394.726 771.103 394.726 770.441C394.726 768.454 385.557 768.851 381.04 771.103C378.85 772.163 376.113 774.414 375.018 776.004C373.786 777.594 372.691 778.653 372.555 778.256C372.281 777.991 370.775 775.739 368.996 773.487L365.848 769.116L372.007 763.287C377.071 758.386 379.535 757.062 386.378 755.737C391.031 754.677 394.726 753.353 394.726 752.425C394.726 750.041 391.715 749.379 388.567 750.968C387.062 751.763 384.188 752.293 382.272 752.028C380.082 751.896 378.303 752.558 377.892 753.75C377.345 754.942 375.839 755.869 374.471 755.869C371.323 755.869 368.175 759.181 369.407 761.168C369.817 761.83 369.407 762.493 368.312 762.493C367.217 762.493 365.574 763.42 364.616 764.48C362.427 767.129 360.647 765.804 361.605 762.228C362.153 759.843 361.879 759.578 359.416 760.108C356.405 760.903 355.31 759.314 357.773 757.856C359.689 756.664 357.91 754.28 355.72 755.075C353.804 755.737 352.299 753.22 352.299 749.114C352.299 747.789 351.751 746.597 350.93 746.597C350.246 746.597 349.562 748.054 349.562 749.909C349.562 752.293 348.603 753.618 345.866 754.677C343.129 755.605 342.718 756.399 343.813 757.459C346.277 759.843 345.729 761.036 342.445 760.108C339.981 759.578 339.707 759.843 340.255 762.228C341.213 765.672 339.023 767.659 337.791 764.612C337.381 763.42 335.738 762.493 334.37 762.493C332.864 762.493 332.18 761.83 332.59 760.771C333.412 758.386 329.716 755.34 327.116 756.267C325.884 756.797 324.789 756.002 324.242 754.412C323.558 752.425 322.326 751.763 319.725 752.028C317.672 752.293 314.661 751.763 313.156 750.836C310.829 749.644 309.734 749.776 307.681 751.101C305.902 752.425 304.397 752.558 302.754 751.763C300.975 750.836 299.743 751.233 297.964 753.22C296.595 754.677 294.543 755.869 293.311 755.869C290.437 755.869 287.426 759.314 288.657 761.168C289.068 761.83 288.657 762.493 287.562 762.493C286.468 762.493 284.825 763.42 283.867 764.48C281.677 767.129 279.898 765.804 280.856 762.228C281.404 759.843 281.13 759.578 278.666 760.108C275.382 761.036 274.834 759.843 277.298 757.459C278.393 756.399 277.982 755.605 275.245 754.677C272.508 753.618 271.55 752.293 271.55 749.909C271.55 747.922 271.002 746.729 270.181 747.259C269.497 747.657 268.812 749.246 268.812 750.703C268.812 752.293 267.444 753.75 265.117 754.677C262.38 755.605 261.969 756.399 263.064 757.459C265.528 759.843 264.98 761.036 261.695 760.108C259.232 759.578 258.958 759.843 259.506 762.228C260.464 765.804 258.684 767.129 256.495 764.48C255.537 763.42 253.894 762.493 252.799 762.493C251.704 762.493 251.294 761.83 251.704 761.168C252.936 759.314 249.925 755.869 247.051 755.869C245.819 755.869 243.766 754.677 242.398 753.22C240.618 751.233 239.387 750.836 237.607 751.763C235.965 752.558 234.46 752.425 232.68 751.101C230.627 749.776 229.532 749.644 227.206 750.836C225.7 751.763 222.689 752.293 220.773 752.028C218.583 751.896 216.804 752.558 216.394 753.75C215.846 754.942 214.341 755.869 212.972 755.869C209.824 755.869 206.676 759.181 207.908 761.168C208.319 761.83 207.908 762.493 206.813 762.493C205.718 762.493 204.076 763.42 203.118 764.48C200.928 767.129 199.149 765.804 200.107 762.228C200.654 759.843 200.381 759.578 197.917 760.108C194.632 761.036 194.085 759.843 196.548 757.459C197.643 756.399 197.233 755.605 194.496 754.677C191.758 753.618 190.8 752.293 190.8 749.909C190.8 748.054 190.253 746.597 189.432 746.597C188.747 746.597 188.063 748.054 188.063 749.909C188.063 752.293 187.105 753.618 184.368 754.677C181.63 755.605 181.22 756.399 182.315 757.459C184.778 759.843 184.231 761.036 180.946 760.108C178.483 759.578 178.209 759.843 178.756 762.228C179.714 765.804 177.935 767.129 175.745 764.48C174.787 763.42 173.145 762.493 172.05 762.493C170.955 762.493 170.544 761.83 170.955 761.168C172.187 759.181 169.039 755.869 165.891 755.869C164.523 755.869 163.017 754.942 162.47 753.75C162.059 752.558 160.28 751.896 158.09 752.028C156.174 752.293 153.3 751.763 151.794 750.968C149.741 749.909 148.236 749.909 146.32 750.968C144.814 751.763 141.94 752.293 140.024 752.028C137.697 751.896 136.055 752.558 135.644 753.75C135.097 754.942 133.591 755.869 132.223 755.869C129.075 755.869 125.927 759.181 127.159 761.168C127.569 761.83 127.159 762.493 126.064 762.493C124.969 762.493 123.327 763.42 122.369 764.48C120.179 767.129 118.4 765.804 119.358 762.228C119.905 759.843 119.631 759.578 117.168 760.108C114.157 760.903 113.062 759.314 115.525 757.856C117.442 756.664 115.662 754.28 113.473 755.075C111.556 755.737 110.051 753.22 110.051 749.114C110.051 747.789 109.504 746.597 108.682 746.597C107.998 746.597 107.314 748.054 107.314 749.909C107.314 752.293 106.356 753.618 103.618 754.677C100.881 755.605 100.471 756.399 101.565 757.459C104.029 759.843 103.482 761.036 100.197 760.108C97.7333 759.578 97.4596 759.843 98.007 762.228C98.9651 765.804 97.1858 767.129 94.996 764.48C94.038 763.42 92.3956 762.493 91.3007 762.493C90.2058 762.493 89.7952 761.83 90.2058 761.168C91.4376 759.181 88.2897 755.869 85.2787 755.869C83.9101 755.869 82.2678 754.942 81.5834 753.75C80.6254 752.161 79.1199 751.763 76.5195 752.293C74.056 752.69 71.8661 752.161 70.7712 751.101C69.1289 749.644 68.1708 749.511 65.8442 750.836C64.2018 751.763 61.1908 752.293 59.001 752.028C56.4006 751.763 55.032 752.425 54.2108 754.147C53.6633 755.472 52.021 756.532 50.5155 756.532C49.01 756.532 47.2308 757.856 46.4096 759.446C45.7253 761.168 44.3567 762.493 43.5355 762.493C42.5774 762.493 41.4825 763.42 41.0719 764.612C39.8402 767.659 37.6504 765.672 38.6084 762.228C39.1559 759.843 38.8821 759.578 36.4186 760.108C33.1339 761.036 32.5864 759.843 35.05 757.459C36.1449 756.399 35.7343 755.605 32.997 754.677C30.6703 753.75 29.3017 752.161 29.028 749.909C28.7543 747.922 28.2068 746.862 27.6593 747.392ZM75.1509 756.002C81.7203 757.724 89.1109 762.89 91.1639 766.996C92.1219 769.381 91.8482 770.97 89.7952 774.149L87.1948 778.388L84.5944 775.607C76.2458 766.732 58.5904 766.864 52.021 776.004C50.7892 777.594 49.6943 778.653 49.5574 778.256C49.2837 777.991 47.7782 775.872 45.999 773.487L42.988 769.248L47.2308 764.48C52.021 759.181 55.3057 757.194 61.4645 755.737C67.4865 754.412 69.1289 754.412 75.1509 756.002ZM162.196 757.856C164.112 758.916 167.67 761.83 169.997 764.347L174.24 769.116L171.229 773.62L168.218 778.123L164.796 775.077C159.595 770.441 156.037 769.116 149.057 769.116C141.94 769.116 135.918 771.633 132.77 776.004C131.538 777.594 130.444 778.653 130.307 778.256C130.033 777.991 128.527 775.739 126.748 773.487L123.6 769.116L129.622 763.287C133.181 759.843 137.834 756.929 140.982 756.134C147.141 754.545 156.995 755.34 162.196 757.856ZM242.945 757.989C244.998 758.916 248.556 762.095 250.883 764.745C254.305 768.851 254.852 770.043 253.347 771.103C252.252 771.898 251.02 773.885 250.336 775.474L249.378 778.653L245.819 775.342C240.345 770.441 236.786 769.116 229.806 769.116C222.689 769.116 216.667 771.633 213.52 776.004C212.288 777.594 211.193 778.653 210.919 778.256C210.645 777.991 209.14 775.739 207.361 773.487L204.35 769.116L210.372 763.42C213.93 759.843 218.447 756.929 221.731 756.134C227.89 754.545 237.744 755.34 242.945 757.989ZM323.694 757.989C325.747 758.916 329.306 761.963 331.496 764.612L335.601 769.381L332.59 773.752L329.716 778.123L326.295 775.077C321.094 770.441 317.536 769.116 310.555 769.116C303.439 769.116 297.417 771.633 294.269 776.004C293.037 777.594 291.942 778.653 291.668 778.256C291.395 777.991 289.889 775.739 288.11 773.487L285.099 769.116L291.121 763.42C294.679 759.843 299.196 756.929 302.481 756.134C308.639 754.545 318.494 755.34 323.694 757.989ZM29.3017 758.386C29.3017 759.181 32.5864 763.155 36.5555 767.394C45.4516 776.666 47.0939 779.448 47.0939 785.541C47.0939 788.985 46.5465 790.31 45.041 790.31C43.2617 790.31 43.1249 789.78 44.3567 787.661C46.4096 783.952 43.2617 778.123 34.7762 769.248L27.9331 761.963L20.6793 769.646C12.0569 779.051 10.004 783.157 11.6464 787.528C13.015 790.972 12.4675 792.429 10.2777 790.972C7.95105 789.648 8.49851 780.64 11.0989 777.064C12.3307 775.209 16.2997 770.573 19.995 766.732C23.5535 762.758 26.5644 759.049 26.5644 758.386C26.5644 757.724 27.2488 757.194 27.9331 757.194C28.7543 757.194 29.3017 757.724 29.3017 758.386ZM110.051 758.386C110.051 759.049 113.062 762.758 116.62 766.732C126.201 776.931 127.843 779.713 127.843 785.276C127.843 788.985 127.296 790.31 125.79 790.31C124.011 790.31 123.874 789.78 125.106 787.661C127.159 783.952 124.011 778.123 115.525 769.248L108.682 761.963L101.429 769.646C92.8062 779.051 90.7533 783.157 92.3956 787.528C93.7642 790.972 93.2168 792.429 91.027 790.972C89.1109 789.913 89.1109 781.567 91.1639 777.991C91.985 776.401 95.9541 771.633 100.06 767.394C104.029 763.155 107.314 759.181 107.314 758.386C107.314 757.724 107.998 757.194 108.682 757.194C109.504 757.194 110.051 757.724 110.051 758.386ZM190.8 758.386C190.8 759.181 194.222 763.287 198.328 767.526C206.676 776.269 209.824 782.23 208.866 787.131C207.908 791.9 205.855 790.972 206.129 785.806C206.266 780.64 204.76 778.123 195.727 768.454L189.432 761.963L182.315 769.646C173.555 779.051 171.503 783.157 173.145 787.528C174.514 790.972 173.966 792.429 171.776 790.972C169.86 789.913 169.86 781.567 171.913 777.991C172.734 776.401 176.703 771.633 180.809 767.394C184.778 763.155 188.063 759.181 188.063 758.386C188.063 757.724 188.747 757.194 189.432 757.194C190.253 757.194 190.8 757.724 190.8 758.386ZM271.55 758.386C271.55 759.181 274.834 763.155 278.803 767.394C287.699 776.666 289.342 779.448 289.342 785.541C289.342 788.985 288.794 790.31 287.289 790.31C285.51 790.31 285.373 789.78 286.604 787.661C288.657 783.952 285.646 778.123 277.161 769.116L270.318 761.83L263.064 769.646C254.305 779.051 252.252 783.025 253.894 787.528C255.263 790.972 254.715 792.429 252.526 790.972C250.199 789.648 250.746 780.64 253.347 777.064C254.578 775.209 258.547 770.573 262.243 766.732C265.801 762.758 268.812 759.049 268.812 758.386C268.812 757.724 269.497 757.194 270.181 757.194C271.002 757.194 271.55 757.724 271.55 758.386ZM352.299 758.386C352.299 759.181 355.583 763.155 359.553 767.394C368.449 776.666 370.091 779.448 370.091 785.541C370.091 788.985 369.544 790.31 368.038 790.31C366.259 790.31 366.122 789.78 367.354 787.661C369.407 783.952 366.259 778.123 357.773 769.248L350.93 761.963L343.676 769.646C335.054 779.051 333.001 783.157 334.643 787.528C336.012 790.972 335.465 792.429 333.275 790.972C330.948 789.648 331.496 780.64 334.096 777.064C335.328 775.209 339.297 770.573 342.992 766.732C346.551 762.758 349.562 759.049 349.562 758.386C349.562 757.724 350.246 757.194 350.93 757.194C351.751 757.194 352.299 757.724 352.299 758.386ZM35.1868 773.885C41.7563 781.303 43.5355 787.396 39.977 790.178C30.9441 797.198 27.7962 800.377 27.1119 803.027C26.1539 806.603 23.8272 805.941 23.8272 802.099C23.8272 800.642 22.1848 797.993 20.2687 796.006C16.5734 792.429 14.2468 787.661 14.2468 783.554C14.2468 781.435 26.1539 766.732 27.9331 766.732C28.3437 766.732 31.4915 769.911 35.1868 773.885ZM115.936 773.885C122.506 781.303 124.285 787.396 120.726 790.178C111.693 797.198 108.545 800.377 107.861 803.027C106.903 806.603 104.576 805.941 104.576 802.099C104.576 800.642 102.934 797.993 101.018 796.006C97.3227 792.429 94.996 787.661 94.996 783.554C94.996 781.435 106.903 766.732 108.682 766.732C109.093 766.732 112.241 769.911 115.936 773.885ZM196.685 773.885C203.255 781.303 205.034 787.396 201.476 790.178C192.443 797.198 189.295 800.377 188.61 803.027C187.926 805.808 185.052 807.795 185.463 805.146C186.01 801.834 184.915 799.053 181.767 796.006C178.072 792.429 175.745 787.661 175.745 783.554C175.745 781.435 187.652 766.732 189.432 766.732C189.842 766.732 192.99 769.911 196.685 773.885ZM277.435 773.885C284.004 781.303 285.783 787.396 282.225 790.178C273.192 797.198 270.044 800.377 269.36 803.027C268.402 806.603 266.075 805.941 266.075 802.099C266.075 800.642 264.433 797.993 262.517 796.006C258.821 792.429 256.495 787.661 256.495 783.554C256.495 781.435 268.402 766.732 270.181 766.732C270.591 766.732 273.739 769.911 277.435 773.885ZM358.184 773.885C364.753 781.303 366.533 787.396 362.974 790.178C353.941 797.198 350.793 800.377 350.109 803.027C349.151 806.603 346.824 806.073 346.824 802.232C346.824 800.907 344.634 797.331 342.034 794.284C335.328 786.601 335.601 782.76 343.813 773.885C347.372 769.911 350.52 766.732 350.93 766.732C351.341 766.732 354.489 769.911 358.184 773.885ZM80.0779 775.872C83.3627 778.123 86.7842 785.012 86.7842 789.25C86.7842 790.972 80.6254 790.443 77.8881 788.456C75.4246 786.734 75.4246 786.601 78.2987 785.144C82.1309 783.157 82.4046 778.388 78.5724 778.388C76.3826 778.388 75.8352 779.316 75.8352 782.362C75.8352 786.336 75.014 786.998 71.1818 785.541C69.5395 784.879 69.4026 784.217 70.4975 782.097C72.2767 778.918 71.1818 775.739 68.3077 775.739C65.2967 775.739 64.2018 779.316 66.3916 781.832C67.7603 783.554 67.7603 784.084 66.1179 785.144C62.5594 787.396 60.6434 786.469 61.054 782.76C61.3277 780.243 60.7802 779.051 59.001 778.653C55.3057 777.858 54.3477 782.362 57.9061 784.879L60.7802 786.998L57.9061 789.383C53.5265 793.092 50.3786 791.767 50.9261 786.336C51.7473 779.581 53.5265 777.196 59.8222 774.282C66.6653 771.235 74.1928 771.765 80.0779 775.872ZM157.542 774.282C163.564 776.931 165.207 779.183 166.712 785.806C167.533 789.383 167.26 790.045 164.523 790.575C162.606 790.84 160.28 790.178 158.774 788.853C156.448 786.601 156.448 786.469 159.185 785.012C162.88 783.157 163.017 778.388 159.322 778.388C157.132 778.388 156.584 779.316 156.584 782.362C156.584 786.336 155.763 786.998 151.931 785.541C150.289 784.879 150.152 784.217 151.247 782.097C153.026 778.918 151.931 775.739 149.057 775.739C146.046 775.739 144.951 779.316 147.141 781.832C148.51 783.554 148.51 784.084 146.867 785.144C143.309 787.396 141.393 786.469 141.803 782.627C142.077 779.845 141.529 778.918 139.203 778.653C135.097 778.123 134.823 783.025 138.929 785.144L141.803 786.601L138.929 789.118C136.055 791.767 132.633 792.429 131.402 790.575C129.896 788.058 133.318 778.918 137.013 776.136C143.172 771.368 149.468 770.838 157.542 774.282ZM241.576 775.872C244.724 777.991 248.283 785.012 248.283 789.118C248.283 791.237 241.85 790.972 239.524 788.853C237.197 786.601 237.197 786.469 239.934 785.012C243.629 783.157 243.766 778.388 240.071 778.388C237.881 778.388 237.334 779.316 237.334 782.362C237.334 786.336 236.513 786.998 232.68 785.541C231.038 784.879 230.901 784.217 231.996 782.097C233.775 778.918 232.68 775.739 229.806 775.739C226.795 775.739 225.7 779.316 227.89 781.832C229.259 783.554 229.259 784.084 227.616 785.144C224.058 787.263 222.279 786.469 222.279 782.362C222.279 779.713 221.594 778.388 220.226 778.388C216.667 778.388 216.12 782.495 219.405 784.879L222.279 786.998L219.405 789.383C215.025 793.092 211.877 791.767 212.425 786.336C213.246 779.581 215.025 777.196 221.321 774.282C228.164 771.235 235.691 771.765 241.576 775.872ZM322.326 775.872C325.61 778.123 329.032 785.012 329.032 789.25C329.032 790.972 322.873 790.443 320.136 788.456C317.672 786.734 317.672 786.601 320.547 785.144C324.379 783.157 324.652 778.388 320.82 778.388C318.63 778.388 318.083 779.316 318.083 782.362C318.083 786.336 317.262 786.998 313.43 785.541C311.787 784.879 311.65 784.217 312.745 782.097C314.525 778.918 313.43 775.739 310.555 775.739C307.545 775.739 306.45 779.316 308.639 781.832C310.008 783.554 310.008 784.084 308.366 785.144C304.807 787.396 302.891 786.469 303.302 782.76C303.575 780.243 303.028 779.051 301.249 778.653C297.554 777.858 296.595 782.362 300.154 784.879L303.028 786.998L300.154 789.383C295.774 793.092 292.626 791.767 293.174 786.469C293.721 779.978 295.774 777.064 302.07 774.282C308.913 771.235 316.441 771.765 322.326 775.872ZM75.8352 791.105C78.2987 793.357 75.972 793.622 71.045 791.37C68.034 790.045 66.9391 790.31 63.5175 792.694C59.2747 795.874 56.5375 794.549 60.5065 791.37C65.2967 787.263 71.7293 787.131 75.8352 791.105ZM156.584 791.105C159.048 793.357 156.448 793.754 152.205 791.502C149.331 789.913 141.529 792.165 141.529 794.549C141.529 795.211 140.845 795.344 140.161 794.946C138.245 793.887 140.982 790.443 144.951 788.853C148.373 787.528 153.847 788.588 156.584 791.105ZM237.334 791.105C239.797 793.357 237.197 793.754 232.954 791.502C230.08 789.913 222.279 792.165 222.279 794.549C222.279 795.211 221.594 795.344 220.91 794.946C218.994 793.887 221.731 790.443 225.7 788.853C229.122 787.528 234.596 788.588 237.334 791.105ZM318.083 791.105C320.547 793.357 317.946 793.754 313.703 791.502C310.829 789.913 303.028 792.165 303.028 794.549C303.028 795.211 302.344 795.344 301.659 794.946C299.743 793.887 302.481 790.443 306.45 788.853C309.871 787.528 315.346 788.588 318.083 791.105ZM11.9201 794.814C18.4895 797.463 21.6374 801.569 21.5005 807.265C21.2268 816.67 9.86714 821.572 3.43457 814.948C-0.671326 810.709 0.423578 805.278 5.35065 804.086C10.1409 802.894 12.8781 804.351 12.7413 807.795L12.7413 810.842L11.5095 807.795C10.004 804.351 7.12987 803.954 4.52947 807.001C2.06594 809.915 4.66634 813.491 9.45655 813.491C18.9001 813.491 18.0789 801.967 8.49851 801.172C-2.17682 800.245 -6.00899 811.107 2.61339 817.73C5.21379 819.717 7.4036 821.969 7.4036 822.631C7.4036 823.294 6.3087 822.896 4.94006 821.704C1.79221 818.922 -3.40859 818.79 -4.36663 821.307C-4.91408 822.764 -5.87213 822.499 -8.47253 820.114C-14.6314 814.551 -11.6204 799.847 -3.27173 796.006C3.98202 792.562 6.03497 792.429 11.9201 794.814ZM52.979 794.814C58.043 796.801 62.1489 801.967 62.1489 806.206C62.1489 810.047 58.5904 816.273 55.99 817.333C49.1469 819.849 41.6194 816.141 41.6194 810.312C41.6194 808.325 42.3037 806.073 43.2617 805.146C46.6833 801.834 53.9371 804.086 53.9371 808.59C53.9371 809.782 52.979 809.385 51.4735 807.398C48.052 803.424 43.9461 804.749 44.6304 809.782C45.041 813.094 45.5884 813.491 49.8312 813.491C53.8002 813.491 54.7583 812.829 55.8532 809.915C57.6324 805.014 53.9371 800.907 47.7782 800.907C39.2927 800.907 35.3237 810.842 41.2088 817.2C45.1778 821.307 43.6723 824.486 39.5664 820.777C36.966 818.392 35.8711 818.127 33.4076 819.452C29.3017 821.572 28.6174 820.379 28.6174 812.167C28.6174 803.954 31.7652 798.92 39.019 795.344C44.6304 792.429 47.0939 792.429 52.979 794.814ZM92.6693 794.814C99.1019 797.331 102.387 801.569 102.387 807.133C102.387 812.696 96.9121 818.127 91.3007 818.127C87.3317 818.127 81.3097 813.491 81.3097 810.445C81.3097 807.265 85.5525 803.556 88.974 803.556C92.2588 803.556 95.9541 808.06 93.7642 809.385C93.0799 809.782 92.2588 808.987 91.8482 807.53C91.027 804.351 87.7423 804.086 85.2787 807.001C82.8152 809.915 85.4156 813.491 90.2058 813.491C95.4066 813.491 98.2807 809.385 95.9541 804.881C93.4905 800.112 83.9101 799.45 80.7623 803.821C78.025 807.53 77.8881 813.359 80.6254 815.478C83.3627 817.598 83.2258 818.525 80.0779 820.379C76.3826 822.631 68.992 819.055 68.8552 815.081C68.3077 803.689 72.5505 797.066 82.6783 793.887C86.0999 792.694 88.016 792.827 92.6693 794.814ZM137.424 796.668C149.741 805.543 137.971 824.618 125.38 816.008C122.095 813.756 121.274 807.795 124.011 805.146C127.433 801.834 134.686 804.086 134.686 808.59C134.686 809.782 133.728 809.385 132.223 807.398C128.801 803.424 124.695 804.749 125.38 809.782C125.79 813.094 126.338 813.491 130.58 813.491C134.549 813.491 135.508 812.829 136.602 809.915C138.382 805.014 134.686 800.907 128.527 800.907C119.358 800.907 115.799 811.769 123.053 817.73C125.927 820.114 126.475 821.307 125.243 822.499C124.148 823.558 123.737 823.558 123.737 822.366C123.737 821.572 122.506 820.247 121.137 819.585C119.221 818.525 117.715 818.79 115.115 820.909L111.556 823.558L109.914 818.26C104.576 801.04 123.19 786.469 137.424 796.668ZM173.419 794.814C179.988 797.463 183.136 801.569 182.999 807.265C182.725 816.405 171.913 821.307 165.207 815.213C161.375 811.769 161.238 808.723 164.659 805.676C168.492 802.364 173.555 803.424 173.966 807.53C174.377 810.842 174.377 810.842 173.008 807.795C171.503 804.351 168.628 803.954 166.028 807.001C163.564 809.915 166.165 813.491 170.955 813.491C176.156 813.491 179.03 809.385 176.703 804.881C174.377 800.377 166.165 799.583 162.196 803.424C158.637 806.868 158.501 813.491 161.922 816.273C164.249 818.26 164.249 818.657 162.196 820.644C160.143 822.631 159.869 822.631 157.679 820.512C156.311 819.187 154.258 818.657 152.615 819.055C150.152 819.585 149.741 819.187 149.604 816.008C149.057 803.424 153.026 797.066 163.428 793.887C166.849 792.694 168.765 792.827 173.419 794.814ZM218.036 796.668C230.217 805.543 218.583 824.486 206.129 816.008C202.844 813.756 202.023 807.795 204.76 805.146C208.182 801.834 215.436 804.086 215.436 808.59C215.436 809.782 214.478 809.385 212.972 807.398C209.55 803.424 205.445 804.749 206.129 809.782C206.95 816.405 218.173 815.213 218.173 808.458C218.173 804.351 214.204 800.907 209.277 800.907C199.286 800.907 196.001 814.286 205.171 818.392C207.087 819.187 208.592 820.644 208.592 821.704C208.592 824.088 206.403 823.956 205.308 821.439C204.35 818.922 197.78 818.79 196.822 821.439C196.138 822.896 195.317 822.499 192.579 819.717C189.705 816.67 189.295 815.213 189.842 810.312C191.485 796.271 206.95 788.721 218.036 796.668ZM254.168 794.814C264.296 798.92 267.307 808.987 260.053 814.948C255.263 819.055 249.651 819.055 245.682 814.948C241.576 810.709 242.671 805.278 247.598 804.086C252.389 802.894 255.126 804.351 254.989 807.795V810.842L253.757 807.795C252.252 804.351 249.378 803.954 246.777 807.001C244.314 809.915 246.914 813.491 251.704 813.491C256.905 813.491 259.779 809.385 257.453 804.881C254.989 800.112 245.409 799.45 242.261 803.821C239.25 807.928 239.524 813.094 242.945 816.67C245.135 818.922 245.409 819.982 244.177 821.439C242.945 822.896 242.261 822.896 239.934 820.644C237.881 818.657 236.649 818.392 234.733 819.32C231.175 821.174 230.491 819.982 230.491 812.432C230.491 802.762 234.87 796.801 244.177 793.887C247.598 792.694 249.515 792.827 254.168 794.814ZM298.922 796.668C311.24 805.543 299.47 824.618 286.878 816.008C283.593 813.756 282.772 807.795 285.51 805.146C288.931 801.834 296.185 804.086 296.185 808.59C296.185 809.782 295.227 809.385 293.721 807.398C290.3 803.424 286.194 804.749 286.878 809.782C287.289 813.094 287.836 813.491 292.079 813.491C296.048 813.491 297.006 812.829 298.101 809.915C299.88 805.014 296.185 800.907 290.026 800.907C284.688 800.907 280.719 804.881 280.719 810.18C280.719 812.299 281.814 815.346 283.183 816.803C285.646 819.32 285.646 819.452 282.909 819.452C281.267 819.452 279.624 820.512 279.077 821.704C278.256 823.956 278.119 823.956 276.887 821.704C276.066 820.512 274.697 819.452 273.602 819.452C271.002 819.452 269.633 814.021 270.728 808.325C273.192 795.476 288.521 789.25 298.922 796.668ZM334.917 794.814C345.045 798.92 348.056 808.987 340.802 814.948C336.012 819.055 330.401 819.055 326.432 814.948C322.326 810.709 323.421 805.278 328.348 804.086C333.138 802.894 335.875 804.351 335.738 807.795V810.842L334.507 807.795C333.001 804.351 330.127 803.954 327.527 807.001C325.063 809.915 327.663 813.491 332.454 813.491C341.897 813.491 341.076 801.967 331.496 801.172C321.915 800.377 317.125 810.312 324.105 816.67C326.021 818.392 327.116 820.644 326.705 821.704C326.158 823.161 325.474 823.029 323.284 820.909C320.136 817.598 318.904 817.465 316.03 820.379C314.114 822.234 313.566 822.234 312.472 820.644C308.229 814.154 312.472 799.318 319.725 796.006C326.979 792.562 329.032 792.429 334.917 794.814ZM379.671 796.668C391.989 805.543 380.219 824.618 367.627 816.008C364.343 813.756 363.522 807.795 366.259 805.146C369.68 801.834 376.934 804.086 376.934 808.59C376.934 809.782 375.976 809.385 374.471 807.398C371.049 803.424 366.943 804.749 367.627 809.782C368.038 813.094 368.585 813.491 372.828 813.491C376.797 813.491 377.755 812.829 378.85 809.915C381.587 802.364 369.68 797.331 363.932 803.556C360.921 806.868 360.647 813.226 363.522 816.405C365.301 818.525 365.301 819.055 363.248 820.909C361.058 822.896 360.647 822.896 358.594 820.512C357.226 819.055 355.31 818.26 354.215 818.657C351.751 819.585 350.383 814.286 351.478 808.325C353.941 795.476 369.27 789.25 379.671 796.668ZM71.7293 795.344C71.7293 795.874 71.045 797.066 70.2238 797.861C69.4026 798.655 67.8971 801.569 66.9391 804.351C65.023 809.385 65.023 809.385 64.8861 805.543C64.8861 803.292 64.3387 800.642 63.5175 799.583C61.8751 797.066 64.3387 794.284 68.4446 794.284C70.2238 794.284 71.7293 794.814 71.7293 795.344ZM152.479 795.344C152.479 795.874 151.794 797.066 150.973 797.861C150.152 798.655 148.646 801.569 147.688 804.351C145.772 809.385 145.772 809.385 145.635 805.543C145.635 803.292 145.088 800.642 144.267 799.583C142.624 797.066 145.088 794.284 149.194 794.284C150.973 794.284 152.479 794.814 152.479 795.344ZM231.175 799.053C227.89 803.689 226.932 808.06 227.48 815.743C227.753 818.392 227.069 819.452 225.427 819.452C224.195 819.452 222.142 820.379 220.91 821.439C218.857 823.294 218.447 823.294 217.762 821.572C217.215 820.379 217.899 819.32 219.678 818.79C224.879 817.068 228.438 804.749 225.016 799.583C223.237 796.801 225.974 794.284 230.627 794.284H234.46L231.175 799.053ZM313.977 794.946C313.977 795.344 313.019 797.198 311.787 799.053C310.555 800.775 309.05 804.219 308.503 806.603L307.408 810.842L307.271 806.206C307.134 803.689 306.586 800.642 305.765 799.583C304.123 797.066 306.586 794.284 310.692 794.284C312.472 794.284 313.977 794.549 313.977 794.946ZM25.1958 814.154C25.1958 817.73 24.6484 819.452 23.2797 819.452C22.3217 819.452 20.6793 820.379 19.7213 821.439C18.4895 822.896 17.6683 823.161 16.984 822.101C16.4366 821.307 17.8052 818.922 19.8581 816.803C22.048 814.683 23.8272 812.034 23.8272 810.974C23.8272 809.782 24.1009 808.855 24.5115 808.855C24.9221 808.855 25.1958 811.239 25.1958 814.154ZM103.482 820.512C101.565 822.366 100.334 822.764 99.2388 821.704C98.2807 820.777 98.8282 819.187 101.155 816.538C103.071 814.418 104.713 811.637 104.85 810.445C104.987 809.252 105.261 810.445 105.534 813.094C105.945 816.67 105.398 818.657 103.482 820.512ZM267.854 821.704C267.307 822.896 266.349 822.764 264.022 821.042C261.011 818.79 261.011 818.79 263.475 815.611C264.98 813.889 266.212 811.504 266.212 810.312C266.349 809.12 266.896 810.842 267.444 814.154C267.991 817.465 268.128 820.909 267.854 821.704ZM185.599 821.042C183.683 823.294 183.41 823.294 181.904 821.174C180.536 819.452 180.809 818.26 183.136 814.816L186.01 810.577L186.831 814.683C187.242 817.333 186.831 819.585 185.599 821.042ZM348.74 817.465C349.425 822.499 349.288 823.558 348.193 821.704C347.372 820.512 345.456 819.452 344.087 819.452C341.623 819.452 341.623 819.187 344.498 814.948C346.14 812.564 347.645 810.577 347.645 810.709C347.782 810.709 348.193 813.756 348.74 817.465ZM66.5285 821.969C65.981 823.294 65.5704 823.294 64.6124 821.572C63.9281 820.379 62.4226 819.452 61.4645 819.452C60.3696 819.452 59.4116 818.79 59.4116 818.127C59.4116 817.333 59.9591 816.803 60.6434 816.803C61.3277 816.803 62.4226 815.478 62.97 813.756C63.9281 811.107 64.065 811.107 65.5704 815.478C66.5285 817.995 66.9391 820.909 66.5285 821.969ZM148.236 822.101C148.236 823.691 147.962 823.558 146.867 821.704C145.088 818.79 139.34 818.79 137.697 821.572C136.876 823.029 136.055 823.294 135.508 822.366C135.097 821.572 136.466 819.849 138.792 818.657C140.982 817.333 143.309 815.081 143.856 813.491C144.54 811.239 144.951 811.504 146.457 815.478C147.415 817.995 148.236 821.042 148.236 822.101ZM308.503 817.068C308.503 818.392 307.545 819.452 306.45 819.452C305.492 819.452 303.986 820.379 303.302 821.572C302.344 823.294 301.933 823.426 300.428 821.572C299.059 819.982 299.196 819.32 301.523 818.26C303.028 817.465 304.67 815.478 305.081 814.021C305.902 811.769 306.313 811.504 307.271 812.961C307.955 814.021 308.503 815.876 308.503 817.068ZM386.788 820.512C384.325 822.896 384.188 822.896 382.546 820.644C381.587 819.055 381.587 818.127 382.409 818.127C383.23 818.127 384.598 816.538 385.42 814.683L387.062 811.239L388.294 814.551C389.115 817.2 388.841 818.525 386.788 820.512ZM-9.01998 825.413C-9.01998 827.797 -9.70429 828.725 -11.7572 828.725C-14.4945 828.725 -15.5894 825.016 -13.5365 823.029C-11.4835 820.909 -9.01998 822.234 -9.01998 825.413ZM3.02398 825.81C3.43457 828.062 2.75025 828.725 0.697306 828.725C-1.21878 828.725 -2.17682 827.93 -2.17682 826.34C-2.17682 821.307 2.33966 820.909 3.02398 825.81ZM14.2468 825.413C14.2468 827.797 13.5624 828.725 11.6464 828.725C9.73027 828.725 9.31968 827.93 9.86714 825.413C10.1409 823.558 11.3726 822.101 12.3307 822.101C13.4256 822.101 14.2468 823.426 14.2468 825.413ZM26.5644 825.413C26.5644 827.797 25.8801 828.725 23.8272 828.725C21.0899 828.725 19.995 825.016 22.048 823.029C24.1009 820.909 26.5644 822.234 26.5644 825.413ZM38.6084 825.81C39.019 828.062 38.3347 828.725 36.2817 828.725C34.0919 828.725 33.4076 827.93 33.4076 825.281C33.4076 820.909 37.9241 821.307 38.6084 825.81ZM49.8312 825.413C49.8312 827.797 49.1469 828.725 47.2308 828.725C45.3147 828.725 44.9041 827.93 45.4516 825.413C45.7253 823.558 46.9571 822.101 47.9151 822.101C49.01 822.101 49.8312 823.426 49.8312 825.413ZM61.8751 825.81C62.2857 828.062 61.6014 828.725 59.5485 828.725C57.6324 828.725 56.6743 827.93 56.6743 826.34C56.6743 821.307 61.1908 820.909 61.8751 825.81ZM74.1928 825.81C74.6034 828.062 73.9191 828.725 71.8661 828.725C69.6763 828.725 68.992 827.93 68.992 825.281C68.992 820.909 73.5085 821.307 74.1928 825.81ZM85.4156 825.413C85.4156 827.797 84.7313 828.725 82.6783 828.725C79.9411 828.725 78.8462 825.016 80.8991 823.029C82.9521 820.909 85.4156 822.234 85.4156 825.413ZM97.4596 825.81C97.8701 828.062 97.1858 828.725 95.1329 828.725C93.2168 828.725 92.2588 827.93 92.2588 826.34C92.2588 821.307 96.7752 820.909 97.4596 825.81ZM109.23 824.221C110.598 827.665 110.188 828.725 107.314 828.725C105.261 828.725 104.576 827.797 104.576 825.413C104.576 821.704 107.861 820.909 109.23 824.221ZM121 825.413C121 827.797 120.316 828.725 118.263 828.725C115.525 828.725 114.431 825.016 116.484 823.029C118.536 820.909 121 822.234 121 825.413ZM133.044 825.81C133.455 828.062 132.77 828.725 130.717 828.725C128.801 828.725 127.843 827.93 127.843 826.34C127.843 821.307 132.36 820.909 133.044 825.81ZM144.267 825.413C144.267 827.532 143.446 828.725 142.214 828.725C140.982 828.725 140.161 827.532 140.161 825.413C140.161 823.294 140.982 822.101 142.214 822.101C143.446 822.101 144.267 823.294 144.267 825.413ZM156.311 825.81C156.721 828.062 156.037 828.725 153.984 828.725C152.068 828.725 151.11 827.93 151.11 826.34C151.11 821.307 155.626 820.909 156.311 825.81ZM168.628 825.81C169.039 828.062 168.355 828.725 166.302 828.725C164.112 828.725 163.428 827.93 163.428 825.281C163.428 820.909 167.944 821.307 168.628 825.81ZM179.851 825.413C179.851 827.797 179.167 828.725 177.251 828.725C175.335 828.725 174.924 827.93 175.472 825.413C175.745 823.558 176.977 822.101 177.935 822.101C179.03 822.101 179.851 823.426 179.851 825.413ZM191.895 825.81C192.306 828.062 191.621 828.725 189.568 828.725C187.652 828.725 186.694 827.93 186.694 826.34C186.694 821.307 191.211 820.909 191.895 825.81ZM204.213 825.81C204.623 828.062 203.939 828.725 201.886 828.725C199.696 828.725 199.012 827.93 199.012 825.281C199.012 820.909 203.528 821.307 204.213 825.81ZM215.436 825.413C215.436 827.797 214.751 828.725 212.698 828.725C209.961 828.725 208.866 825.016 210.919 823.029C212.972 820.909 215.436 822.234 215.436 825.413ZM227.48 825.81C227.89 828.062 227.206 828.725 225.153 828.725C223.237 828.725 222.279 827.93 222.279 826.34C222.279 821.307 226.795 820.909 227.48 825.81ZM239.25 824.221C240.618 827.665 240.208 828.725 237.334 828.725C235.281 828.725 234.596 827.797 234.596 825.413C234.596 821.704 237.881 820.909 239.25 824.221ZM251.02 825.413C251.02 827.797 250.336 828.725 248.283 828.725C245.546 828.725 244.451 825.016 246.504 823.029C248.556 820.909 251.02 822.234 251.02 825.413ZM263.064 825.81C263.475 828.062 262.79 828.725 260.737 828.725C258.547 828.725 257.863 827.93 257.863 825.281C257.863 820.909 262.38 821.307 263.064 825.81ZM274.56 825.413C275.108 827.93 274.697 828.725 272.781 828.725C270.865 828.725 270.181 827.797 270.181 825.413C270.181 823.426 271.002 822.101 272.097 822.101C273.055 822.101 274.287 823.558 274.56 825.413ZM286.604 825.413C286.604 827.797 285.92 828.725 283.867 828.725C281.13 828.725 280.035 825.016 282.088 823.029C284.141 820.909 286.604 822.234 286.604 825.413ZM298.648 825.81C299.059 828.062 298.375 828.725 296.322 828.725C294.132 828.725 293.448 827.93 293.448 825.281C293.448 820.909 297.964 821.307 298.648 825.81ZM309.871 825.413C309.871 827.797 309.187 828.725 307.134 828.725C304.397 828.725 303.302 825.016 305.355 823.029C307.408 820.909 309.871 822.234 309.871 825.413ZM321.915 825.81C322.326 828.062 321.641 828.725 319.588 828.725C317.672 828.725 316.714 827.93 316.714 826.34C316.714 821.307 321.231 820.909 321.915 825.81ZM333.685 824.221C335.054 827.665 334.643 828.725 331.769 828.725C329.716 828.725 329.032 827.797 329.032 825.413C329.032 821.704 332.317 820.909 333.685 824.221ZM345.456 825.413C345.456 827.797 344.771 828.725 342.718 828.725C339.981 828.725 338.886 825.016 340.939 823.029C342.992 820.909 345.456 822.234 345.456 825.413ZM357.5 825.81C357.91 828.062 357.226 828.725 355.173 828.725C353.257 828.725 352.299 827.93 352.299 826.34C352.299 821.307 356.815 820.909 357.5 825.81ZM369.27 824.221C370.638 827.665 370.228 828.725 367.354 828.725C365.301 828.725 364.616 827.797 364.616 825.413C364.616 821.704 367.901 820.909 369.27 824.221ZM381.04 825.413C381.04 827.797 380.356 828.725 378.303 828.725C375.566 828.725 374.471 825.016 376.524 823.029C378.576 820.909 381.04 822.234 381.04 825.413ZM393.084 825.81C393.495 828.062 392.81 828.725 390.757 828.725C388.567 828.725 387.883 827.93 387.883 825.281C387.883 820.909 392.4 821.307 393.084 825.81Z" fill="#FFEFD5"/>
<path d="M24.2377 777.461C22.4585 779.845 21.0898 782.892 21.0898 784.084C21.0898 786.336 26.5644 795.609 27.933 795.609C29.3016 795.609 34.7762 786.734 34.7762 784.482C34.7762 781.832 29.7122 773.09 28.2067 773.09C27.6593 773.09 25.8801 775.077 24.2377 777.461ZM30.3965 784.084C30.6703 785.674 29.9859 786.336 28.0699 786.336C26.4275 786.336 25.1957 785.541 25.1957 784.614C25.1957 780.508 29.5754 780.11 30.3965 784.084Z" fill="#FFEFD5"/>
<path d="M104.987 777.461C103.208 779.845 101.839 782.892 101.839 784.084C101.839 786.336 107.314 795.609 108.683 795.609C110.051 795.609 115.526 786.734 115.526 784.482C115.526 781.832 110.462 773.09 108.956 773.09C108.409 773.09 106.63 775.077 104.987 777.461ZM111.146 784.084C111.42 785.674 110.735 786.336 108.819 786.336C107.177 786.336 105.945 785.541 105.945 784.614C105.945 780.508 110.325 780.11 111.146 784.084Z" fill="#FFEFD5"/>
<path d="M185.736 777.461C183.957 779.845 182.588 782.892 182.588 784.084C182.588 786.336 188.063 795.609 189.432 795.609C190.8 795.609 196.275 786.734 196.275 784.482C196.275 781.832 191.211 773.09 189.705 773.09C189.158 773.09 187.379 775.077 185.736 777.461ZM191.895 784.084C192.169 785.674 191.484 786.336 189.568 786.336C187.926 786.336 186.694 785.541 186.694 784.614C186.694 780.508 191.074 780.11 191.895 784.084Z" fill="#FFEFD5"/>
<path d="M266.486 777.461C264.707 779.845 263.338 782.892 263.338 784.084C263.338 786.336 268.812 795.609 270.181 795.609C271.55 795.609 277.024 786.734 277.024 784.482C277.024 781.832 271.96 773.09 270.455 773.09C269.907 773.09 268.128 775.077 266.486 777.461ZM272.645 784.084C272.918 785.674 272.234 786.336 270.318 786.336C268.676 786.336 267.444 785.541 267.444 784.614C267.444 780.508 271.823 780.11 272.645 784.084Z" fill="#FFEFD5"/>
<path d="M347.235 777.461C345.456 779.845 344.087 782.892 344.087 784.084C344.087 786.336 349.561 795.609 350.93 795.609C352.299 795.609 357.773 786.734 357.773 784.349C357.773 781.965 352.436 773.09 350.93 773.09C350.519 773.09 348.877 775.077 347.235 777.461ZM353.394 784.084C353.667 785.674 352.983 786.336 351.067 786.336C349.425 786.336 348.193 785.541 348.193 784.614C348.193 780.508 352.572 780.11 353.394 784.084Z" fill="#FFEFD5"/>
<path d="M436.017 738.12C434.512 741.961 435.196 743.948 437.933 743.948C439.439 743.948 440.671 743.153 440.671 742.094C440.671 739.312 439.165 736 437.933 736C437.386 736 436.428 736.927 436.017 738.12Z" fill="#FFEFD5"/>
<path d="M516.903 738.914C515.945 742.358 516.766 743.948 519.503 743.948C521.556 743.948 521.967 741.564 520.598 738.12C519.366 735.205 517.724 735.47 516.903 738.914Z" fill="#FFEFD5"/>
<path d="M597.516 738.914C596.284 743.551 596.421 743.948 599.432 743.948C602.169 743.948 602.853 741.961 601.348 738.12C600.116 735.073 598.474 735.47 597.516 738.914Z" fill="#FFEFD5"/>
<path d="M678.265 738.914C677.033 743.551 677.17 743.948 680.181 743.948C682.918 743.948 683.602 741.961 682.097 738.12C680.865 735.073 679.223 735.47 678.265 738.914Z" fill="#FFEFD5"/>
<path d="M759.014 738.914C757.782 743.551 757.919 743.948 760.93 743.948C763.667 743.948 764.352 741.961 762.846 738.12C761.615 735.073 759.972 735.47 759.014 738.914Z" fill="#FFEFD5"/>
<path d="M437.659 747.392C436.975 747.922 436.564 749.511 436.564 750.968C436.564 752.425 435.333 753.75 433.69 754.147C431.637 754.677 431.09 755.605 431.637 757.856C432.322 760.506 432.048 760.771 429.448 760.108C426.984 759.578 426.71 759.843 427.258 762.228C428.216 765.804 426.437 767.129 424.247 764.48C423.289 763.42 421.646 762.493 420.551 762.493C419.457 762.493 419.046 761.83 419.457 761.168C420.688 759.181 417.54 755.869 414.393 755.869C413.024 755.869 411.518 754.942 410.971 753.75C410.56 752.558 408.781 751.896 406.591 752.028C404.675 752.293 401.801 751.763 400.296 750.968C397.011 749.379 394.137 750.041 394.137 752.69C394.137 753.75 395.505 754.545 397.285 754.545C404.402 754.545 411.382 757.724 417.404 763.42C422.741 768.586 423.289 769.513 421.373 770.97C420.141 771.765 418.772 773.885 418.088 775.474L417.13 778.653L413.571 775.342C408.371 770.705 404.675 769.116 399.064 769.116C392.358 769.116 392.905 771.235 399.748 772.295C407.549 773.487 412.887 777.461 414.666 783.422C416.446 789.913 416.446 789.913 412.887 790.575C411.108 790.84 408.781 790.178 407.276 788.853C404.949 786.601 404.949 786.469 407.686 785.012C411.382 783.157 411.518 778.388 407.823 778.388C405.633 778.388 405.086 779.316 405.086 782.362C405.086 786.469 403.307 787.263 399.748 785.144C398.106 784.084 398.106 783.554 399.475 781.832C401.664 779.316 400.569 775.739 397.695 775.739C394.684 775.739 393.863 777.991 395.642 781.303C396.874 783.422 396.874 784.349 395.642 784.747C392.495 785.806 394.274 788.323 398.38 788.456C400.706 788.588 403.58 789.648 404.812 790.972C407.002 793.224 407.002 793.224 403.717 792.297C398.106 790.84 395.095 790.84 394.547 792.562C394.137 793.754 395.369 794.284 398.38 794.284C402.486 794.284 402.622 794.416 400.706 796.536C396.327 801.305 395.369 805.411 394.684 818.922L394 832.698H599.432H804.726V826.87C804.726 823.558 804.179 820.644 803.495 820.247C801.168 818.79 800.757 811.372 802.673 805.808C803.768 802.762 804.726 799.318 804.726 798.258C804.726 795.211 801.989 798.655 799.936 804.351C798.02 809.385 798.02 809.385 797.883 805.543C797.883 803.292 797.336 800.642 796.515 799.583C794.872 797.066 797.336 794.284 801.442 794.284C804.863 794.284 805.821 792.429 803.221 790.972C801.442 789.913 793.777 792.827 793.777 794.549C793.777 795.211 793.093 795.344 792.272 794.814C789.808 793.357 795.83 788.588 800.484 788.456C804.589 788.323 806.369 785.806 803.221 784.747C801.989 784.349 801.989 783.422 803.221 781.303C805 777.991 804.179 775.739 801.168 775.739C798.294 775.739 797.199 779.316 799.389 781.832C800.757 783.554 800.757 784.084 799.115 785.144C795.557 787.396 793.64 786.469 794.051 782.76C794.325 780.243 793.777 779.051 791.998 778.653C788.303 777.858 787.345 782.362 790.903 784.879L793.777 786.998L790.903 789.383C786.524 793.092 783.376 791.767 783.923 786.336C784.197 783.819 785.018 780.64 785.839 779.316C787.345 776.401 797.199 771.898 801.715 771.765C803.358 771.765 804.726 771.103 804.726 770.441C804.726 768.454 795.557 768.851 791.04 771.103C788.85 772.163 786.113 774.414 785.018 776.004C783.786 777.594 782.691 778.653 782.555 778.256C782.281 777.991 780.775 775.739 778.996 773.487L775.848 769.116L782.007 763.287C787.071 758.386 789.535 757.062 796.378 755.737C801.031 754.677 804.726 753.353 804.726 752.425C804.726 750.041 801.715 749.379 798.567 750.968C797.062 751.763 794.188 752.293 792.272 752.028C790.082 751.896 788.303 752.558 787.892 753.75C787.345 754.942 785.839 755.869 784.471 755.869C781.323 755.869 778.175 759.181 779.407 761.168C779.817 761.83 779.407 762.493 778.312 762.493C777.217 762.493 775.574 763.42 774.616 764.48C772.427 767.129 770.647 765.804 771.605 762.228C772.153 759.843 771.879 759.578 769.416 760.108C766.405 760.903 765.31 759.314 767.773 757.856C769.689 756.664 767.91 754.28 765.72 755.075C763.804 755.737 762.299 753.22 762.299 749.114C762.299 747.789 761.751 746.597 760.93 746.597C760.246 746.597 759.562 748.054 759.562 749.909C759.562 752.293 758.603 753.618 755.866 754.677C753.129 755.605 752.718 756.399 753.813 757.459C756.277 759.843 755.729 761.036 752.445 760.108C749.981 759.578 749.707 759.843 750.255 762.228C751.213 765.672 749.023 767.659 747.791 764.612C747.381 763.42 745.738 762.493 744.37 762.493C742.864 762.493 742.18 761.83 742.59 760.771C743.412 758.386 739.716 755.34 737.116 756.267C735.884 756.797 734.789 756.002 734.242 754.412C733.558 752.425 732.326 751.763 729.725 752.028C727.672 752.293 724.661 751.763 723.156 750.836C720.829 749.644 719.734 749.776 717.681 751.101C715.902 752.425 714.397 752.558 712.754 751.763C710.975 750.836 709.743 751.233 707.964 753.22C706.595 754.677 704.543 755.869 703.311 755.869C700.437 755.869 697.426 759.314 698.657 761.168C699.068 761.83 698.657 762.493 697.562 762.493C696.468 762.493 694.825 763.42 693.867 764.48C691.677 767.129 689.898 765.804 690.856 762.228C691.404 759.843 691.13 759.578 688.666 760.108C685.382 761.036 684.834 759.843 687.298 757.459C688.393 756.399 687.982 755.605 685.245 754.677C682.508 753.618 681.55 752.293 681.55 749.909C681.55 747.922 681.002 746.729 680.181 747.259C679.497 747.657 678.812 749.246 678.812 750.703C678.812 752.293 677.444 753.75 675.117 754.677C672.38 755.605 671.969 756.399 673.064 757.459C675.528 759.843 674.98 761.036 671.695 760.108C669.232 759.578 668.958 759.843 669.506 762.228C670.464 765.804 668.684 767.129 666.495 764.48C665.537 763.42 663.894 762.493 662.799 762.493C661.704 762.493 661.294 761.83 661.704 761.168C662.936 759.314 659.925 755.869 657.051 755.869C655.819 755.869 653.766 754.677 652.398 753.22C650.618 751.233 649.387 750.836 647.607 751.763C645.965 752.558 644.46 752.425 642.68 751.101C640.627 749.776 639.532 749.644 637.206 750.836C635.7 751.763 632.689 752.293 630.773 752.028C628.583 751.896 626.804 752.558 626.394 753.75C625.846 754.942 624.341 755.869 622.972 755.869C619.824 755.869 616.676 759.181 617.908 761.168C618.319 761.83 617.908 762.493 616.813 762.493C615.718 762.493 614.076 763.42 613.118 764.48C610.928 767.129 609.149 765.804 610.107 762.228C610.654 759.843 610.381 759.578 607.917 760.108C604.632 761.036 604.085 759.843 606.548 757.459C607.643 756.399 607.233 755.605 604.496 754.677C601.758 753.618 600.8 752.293 600.8 749.909C600.8 748.054 600.253 746.597 599.432 746.597C598.747 746.597 598.063 748.054 598.063 749.909C598.063 752.293 597.105 753.618 594.368 754.677C591.63 755.605 591.22 756.399 592.315 757.459C594.778 759.843 594.231 761.036 590.946 760.108C588.483 759.578 588.209 759.843 588.756 762.228C589.714 765.804 587.935 767.129 585.745 764.48C584.787 763.42 583.145 762.493 582.05 762.493C580.955 762.493 580.544 761.83 580.955 761.168C582.187 759.181 579.039 755.869 575.891 755.869C574.523 755.869 573.017 754.942 572.47 753.75C572.059 752.558 570.28 751.896 568.09 752.028C566.174 752.293 563.3 751.763 561.794 750.968C559.741 749.909 558.236 749.909 556.32 750.968C554.814 751.763 551.94 752.293 550.024 752.028C547.697 751.896 546.055 752.558 545.644 753.75C545.097 754.942 543.591 755.869 542.223 755.869C539.075 755.869 535.927 759.181 537.159 761.168C537.569 761.83 537.159 762.493 536.064 762.493C534.969 762.493 533.327 763.42 532.369 764.48C530.179 767.129 528.4 765.804 529.358 762.228C529.905 759.843 529.631 759.578 527.168 760.108C524.157 760.903 523.062 759.314 525.525 757.856C527.442 756.664 525.662 754.28 523.473 755.075C521.556 755.737 520.051 753.22 520.051 749.114C520.051 747.789 519.504 746.597 518.682 746.597C517.998 746.597 517.314 748.054 517.314 749.909C517.314 752.293 516.356 753.618 513.618 754.677C510.881 755.605 510.471 756.399 511.565 757.459C514.029 759.843 513.482 761.036 510.197 760.108C507.733 759.578 507.46 759.843 508.007 762.228C508.965 765.804 507.186 767.129 504.996 764.48C504.038 763.42 502.396 762.493 501.301 762.493C500.206 762.493 499.795 761.83 500.206 761.168C501.438 759.181 498.29 755.869 495.279 755.869C493.91 755.869 492.268 754.942 491.583 753.75C490.625 752.161 489.12 751.763 486.519 752.293C484.056 752.69 481.866 752.161 480.771 751.101C479.129 749.644 478.171 749.511 475.844 750.836C474.202 751.763 471.191 752.293 469.001 752.028C466.401 751.763 465.032 752.425 464.211 754.147C463.663 755.472 462.021 756.532 460.515 756.532C459.01 756.532 457.231 757.856 456.41 759.446C455.725 761.168 454.357 762.493 453.535 762.493C452.577 762.493 451.483 763.42 451.072 764.612C449.84 767.659 447.65 765.672 448.608 762.228C449.156 759.843 448.882 759.578 446.419 760.108C443.134 761.036 442.586 759.843 445.05 757.459C446.145 756.399 445.734 755.605 442.997 754.677C440.67 753.75 439.302 752.161 439.028 749.909C438.754 747.922 438.207 746.862 437.659 747.392ZM485.151 756.002C491.72 757.724 499.111 762.89 501.164 766.996C502.122 769.381 501.848 770.97 499.795 774.149L497.195 778.388L494.594 775.607C486.246 766.732 468.59 766.864 462.021 776.004C460.789 777.594 459.694 778.653 459.557 778.256C459.284 777.991 457.778 775.872 455.999 773.487L452.988 769.248L457.231 764.48C462.021 759.181 465.306 757.194 471.465 755.737C477.487 754.412 479.129 754.412 485.151 756.002ZM572.196 757.856C574.112 758.916 577.67 761.83 579.997 764.347L584.24 769.116L581.229 773.62L578.218 778.123L574.796 775.077C569.595 770.441 566.037 769.116 559.057 769.116C551.94 769.116 545.918 771.633 542.77 776.004C541.538 777.594 540.444 778.653 540.307 778.256C540.033 777.991 538.527 775.739 536.748 773.487L533.6 769.116L539.622 763.287C543.181 759.843 547.834 756.929 550.982 756.134C557.141 754.545 566.995 755.34 572.196 757.856ZM652.945 757.989C654.998 758.916 658.556 762.095 660.883 764.745C664.305 768.851 664.852 770.043 663.347 771.103C662.252 771.898 661.02 773.885 660.336 775.474L659.378 778.653L655.819 775.342C650.345 770.441 646.786 769.116 639.806 769.116C632.689 769.116 626.667 771.633 623.52 776.004C622.288 777.594 621.193 778.653 620.919 778.256C620.645 777.991 619.14 775.739 617.361 773.487L614.35 769.116L620.372 763.42C623.93 759.843 628.447 756.929 631.731 756.134C637.89 754.545 647.744 755.34 652.945 757.989ZM733.694 757.989C735.747 758.916 739.306 761.963 741.496 764.612L745.601 769.381L742.59 773.752L739.716 778.123L736.295 775.077C731.094 770.441 727.536 769.116 720.555 769.116C713.439 769.116 707.417 771.633 704.269 776.004C703.037 777.594 701.942 778.653 701.668 778.256C701.395 777.991 699.889 775.739 698.11 773.487L695.099 769.116L701.121 763.42C704.679 759.843 709.196 756.929 712.481 756.134C718.639 754.545 728.494 755.34 733.694 757.989ZM439.302 758.386C439.302 759.181 442.586 763.155 446.555 767.394C455.452 776.666 457.094 779.448 457.094 785.541C457.094 788.985 456.546 790.31 455.041 790.31C453.262 790.31 453.125 789.78 454.357 787.661C456.41 783.952 453.262 778.123 444.776 769.248L437.933 761.963L430.679 769.646C422.057 779.051 420.004 783.157 421.646 787.528C423.015 790.972 422.468 792.429 420.278 790.972C417.951 789.648 418.499 780.64 421.099 777.064C422.331 775.209 426.3 770.573 429.995 766.732C433.553 762.758 436.564 759.049 436.564 758.386C436.564 757.724 437.249 757.194 437.933 757.194C438.754 757.194 439.302 757.724 439.302 758.386ZM520.051 758.386C520.051 759.049 523.062 762.758 526.62 766.732C536.201 776.931 537.843 779.713 537.843 785.276C537.843 788.985 537.296 790.31 535.79 790.31C534.011 790.31 533.874 789.78 535.106 787.661C537.159 783.952 534.011 778.123 525.525 769.248L518.682 761.963L511.429 769.646C502.806 779.051 500.753 783.157 502.396 787.528C503.764 790.972 503.217 792.429 501.027 790.972C499.111 789.913 499.111 781.567 501.164 777.991C501.985 776.401 505.954 771.633 510.06 767.394C514.029 763.155 517.314 759.181 517.314 758.386C517.314 757.724 517.998 757.194 518.682 757.194C519.504 757.194 520.051 757.724 520.051 758.386ZM600.8 758.386C600.8 759.181 604.222 763.287 608.328 767.526C616.676 776.269 619.824 782.23 618.866 787.131C617.908 791.9 615.855 790.972 616.129 785.806C616.266 780.64 614.76 778.123 605.727 768.454L599.432 761.963L592.315 769.646C583.555 779.051 581.503 783.157 583.145 787.528C584.514 790.972 583.966 792.429 581.776 790.972C579.86 789.913 579.86 781.567 581.913 777.991C582.734 776.401 586.703 771.633 590.809 767.394C594.778 763.155 598.063 759.181 598.063 758.386C598.063 757.724 598.747 757.194 599.432 757.194C600.253 757.194 600.8 757.724 600.8 758.386ZM681.55 758.386C681.55 759.181 684.834 763.155 688.803 767.394C697.699 776.666 699.342 779.448 699.342 785.541C699.342 788.985 698.794 790.31 697.289 790.31C695.51 790.31 695.373 789.78 696.604 787.661C698.657 783.952 695.646 778.123 687.161 769.116L680.318 761.83L673.064 769.646C664.305 779.051 662.252 783.025 663.894 787.528C665.263 790.972 664.715 792.429 662.526 790.972C660.199 789.648 660.746 780.64 663.347 777.064C664.578 775.209 668.547 770.573 672.243 766.732C675.801 762.758 678.812 759.049 678.812 758.386C678.812 757.724 679.497 757.194 680.181 757.194C681.002 757.194 681.55 757.724 681.55 758.386ZM762.299 758.386C762.299 759.181 765.583 763.155 769.553 767.394C778.449 776.666 780.091 779.448 780.091 785.541C780.091 788.985 779.544 790.31 778.038 790.31C776.259 790.31 776.122 789.78 777.354 787.661C779.407 783.952 776.259 778.123 767.773 769.248L760.93 761.963L753.676 769.646C745.054 779.051 743.001 783.157 744.643 787.528C746.012 790.972 745.465 792.429 743.275 790.972C740.948 789.648 741.496 780.64 744.096 777.064C745.328 775.209 749.297 770.573 752.992 766.732C756.551 762.758 759.562 759.049 759.562 758.386C759.562 757.724 760.246 757.194 760.93 757.194C761.751 757.194 762.299 757.724 762.299 758.386ZM445.187 773.885C451.756 781.303 453.535 787.396 449.977 790.178C440.944 797.198 437.796 800.377 437.112 803.027C436.154 806.603 433.827 805.941 433.827 802.099C433.827 800.642 432.185 797.993 430.269 796.006C426.573 792.429 424.247 787.661 424.247 783.554C424.247 781.435 436.154 766.732 437.933 766.732C438.344 766.732 441.492 769.911 445.187 773.885ZM525.936 773.885C532.506 781.303 534.285 787.396 530.726 790.178C521.693 797.198 518.545 800.377 517.861 803.027C516.903 806.603 514.576 805.941 514.576 802.099C514.576 800.642 512.934 797.993 511.018 796.006C507.323 792.429 504.996 787.661 504.996 783.554C504.996 781.435 516.903 766.732 518.682 766.732C519.093 766.732 522.241 769.911 525.936 773.885ZM606.685 773.885C613.255 781.303 615.034 787.396 611.476 790.178C602.443 797.198 599.295 800.377 598.61 803.027C597.926 805.808 595.052 807.795 595.463 805.146C596.01 801.834 594.915 799.053 591.767 796.006C588.072 792.429 585.745 787.661 585.745 783.554C585.745 781.435 597.652 766.732 599.432 766.732C599.842 766.732 602.99 769.911 606.685 773.885ZM687.435 773.885C694.004 781.303 695.783 787.396 692.225 790.178C683.192 797.198 680.044 800.377 679.36 803.027C678.402 806.603 676.075 805.941 676.075 802.099C676.075 800.642 674.433 797.993 672.517 796.006C668.821 792.429 666.495 787.661 666.495 783.554C666.495 781.435 678.402 766.732 680.181 766.732C680.591 766.732 683.739 769.911 687.435 773.885ZM768.184 773.885C774.753 781.303 776.533 787.396 772.974 790.178C763.941 797.198 760.793 800.377 760.109 803.027C759.151 806.603 756.824 806.073 756.824 802.232C756.824 800.907 754.634 797.331 752.034 794.284C745.328 786.601 745.601 782.76 753.813 773.885C757.372 769.911 760.52 766.732 760.93 766.732C761.341 766.732 764.489 769.911 768.184 773.885ZM490.078 775.872C493.363 778.123 496.784 785.012 496.784 789.25C496.784 790.972 490.625 790.443 487.888 788.456C485.425 786.734 485.425 786.601 488.299 785.144C492.131 783.157 492.405 778.388 488.572 778.388C486.383 778.388 485.835 779.316 485.835 782.362C485.835 786.336 485.014 786.998 481.182 785.541C479.539 784.879 479.403 784.217 480.498 782.097C482.277 778.918 481.182 775.739 478.308 775.739C475.297 775.739 474.202 779.316 476.392 781.832C477.76 783.554 477.76 784.084 476.118 785.144C472.559 787.396 470.643 786.469 471.054 782.76C471.328 780.243 470.78 779.051 469.001 778.653C465.306 777.858 464.348 782.362 467.906 784.879L470.78 786.998L467.906 789.383C463.526 793.092 460.379 791.767 460.926 786.336C461.747 779.581 463.526 777.196 469.822 774.282C476.665 771.235 484.193 771.765 490.078 775.872ZM567.542 774.282C573.564 776.931 575.207 779.183 576.712 785.806C577.533 789.383 577.26 790.045 574.523 790.575C572.606 790.84 570.28 790.178 568.774 788.853C566.448 786.601 566.448 786.469 569.185 785.012C572.88 783.157 573.017 778.388 569.322 778.388C567.132 778.388 566.584 779.316 566.584 782.362C566.584 786.336 565.763 786.998 561.931 785.541C560.289 784.879 560.152 784.217 561.247 782.097C563.026 778.918 561.931 775.739 559.057 775.739C556.046 775.739 554.951 779.316 557.141 781.832C558.51 783.554 558.51 784.084 556.867 785.144C553.309 787.396 551.393 786.469 551.803 782.627C552.077 779.845 551.529 778.918 549.203 778.653C545.097 778.123 544.823 783.025 548.929 785.144L551.803 786.601L548.929 789.118C546.055 791.767 542.633 792.429 541.402 790.575C539.896 788.058 543.318 778.918 547.013 776.136C553.172 771.368 559.468 770.838 567.542 774.282ZM651.576 775.872C654.724 777.991 658.283 785.012 658.283 789.118C658.283 791.237 651.85 790.972 649.524 788.853C647.197 786.601 647.197 786.469 649.934 785.012C653.629 783.157 653.766 778.388 650.071 778.388C647.881 778.388 647.334 779.316 647.334 782.362C647.334 786.336 646.513 786.998 642.68 785.541C641.038 784.879 640.901 784.217 641.996 782.097C643.775 778.918 642.68 775.739 639.806 775.739C636.795 775.739 635.7 779.316 637.89 781.832C639.259 783.554 639.259 784.084 637.616 785.144C634.058 787.263 632.279 786.469 632.279 782.362C632.279 779.713 631.594 778.388 630.226 778.388C626.667 778.388 626.12 782.495 629.405 784.879L632.279 786.998L629.405 789.383C625.025 793.092 621.877 791.767 622.425 786.336C623.246 779.581 625.025 777.196 631.321 774.282C638.164 771.235 645.691 771.765 651.576 775.872ZM732.326 775.872C735.61 778.123 739.032 785.012 739.032 789.25C739.032 790.972 732.873 790.443 730.136 788.456C727.672 786.734 727.672 786.601 730.547 785.144C734.379 783.157 734.652 778.388 730.82 778.388C728.63 778.388 728.083 779.316 728.083 782.362C728.083 786.336 727.262 786.998 723.43 785.541C721.787 784.879 721.65 784.217 722.745 782.097C724.525 778.918 723.43 775.739 720.555 775.739C717.545 775.739 716.45 779.316 718.639 781.832C720.008 783.554 720.008 784.084 718.366 785.144C714.807 787.396 712.891 786.469 713.302 782.76C713.575 780.243 713.028 779.051 711.249 778.653C707.554 777.858 706.595 782.362 710.154 784.879L713.028 786.998L710.154 789.383C705.774 793.092 702.626 791.767 703.174 786.469C703.721 779.978 705.774 777.064 712.07 774.282C718.913 771.235 726.441 771.765 732.326 775.872ZM485.835 791.105C488.299 793.357 485.972 793.622 481.045 791.37C478.034 790.045 476.939 790.31 473.517 792.694C469.275 795.874 466.537 794.549 470.507 791.37C475.297 787.263 481.729 787.131 485.835 791.105ZM566.584 791.105C569.048 793.357 566.448 793.754 562.205 791.502C559.331 789.913 551.529 792.165 551.529 794.549C551.529 795.211 550.845 795.344 550.161 794.946C548.245 793.887 550.982 790.443 554.951 788.853C558.373 787.528 563.847 788.588 566.584 791.105ZM647.334 791.105C649.797 793.357 647.197 793.754 642.954 791.502C640.08 789.913 632.279 792.165 632.279 794.549C632.279 795.211 631.594 795.344 630.91 794.946C628.994 793.887 631.731 790.443 635.7 788.853C639.122 787.528 644.596 788.588 647.334 791.105ZM728.083 791.105C730.547 793.357 727.946 793.754 723.703 791.502C720.829 789.913 713.028 792.165 713.028 794.549C713.028 795.211 712.344 795.344 711.659 794.946C709.743 793.887 712.481 790.443 716.45 788.853C719.871 787.528 725.346 788.588 728.083 791.105ZM421.92 794.814C428.49 797.463 431.637 801.569 431.501 807.265C431.227 816.67 419.867 821.572 413.435 814.948C409.329 810.709 410.424 805.278 415.351 804.086C420.141 802.894 422.878 804.351 422.741 807.795V810.842L421.509 807.795C420.004 804.351 417.13 803.954 414.529 807.001C412.066 809.915 414.666 813.491 419.457 813.491C428.9 813.491 428.079 801.967 418.499 801.172C407.823 800.245 403.991 811.107 412.613 817.73C415.214 819.717 417.404 821.969 417.404 822.631C417.404 823.294 416.309 822.896 414.94 821.704C411.792 818.922 406.591 818.79 405.633 821.307C405.086 822.764 404.128 822.499 401.527 820.114C395.369 814.551 398.38 799.847 406.728 796.006C413.982 792.562 416.035 792.429 421.92 794.814ZM462.979 794.814C468.043 796.801 472.149 801.967 472.149 806.206C472.149 810.047 468.59 816.273 465.99 817.333C459.147 819.849 451.619 816.141 451.619 810.312C451.619 808.325 452.304 806.073 453.262 805.146C456.683 801.834 463.937 804.086 463.937 808.59C463.937 809.782 462.979 809.385 461.474 807.398C458.052 803.424 453.946 804.749 454.63 809.782C455.041 813.094 455.588 813.491 459.831 813.491C463.8 813.491 464.758 812.829 465.853 809.915C467.632 805.014 463.937 800.907 457.778 800.907C449.293 800.907 445.324 810.842 451.209 817.2C455.178 821.307 453.672 824.486 449.566 820.777C446.966 818.392 445.871 818.127 443.408 819.452C439.302 821.572 438.617 820.379 438.617 812.167C438.617 803.954 441.765 798.92 449.019 795.344C454.63 792.429 457.094 792.429 462.979 794.814ZM502.669 794.814C509.102 797.331 512.387 801.569 512.387 807.133C512.387 812.696 506.912 818.127 501.301 818.127C497.332 818.127 491.31 813.491 491.31 810.445C491.31 807.265 495.552 803.556 498.974 803.556C502.259 803.556 505.954 808.06 503.764 809.385C503.08 809.782 502.259 808.987 501.848 807.53C501.027 804.351 497.742 804.086 495.279 807.001C492.815 809.915 495.416 813.491 500.206 813.491C505.407 813.491 508.281 809.385 505.954 804.881C503.491 800.112 493.91 799.45 490.762 803.821C488.025 807.53 487.888 813.359 490.625 815.478C493.363 817.598 493.226 818.525 490.078 820.379C486.383 822.631 478.992 819.055 478.855 815.081C478.308 803.689 482.55 797.066 492.678 793.887C496.1 792.694 498.016 792.827 502.669 794.814ZM547.424 796.668C559.741 805.543 547.971 824.618 535.38 816.008C532.095 813.756 531.274 807.795 534.011 805.146C537.433 801.834 544.686 804.086 544.686 808.59C544.686 809.782 543.728 809.385 542.223 807.398C538.801 803.424 534.695 804.749 535.38 809.782C535.79 813.094 536.338 813.491 540.58 813.491C544.549 813.491 545.508 812.829 546.602 809.915C548.382 805.014 544.686 800.907 538.527 800.907C529.358 800.907 525.799 811.769 533.053 817.73C535.927 820.114 536.475 821.307 535.243 822.499C534.148 823.558 533.737 823.558 533.737 822.366C533.737 821.572 532.506 820.247 531.137 819.585C529.221 818.525 527.715 818.79 525.115 820.909L521.556 823.558L519.914 818.26C514.576 801.04 533.19 786.469 547.424 796.668ZM583.419 794.814C589.988 797.463 593.136 801.569 592.999 807.265C592.725 816.405 581.913 821.307 575.207 815.213C571.375 811.769 571.238 808.723 574.659 805.676C578.492 802.364 583.555 803.424 583.966 807.53C584.377 810.842 584.377 810.842 583.008 807.795C581.503 804.351 578.628 803.954 576.028 807.001C573.564 809.915 576.165 813.491 580.955 813.491C586.156 813.491 589.03 809.385 586.703 804.881C584.377 800.377 576.165 799.583 572.196 803.424C568.637 806.868 568.501 813.491 571.922 816.273C574.249 818.26 574.249 818.657 572.196 820.644C570.143 822.631 569.869 822.631 567.679 820.512C566.311 819.187 564.258 818.657 562.615 819.055C560.152 819.585 559.741 819.187 559.604 816.008C559.057 803.424 563.026 797.066 573.428 793.887C576.849 792.694 578.765 792.827 583.419 794.814ZM628.036 796.668C640.217 805.543 628.583 824.486 616.129 816.008C612.844 813.756 612.023 807.795 614.76 805.146C618.182 801.834 625.436 804.086 625.436 808.59C625.436 809.782 624.478 809.385 622.972 807.398C619.55 803.424 615.445 804.749 616.129 809.782C616.95 816.405 628.173 815.213 628.173 808.458C628.173 804.351 624.204 800.907 619.277 800.907C609.286 800.907 606.001 814.286 615.171 818.392C617.087 819.187 618.592 820.644 618.592 821.704C618.592 824.088 616.403 823.956 615.308 821.439C614.35 818.922 607.78 818.79 606.822 821.439C606.138 822.896 605.317 822.499 602.579 819.717C599.705 816.67 599.295 815.213 599.842 810.312C601.485 796.271 616.95 788.721 628.036 796.668ZM664.168 794.814C674.296 798.92 677.307 808.987 670.053 814.948C665.263 819.055 659.651 819.055 655.682 814.948C651.576 810.709 652.671 805.278 657.598 804.086C662.389 802.894 665.126 804.351 664.989 807.795V810.842L663.757 807.795C662.252 804.351 659.378 803.954 656.777 807.001C654.314 809.915 656.914 813.491 661.704 813.491C666.905 813.491 669.779 809.385 667.453 804.881C664.989 800.112 655.409 799.45 652.261 803.821C649.25 807.928 649.524 813.094 652.945 816.67C655.135 818.922 655.409 819.982 654.177 821.439C652.945 822.896 652.261 822.896 649.934 820.644C647.881 818.657 646.649 818.392 644.733 819.32C641.175 821.174 640.491 819.982 640.491 812.432C640.491 802.762 644.87 796.801 654.177 793.887C657.598 792.694 659.515 792.827 664.168 794.814ZM708.922 796.668C721.24 805.543 709.47 824.618 696.878 816.008C693.593 813.756 692.772 807.795 695.51 805.146C698.931 801.834 706.185 804.086 706.185 808.59C706.185 809.782 705.227 809.385 703.721 807.398C700.3 803.424 696.194 804.749 696.878 809.782C697.289 813.094 697.836 813.491 702.079 813.491C706.048 813.491 707.006 812.829 708.101 809.915C709.88 805.014 706.185 800.907 700.026 800.907C694.688 800.907 690.719 804.881 690.719 810.18C690.719 812.299 691.814 815.346 693.183 816.803C695.646 819.32 695.646 819.452 692.909 819.452C691.267 819.452 689.624 820.512 689.077 821.704C688.256 823.956 688.119 823.956 686.887 821.704C686.066 820.512 684.697 819.452 683.602 819.452C681.002 819.452 679.633 814.021 680.728 808.325C683.192 795.476 698.521 789.25 708.922 796.668ZM744.917 794.814C755.045 798.92 758.056 808.987 750.802 814.948C746.012 819.055 740.401 819.055 736.432 814.948C732.326 810.709 733.421 805.278 738.348 804.086C743.138 802.894 745.875 804.351 745.738 807.795V810.842L744.507 807.795C743.001 804.351 740.127 803.954 737.527 807.001C735.063 809.915 737.663 813.491 742.454 813.491C751.897 813.491 751.076 801.967 741.496 801.172C731.915 800.377 727.125 810.312 734.105 816.67C736.021 818.392 737.116 820.644 736.705 821.704C736.158 823.161 735.474 823.029 733.284 820.909C730.136 817.598 728.904 817.465 726.03 820.379C724.114 822.234 723.566 822.234 722.472 820.644C718.229 814.154 722.472 799.318 729.725 796.006C736.979 792.562 739.032 792.429 744.917 794.814ZM789.671 796.668C801.989 805.543 790.219 824.618 777.627 816.008C774.343 813.756 773.522 807.795 776.259 805.146C779.68 801.834 786.934 804.086 786.934 808.59C786.934 809.782 785.976 809.385 784.471 807.398C781.049 803.424 776.943 804.749 777.627 809.782C778.038 813.094 778.585 813.491 782.828 813.491C786.797 813.491 787.755 812.829 788.85 809.915C791.587 802.364 779.68 797.331 773.932 803.556C770.921 806.868 770.647 813.226 773.522 816.405C775.301 818.525 775.301 819.055 773.248 820.909C771.058 822.896 770.647 822.896 768.594 820.512C767.226 819.055 765.31 818.26 764.215 818.657C761.751 819.585 760.383 814.286 761.478 808.325C763.941 795.476 779.27 789.25 789.671 796.668ZM481.729 795.344C481.729 795.874 481.045 797.066 480.224 797.861C479.403 798.655 477.897 801.569 476.939 804.351C475.023 809.385 475.023 809.385 474.886 805.543C474.886 803.292 474.339 800.642 473.517 799.583C471.875 797.066 474.339 794.284 478.445 794.284C480.224 794.284 481.729 794.814 481.729 795.344ZM562.479 795.344C562.479 795.874 561.794 797.066 560.973 797.861C560.152 798.655 558.646 801.569 557.688 804.351C555.772 809.385 555.772 809.385 555.635 805.543C555.635 803.292 555.088 800.642 554.267 799.583C552.624 797.066 555.088 794.284 559.194 794.284C560.973 794.284 562.479 794.814 562.479 795.344ZM641.175 799.053C637.89 803.689 636.932 808.06 637.48 815.743C637.753 818.392 637.069 819.452 635.427 819.452C634.195 819.452 632.142 820.379 630.91 821.439C628.857 823.294 628.447 823.294 627.762 821.572C627.215 820.379 627.899 819.32 629.678 818.79C634.879 817.068 638.438 804.749 635.016 799.583C633.237 796.801 635.974 794.284 640.627 794.284H644.46L641.175 799.053ZM723.977 794.946C723.977 795.344 723.019 797.198 721.787 799.053C720.555 800.775 719.05 804.219 718.503 806.603L717.408 810.842L717.271 806.206C717.134 803.689 716.586 800.642 715.765 799.583C714.123 797.066 716.586 794.284 720.692 794.284C722.472 794.284 723.977 794.549 723.977 794.946ZM435.196 814.154C435.196 817.73 434.648 819.452 433.28 819.452C432.322 819.452 430.679 820.379 429.721 821.439C428.49 822.896 427.668 823.161 426.984 822.101C426.437 821.307 427.805 818.922 429.858 816.803C432.048 814.683 433.827 812.034 433.827 810.974C433.827 809.782 434.101 808.855 434.511 808.855C434.922 808.855 435.196 811.239 435.196 814.154ZM513.482 820.512C511.565 822.366 510.334 822.764 509.239 821.704C508.281 820.777 508.828 819.187 511.155 816.538C513.071 814.418 514.713 811.637 514.85 810.445C514.987 809.252 515.261 810.445 515.534 813.094C515.945 816.67 515.398 818.657 513.482 820.512ZM677.854 821.704C677.307 822.896 676.349 822.764 674.022 821.042C671.011 818.79 671.011 818.79 673.475 815.611C674.98 813.889 676.212 811.504 676.212 810.312C676.349 809.12 676.896 810.842 677.444 814.154C677.991 817.465 678.128 820.909 677.854 821.704ZM595.599 821.042C593.683 823.294 593.41 823.294 591.904 821.174C590.536 819.452 590.809 818.26 593.136 814.816L596.01 810.577L596.831 814.683C597.242 817.333 596.831 819.585 595.599 821.042ZM758.74 817.465C759.425 822.499 759.288 823.558 758.193 821.704C757.372 820.512 755.456 819.452 754.087 819.452C751.623 819.452 751.623 819.187 754.498 814.948C756.14 812.564 757.645 810.577 757.645 810.709C757.782 810.709 758.193 813.756 758.74 817.465ZM476.528 821.969C475.981 823.294 475.57 823.294 474.612 821.572C473.928 820.379 472.423 819.452 471.465 819.452C470.37 819.452 469.412 818.79 469.412 818.127C469.412 817.333 469.959 816.803 470.643 816.803C471.328 816.803 472.423 815.478 472.97 813.756C473.928 811.107 474.065 811.107 475.57 815.478C476.528 817.995 476.939 820.909 476.528 821.969ZM558.236 822.101C558.236 823.691 557.962 823.558 556.867 821.704C555.088 818.79 549.34 818.79 547.697 821.572C546.876 823.029 546.055 823.294 545.508 822.366C545.097 821.572 546.466 819.849 548.792 818.657C550.982 817.333 553.309 815.081 553.856 813.491C554.54 811.239 554.951 811.504 556.457 815.478C557.415 817.995 558.236 821.042 558.236 822.101ZM718.503 817.068C718.503 818.392 717.545 819.452 716.45 819.452C715.492 819.452 713.986 820.379 713.302 821.572C712.344 823.294 711.933 823.426 710.428 821.572C709.059 819.982 709.196 819.32 711.523 818.26C713.028 817.465 714.67 815.478 715.081 814.021C715.902 811.769 716.313 811.504 717.271 812.961C717.955 814.021 718.503 815.876 718.503 817.068ZM796.788 820.512C794.325 822.896 794.188 822.896 792.546 820.644C791.587 819.055 791.587 818.127 792.409 818.127C793.23 818.127 794.598 816.538 795.42 814.683L797.062 811.239L798.294 814.551C799.115 817.2 798.841 818.525 796.788 820.512ZM400.98 825.413C400.98 827.797 400.296 828.725 398.243 828.725C395.505 828.725 394.411 825.016 396.464 823.029C398.516 820.909 400.98 822.234 400.98 825.413ZM413.024 825.81C413.435 828.062 412.75 828.725 410.697 828.725C408.781 828.725 407.823 827.93 407.823 826.34C407.823 821.307 412.34 820.909 413.024 825.81ZM424.247 825.413C424.247 827.797 423.562 828.725 421.646 828.725C419.73 828.725 419.32 827.93 419.867 825.413C420.141 823.558 421.373 822.101 422.331 822.101C423.426 822.101 424.247 823.426 424.247 825.413ZM436.564 825.413C436.564 827.797 435.88 828.725 433.827 828.725C431.09 828.725 429.995 825.016 432.048 823.029C434.101 820.909 436.564 822.234 436.564 825.413ZM448.608 825.81C449.019 828.062 448.335 828.725 446.282 828.725C444.092 828.725 443.408 827.93 443.408 825.281C443.408 820.909 447.924 821.307 448.608 825.81ZM459.831 825.413C459.831 827.797 459.147 828.725 457.231 828.725C455.315 828.725 454.904 827.93 455.452 825.413C455.725 823.558 456.957 822.101 457.915 822.101C459.01 822.101 459.831 823.426 459.831 825.413ZM471.875 825.81C472.286 828.062 471.601 828.725 469.548 828.725C467.632 828.725 466.674 827.93 466.674 826.34C466.674 821.307 471.191 820.909 471.875 825.81ZM484.193 825.81C484.603 828.062 483.919 828.725 481.866 828.725C479.676 828.725 478.992 827.93 478.992 825.281C478.992 820.909 483.509 821.307 484.193 825.81ZM495.416 825.413C495.416 827.797 494.731 828.725 492.678 828.725C489.941 828.725 488.846 825.016 490.899 823.029C492.952 820.909 495.416 822.234 495.416 825.413ZM507.46 825.81C507.87 828.062 507.186 828.725 505.133 828.725C503.217 828.725 502.259 827.93 502.259 826.34C502.259 821.307 506.775 820.909 507.46 825.81ZM519.23 824.221C520.598 827.665 520.188 828.725 517.314 828.725C515.261 828.725 514.576 827.797 514.576 825.413C514.576 821.704 517.861 820.909 519.23 824.221ZM531 825.413C531 827.797 530.316 828.725 528.263 828.725C525.525 828.725 524.431 825.016 526.484 823.029C528.536 820.909 531 822.234 531 825.413ZM543.044 825.81C543.455 828.062 542.77 828.725 540.717 828.725C538.801 828.725 537.843 827.93 537.843 826.34C537.843 821.307 542.36 820.909 543.044 825.81ZM554.267 825.413C554.267 827.532 553.446 828.725 552.214 828.725C550.982 828.725 550.161 827.532 550.161 825.413C550.161 823.294 550.982 822.101 552.214 822.101C553.446 822.101 554.267 823.294 554.267 825.413ZM566.311 825.81C566.721 828.062 566.037 828.725 563.984 828.725C562.068 828.725 561.11 827.93 561.11 826.34C561.11 821.307 565.626 820.909 566.311 825.81ZM578.628 825.81C579.039 828.062 578.355 828.725 576.302 828.725C574.112 828.725 573.428 827.93 573.428 825.281C573.428 820.909 577.944 821.307 578.628 825.81ZM589.851 825.413C589.851 827.797 589.167 828.725 587.251 828.725C585.335 828.725 584.924 827.93 585.472 825.413C585.745 823.558 586.977 822.101 587.935 822.101C589.03 822.101 589.851 823.426 589.851 825.413ZM601.895 825.81C602.306 828.062 601.621 828.725 599.568 828.725C597.652 828.725 596.694 827.93 596.694 826.34C596.694 821.307 601.211 820.909 601.895 825.81ZM614.213 825.81C614.623 828.062 613.939 828.725 611.886 828.725C609.696 828.725 609.012 827.93 609.012 825.281C609.012 820.909 613.528 821.307 614.213 825.81ZM625.436 825.413C625.436 827.797 624.751 828.725 622.698 828.725C619.961 828.725 618.866 825.016 620.919 823.029C622.972 820.909 625.436 822.234 625.436 825.413ZM637.48 825.81C637.89 828.062 637.206 828.725 635.153 828.725C633.237 828.725 632.279 827.93 632.279 826.34C632.279 821.307 636.795 820.909 637.48 825.81ZM649.25 824.221C650.618 827.665 650.208 828.725 647.334 828.725C645.281 828.725 644.596 827.797 644.596 825.413C644.596 821.704 647.881 820.909 649.25 824.221ZM661.02 825.413C661.02 827.797 660.336 828.725 658.283 828.725C655.546 828.725 654.451 825.016 656.504 823.029C658.556 820.909 661.02 822.234 661.02 825.413ZM673.064 825.81C673.475 828.062 672.79 828.725 670.737 828.725C668.547 828.725 667.863 827.93 667.863 825.281C667.863 820.909 672.38 821.307 673.064 825.81ZM684.56 825.413C685.108 827.93 684.697 828.725 682.781 828.725C680.865 828.725 680.181 827.797 680.181 825.413C680.181 823.426 681.002 822.101 682.097 822.101C683.055 822.101 684.287 823.558 684.56 825.413ZM696.604 825.413C696.604 827.797 695.92 828.725 693.867 828.725C691.13 828.725 690.035 825.016 692.088 823.029C694.141 820.909 696.604 822.234 696.604 825.413ZM708.648 825.81C709.059 828.062 708.375 828.725 706.322 828.725C704.132 828.725 703.448 827.93 703.448 825.281C703.448 820.909 707.964 821.307 708.648 825.81ZM719.871 825.413C719.871 827.797 719.187 828.725 717.134 828.725C714.397 828.725 713.302 825.016 715.355 823.029C717.408 820.909 719.871 822.234 719.871 825.413ZM731.915 825.81C732.326 828.062 731.641 828.725 729.588 828.725C727.672 828.725 726.714 827.93 726.714 826.34C726.714 821.307 731.231 820.909 731.915 825.81ZM743.685 824.221C745.054 827.665 744.643 828.725 741.769 828.725C739.716 828.725 739.032 827.797 739.032 825.413C739.032 821.704 742.317 820.909 743.685 824.221ZM755.456 825.413C755.456 827.797 754.771 828.725 752.718 828.725C749.981 828.725 748.886 825.016 750.939 823.029C752.992 820.909 755.456 822.234 755.456 825.413ZM767.5 825.81C767.91 828.062 767.226 828.725 765.173 828.725C763.257 828.725 762.299 827.93 762.299 826.34C762.299 821.307 766.815 820.909 767.5 825.81ZM779.27 824.221C780.638 827.665 780.228 828.725 777.354 828.725C775.301 828.725 774.616 827.797 774.616 825.413C774.616 821.704 777.901 820.909 779.27 824.221ZM791.04 825.413C791.04 827.797 790.356 828.725 788.303 828.725C785.566 828.725 784.471 825.016 786.524 823.029C788.576 820.909 791.04 822.234 791.04 825.413ZM803.084 825.81C803.495 828.062 802.81 828.725 800.757 828.725C798.567 828.725 797.883 827.93 797.883 825.281C797.883 820.909 802.4 821.307 803.084 825.81Z" fill="#FFEFD5"/>
<path d="M434.238 777.461C432.458 779.845 431.09 782.892 431.09 784.084C431.09 786.336 436.564 795.609 437.933 795.609C439.302 795.609 444.776 786.734 444.776 784.482C444.776 781.832 439.712 773.09 438.207 773.09C437.659 773.09 435.88 775.077 434.238 777.461ZM440.397 784.084C440.67 785.674 439.986 786.336 438.07 786.336C436.428 786.336 435.196 785.541 435.196 784.614C435.196 780.508 439.575 780.11 440.397 784.084Z" fill="#FFEFD5"/>
<path d="M514.987 777.461C513.208 779.845 511.839 782.892 511.839 784.084C511.839 786.336 517.314 795.609 518.683 795.609C520.051 795.609 525.526 786.734 525.526 784.482C525.526 781.832 520.462 773.09 518.956 773.09C518.409 773.09 516.63 775.077 514.987 777.461ZM521.146 784.084C521.42 785.674 520.735 786.336 518.819 786.336C517.177 786.336 515.945 785.541 515.945 784.614C515.945 780.508 520.325 780.11 521.146 784.084Z" fill="#FFEFD5"/>
<path d="M595.736 777.461C593.957 779.845 592.588 782.892 592.588 784.084C592.588 786.336 598.063 795.609 599.432 795.609C600.8 795.609 606.275 786.734 606.275 784.482C606.275 781.832 601.211 773.09 599.705 773.09C599.158 773.09 597.379 775.077 595.736 777.461ZM601.895 784.084C602.169 785.674 601.484 786.336 599.568 786.336C597.926 786.336 596.694 785.541 596.694 784.614C596.694 780.508 601.074 780.11 601.895 784.084Z" fill="#FFEFD5"/>
<path d="M676.486 777.461C674.707 779.845 673.338 782.892 673.338 784.084C673.338 786.336 678.812 795.609 680.181 795.609C681.55 795.609 687.024 786.734 687.024 784.482C687.024 781.832 681.96 773.09 680.455 773.09C679.907 773.09 678.128 775.077 676.486 777.461ZM682.645 784.084C682.918 785.674 682.234 786.336 680.318 786.336C678.676 786.336 677.444 785.541 677.444 784.614C677.444 780.508 681.823 780.11 682.645 784.084Z" fill="#FFEFD5"/>
<path d="M757.235 777.461C755.456 779.845 754.087 782.892 754.087 784.084C754.087 786.336 759.561 795.609 760.93 795.609C762.299 795.609 767.773 786.734 767.773 784.349C767.773 781.965 762.436 773.09 760.93 773.09C760.519 773.09 758.877 775.077 757.235 777.461ZM763.394 784.084C763.667 785.674 762.983 786.336 761.067 786.336C759.425 786.336 758.193 785.541 758.193 784.614C758.193 780.508 762.572 780.11 763.394 784.084Z" fill="#FFEFD5"/>
<path d="M250.453 203.522C250 201.62 249.447 199.747 248.795 197.911C246.891 194.4 244.545 191.177 241.819 188.326C236.38 182.126 230.127 176.765 223.244 172.4C219.3 169.642 215.197 167.233 211.101 164.763C206.267 161.457 201.823 157.57 197.858 153.18C193.733 149.126 190.349 144.317 187.869 138.985C185.093 133.718 183.797 127.723 184.128 121.685C184.582 116.23 186.012 110.901 188.344 105.977C190.897 101.194 193.925 96.7032 197.38 92.5811C200.849 88.213 204.289 84.0871 208.233 80.1461C211.789 76.235 215.608 72.5956 219.66 69.2569C215.76 69.5228 211.849 69.2492 208.028 68.4433C200.867 66.089 197.764 56.4887 190.479 54.6722C185.7 53.4508 180.716 53.3209 175.861 54.291C171.07 55.5068 166.433 57.3319 162.054 59.7254C156.492 62.66 151.11 65.9615 145.942 69.6092C140.887 73.3717 136.024 77.4114 131.375 81.7109C126.6 85.516 122.026 89.5918 117.675 93.9192C114.48 89.8392 111.29 86.6817 108.176 82.4272C105.061 78.1726 102.838 73.3514 99.9543 69.1252C97.0709 64.8994 94.0366 60.4703 91.5595 55.8023C89.041 51.1611 86.7494 46.3872 84.693 41.4989C82.4139 36.6376 80.423 31.6311 78.7321 26.5078C77.2614 21.2873 77.6135 15.553 76.1428 10.3325C75.87 9.79303 75.4652 9.34031 74.9689 9.02031C74.4721 8.70024 73.9024 8.52433 73.3163 8.5104C72.334 8.38978 72.0268 9.45838 71.6114 10.4522C69.1392 15.7867 67.5806 21.5252 67.0078 27.4038C66.9016 33.294 67.1784 39.1804 67.8361 45.0222C68.0293 50.8579 68.7108 56.659 69.8722 62.3585C71.139 67.935 72.8861 73.3745 75.0916 78.6108C72.3891 74.3454 70.2943 69.9087 67.9682 65.4437C65.6422 60.9789 63.1932 56.5603 60.4981 52.2343C57.8031 47.9083 55.7231 43.3506 53.2014 39.0459C49.2608 32.5667 45.6583 25.8667 42.409 18.9747C41.0765 15.2853 39.9533 11.5149 39.0442 7.68274C38.3443 5.26124 38.541 2.70396 37.7759 0.335909C37.3254 -0.671903 36.5175 -1.45385 35.5215 -1.84623C31.5508 -2.9484 32.6471 18.698 32.7113 21.0415C33.0264 29.0045 33.8564 36.93 35.1951 44.7636C36.7575 49.529 38.5951 54.188 40.6971 58.7148C42.1546 63.5649 43.3158 68.4401 44.7882 73.1691C46.2606 77.8981 48.6947 82.4379 50.2753 87.2416C48.0993 81.6647 45.4605 76.302 42.3885 71.2149C39.516 65.9452 35.1881 61.5417 32.4666 56.4753C29.7452 51.4085 27.1394 46.356 24.3751 41.161C21.8426 36.1223 19.8798 30.7869 18.5257 25.2616C17.6914 22.0246 16.8999 18.9157 16.0449 15.3689C15.4887 13.2108 15.659 9.91278 14.2268 8.20037C10.8441 4.2202 9.93099 15.4786 9.73769 17.0529C9.23214 21.1703 8.73403 25.2271 8.65529 29.2125C8.55137 37.5259 9.142 45.8246 10.42 54.0141C11.0504 62.3137 12.2955 70.5421 14.1438 78.6258C16.5035 86.5713 19.3711 94.3363 22.7284 101.868C25.1649 107.821 27.7319 113.668 30.7257 119.383C33.7195 125.098 35.4115 128.993 37.4486 133.423C39.5704 138.146 41.1841 143.106 42.2612 148.212C43.5776 153.226 43.6542 158.522 42.4829 163.604C41.1643 168.701 38.7163 173.413 35.3392 177.355C31.8393 181.156 27.9607 184.554 23.771 187.49C18.7787 191.364 13.4991 194.711 8.35572 198.381C3.21233 202.052 0.061755 206.214 -4.68861 209.072C-9.43898 211.931 -14.6202 213.999 -19.35 217.167C-24.0797 220.336 -28.2556 224.248 -33.0638 227.1C-37.8719 229.952 -42.9954 232.027 -47.9191 234.864C-52.8429 237.702 -57.7928 239.798 -62.657 242.151C-67.5212 244.504 -72.4152 247.099 -77.4305 249.249C-82.4459 251.4 -87.7187 252.78 -92.9057 254.417C-98.0412 256.151 -103.268 257.562 -108.558 258.641C-110.605 259.066 -112.396 258.846 -113.609 260.603C-108.932 261.897 -104.14 262.712 -99.3018 263.036C-94.3442 262.877 -89.3995 262.355 -84.504 261.473C-79.5161 260.979 -74.3392 262.29 -69.48 261.411C-64.6208 260.533 -59.6931 258.618 -54.9198 257.483C-50.1464 256.348 -45.2798 255.409 -40.5271 253.965C-35.7743 252.52 -31.1224 250.941 -26.448 249.179C-21.7736 247.417 -17.2429 245.392 -12.7551 243.238C-8.2674 241.086 -4.32598 238.127 -0.0602907 235.394C-4.99138 238.291 -9.78636 241.513 -14.5665 244.614C-19.3466 247.715 -24.5873 250.267 -29.3319 253.557C-34.0765 256.846 -38.0155 261.218 -42.4283 264.671C-46.8411 268.125 -50.5323 271.912 -54.7214 275.455C-58.9104 278.997 -63.905 281.457 -68.2302 284.675C-72.2985 288.331 -76.7605 291.477 -81.523 294.044C-83.383 294.861 -89.3847 295.968 -89.7976 298.376C-90.2106 300.783 -87.8414 301.074 -86.4825 300.995C-81.4812 300.277 -76.546 299.093 -71.7357 297.459C-66.7283 296.838 -61.7565 295.908 -56.847 294.677C-52.0571 292.93 -47.3959 290.798 -42.7926 288.659C-38.1893 286.52 -33.9012 283.605 -29.4844 281.074C-25.0675 278.543 -20.3725 277.091 -16.1795 274.472C-11.9864 271.852 -7.46133 269.395 -3.4845 266.626C0.492339 263.857 3.97468 259.86 7.98877 256.787C12.0028 253.715 15.6775 250.54 19.6411 247.4C14.608 251.071 9.78903 255.057 5.21228 259.335C0.738348 263.764 -2.21589 269.67 -6.20691 274.466C-10.198 279.262 -14.5134 283.833 -18.2452 288.907C-21.9771 293.981 -25.1104 299.435 -28.626 304.658C-29.7084 306.307 -35.5049 312.909 -33.2209 314.85C-32.0965 315.725 -28.0893 314.619 -26.917 314.149C-24.688 313.193 -23.0598 310.442 -20.8307 309.487C-16.423 307.508 -11.7933 306.109 -7.464 303.814C-2.49197 300.946 2.30759 297.759 6.90605 294.269C11.6003 290.912 16.5893 288.021 20.9888 284.198C25.3884 280.374 29.1037 275.913 33.1863 271.805C37.2689 267.696 42.295 264.503 46.3347 260.266C50.3744 256.029 54.0897 251.569 58.0716 247.325C62.0535 243.081 65.8893 237.161 70.3633 232.731C74.8373 228.302 80.7582 225.465 85.4913 221.313C90.2245 217.161 94.5045 212.401 99.6403 208.791C103.693 205.985 108.09 203.773 112.707 202.221C117.303 200.425 122.166 199.523 127.053 199.557C132.03 200.359 136.823 202.07 141.214 204.614C145.721 206.712 149.887 209.524 153.564 212.953C157.62 216.709 162.009 220.136 165.811 224.046C169.613 227.954 173.328 232.098 176.985 236.234C180.641 240.371 184.494 244.348 188.085 248.538C191.677 252.728 194.138 258.008 197.809 262.024C199.93 264.513 202.211 266.846 204.636 269.009C204.945 269.354 205.896 270.208 206.331 270.016C206.765 269.823 206.539 268.32 206.598 267.836C205.996 262.484 205.08 257.178 203.856 251.949C202.689 246.732 201.203 241.602 199.407 236.59C198.324 231.292 196.885 226.084 195.103 221.004C192.569 216.287 189.645 211.815 186.362 207.638C183.098 203.46 179.389 199.685 175.308 196.385C179.926 200.539 184.78 204.399 189.844 207.943C195.028 211.309 200.39 214.368 205.906 217.106C210.95 220.376 216.195 223.299 221.607 225.857C224.473 226.885 227.17 228.322 229.963 229.463C232.822 230.503 235.783 231.217 238.794 231.593C239.496 231.608 240.18 231.34 240.704 230.844C241.248 230.234 240.515 229.038 240.07 228.369C238.136 225.488 236.941 221.838 234.935 219.072C231.951 214.711 228.844 210.396 225.591 206.309C222.339 202.221 218.66 198.267 215.016 194.5C210.989 191.179 206.785 188.098 202.423 185.271C198.475 181.901 194.306 178.822 189.946 176.056C194.54 178.771 199.287 181.198 203.938 183.92C208.59 186.643 213.657 188.371 218.404 190.798C222.047 192.659 224.991 195.909 228.524 198.187C230.226 199.133 232.569 198.683 234.229 199.502C239.121 201.701 243.867 204.127 248.767 206.265C249.46 206.35 250.562 207.408 250.789 206.514C251.016 205.62 250.602 204.217 250.453 203.522ZM187.592 76.7512C186.658 76.0725 186.015 75.0386 185.798 73.8663C185.581 72.694 185.807 71.4742 186.428 70.4624C188.813 66.3299 195.908 66.8322 195.216 72.4633C195.118 73.3955 194.832 74.2976 194.379 75.1105C193.925 75.9234 193.314 76.6287 192.584 77.1801C191.779 77.5511 190.901 77.7063 190.028 77.6312C189.157 77.5561 188.319 77.2541 187.592 76.7512Z" fill="#FFFDD0" fill-opacity="0.3"/>
</g>
<defs>
<clipPath id="clip0_431_4944">
<rect width="1280" height="832" fill="white"/>
</clipPath>
</defs>
</svg>
