<svg width="996" height="832" viewBox="0 0 996 832" fill="none" xmlns="http://www.w3.org/2000/svg">
<g clip-path="url(#clip0_627_2182)">
<rect width="1000" height="832" transform="translate(-4)" fill="white"/>
<rect x="-4" width="1000" height="832" fill="#FF8343"/>
<path d="M1180 129.5C1180 276.684 1060.68 396 913.5 396C766.316 396 647 276.684 647 129.5C647 -17.6839 766.316 -137 913.5 -137C1060.68 -137 1180 -17.6839 1180 129.5Z" fill="#FFEFD5"/>
<path d="M1457.46 683.731C1457.46 961.934 1231.93 1187.46 953.731 1187.46C675.528 1187.46 450 961.934 450 683.731C450 405.528 675.528 180 953.731 180C1231.93 180 1457.46 405.528 1457.46 683.731Z" fill="#FFEFD5"/>
<path d="M38.0173 738.12C36.5118 741.961 37.1961 743.948 39.9334 743.948C41.4389 743.948 42.6706 743.153 42.6706 742.094C42.6706 739.312 41.1651 736 39.9334 736C39.3859 736 38.4279 736.927 38.0173 738.12Z" fill="#FFEFD5"/>
<path d="M118.903 738.914C117.945 742.358 118.766 743.948 121.503 743.948C123.556 743.948 123.967 741.564 122.598 738.12C121.366 735.205 119.724 735.47 118.903 738.914Z" fill="#FFEFD5"/>
<path d="M199.516 738.914C198.284 743.551 198.421 743.948 201.432 743.948C204.169 743.948 204.853 741.961 203.348 738.12C202.116 735.073 200.474 735.47 199.516 738.914Z" fill="#FFEFD5"/>
<path d="M280.265 738.914C279.033 743.551 279.17 743.948 282.181 743.948C284.918 743.948 285.602 741.961 284.097 738.12C282.865 735.073 281.223 735.47 280.265 738.914Z" fill="#FFEFD5"/>
<path d="M361.014 738.914C359.782 743.551 359.919 743.948 362.93 743.948C365.667 743.948 366.352 741.961 364.846 738.12C363.615 735.073 361.972 735.47 361.014 738.914Z" fill="#FFEFD5"/>
<path d="M39.6593 747.392C38.975 747.922 38.5644 749.511 38.5644 750.968C38.5644 752.425 37.3327 753.75 35.6903 754.147C33.6374 754.677 33.0899 755.605 33.6374 757.856C34.3217 760.506 34.048 760.771 31.4476 760.108C28.984 759.578 28.7103 759.843 29.2577 762.228C30.2158 765.804 28.4366 767.129 26.2468 764.48C25.2887 763.42 23.6464 762.493 22.5515 762.493C21.4565 762.493 21.046 761.83 21.4565 761.168C22.6883 759.181 19.5405 755.869 16.3926 755.869C15.024 755.869 13.5185 754.942 12.971 753.75C12.5604 752.558 10.7812 751.896 8.59141 752.028C6.67533 752.293 3.8012 751.763 2.29571 750.968C-0.98901 749.379 -3.86314 750.041 -3.86314 752.69C-3.86314 753.75 -2.49451 754.545 -0.715284 754.545C6.4016 754.545 13.3816 757.724 19.4036 763.42C24.7413 768.586 25.2887 769.513 23.3726 770.97C22.1409 771.765 20.7722 773.885 20.0879 775.474L19.1299 778.653L15.5714 775.342C10.3706 770.705 6.67533 769.116 1.06394 769.116C-5.64236 769.116 -5.09491 771.235 1.74825 772.295C9.54945 773.487 14.8871 777.461 16.6663 783.422C18.4456 789.913 18.4456 789.913 14.8871 790.575C13.1079 790.84 10.7812 790.178 9.27573 788.853C6.94905 786.601 6.94905 786.469 9.68632 785.012C13.3816 783.157 13.5185 778.388 9.82318 778.388C7.63337 778.388 7.08592 779.316 7.08592 782.362C7.08592 786.469 5.3067 787.263 1.74825 785.144C0.105895 784.084 0.105895 783.554 1.47453 781.832C3.66434 779.316 2.56943 775.739 -0.304695 775.739C-3.31568 775.739 -4.13686 777.991 -2.35764 781.303C-1.12587 783.422 -1.12587 784.349 -2.35764 784.747C-5.50549 785.806 -3.72627 788.323 0.379621 788.456C2.70629 788.588 5.58042 789.648 6.81219 790.972C9.002 793.224 9.002 793.224 5.71728 792.297C0.105895 790.84 -2.90509 790.84 -3.45255 792.562C-3.86314 793.754 -2.63137 794.284 0.379621 794.284C4.48552 794.284 4.62238 794.416 2.70629 796.536C-1.67333 801.305 -2.63137 805.411 -3.31568 818.922L-4 832.698H201.432H406.726V826.87C406.726 823.558 406.179 820.644 405.495 820.247C403.168 818.79 402.757 811.372 404.673 805.808C405.768 802.762 406.726 799.318 406.726 798.258C406.726 795.211 403.989 798.655 401.936 804.351C400.02 809.385 400.02 809.385 399.883 805.543C399.883 803.292 399.336 800.642 398.515 799.583C396.872 797.066 399.336 794.284 403.442 794.284C406.863 794.284 407.821 792.429 405.221 790.972C403.442 789.913 395.777 792.827 395.777 794.549C395.777 795.211 395.093 795.344 394.272 794.814C391.808 793.357 397.83 788.588 402.484 788.456C406.589 788.323 408.369 785.806 405.221 784.747C403.989 784.349 403.989 783.422 405.221 781.303C407 777.991 406.179 775.739 403.168 775.739C400.294 775.739 399.199 779.316 401.389 781.832C402.757 783.554 402.757 784.084 401.115 785.144C397.557 787.396 395.64 786.469 396.051 782.76C396.325 780.243 395.777 779.051 393.998 778.653C390.303 777.858 389.345 782.362 392.903 784.879L395.777 786.998L392.903 789.383C388.524 793.092 385.376 791.767 385.923 786.336C386.197 783.819 387.018 780.64 387.839 779.316C389.345 776.401 399.199 771.898 403.715 771.765C405.358 771.765 406.726 771.103 406.726 770.441C406.726 768.454 397.557 768.851 393.04 771.103C390.85 772.163 388.113 774.414 387.018 776.004C385.786 777.594 384.691 778.653 384.555 778.256C384.281 777.991 382.775 775.739 380.996 773.487L377.848 769.116L384.007 763.287C389.071 758.386 391.535 757.062 398.378 755.737C403.031 754.677 406.726 753.353 406.726 752.425C406.726 750.041 403.715 749.379 400.567 750.968C399.062 751.763 396.188 752.293 394.272 752.028C392.082 751.896 390.303 752.558 389.892 753.75C389.345 754.942 387.839 755.869 386.471 755.869C383.323 755.869 380.175 759.181 381.407 761.168C381.817 761.83 381.407 762.493 380.312 762.493C379.217 762.493 377.574 763.42 376.616 764.48C374.427 767.129 372.647 765.804 373.605 762.228C374.153 759.843 373.879 759.578 371.416 760.108C368.405 760.903 367.31 759.314 369.773 757.856C371.689 756.664 369.91 754.28 367.72 755.075C365.804 755.737 364.299 753.22 364.299 749.114C364.299 747.789 363.751 746.597 362.93 746.597C362.246 746.597 361.562 748.054 361.562 749.909C361.562 752.293 360.603 753.618 357.866 754.677C355.129 755.605 354.718 756.399 355.813 757.459C358.277 759.843 357.729 761.036 354.445 760.108C351.981 759.578 351.707 759.843 352.255 762.228C353.213 765.672 351.023 767.659 349.791 764.612C349.381 763.42 347.738 762.493 346.37 762.493C344.864 762.493 344.18 761.83 344.59 760.771C345.412 758.386 341.716 755.34 339.116 756.267C337.884 756.797 336.789 756.002 336.242 754.412C335.558 752.425 334.326 751.763 331.725 752.028C329.672 752.293 326.661 751.763 325.156 750.836C322.829 749.644 321.734 749.776 319.681 751.101C317.902 752.425 316.397 752.558 314.754 751.763C312.975 750.836 311.743 751.233 309.964 753.22C308.595 754.677 306.543 755.869 305.311 755.869C302.437 755.869 299.426 759.314 300.657 761.168C301.068 761.83 300.657 762.493 299.562 762.493C298.468 762.493 296.825 763.42 295.867 764.48C293.677 767.129 291.898 765.804 292.856 762.228C293.404 759.843 293.13 759.578 290.666 760.108C287.382 761.036 286.834 759.843 289.298 757.459C290.393 756.399 289.982 755.605 287.245 754.677C284.508 753.618 283.55 752.293 283.55 749.909C283.55 747.922 283.002 746.729 282.181 747.259C281.497 747.657 280.812 749.246 280.812 750.703C280.812 752.293 279.444 753.75 277.117 754.677C274.38 755.605 273.969 756.399 275.064 757.459C277.528 759.843 276.98 761.036 273.695 760.108C271.232 759.578 270.958 759.843 271.506 762.228C272.464 765.804 270.684 767.129 268.495 764.48C267.537 763.42 265.894 762.493 264.799 762.493C263.704 762.493 263.294 761.83 263.704 761.168C264.936 759.314 261.925 755.869 259.051 755.869C257.819 755.869 255.766 754.677 254.398 753.22C252.618 751.233 251.387 750.836 249.607 751.763C247.965 752.558 246.46 752.425 244.68 751.101C242.627 749.776 241.532 749.644 239.206 750.836C237.7 751.763 234.689 752.293 232.773 752.028C230.583 751.896 228.804 752.558 228.394 753.75C227.846 754.942 226.341 755.869 224.972 755.869C221.824 755.869 218.676 759.181 219.908 761.168C220.319 761.83 219.908 762.493 218.813 762.493C217.718 762.493 216.076 763.42 215.118 764.48C212.928 767.129 211.149 765.804 212.107 762.228C212.654 759.843 212.381 759.578 209.917 760.108C206.632 761.036 206.085 759.843 208.548 757.459C209.643 756.399 209.233 755.605 206.496 754.677C203.758 753.618 202.8 752.293 202.8 749.909C202.8 748.054 202.253 746.597 201.432 746.597C200.747 746.597 200.063 748.054 200.063 749.909C200.063 752.293 199.105 753.618 196.368 754.677C193.63 755.605 193.22 756.399 194.315 757.459C196.778 759.843 196.231 761.036 192.946 760.108C190.483 759.578 190.209 759.843 190.756 762.228C191.714 765.804 189.935 767.129 187.745 764.48C186.787 763.42 185.145 762.493 184.05 762.493C182.955 762.493 182.544 761.83 182.955 761.168C184.187 759.181 181.039 755.869 177.891 755.869C176.523 755.869 175.017 754.942 174.47 753.75C174.059 752.558 172.28 751.896 170.09 752.028C168.174 752.293 165.3 751.763 163.794 750.968C161.741 749.909 160.236 749.909 158.32 750.968C156.814 751.763 153.94 752.293 152.024 752.028C149.697 751.896 148.055 752.558 147.644 753.75C147.097 754.942 145.591 755.869 144.223 755.869C141.075 755.869 137.927 759.181 139.159 761.168C139.569 761.83 139.159 762.493 138.064 762.493C136.969 762.493 135.327 763.42 134.369 764.48C132.179 767.129 130.4 765.804 131.358 762.228C131.905 759.843 131.631 759.578 129.168 760.108C126.157 760.903 125.062 759.314 127.525 757.856C129.442 756.664 127.662 754.28 125.473 755.075C123.556 755.737 122.051 753.22 122.051 749.114C122.051 747.789 121.504 746.597 120.682 746.597C119.998 746.597 119.314 748.054 119.314 749.909C119.314 752.293 118.356 753.618 115.618 754.677C112.881 755.605 112.471 756.399 113.565 757.459C116.029 759.843 115.482 761.036 112.197 760.108C109.733 759.578 109.46 759.843 110.007 762.228C110.965 765.804 109.186 767.129 106.996 764.48C106.038 763.42 104.396 762.493 103.301 762.493C102.206 762.493 101.795 761.83 102.206 761.168C103.438 759.181 100.29 755.869 97.2787 755.869C95.9101 755.869 94.2678 754.942 93.5834 753.75C92.6254 752.161 91.1199 751.763 88.5195 752.293C86.056 752.69 83.8661 752.161 82.7712 751.101C81.1289 749.644 80.1708 749.511 77.8442 750.836C76.2018 751.763 73.1908 752.293 71.001 752.028C68.4006 751.763 67.032 752.425 66.2108 754.147C65.6633 755.472 64.021 756.532 62.5155 756.532C61.01 756.532 59.2308 757.856 58.4096 759.446C57.7253 761.168 56.3567 762.493 55.5355 762.493C54.5774 762.493 53.4825 763.42 53.0719 764.612C51.8402 767.659 49.6504 765.672 50.6084 762.228C51.1559 759.843 50.8821 759.578 48.4186 760.108C45.1339 761.036 44.5864 759.843 47.05 757.459C48.1449 756.399 47.7343 755.605 44.997 754.677C42.6703 753.75 41.3017 752.161 41.028 749.909C40.7543 747.922 40.2068 746.862 39.6593 747.392ZM87.1509 756.002C93.7203 757.724 101.111 762.89 103.164 766.996C104.122 769.381 103.848 770.97 101.795 774.149L99.1948 778.388L96.5944 775.607C88.2458 766.732 70.5904 766.864 64.021 776.004C62.7892 777.594 61.6943 778.653 61.5574 778.256C61.2837 777.991 59.7782 775.872 57.999 773.487L54.988 769.248L59.2308 764.48C64.021 759.181 67.3057 757.194 73.4645 755.737C79.4865 754.412 81.1289 754.412 87.1509 756.002ZM174.196 757.856C176.112 758.916 179.67 761.83 181.997 764.347L186.24 769.116L183.229 773.62L180.218 778.123L176.796 775.077C171.595 770.441 168.037 769.116 161.057 769.116C153.94 769.116 147.918 771.633 144.77 776.004C143.538 777.594 142.444 778.653 142.307 778.256C142.033 777.991 140.527 775.739 138.748 773.487L135.6 769.116L141.622 763.287C145.181 759.843 149.834 756.929 152.982 756.134C159.141 754.545 168.995 755.34 174.196 757.856ZM254.945 757.989C256.998 758.916 260.556 762.095 262.883 764.745C266.305 768.851 266.852 770.043 265.347 771.103C264.252 771.898 263.02 773.885 262.336 775.474L261.378 778.653L257.819 775.342C252.345 770.441 248.786 769.116 241.806 769.116C234.689 769.116 228.667 771.633 225.52 776.004C224.288 777.594 223.193 778.653 222.919 778.256C222.645 777.991 221.14 775.739 219.361 773.487L216.35 769.116L222.372 763.42C225.93 759.843 230.447 756.929 233.731 756.134C239.89 754.545 249.744 755.34 254.945 757.989ZM335.694 757.989C337.747 758.916 341.306 761.963 343.496 764.612L347.601 769.381L344.59 773.752L341.716 778.123L338.295 775.077C333.094 770.441 329.536 769.116 322.555 769.116C315.439 769.116 309.417 771.633 306.269 776.004C305.037 777.594 303.942 778.653 303.668 778.256C303.395 777.991 301.889 775.739 300.11 773.487L297.099 769.116L303.121 763.42C306.679 759.843 311.196 756.929 314.481 756.134C320.639 754.545 330.494 755.34 335.694 757.989ZM41.3017 758.386C41.3017 759.181 44.5864 763.155 48.5555 767.394C57.4516 776.666 59.0939 779.448 59.0939 785.541C59.0939 788.985 58.5465 790.31 57.041 790.31C55.2617 790.31 55.1249 789.78 56.3567 787.661C58.4096 783.952 55.2617 778.123 46.7762 769.248L39.9331 761.963L32.6793 769.646C24.0569 779.051 22.004 783.157 23.6464 787.528C25.015 790.972 24.4675 792.429 22.2777 790.972C19.9511 789.648 20.4985 780.64 23.0989 777.064C24.3307 775.209 28.2997 770.573 31.995 766.732C35.5535 762.758 38.5644 759.049 38.5644 758.386C38.5644 757.724 39.2488 757.194 39.9331 757.194C40.7543 757.194 41.3017 757.724 41.3017 758.386ZM122.051 758.386C122.051 759.049 125.062 762.758 128.62 766.732C138.201 776.931 139.843 779.713 139.843 785.276C139.843 788.985 139.296 790.31 137.79 790.31C136.011 790.31 135.874 789.78 137.106 787.661C139.159 783.952 136.011 778.123 127.525 769.248L120.682 761.963L113.429 769.646C104.806 779.051 102.753 783.157 104.396 787.528C105.764 790.972 105.217 792.429 103.027 790.972C101.111 789.913 101.111 781.567 103.164 777.991C103.985 776.401 107.954 771.633 112.06 767.394C116.029 763.155 119.314 759.181 119.314 758.386C119.314 757.724 119.998 757.194 120.682 757.194C121.504 757.194 122.051 757.724 122.051 758.386ZM202.8 758.386C202.8 759.181 206.222 763.287 210.328 767.526C218.676 776.269 221.824 782.23 220.866 787.131C219.908 791.9 217.855 790.972 218.129 785.806C218.266 780.64 216.76 778.123 207.727 768.454L201.432 761.963L194.315 769.646C185.555 779.051 183.503 783.157 185.145 787.528C186.514 790.972 185.966 792.429 183.776 790.972C181.86 789.913 181.86 781.567 183.913 777.991C184.734 776.401 188.703 771.633 192.809 767.394C196.778 763.155 200.063 759.181 200.063 758.386C200.063 757.724 200.747 757.194 201.432 757.194C202.253 757.194 202.8 757.724 202.8 758.386ZM283.55 758.386C283.55 759.181 286.834 763.155 290.803 767.394C299.699 776.666 301.342 779.448 301.342 785.541C301.342 788.985 300.794 790.31 299.289 790.31C297.51 790.31 297.373 789.78 298.604 787.661C300.657 783.952 297.646 778.123 289.161 769.116L282.318 761.83L275.064 769.646C266.305 779.051 264.252 783.025 265.894 787.528C267.263 790.972 266.715 792.429 264.526 790.972C262.199 789.648 262.746 780.64 265.347 777.064C266.578 775.209 270.547 770.573 274.243 766.732C277.801 762.758 280.812 759.049 280.812 758.386C280.812 757.724 281.497 757.194 282.181 757.194C283.002 757.194 283.55 757.724 283.55 758.386ZM364.299 758.386C364.299 759.181 367.583 763.155 371.553 767.394C380.449 776.666 382.091 779.448 382.091 785.541C382.091 788.985 381.544 790.31 380.038 790.31C378.259 790.31 378.122 789.78 379.354 787.661C381.407 783.952 378.259 778.123 369.773 769.248L362.93 761.963L355.676 769.646C347.054 779.051 345.001 783.157 346.643 787.528C348.012 790.972 347.465 792.429 345.275 790.972C342.948 789.648 343.496 780.64 346.096 777.064C347.328 775.209 351.297 770.573 354.992 766.732C358.551 762.758 361.562 759.049 361.562 758.386C361.562 757.724 362.246 757.194 362.93 757.194C363.751 757.194 364.299 757.724 364.299 758.386ZM47.1868 773.885C53.7563 781.303 55.5355 787.396 51.977 790.178C42.9441 797.198 39.7962 800.377 39.1119 803.027C38.1539 806.603 35.8272 805.941 35.8272 802.099C35.8272 800.642 34.1848 797.993 32.2687 796.006C28.5734 792.429 26.2468 787.661 26.2468 783.554C26.2468 781.435 38.1539 766.732 39.9331 766.732C40.3437 766.732 43.4915 769.911 47.1868 773.885ZM127.936 773.885C134.506 781.303 136.285 787.396 132.726 790.178C123.693 797.198 120.545 800.377 119.861 803.027C118.903 806.603 116.576 805.941 116.576 802.099C116.576 800.642 114.934 797.993 113.018 796.006C109.323 792.429 106.996 787.661 106.996 783.554C106.996 781.435 118.903 766.732 120.682 766.732C121.093 766.732 124.241 769.911 127.936 773.885ZM208.685 773.885C215.255 781.303 217.034 787.396 213.476 790.178C204.443 797.198 201.295 800.377 200.61 803.027C199.926 805.808 197.052 807.795 197.463 805.146C198.01 801.834 196.915 799.053 193.767 796.006C190.072 792.429 187.745 787.661 187.745 783.554C187.745 781.435 199.652 766.732 201.432 766.732C201.842 766.732 204.99 769.911 208.685 773.885ZM289.435 773.885C296.004 781.303 297.783 787.396 294.225 790.178C285.192 797.198 282.044 800.377 281.36 803.027C280.402 806.603 278.075 805.941 278.075 802.099C278.075 800.642 276.433 797.993 274.517 796.006C270.821 792.429 268.495 787.661 268.495 783.554C268.495 781.435 280.402 766.732 282.181 766.732C282.591 766.732 285.739 769.911 289.435 773.885ZM370.184 773.885C376.753 781.303 378.533 787.396 374.974 790.178C365.941 797.198 362.793 800.377 362.109 803.027C361.151 806.603 358.824 806.073 358.824 802.232C358.824 800.907 356.634 797.331 354.034 794.284C347.328 786.601 347.601 782.76 355.813 773.885C359.372 769.911 362.52 766.732 362.93 766.732C363.341 766.732 366.489 769.911 370.184 773.885ZM92.0779 775.872C95.3627 778.123 98.7842 785.012 98.7842 789.25C98.7842 790.972 92.6254 790.443 89.8881 788.456C87.4246 786.734 87.4246 786.601 90.2987 785.144C94.1309 783.157 94.4046 778.388 90.5724 778.388C88.3826 778.388 87.8352 779.316 87.8352 782.362C87.8352 786.336 87.014 786.998 83.1818 785.541C81.5395 784.879 81.4026 784.217 82.4975 782.097C84.2767 778.918 83.1818 775.739 80.3077 775.739C77.2967 775.739 76.2018 779.316 78.3916 781.832C79.7603 783.554 79.7603 784.084 78.1179 785.144C74.5594 787.396 72.6434 786.469 73.054 782.76C73.3277 780.243 72.7802 779.051 71.001 778.653C67.3057 777.858 66.3477 782.362 69.9061 784.879L72.7802 786.998L69.9061 789.383C65.5265 793.092 62.3786 791.767 62.9261 786.336C63.7473 779.581 65.5265 777.196 71.8222 774.282C78.6653 771.235 86.1928 771.765 92.0779 775.872ZM169.542 774.282C175.564 776.931 177.207 779.183 178.712 785.806C179.533 789.383 179.26 790.045 176.523 790.575C174.606 790.84 172.28 790.178 170.774 788.853C168.448 786.601 168.448 786.469 171.185 785.012C174.88 783.157 175.017 778.388 171.322 778.388C169.132 778.388 168.584 779.316 168.584 782.362C168.584 786.336 167.763 786.998 163.931 785.541C162.289 784.879 162.152 784.217 163.247 782.097C165.026 778.918 163.931 775.739 161.057 775.739C158.046 775.739 156.951 779.316 159.141 781.832C160.51 783.554 160.51 784.084 158.867 785.144C155.309 787.396 153.393 786.469 153.803 782.627C154.077 779.845 153.529 778.918 151.203 778.653C147.097 778.123 146.823 783.025 150.929 785.144L153.803 786.601L150.929 789.118C148.055 791.767 144.633 792.429 143.402 790.575C141.896 788.058 145.318 778.918 149.013 776.136C155.172 771.368 161.468 770.838 169.542 774.282ZM253.576 775.872C256.724 777.991 260.283 785.012 260.283 789.118C260.283 791.237 253.85 790.972 251.524 788.853C249.197 786.601 249.197 786.469 251.934 785.012C255.629 783.157 255.766 778.388 252.071 778.388C249.881 778.388 249.334 779.316 249.334 782.362C249.334 786.336 248.513 786.998 244.68 785.541C243.038 784.879 242.901 784.217 243.996 782.097C245.775 778.918 244.68 775.739 241.806 775.739C238.795 775.739 237.7 779.316 239.89 781.832C241.259 783.554 241.259 784.084 239.616 785.144C236.058 787.263 234.279 786.469 234.279 782.362C234.279 779.713 233.594 778.388 232.226 778.388C228.667 778.388 228.12 782.495 231.405 784.879L234.279 786.998L231.405 789.383C227.025 793.092 223.877 791.767 224.425 786.336C225.246 779.581 227.025 777.196 233.321 774.282C240.164 771.235 247.691 771.765 253.576 775.872ZM334.326 775.872C337.61 778.123 341.032 785.012 341.032 789.25C341.032 790.972 334.873 790.443 332.136 788.456C329.672 786.734 329.672 786.601 332.547 785.144C336.379 783.157 336.652 778.388 332.82 778.388C330.63 778.388 330.083 779.316 330.083 782.362C330.083 786.336 329.262 786.998 325.43 785.541C323.787 784.879 323.65 784.217 324.745 782.097C326.525 778.918 325.43 775.739 322.555 775.739C319.545 775.739 318.45 779.316 320.639 781.832C322.008 783.554 322.008 784.084 320.366 785.144C316.807 787.396 314.891 786.469 315.302 782.76C315.575 780.243 315.028 779.051 313.249 778.653C309.554 777.858 308.595 782.362 312.154 784.879L315.028 786.998L312.154 789.383C307.774 793.092 304.626 791.767 305.174 786.469C305.721 779.978 307.774 777.064 314.07 774.282C320.913 771.235 328.441 771.765 334.326 775.872ZM87.8352 791.105C90.2987 793.357 87.972 793.622 83.045 791.37C80.034 790.045 78.9391 790.31 75.5175 792.694C71.2747 795.874 68.5375 794.549 72.5065 791.37C77.2967 787.263 83.7293 787.131 87.8352 791.105ZM168.584 791.105C171.048 793.357 168.448 793.754 164.205 791.502C161.331 789.913 153.529 792.165 153.529 794.549C153.529 795.211 152.845 795.344 152.161 794.946C150.245 793.887 152.982 790.443 156.951 788.853C160.373 787.528 165.847 788.588 168.584 791.105ZM249.334 791.105C251.797 793.357 249.197 793.754 244.954 791.502C242.08 789.913 234.279 792.165 234.279 794.549C234.279 795.211 233.594 795.344 232.91 794.946C230.994 793.887 233.731 790.443 237.7 788.853C241.122 787.528 246.596 788.588 249.334 791.105ZM330.083 791.105C332.547 793.357 329.946 793.754 325.703 791.502C322.829 789.913 315.028 792.165 315.028 794.549C315.028 795.211 314.344 795.344 313.659 794.946C311.743 793.887 314.481 790.443 318.45 788.853C321.871 787.528 327.346 788.588 330.083 791.105ZM23.9201 794.814C30.4895 797.463 33.6374 801.569 33.5005 807.265C33.2268 816.67 21.8671 821.572 15.4346 814.948C11.3287 810.709 12.4236 805.278 17.3507 804.086C22.1409 802.894 24.8781 804.351 24.7413 807.795L24.7413 810.842L23.5095 807.795C22.004 804.351 19.1299 803.954 16.5295 807.001C14.0659 809.915 16.6663 813.491 21.4565 813.491C30.9001 813.491 30.0789 801.967 20.4985 801.172C9.82318 800.245 5.99101 811.107 14.6134 817.73C17.2138 819.717 19.4036 821.969 19.4036 822.631C19.4036 823.294 18.3087 822.896 16.9401 821.704C13.7922 818.922 8.59141 818.79 7.63337 821.307C7.08592 822.764 6.12787 822.499 3.52747 820.114C-2.63137 814.551 0.379621 799.847 8.72827 796.006C15.982 792.562 18.035 792.429 23.9201 794.814ZM64.979 794.814C70.043 796.801 74.1489 801.967 74.1489 806.206C74.1489 810.047 70.5904 816.273 67.99 817.333C61.1469 819.849 53.6194 816.141 53.6194 810.312C53.6194 808.325 54.3037 806.073 55.2617 805.146C58.6833 801.834 65.9371 804.086 65.9371 808.59C65.9371 809.782 64.979 809.385 63.4735 807.398C60.052 803.424 55.9461 804.749 56.6304 809.782C57.041 813.094 57.5884 813.491 61.8312 813.491C65.8002 813.491 66.7583 812.829 67.8532 809.915C69.6324 805.014 65.9371 800.907 59.7782 800.907C51.2927 800.907 47.3237 810.842 53.2088 817.2C57.1778 821.307 55.6723 824.486 51.5664 820.777C48.966 818.392 47.8711 818.127 45.4076 819.452C41.3017 821.572 40.6174 820.379 40.6174 812.167C40.6174 803.954 43.7652 798.92 51.019 795.344C56.6304 792.429 59.0939 792.429 64.979 794.814ZM104.669 794.814C111.102 797.331 114.387 801.569 114.387 807.133C114.387 812.696 108.912 818.127 103.301 818.127C99.3317 818.127 93.3097 813.491 93.3097 810.445C93.3097 807.265 97.5525 803.556 100.974 803.556C104.259 803.556 107.954 808.06 105.764 809.385C105.08 809.782 104.259 808.987 103.848 807.53C103.027 804.351 99.7423 804.086 97.2787 807.001C94.8152 809.915 97.4156 813.491 102.206 813.491C107.407 813.491 110.281 809.385 107.954 804.881C105.491 800.112 95.9101 799.45 92.7623 803.821C90.025 807.53 89.8881 813.359 92.6254 815.478C95.3627 817.598 95.2258 818.525 92.0779 820.379C88.3826 822.631 80.992 819.055 80.8552 815.081C80.3077 803.689 84.5505 797.066 94.6783 793.887C98.0999 792.694 100.016 792.827 104.669 794.814ZM149.424 796.668C161.741 805.543 149.971 824.618 137.38 816.008C134.095 813.756 133.274 807.795 136.011 805.146C139.433 801.834 146.686 804.086 146.686 808.59C146.686 809.782 145.728 809.385 144.223 807.398C140.801 803.424 136.695 804.749 137.38 809.782C137.79 813.094 138.338 813.491 142.58 813.491C146.549 813.491 147.508 812.829 148.602 809.915C150.382 805.014 146.686 800.907 140.527 800.907C131.358 800.907 127.799 811.769 135.053 817.73C137.927 820.114 138.475 821.307 137.243 822.499C136.148 823.558 135.737 823.558 135.737 822.366C135.737 821.572 134.506 820.247 133.137 819.585C131.221 818.525 129.715 818.79 127.115 820.909L123.556 823.558L121.914 818.26C116.576 801.04 135.19 786.469 149.424 796.668ZM185.419 794.814C191.988 797.463 195.136 801.569 194.999 807.265C194.725 816.405 183.913 821.307 177.207 815.213C173.375 811.769 173.238 808.723 176.659 805.676C180.492 802.364 185.555 803.424 185.966 807.53C186.377 810.842 186.377 810.842 185.008 807.795C183.503 804.351 180.628 803.954 178.028 807.001C175.564 809.915 178.165 813.491 182.955 813.491C188.156 813.491 191.03 809.385 188.703 804.881C186.377 800.377 178.165 799.583 174.196 803.424C170.637 806.868 170.501 813.491 173.922 816.273C176.249 818.26 176.249 818.657 174.196 820.644C172.143 822.631 171.869 822.631 169.679 820.512C168.311 819.187 166.258 818.657 164.615 819.055C162.152 819.585 161.741 819.187 161.604 816.008C161.057 803.424 165.026 797.066 175.428 793.887C178.849 792.694 180.765 792.827 185.419 794.814ZM230.036 796.668C242.217 805.543 230.583 824.486 218.129 816.008C214.844 813.756 214.023 807.795 216.76 805.146C220.182 801.834 227.436 804.086 227.436 808.59C227.436 809.782 226.478 809.385 224.972 807.398C221.55 803.424 217.445 804.749 218.129 809.782C218.95 816.405 230.173 815.213 230.173 808.458C230.173 804.351 226.204 800.907 221.277 800.907C211.286 800.907 208.001 814.286 217.171 818.392C219.087 819.187 220.592 820.644 220.592 821.704C220.592 824.088 218.403 823.956 217.308 821.439C216.35 818.922 209.78 818.79 208.822 821.439C208.138 822.896 207.317 822.499 204.579 819.717C201.705 816.67 201.295 815.213 201.842 810.312C203.485 796.271 218.95 788.721 230.036 796.668ZM266.168 794.814C276.296 798.92 279.307 808.987 272.053 814.948C267.263 819.055 261.651 819.055 257.682 814.948C253.576 810.709 254.671 805.278 259.598 804.086C264.389 802.894 267.126 804.351 266.989 807.795V810.842L265.757 807.795C264.252 804.351 261.378 803.954 258.777 807.001C256.314 809.915 258.914 813.491 263.704 813.491C268.905 813.491 271.779 809.385 269.453 804.881C266.989 800.112 257.409 799.45 254.261 803.821C251.25 807.928 251.524 813.094 254.945 816.67C257.135 818.922 257.409 819.982 256.177 821.439C254.945 822.896 254.261 822.896 251.934 820.644C249.881 818.657 248.649 818.392 246.733 819.32C243.175 821.174 242.491 819.982 242.491 812.432C242.491 802.762 246.87 796.801 256.177 793.887C259.598 792.694 261.515 792.827 266.168 794.814ZM310.922 796.668C323.24 805.543 311.47 824.618 298.878 816.008C295.593 813.756 294.772 807.795 297.51 805.146C300.931 801.834 308.185 804.086 308.185 808.59C308.185 809.782 307.227 809.385 305.721 807.398C302.3 803.424 298.194 804.749 298.878 809.782C299.289 813.094 299.836 813.491 304.079 813.491C308.048 813.491 309.006 812.829 310.101 809.915C311.88 805.014 308.185 800.907 302.026 800.907C296.688 800.907 292.719 804.881 292.719 810.18C292.719 812.299 293.814 815.346 295.183 816.803C297.646 819.32 297.646 819.452 294.909 819.452C293.267 819.452 291.624 820.512 291.077 821.704C290.256 823.956 290.119 823.956 288.887 821.704C288.066 820.512 286.697 819.452 285.602 819.452C283.002 819.452 281.633 814.021 282.728 808.325C285.192 795.476 300.521 789.25 310.922 796.668ZM346.917 794.814C357.045 798.92 360.056 808.987 352.802 814.948C348.012 819.055 342.401 819.055 338.432 814.948C334.326 810.709 335.421 805.278 340.348 804.086C345.138 802.894 347.875 804.351 347.738 807.795V810.842L346.507 807.795C345.001 804.351 342.127 803.954 339.527 807.001C337.063 809.915 339.663 813.491 344.454 813.491C353.897 813.491 353.076 801.967 343.496 801.172C333.915 800.377 329.125 810.312 336.105 816.67C338.021 818.392 339.116 820.644 338.705 821.704C338.158 823.161 337.474 823.029 335.284 820.909C332.136 817.598 330.904 817.465 328.03 820.379C326.114 822.234 325.566 822.234 324.472 820.644C320.229 814.154 324.472 799.318 331.725 796.006C338.979 792.562 341.032 792.429 346.917 794.814ZM391.671 796.668C403.989 805.543 392.219 824.618 379.627 816.008C376.343 813.756 375.522 807.795 378.259 805.146C381.68 801.834 388.934 804.086 388.934 808.59C388.934 809.782 387.976 809.385 386.471 807.398C383.049 803.424 378.943 804.749 379.627 809.782C380.038 813.094 380.585 813.491 384.828 813.491C388.797 813.491 389.755 812.829 390.85 809.915C393.587 802.364 381.68 797.331 375.932 803.556C372.921 806.868 372.647 813.226 375.522 816.405C377.301 818.525 377.301 819.055 375.248 820.909C373.058 822.896 372.647 822.896 370.594 820.512C369.226 819.055 367.31 818.26 366.215 818.657C363.751 819.585 362.383 814.286 363.478 808.325C365.941 795.476 381.27 789.25 391.671 796.668ZM83.7293 795.344C83.7293 795.874 83.045 797.066 82.2238 797.861C81.4026 798.655 79.8971 801.569 78.9391 804.351C77.023 809.385 77.023 809.385 76.8861 805.543C76.8861 803.292 76.3387 800.642 75.5175 799.583C73.8751 797.066 76.3387 794.284 80.4446 794.284C82.2238 794.284 83.7293 794.814 83.7293 795.344ZM164.479 795.344C164.479 795.874 163.794 797.066 162.973 797.861C162.152 798.655 160.646 801.569 159.688 804.351C157.772 809.385 157.772 809.385 157.635 805.543C157.635 803.292 157.088 800.642 156.267 799.583C154.624 797.066 157.088 794.284 161.194 794.284C162.973 794.284 164.479 794.814 164.479 795.344ZM243.175 799.053C239.89 803.689 238.932 808.06 239.48 815.743C239.753 818.392 239.069 819.452 237.427 819.452C236.195 819.452 234.142 820.379 232.91 821.439C230.857 823.294 230.447 823.294 229.762 821.572C229.215 820.379 229.899 819.32 231.678 818.79C236.879 817.068 240.438 804.749 237.016 799.583C235.237 796.801 237.974 794.284 242.627 794.284H246.46L243.175 799.053ZM325.977 794.946C325.977 795.344 325.019 797.198 323.787 799.053C322.555 800.775 321.05 804.219 320.503 806.603L319.408 810.842L319.271 806.206C319.134 803.689 318.586 800.642 317.765 799.583C316.123 797.066 318.586 794.284 322.692 794.284C324.472 794.284 325.977 794.549 325.977 794.946ZM37.1958 814.154C37.1958 817.73 36.6484 819.452 35.2797 819.452C34.3217 819.452 32.6793 820.379 31.7213 821.439C30.4895 822.896 29.6683 823.161 28.984 822.101C28.4366 821.307 29.8052 818.922 31.8581 816.803C34.048 814.683 35.8272 812.034 35.8272 810.974C35.8272 809.782 36.1009 808.855 36.5115 808.855C36.9221 808.855 37.1958 811.239 37.1958 814.154ZM115.482 820.512C113.565 822.366 112.334 822.764 111.239 821.704C110.281 820.777 110.828 819.187 113.155 816.538C115.071 814.418 116.713 811.637 116.85 810.445C116.987 809.252 117.261 810.445 117.534 813.094C117.945 816.67 117.398 818.657 115.482 820.512ZM279.854 821.704C279.307 822.896 278.349 822.764 276.022 821.042C273.011 818.79 273.011 818.79 275.475 815.611C276.98 813.889 278.212 811.504 278.212 810.312C278.349 809.12 278.896 810.842 279.444 814.154C279.991 817.465 280.128 820.909 279.854 821.704ZM197.599 821.042C195.683 823.294 195.41 823.294 193.904 821.174C192.536 819.452 192.809 818.26 195.136 814.816L198.01 810.577L198.831 814.683C199.242 817.333 198.831 819.585 197.599 821.042ZM360.74 817.465C361.425 822.499 361.288 823.558 360.193 821.704C359.372 820.512 357.456 819.452 356.087 819.452C353.623 819.452 353.623 819.187 356.498 814.948C358.14 812.564 359.645 810.577 359.645 810.709C359.782 810.709 360.193 813.756 360.74 817.465ZM78.5285 821.969C77.981 823.294 77.5704 823.294 76.6124 821.572C75.9281 820.379 74.4226 819.452 73.4645 819.452C72.3696 819.452 71.4116 818.79 71.4116 818.127C71.4116 817.333 71.9591 816.803 72.6434 816.803C73.3277 816.803 74.4226 815.478 74.97 813.756C75.9281 811.107 76.065 811.107 77.5704 815.478C78.5285 817.995 78.9391 820.909 78.5285 821.969ZM160.236 822.101C160.236 823.691 159.962 823.558 158.867 821.704C157.088 818.79 151.34 818.79 149.697 821.572C148.876 823.029 148.055 823.294 147.508 822.366C147.097 821.572 148.466 819.849 150.792 818.657C152.982 817.333 155.309 815.081 155.856 813.491C156.54 811.239 156.951 811.504 158.457 815.478C159.415 817.995 160.236 821.042 160.236 822.101ZM320.503 817.068C320.503 818.392 319.545 819.452 318.45 819.452C317.492 819.452 315.986 820.379 315.302 821.572C314.344 823.294 313.933 823.426 312.428 821.572C311.059 819.982 311.196 819.32 313.523 818.26C315.028 817.465 316.67 815.478 317.081 814.021C317.902 811.769 318.313 811.504 319.271 812.961C319.955 814.021 320.503 815.876 320.503 817.068ZM398.788 820.512C396.325 822.896 396.188 822.896 394.546 820.644C393.587 819.055 393.587 818.127 394.409 818.127C395.23 818.127 396.598 816.538 397.42 814.683L399.062 811.239L400.294 814.551C401.115 817.2 400.841 818.525 398.788 820.512ZM2.98002 825.413C2.98002 827.797 2.29571 828.725 0.242758 828.725C-2.49451 828.725 -3.58941 825.016 -1.53646 823.029C0.516484 820.909 2.98002 822.234 2.98002 825.413ZM15.024 825.81C15.4346 828.062 14.7503 828.725 12.6973 828.725C10.7812 828.725 9.82318 827.93 9.82318 826.34C9.82318 821.307 14.3397 820.909 15.024 825.81ZM26.2468 825.413C26.2468 827.797 25.5624 828.725 23.6464 828.725C21.7303 828.725 21.3197 827.93 21.8671 825.413C22.1409 823.558 23.3726 822.101 24.3307 822.101C25.4256 822.101 26.2468 823.426 26.2468 825.413ZM38.5644 825.413C38.5644 827.797 37.8801 828.725 35.8272 828.725C33.0899 828.725 31.995 825.016 34.048 823.029C36.1009 820.909 38.5644 822.234 38.5644 825.413ZM50.6084 825.81C51.019 828.062 50.3347 828.725 48.2817 828.725C46.0919 828.725 45.4076 827.93 45.4076 825.281C45.4076 820.909 49.9241 821.307 50.6084 825.81ZM61.8312 825.413C61.8312 827.797 61.1469 828.725 59.2308 828.725C57.3147 828.725 56.9041 827.93 57.4516 825.413C57.7253 823.558 58.9571 822.101 59.9151 822.101C61.01 822.101 61.8312 823.426 61.8312 825.413ZM73.8751 825.81C74.2857 828.062 73.6014 828.725 71.5485 828.725C69.6324 828.725 68.6743 827.93 68.6743 826.34C68.6743 821.307 73.1908 820.909 73.8751 825.81ZM86.1928 825.81C86.6034 828.062 85.9191 828.725 83.8661 828.725C81.6763 828.725 80.992 827.93 80.992 825.281C80.992 820.909 85.5085 821.307 86.1928 825.81ZM97.4156 825.413C97.4156 827.797 96.7313 828.725 94.6783 828.725C91.9411 828.725 90.8462 825.016 92.8991 823.029C94.9521 820.909 97.4156 822.234 97.4156 825.413ZM109.46 825.81C109.87 828.062 109.186 828.725 107.133 828.725C105.217 828.725 104.259 827.93 104.259 826.34C104.259 821.307 108.775 820.909 109.46 825.81ZM121.23 824.221C122.598 827.665 122.188 828.725 119.314 828.725C117.261 828.725 116.576 827.797 116.576 825.413C116.576 821.704 119.861 820.909 121.23 824.221ZM133 825.413C133 827.797 132.316 828.725 130.263 828.725C127.525 828.725 126.431 825.016 128.484 823.029C130.536 820.909 133 822.234 133 825.413ZM145.044 825.81C145.455 828.062 144.77 828.725 142.717 828.725C140.801 828.725 139.843 827.93 139.843 826.34C139.843 821.307 144.36 820.909 145.044 825.81ZM156.267 825.413C156.267 827.532 155.446 828.725 154.214 828.725C152.982 828.725 152.161 827.532 152.161 825.413C152.161 823.294 152.982 822.101 154.214 822.101C155.446 822.101 156.267 823.294 156.267 825.413ZM168.311 825.81C168.721 828.062 168.037 828.725 165.984 828.725C164.068 828.725 163.11 827.93 163.11 826.34C163.11 821.307 167.626 820.909 168.311 825.81ZM180.628 825.81C181.039 828.062 180.355 828.725 178.302 828.725C176.112 828.725 175.428 827.93 175.428 825.281C175.428 820.909 179.944 821.307 180.628 825.81ZM191.851 825.413C191.851 827.797 191.167 828.725 189.251 828.725C187.335 828.725 186.924 827.93 187.472 825.413C187.745 823.558 188.977 822.101 189.935 822.101C191.03 822.101 191.851 823.426 191.851 825.413ZM203.895 825.81C204.306 828.062 203.621 828.725 201.568 828.725C199.652 828.725 198.694 827.93 198.694 826.34C198.694 821.307 203.211 820.909 203.895 825.81ZM216.213 825.81C216.623 828.062 215.939 828.725 213.886 828.725C211.696 828.725 211.012 827.93 211.012 825.281C211.012 820.909 215.528 821.307 216.213 825.81ZM227.436 825.413C227.436 827.797 226.751 828.725 224.698 828.725C221.961 828.725 220.866 825.016 222.919 823.029C224.972 820.909 227.436 822.234 227.436 825.413ZM239.48 825.81C239.89 828.062 239.206 828.725 237.153 828.725C235.237 828.725 234.279 827.93 234.279 826.34C234.279 821.307 238.795 820.909 239.48 825.81ZM251.25 824.221C252.618 827.665 252.208 828.725 249.334 828.725C247.281 828.725 246.596 827.797 246.596 825.413C246.596 821.704 249.881 820.909 251.25 824.221ZM263.02 825.413C263.02 827.797 262.336 828.725 260.283 828.725C257.546 828.725 256.451 825.016 258.504 823.029C260.556 820.909 263.02 822.234 263.02 825.413ZM275.064 825.81C275.475 828.062 274.79 828.725 272.737 828.725C270.547 828.725 269.863 827.93 269.863 825.281C269.863 820.909 274.38 821.307 275.064 825.81ZM286.56 825.413C287.108 827.93 286.697 828.725 284.781 828.725C282.865 828.725 282.181 827.797 282.181 825.413C282.181 823.426 283.002 822.101 284.097 822.101C285.055 822.101 286.287 823.558 286.56 825.413ZM298.604 825.413C298.604 827.797 297.92 828.725 295.867 828.725C293.13 828.725 292.035 825.016 294.088 823.029C296.141 820.909 298.604 822.234 298.604 825.413ZM310.648 825.81C311.059 828.062 310.375 828.725 308.322 828.725C306.132 828.725 305.448 827.93 305.448 825.281C305.448 820.909 309.964 821.307 310.648 825.81ZM321.871 825.413C321.871 827.797 321.187 828.725 319.134 828.725C316.397 828.725 315.302 825.016 317.355 823.029C319.408 820.909 321.871 822.234 321.871 825.413ZM333.915 825.81C334.326 828.062 333.641 828.725 331.588 828.725C329.672 828.725 328.714 827.93 328.714 826.34C328.714 821.307 333.231 820.909 333.915 825.81ZM345.685 824.221C347.054 827.665 346.643 828.725 343.769 828.725C341.716 828.725 341.032 827.797 341.032 825.413C341.032 821.704 344.317 820.909 345.685 824.221ZM357.456 825.413C357.456 827.797 356.771 828.725 354.718 828.725C351.981 828.725 350.886 825.016 352.939 823.029C354.992 820.909 357.456 822.234 357.456 825.413ZM369.5 825.81C369.91 828.062 369.226 828.725 367.173 828.725C365.257 828.725 364.299 827.93 364.299 826.34C364.299 821.307 368.815 820.909 369.5 825.81ZM381.27 824.221C382.638 827.665 382.228 828.725 379.354 828.725C377.301 828.725 376.616 827.797 376.616 825.413C376.616 821.704 379.901 820.909 381.27 824.221ZM393.04 825.413C393.04 827.797 392.356 828.725 390.303 828.725C387.566 828.725 386.471 825.016 388.524 823.029C390.576 820.909 393.04 822.234 393.04 825.413ZM405.084 825.81C405.495 828.062 404.81 828.725 402.757 828.725C400.567 828.725 399.883 827.93 399.883 825.281C399.883 820.909 404.4 821.307 405.084 825.81Z" fill="#FFEFD5"/>
<path d="M36.2377 777.461C34.4585 779.845 33.0898 782.892 33.0898 784.084C33.0898 786.336 38.5644 795.609 39.933 795.609C41.3016 795.609 46.7762 786.734 46.7762 784.482C46.7762 781.832 41.7122 773.09 40.2067 773.09C39.6593 773.09 37.8801 775.077 36.2377 777.461ZM42.3965 784.084C42.6703 785.674 41.9859 786.336 40.0699 786.336C38.4275 786.336 37.1957 785.541 37.1957 784.614C37.1957 780.508 41.5754 780.11 42.3965 784.084Z" fill="#FFEFD5"/>
<path d="M116.987 777.461C115.208 779.845 113.839 782.892 113.839 784.084C113.839 786.336 119.314 795.609 120.683 795.609C122.051 795.609 127.526 786.734 127.526 784.482C127.526 781.832 122.462 773.09 120.956 773.09C120.409 773.09 118.63 775.077 116.987 777.461ZM123.146 784.084C123.42 785.674 122.735 786.336 120.819 786.336C119.177 786.336 117.945 785.541 117.945 784.614C117.945 780.508 122.325 780.11 123.146 784.084Z" fill="#FFEFD5"/>
<path d="M197.736 777.461C195.957 779.845 194.588 782.892 194.588 784.084C194.588 786.336 200.063 795.609 201.432 795.609C202.8 795.609 208.275 786.734 208.275 784.482C208.275 781.832 203.211 773.09 201.705 773.09C201.158 773.09 199.379 775.077 197.736 777.461ZM203.895 784.084C204.169 785.674 203.484 786.336 201.568 786.336C199.926 786.336 198.694 785.541 198.694 784.614C198.694 780.508 203.074 780.11 203.895 784.084Z" fill="#FFEFD5"/>
<path d="M278.486 777.461C276.707 779.845 275.338 782.892 275.338 784.084C275.338 786.336 280.812 795.609 282.181 795.609C283.55 795.609 289.024 786.734 289.024 784.482C289.024 781.832 283.96 773.09 282.455 773.09C281.907 773.09 280.128 775.077 278.486 777.461ZM284.645 784.084C284.918 785.674 284.234 786.336 282.318 786.336C280.676 786.336 279.444 785.541 279.444 784.614C279.444 780.508 283.823 780.11 284.645 784.084Z" fill="#FFEFD5"/>
<path d="M359.235 777.461C357.456 779.845 356.087 782.892 356.087 784.084C356.087 786.336 361.561 795.609 362.93 795.609C364.299 795.609 369.773 786.734 369.773 784.349C369.773 781.965 364.436 773.09 362.93 773.09C362.519 773.09 360.877 775.077 359.235 777.461ZM365.394 784.084C365.667 785.674 364.983 786.336 363.067 786.336C361.425 786.336 360.193 785.541 360.193 784.614C360.193 780.508 364.572 780.11 365.394 784.084Z" fill="#FFEFD5"/>
<path d="M448.017 738.12C446.512 741.961 447.196 743.948 449.933 743.948C451.439 743.948 452.671 743.153 452.671 742.094C452.671 739.312 451.165 736 449.933 736C449.386 736 448.428 736.927 448.017 738.12Z" fill="#FFEFD5"/>
<path d="M528.903 738.914C527.945 742.358 528.766 743.948 531.503 743.948C533.556 743.948 533.967 741.564 532.598 738.12C531.366 735.205 529.724 735.47 528.903 738.914Z" fill="#FFEFD5"/>
<path d="M609.516 738.914C608.284 743.551 608.421 743.948 611.432 743.948C614.169 743.948 614.853 741.961 613.348 738.12C612.116 735.073 610.474 735.47 609.516 738.914Z" fill="#FFEFD5"/>
<path d="M690.265 738.914C689.033 743.551 689.17 743.948 692.181 743.948C694.918 743.948 695.602 741.961 694.097 738.12C692.865 735.073 691.223 735.47 690.265 738.914Z" fill="#FFEFD5"/>
<path d="M771.014 738.914C769.782 743.551 769.919 743.948 772.93 743.948C775.667 743.948 776.352 741.961 774.846 738.12C773.615 735.073 771.972 735.47 771.014 738.914Z" fill="#FFEFD5"/>
<path d="M449.659 747.392C448.975 747.922 448.564 749.511 448.564 750.968C448.564 752.425 447.333 753.75 445.69 754.147C443.637 754.677 443.09 755.605 443.637 757.856C444.322 760.506 444.048 760.771 441.448 760.108C438.984 759.578 438.71 759.843 439.258 762.228C440.216 765.804 438.437 767.129 436.247 764.48C435.289 763.42 433.646 762.493 432.551 762.493C431.457 762.493 431.046 761.83 431.457 761.168C432.688 759.181 429.54 755.869 426.393 755.869C425.024 755.869 423.518 754.942 422.971 753.75C422.56 752.558 420.781 751.896 418.591 752.028C416.675 752.293 413.801 751.763 412.296 750.968C409.011 749.379 406.137 750.041 406.137 752.69C406.137 753.75 407.505 754.545 409.285 754.545C416.402 754.545 423.382 757.724 429.404 763.42C434.741 768.586 435.289 769.513 433.373 770.97C432.141 771.765 430.772 773.885 430.088 775.474L429.13 778.653L425.571 775.342C420.371 770.705 416.675 769.116 411.064 769.116C404.358 769.116 404.905 771.235 411.748 772.295C419.549 773.487 424.887 777.461 426.666 783.422C428.446 789.913 428.446 789.913 424.887 790.575C423.108 790.84 420.781 790.178 419.276 788.853C416.949 786.601 416.949 786.469 419.686 785.012C423.382 783.157 423.518 778.388 419.823 778.388C417.633 778.388 417.086 779.316 417.086 782.362C417.086 786.469 415.307 787.263 411.748 785.144C410.106 784.084 410.106 783.554 411.475 781.832C413.664 779.316 412.569 775.739 409.695 775.739C406.684 775.739 405.863 777.991 407.642 781.303C408.874 783.422 408.874 784.349 407.642 784.747C404.495 785.806 406.274 788.323 410.38 788.456C412.706 788.588 415.58 789.648 416.812 790.972C419.002 793.224 419.002 793.224 415.717 792.297C410.106 790.84 407.095 790.84 406.547 792.562C406.137 793.754 407.369 794.284 410.38 794.284C414.486 794.284 414.622 794.416 412.706 796.536C408.327 801.305 407.369 805.411 406.684 818.922L406 832.698H611.432H816.726V826.87C816.726 823.558 816.179 820.644 815.495 820.247C813.168 818.79 812.757 811.372 814.673 805.808C815.768 802.762 816.726 799.318 816.726 798.258C816.726 795.211 813.989 798.655 811.936 804.351C810.02 809.385 810.02 809.385 809.883 805.543C809.883 803.292 809.336 800.642 808.515 799.583C806.872 797.066 809.336 794.284 813.442 794.284C816.863 794.284 817.821 792.429 815.221 790.972C813.442 789.913 805.777 792.827 805.777 794.549C805.777 795.211 805.093 795.344 804.272 794.814C801.808 793.357 807.83 788.588 812.484 788.456C816.589 788.323 818.369 785.806 815.221 784.747C813.989 784.349 813.989 783.422 815.221 781.303C817 777.991 816.179 775.739 813.168 775.739C810.294 775.739 809.199 779.316 811.389 781.832C812.757 783.554 812.757 784.084 811.115 785.144C807.557 787.396 805.64 786.469 806.051 782.76C806.325 780.243 805.777 779.051 803.998 778.653C800.303 777.858 799.345 782.362 802.903 784.879L805.777 786.998L802.903 789.383C798.524 793.092 795.376 791.767 795.923 786.336C796.197 783.819 797.018 780.64 797.839 779.316C799.345 776.401 809.199 771.898 813.715 771.765C815.358 771.765 816.726 771.103 816.726 770.441C816.726 768.454 807.557 768.851 803.04 771.103C800.85 772.163 798.113 774.414 797.018 776.004C795.786 777.594 794.691 778.653 794.555 778.256C794.281 777.991 792.775 775.739 790.996 773.487L787.848 769.116L794.007 763.287C799.071 758.386 801.535 757.062 808.378 755.737C813.031 754.677 816.726 753.353 816.726 752.425C816.726 750.041 813.715 749.379 810.567 750.968C809.062 751.763 806.188 752.293 804.272 752.028C802.082 751.896 800.303 752.558 799.892 753.75C799.345 754.942 797.839 755.869 796.471 755.869C793.323 755.869 790.175 759.181 791.407 761.168C791.817 761.83 791.407 762.493 790.312 762.493C789.217 762.493 787.574 763.42 786.616 764.48C784.427 767.129 782.647 765.804 783.605 762.228C784.153 759.843 783.879 759.578 781.416 760.108C778.405 760.903 777.31 759.314 779.773 757.856C781.689 756.664 779.91 754.28 777.72 755.075C775.804 755.737 774.299 753.22 774.299 749.114C774.299 747.789 773.751 746.597 772.93 746.597C772.246 746.597 771.562 748.054 771.562 749.909C771.562 752.293 770.603 753.618 767.866 754.677C765.129 755.605 764.718 756.399 765.813 757.459C768.277 759.843 767.729 761.036 764.445 760.108C761.981 759.578 761.707 759.843 762.255 762.228C763.213 765.672 761.023 767.659 759.791 764.612C759.381 763.42 757.738 762.493 756.37 762.493C754.864 762.493 754.18 761.83 754.59 760.771C755.412 758.386 751.716 755.34 749.116 756.267C747.884 756.797 746.789 756.002 746.242 754.412C745.558 752.425 744.326 751.763 741.725 752.028C739.672 752.293 736.661 751.763 735.156 750.836C732.829 749.644 731.734 749.776 729.681 751.101C727.902 752.425 726.397 752.558 724.754 751.763C722.975 750.836 721.743 751.233 719.964 753.22C718.595 754.677 716.543 755.869 715.311 755.869C712.437 755.869 709.426 759.314 710.657 761.168C711.068 761.83 710.657 762.493 709.562 762.493C708.468 762.493 706.825 763.42 705.867 764.48C703.677 767.129 701.898 765.804 702.856 762.228C703.404 759.843 703.13 759.578 700.666 760.108C697.382 761.036 696.834 759.843 699.298 757.459C700.393 756.399 699.982 755.605 697.245 754.677C694.508 753.618 693.55 752.293 693.55 749.909C693.55 747.922 693.002 746.729 692.181 747.259C691.497 747.657 690.812 749.246 690.812 750.703C690.812 752.293 689.444 753.75 687.117 754.677C684.38 755.605 683.969 756.399 685.064 757.459C687.528 759.843 686.98 761.036 683.695 760.108C681.232 759.578 680.958 759.843 681.506 762.228C682.464 765.804 680.684 767.129 678.495 764.48C677.537 763.42 675.894 762.493 674.799 762.493C673.704 762.493 673.294 761.83 673.704 761.168C674.936 759.314 671.925 755.869 669.051 755.869C667.819 755.869 665.766 754.677 664.398 753.22C662.618 751.233 661.387 750.836 659.607 751.763C657.965 752.558 656.46 752.425 654.68 751.101C652.627 749.776 651.532 749.644 649.206 750.836C647.7 751.763 644.689 752.293 642.773 752.028C640.583 751.896 638.804 752.558 638.394 753.75C637.846 754.942 636.341 755.869 634.972 755.869C631.824 755.869 628.676 759.181 629.908 761.168C630.319 761.83 629.908 762.493 628.813 762.493C627.718 762.493 626.076 763.42 625.118 764.48C622.928 767.129 621.149 765.804 622.107 762.228C622.654 759.843 622.381 759.578 619.917 760.108C616.632 761.036 616.085 759.843 618.548 757.459C619.643 756.399 619.233 755.605 616.496 754.677C613.758 753.618 612.8 752.293 612.8 749.909C612.8 748.054 612.253 746.597 611.432 746.597C610.747 746.597 610.063 748.054 610.063 749.909C610.063 752.293 609.105 753.618 606.368 754.677C603.63 755.605 603.22 756.399 604.315 757.459C606.778 759.843 606.231 761.036 602.946 760.108C600.483 759.578 600.209 759.843 600.756 762.228C601.714 765.804 599.935 767.129 597.745 764.48C596.787 763.42 595.145 762.493 594.05 762.493C592.955 762.493 592.544 761.83 592.955 761.168C594.187 759.181 591.039 755.869 587.891 755.869C586.523 755.869 585.017 754.942 584.47 753.75C584.059 752.558 582.28 751.896 580.09 752.028C578.174 752.293 575.3 751.763 573.794 750.968C571.741 749.909 570.236 749.909 568.32 750.968C566.814 751.763 563.94 752.293 562.024 752.028C559.697 751.896 558.055 752.558 557.644 753.75C557.097 754.942 555.591 755.869 554.223 755.869C551.075 755.869 547.927 759.181 549.159 761.168C549.569 761.83 549.159 762.493 548.064 762.493C546.969 762.493 545.327 763.42 544.369 764.48C542.179 767.129 540.4 765.804 541.358 762.228C541.905 759.843 541.631 759.578 539.168 760.108C536.157 760.903 535.062 759.314 537.525 757.856C539.442 756.664 537.662 754.28 535.473 755.075C533.556 755.737 532.051 753.22 532.051 749.114C532.051 747.789 531.504 746.597 530.682 746.597C529.998 746.597 529.314 748.054 529.314 749.909C529.314 752.293 528.356 753.618 525.618 754.677C522.881 755.605 522.471 756.399 523.565 757.459C526.029 759.843 525.482 761.036 522.197 760.108C519.733 759.578 519.46 759.843 520.007 762.228C520.965 765.804 519.186 767.129 516.996 764.48C516.038 763.42 514.396 762.493 513.301 762.493C512.206 762.493 511.795 761.83 512.206 761.168C513.438 759.181 510.29 755.869 507.279 755.869C505.91 755.869 504.268 754.942 503.583 753.75C502.625 752.161 501.12 751.763 498.519 752.293C496.056 752.69 493.866 752.161 492.771 751.101C491.129 749.644 490.171 749.511 487.844 750.836C486.202 751.763 483.191 752.293 481.001 752.028C478.401 751.763 477.032 752.425 476.211 754.147C475.663 755.472 474.021 756.532 472.515 756.532C471.01 756.532 469.231 757.856 468.41 759.446C467.725 761.168 466.357 762.493 465.535 762.493C464.577 762.493 463.483 763.42 463.072 764.612C461.84 767.659 459.65 765.672 460.608 762.228C461.156 759.843 460.882 759.578 458.419 760.108C455.134 761.036 454.586 759.843 457.05 757.459C458.145 756.399 457.734 755.605 454.997 754.677C452.67 753.75 451.302 752.161 451.028 749.909C450.754 747.922 450.207 746.862 449.659 747.392ZM497.151 756.002C503.72 757.724 511.111 762.89 513.164 766.996C514.122 769.381 513.848 770.97 511.795 774.149L509.195 778.388L506.594 775.607C498.246 766.732 480.59 766.864 474.021 776.004C472.789 777.594 471.694 778.653 471.557 778.256C471.284 777.991 469.778 775.872 467.999 773.487L464.988 769.248L469.231 764.48C474.021 759.181 477.306 757.194 483.465 755.737C489.487 754.412 491.129 754.412 497.151 756.002ZM584.196 757.856C586.112 758.916 589.67 761.83 591.997 764.347L596.24 769.116L593.229 773.62L590.218 778.123L586.796 775.077C581.595 770.441 578.037 769.116 571.057 769.116C563.94 769.116 557.918 771.633 554.77 776.004C553.538 777.594 552.444 778.653 552.307 778.256C552.033 777.991 550.527 775.739 548.748 773.487L545.6 769.116L551.622 763.287C555.181 759.843 559.834 756.929 562.982 756.134C569.141 754.545 578.995 755.34 584.196 757.856ZM664.945 757.989C666.998 758.916 670.556 762.095 672.883 764.745C676.305 768.851 676.852 770.043 675.347 771.103C674.252 771.898 673.02 773.885 672.336 775.474L671.378 778.653L667.819 775.342C662.345 770.441 658.786 769.116 651.806 769.116C644.689 769.116 638.667 771.633 635.52 776.004C634.288 777.594 633.193 778.653 632.919 778.256C632.645 777.991 631.14 775.739 629.361 773.487L626.35 769.116L632.372 763.42C635.93 759.843 640.447 756.929 643.731 756.134C649.89 754.545 659.744 755.34 664.945 757.989ZM745.694 757.989C747.747 758.916 751.306 761.963 753.496 764.612L757.601 769.381L754.59 773.752L751.716 778.123L748.295 775.077C743.094 770.441 739.536 769.116 732.555 769.116C725.439 769.116 719.417 771.633 716.269 776.004C715.037 777.594 713.942 778.653 713.668 778.256C713.395 777.991 711.889 775.739 710.11 773.487L707.099 769.116L713.121 763.42C716.679 759.843 721.196 756.929 724.481 756.134C730.639 754.545 740.494 755.34 745.694 757.989ZM451.302 758.386C451.302 759.181 454.586 763.155 458.555 767.394C467.452 776.666 469.094 779.448 469.094 785.541C469.094 788.985 468.546 790.31 467.041 790.31C465.262 790.31 465.125 789.78 466.357 787.661C468.41 783.952 465.262 778.123 456.776 769.248L449.933 761.963L442.679 769.646C434.057 779.051 432.004 783.157 433.646 787.528C435.015 790.972 434.468 792.429 432.278 790.972C429.951 789.648 430.499 780.64 433.099 777.064C434.331 775.209 438.3 770.573 441.995 766.732C445.553 762.758 448.564 759.049 448.564 758.386C448.564 757.724 449.249 757.194 449.933 757.194C450.754 757.194 451.302 757.724 451.302 758.386ZM532.051 758.386C532.051 759.049 535.062 762.758 538.62 766.732C548.201 776.931 549.843 779.713 549.843 785.276C549.843 788.985 549.296 790.31 547.79 790.31C546.011 790.31 545.874 789.78 547.106 787.661C549.159 783.952 546.011 778.123 537.525 769.248L530.682 761.963L523.429 769.646C514.806 779.051 512.753 783.157 514.396 787.528C515.764 790.972 515.217 792.429 513.027 790.972C511.111 789.913 511.111 781.567 513.164 777.991C513.985 776.401 517.954 771.633 522.06 767.394C526.029 763.155 529.314 759.181 529.314 758.386C529.314 757.724 529.998 757.194 530.682 757.194C531.504 757.194 532.051 757.724 532.051 758.386ZM612.8 758.386C612.8 759.181 616.222 763.287 620.328 767.526C628.676 776.269 631.824 782.23 630.866 787.131C629.908 791.9 627.855 790.972 628.129 785.806C628.266 780.64 626.76 778.123 617.727 768.454L611.432 761.963L604.315 769.646C595.555 779.051 593.503 783.157 595.145 787.528C596.514 790.972 595.966 792.429 593.776 790.972C591.86 789.913 591.86 781.567 593.913 777.991C594.734 776.401 598.703 771.633 602.809 767.394C606.778 763.155 610.063 759.181 610.063 758.386C610.063 757.724 610.747 757.194 611.432 757.194C612.253 757.194 612.8 757.724 612.8 758.386ZM693.55 758.386C693.55 759.181 696.834 763.155 700.803 767.394C709.699 776.666 711.342 779.448 711.342 785.541C711.342 788.985 710.794 790.31 709.289 790.31C707.51 790.31 707.373 789.78 708.604 787.661C710.657 783.952 707.646 778.123 699.161 769.116L692.318 761.83L685.064 769.646C676.305 779.051 674.252 783.025 675.894 787.528C677.263 790.972 676.715 792.429 674.526 790.972C672.199 789.648 672.746 780.64 675.347 777.064C676.578 775.209 680.547 770.573 684.243 766.732C687.801 762.758 690.812 759.049 690.812 758.386C690.812 757.724 691.497 757.194 692.181 757.194C693.002 757.194 693.55 757.724 693.55 758.386ZM774.299 758.386C774.299 759.181 777.583 763.155 781.553 767.394C790.449 776.666 792.091 779.448 792.091 785.541C792.091 788.985 791.544 790.31 790.038 790.31C788.259 790.31 788.122 789.78 789.354 787.661C791.407 783.952 788.259 778.123 779.773 769.248L772.93 761.963L765.676 769.646C757.054 779.051 755.001 783.157 756.643 787.528C758.012 790.972 757.465 792.429 755.275 790.972C752.948 789.648 753.496 780.64 756.096 777.064C757.328 775.209 761.297 770.573 764.992 766.732C768.551 762.758 771.562 759.049 771.562 758.386C771.562 757.724 772.246 757.194 772.93 757.194C773.751 757.194 774.299 757.724 774.299 758.386ZM457.187 773.885C463.756 781.303 465.535 787.396 461.977 790.178C452.944 797.198 449.796 800.377 449.112 803.027C448.154 806.603 445.827 805.941 445.827 802.099C445.827 800.642 444.185 797.993 442.269 796.006C438.573 792.429 436.247 787.661 436.247 783.554C436.247 781.435 448.154 766.732 449.933 766.732C450.344 766.732 453.492 769.911 457.187 773.885ZM537.936 773.885C544.506 781.303 546.285 787.396 542.726 790.178C533.693 797.198 530.545 800.377 529.861 803.027C528.903 806.603 526.576 805.941 526.576 802.099C526.576 800.642 524.934 797.993 523.018 796.006C519.323 792.429 516.996 787.661 516.996 783.554C516.996 781.435 528.903 766.732 530.682 766.732C531.093 766.732 534.241 769.911 537.936 773.885ZM618.685 773.885C625.255 781.303 627.034 787.396 623.476 790.178C614.443 797.198 611.295 800.377 610.61 803.027C609.926 805.808 607.052 807.795 607.463 805.146C608.01 801.834 606.915 799.053 603.767 796.006C600.072 792.429 597.745 787.661 597.745 783.554C597.745 781.435 609.652 766.732 611.432 766.732C611.842 766.732 614.99 769.911 618.685 773.885ZM699.435 773.885C706.004 781.303 707.783 787.396 704.225 790.178C695.192 797.198 692.044 800.377 691.36 803.027C690.402 806.603 688.075 805.941 688.075 802.099C688.075 800.642 686.433 797.993 684.517 796.006C680.821 792.429 678.495 787.661 678.495 783.554C678.495 781.435 690.402 766.732 692.181 766.732C692.591 766.732 695.739 769.911 699.435 773.885ZM780.184 773.885C786.753 781.303 788.533 787.396 784.974 790.178C775.941 797.198 772.793 800.377 772.109 803.027C771.151 806.603 768.824 806.073 768.824 802.232C768.824 800.907 766.634 797.331 764.034 794.284C757.328 786.601 757.601 782.76 765.813 773.885C769.372 769.911 772.52 766.732 772.93 766.732C773.341 766.732 776.489 769.911 780.184 773.885ZM502.078 775.872C505.363 778.123 508.784 785.012 508.784 789.25C508.784 790.972 502.625 790.443 499.888 788.456C497.425 786.734 497.425 786.601 500.299 785.144C504.131 783.157 504.405 778.388 500.572 778.388C498.383 778.388 497.835 779.316 497.835 782.362C497.835 786.336 497.014 786.998 493.182 785.541C491.539 784.879 491.403 784.217 492.498 782.097C494.277 778.918 493.182 775.739 490.308 775.739C487.297 775.739 486.202 779.316 488.392 781.832C489.76 783.554 489.76 784.084 488.118 785.144C484.559 787.396 482.643 786.469 483.054 782.76C483.328 780.243 482.78 779.051 481.001 778.653C477.306 777.858 476.348 782.362 479.906 784.879L482.78 786.998L479.906 789.383C475.526 793.092 472.379 791.767 472.926 786.336C473.747 779.581 475.526 777.196 481.822 774.282C488.665 771.235 496.193 771.765 502.078 775.872ZM579.542 774.282C585.564 776.931 587.207 779.183 588.712 785.806C589.533 789.383 589.26 790.045 586.523 790.575C584.606 790.84 582.28 790.178 580.774 788.853C578.448 786.601 578.448 786.469 581.185 785.012C584.88 783.157 585.017 778.388 581.322 778.388C579.132 778.388 578.584 779.316 578.584 782.362C578.584 786.336 577.763 786.998 573.931 785.541C572.289 784.879 572.152 784.217 573.247 782.097C575.026 778.918 573.931 775.739 571.057 775.739C568.046 775.739 566.951 779.316 569.141 781.832C570.51 783.554 570.51 784.084 568.867 785.144C565.309 787.396 563.393 786.469 563.803 782.627C564.077 779.845 563.529 778.918 561.203 778.653C557.097 778.123 556.823 783.025 560.929 785.144L563.803 786.601L560.929 789.118C558.055 791.767 554.633 792.429 553.402 790.575C551.896 788.058 555.318 778.918 559.013 776.136C565.172 771.368 571.468 770.838 579.542 774.282ZM663.576 775.872C666.724 777.991 670.283 785.012 670.283 789.118C670.283 791.237 663.85 790.972 661.524 788.853C659.197 786.601 659.197 786.469 661.934 785.012C665.629 783.157 665.766 778.388 662.071 778.388C659.881 778.388 659.334 779.316 659.334 782.362C659.334 786.336 658.513 786.998 654.68 785.541C653.038 784.879 652.901 784.217 653.996 782.097C655.775 778.918 654.68 775.739 651.806 775.739C648.795 775.739 647.7 779.316 649.89 781.832C651.259 783.554 651.259 784.084 649.616 785.144C646.058 787.263 644.279 786.469 644.279 782.362C644.279 779.713 643.594 778.388 642.226 778.388C638.667 778.388 638.12 782.495 641.405 784.879L644.279 786.998L641.405 789.383C637.025 793.092 633.877 791.767 634.425 786.336C635.246 779.581 637.025 777.196 643.321 774.282C650.164 771.235 657.691 771.765 663.576 775.872ZM744.326 775.872C747.61 778.123 751.032 785.012 751.032 789.25C751.032 790.972 744.873 790.443 742.136 788.456C739.672 786.734 739.672 786.601 742.547 785.144C746.379 783.157 746.652 778.388 742.82 778.388C740.63 778.388 740.083 779.316 740.083 782.362C740.083 786.336 739.262 786.998 735.43 785.541C733.787 784.879 733.65 784.217 734.745 782.097C736.525 778.918 735.43 775.739 732.555 775.739C729.545 775.739 728.45 779.316 730.639 781.832C732.008 783.554 732.008 784.084 730.366 785.144C726.807 787.396 724.891 786.469 725.302 782.76C725.575 780.243 725.028 779.051 723.249 778.653C719.554 777.858 718.595 782.362 722.154 784.879L725.028 786.998L722.154 789.383C717.774 793.092 714.626 791.767 715.174 786.469C715.721 779.978 717.774 777.064 724.07 774.282C730.913 771.235 738.441 771.765 744.326 775.872ZM497.835 791.105C500.299 793.357 497.972 793.622 493.045 791.37C490.034 790.045 488.939 790.31 485.517 792.694C481.275 795.874 478.537 794.549 482.507 791.37C487.297 787.263 493.729 787.131 497.835 791.105ZM578.584 791.105C581.048 793.357 578.448 793.754 574.205 791.502C571.331 789.913 563.529 792.165 563.529 794.549C563.529 795.211 562.845 795.344 562.161 794.946C560.245 793.887 562.982 790.443 566.951 788.853C570.373 787.528 575.847 788.588 578.584 791.105ZM659.334 791.105C661.797 793.357 659.197 793.754 654.954 791.502C652.08 789.913 644.279 792.165 644.279 794.549C644.279 795.211 643.594 795.344 642.91 794.946C640.994 793.887 643.731 790.443 647.7 788.853C651.122 787.528 656.596 788.588 659.334 791.105ZM740.083 791.105C742.547 793.357 739.946 793.754 735.703 791.502C732.829 789.913 725.028 792.165 725.028 794.549C725.028 795.211 724.344 795.344 723.659 794.946C721.743 793.887 724.481 790.443 728.45 788.853C731.871 787.528 737.346 788.588 740.083 791.105ZM433.92 794.814C440.49 797.463 443.637 801.569 443.501 807.265C443.227 816.67 431.867 821.572 425.435 814.948C421.329 810.709 422.424 805.278 427.351 804.086C432.141 802.894 434.878 804.351 434.741 807.795V810.842L433.509 807.795C432.004 804.351 429.13 803.954 426.529 807.001C424.066 809.915 426.666 813.491 431.457 813.491C440.9 813.491 440.079 801.967 430.499 801.172C419.823 800.245 415.991 811.107 424.613 817.73C427.214 819.717 429.404 821.969 429.404 822.631C429.404 823.294 428.309 822.896 426.94 821.704C423.792 818.922 418.591 818.79 417.633 821.307C417.086 822.764 416.128 822.499 413.527 820.114C407.369 814.551 410.38 799.847 418.728 796.006C425.982 792.562 428.035 792.429 433.92 794.814ZM474.979 794.814C480.043 796.801 484.149 801.967 484.149 806.206C484.149 810.047 480.59 816.273 477.99 817.333C471.147 819.849 463.619 816.141 463.619 810.312C463.619 808.325 464.304 806.073 465.262 805.146C468.683 801.834 475.937 804.086 475.937 808.59C475.937 809.782 474.979 809.385 473.474 807.398C470.052 803.424 465.946 804.749 466.63 809.782C467.041 813.094 467.588 813.491 471.831 813.491C475.8 813.491 476.758 812.829 477.853 809.915C479.632 805.014 475.937 800.907 469.778 800.907C461.293 800.907 457.324 810.842 463.209 817.2C467.178 821.307 465.672 824.486 461.566 820.777C458.966 818.392 457.871 818.127 455.408 819.452C451.302 821.572 450.617 820.379 450.617 812.167C450.617 803.954 453.765 798.92 461.019 795.344C466.63 792.429 469.094 792.429 474.979 794.814ZM514.669 794.814C521.102 797.331 524.387 801.569 524.387 807.133C524.387 812.696 518.912 818.127 513.301 818.127C509.332 818.127 503.31 813.491 503.31 810.445C503.31 807.265 507.552 803.556 510.974 803.556C514.259 803.556 517.954 808.06 515.764 809.385C515.08 809.782 514.259 808.987 513.848 807.53C513.027 804.351 509.742 804.086 507.279 807.001C504.815 809.915 507.416 813.491 512.206 813.491C517.407 813.491 520.281 809.385 517.954 804.881C515.491 800.112 505.91 799.45 502.762 803.821C500.025 807.53 499.888 813.359 502.625 815.478C505.363 817.598 505.226 818.525 502.078 820.379C498.383 822.631 490.992 819.055 490.855 815.081C490.308 803.689 494.55 797.066 504.678 793.887C508.1 792.694 510.016 792.827 514.669 794.814ZM559.424 796.668C571.741 805.543 559.971 824.618 547.38 816.008C544.095 813.756 543.274 807.795 546.011 805.146C549.433 801.834 556.686 804.086 556.686 808.59C556.686 809.782 555.728 809.385 554.223 807.398C550.801 803.424 546.695 804.749 547.38 809.782C547.79 813.094 548.338 813.491 552.58 813.491C556.549 813.491 557.508 812.829 558.602 809.915C560.382 805.014 556.686 800.907 550.527 800.907C541.358 800.907 537.799 811.769 545.053 817.73C547.927 820.114 548.475 821.307 547.243 822.499C546.148 823.558 545.737 823.558 545.737 822.366C545.737 821.572 544.506 820.247 543.137 819.585C541.221 818.525 539.715 818.79 537.115 820.909L533.556 823.558L531.914 818.26C526.576 801.04 545.19 786.469 559.424 796.668ZM595.419 794.814C601.988 797.463 605.136 801.569 604.999 807.265C604.725 816.405 593.913 821.307 587.207 815.213C583.375 811.769 583.238 808.723 586.659 805.676C590.492 802.364 595.555 803.424 595.966 807.53C596.377 810.842 596.377 810.842 595.008 807.795C593.503 804.351 590.628 803.954 588.028 807.001C585.564 809.915 588.165 813.491 592.955 813.491C598.156 813.491 601.03 809.385 598.703 804.881C596.377 800.377 588.165 799.583 584.196 803.424C580.637 806.868 580.501 813.491 583.922 816.273C586.249 818.26 586.249 818.657 584.196 820.644C582.143 822.631 581.869 822.631 579.679 820.512C578.311 819.187 576.258 818.657 574.615 819.055C572.152 819.585 571.741 819.187 571.604 816.008C571.057 803.424 575.026 797.066 585.428 793.887C588.849 792.694 590.765 792.827 595.419 794.814ZM640.036 796.668C652.217 805.543 640.583 824.486 628.129 816.008C624.844 813.756 624.023 807.795 626.76 805.146C630.182 801.834 637.436 804.086 637.436 808.59C637.436 809.782 636.478 809.385 634.972 807.398C631.55 803.424 627.445 804.749 628.129 809.782C628.95 816.405 640.173 815.213 640.173 808.458C640.173 804.351 636.204 800.907 631.277 800.907C621.286 800.907 618.001 814.286 627.171 818.392C629.087 819.187 630.592 820.644 630.592 821.704C630.592 824.088 628.403 823.956 627.308 821.439C626.35 818.922 619.78 818.79 618.822 821.439C618.138 822.896 617.317 822.499 614.579 819.717C611.705 816.67 611.295 815.213 611.842 810.312C613.485 796.271 628.95 788.721 640.036 796.668ZM676.168 794.814C686.296 798.92 689.307 808.987 682.053 814.948C677.263 819.055 671.651 819.055 667.682 814.948C663.576 810.709 664.671 805.278 669.598 804.086C674.389 802.894 677.126 804.351 676.989 807.795V810.842L675.757 807.795C674.252 804.351 671.378 803.954 668.777 807.001C666.314 809.915 668.914 813.491 673.704 813.491C678.905 813.491 681.779 809.385 679.453 804.881C676.989 800.112 667.409 799.45 664.261 803.821C661.25 807.928 661.524 813.094 664.945 816.67C667.135 818.922 667.409 819.982 666.177 821.439C664.945 822.896 664.261 822.896 661.934 820.644C659.881 818.657 658.649 818.392 656.733 819.32C653.175 821.174 652.491 819.982 652.491 812.432C652.491 802.762 656.87 796.801 666.177 793.887C669.598 792.694 671.515 792.827 676.168 794.814ZM720.922 796.668C733.24 805.543 721.47 824.618 708.878 816.008C705.593 813.756 704.772 807.795 707.51 805.146C710.931 801.834 718.185 804.086 718.185 808.59C718.185 809.782 717.227 809.385 715.721 807.398C712.3 803.424 708.194 804.749 708.878 809.782C709.289 813.094 709.836 813.491 714.079 813.491C718.048 813.491 719.006 812.829 720.101 809.915C721.88 805.014 718.185 800.907 712.026 800.907C706.688 800.907 702.719 804.881 702.719 810.18C702.719 812.299 703.814 815.346 705.183 816.803C707.646 819.32 707.646 819.452 704.909 819.452C703.267 819.452 701.624 820.512 701.077 821.704C700.256 823.956 700.119 823.956 698.887 821.704C698.066 820.512 696.697 819.452 695.602 819.452C693.002 819.452 691.633 814.021 692.728 808.325C695.192 795.476 710.521 789.25 720.922 796.668ZM756.917 794.814C767.045 798.92 770.056 808.987 762.802 814.948C758.012 819.055 752.401 819.055 748.432 814.948C744.326 810.709 745.421 805.278 750.348 804.086C755.138 802.894 757.875 804.351 757.738 807.795V810.842L756.507 807.795C755.001 804.351 752.127 803.954 749.527 807.001C747.063 809.915 749.663 813.491 754.454 813.491C763.897 813.491 763.076 801.967 753.496 801.172C743.915 800.377 739.125 810.312 746.105 816.67C748.021 818.392 749.116 820.644 748.705 821.704C748.158 823.161 747.474 823.029 745.284 820.909C742.136 817.598 740.904 817.465 738.03 820.379C736.114 822.234 735.566 822.234 734.472 820.644C730.229 814.154 734.472 799.318 741.725 796.006C748.979 792.562 751.032 792.429 756.917 794.814ZM801.671 796.668C813.989 805.543 802.219 824.618 789.627 816.008C786.343 813.756 785.522 807.795 788.259 805.146C791.68 801.834 798.934 804.086 798.934 808.59C798.934 809.782 797.976 809.385 796.471 807.398C793.049 803.424 788.943 804.749 789.627 809.782C790.038 813.094 790.585 813.491 794.828 813.491C798.797 813.491 799.755 812.829 800.85 809.915C803.587 802.364 791.68 797.331 785.932 803.556C782.921 806.868 782.647 813.226 785.522 816.405C787.301 818.525 787.301 819.055 785.248 820.909C783.058 822.896 782.647 822.896 780.594 820.512C779.226 819.055 777.31 818.26 776.215 818.657C773.751 819.585 772.383 814.286 773.478 808.325C775.941 795.476 791.27 789.25 801.671 796.668ZM493.729 795.344C493.729 795.874 493.045 797.066 492.224 797.861C491.403 798.655 489.897 801.569 488.939 804.351C487.023 809.385 487.023 809.385 486.886 805.543C486.886 803.292 486.339 800.642 485.517 799.583C483.875 797.066 486.339 794.284 490.445 794.284C492.224 794.284 493.729 794.814 493.729 795.344ZM574.479 795.344C574.479 795.874 573.794 797.066 572.973 797.861C572.152 798.655 570.646 801.569 569.688 804.351C567.772 809.385 567.772 809.385 567.635 805.543C567.635 803.292 567.088 800.642 566.267 799.583C564.624 797.066 567.088 794.284 571.194 794.284C572.973 794.284 574.479 794.814 574.479 795.344ZM653.175 799.053C649.89 803.689 648.932 808.06 649.48 815.743C649.753 818.392 649.069 819.452 647.427 819.452C646.195 819.452 644.142 820.379 642.91 821.439C640.857 823.294 640.447 823.294 639.762 821.572C639.215 820.379 639.899 819.32 641.678 818.79C646.879 817.068 650.438 804.749 647.016 799.583C645.237 796.801 647.974 794.284 652.627 794.284H656.46L653.175 799.053ZM735.977 794.946C735.977 795.344 735.019 797.198 733.787 799.053C732.555 800.775 731.05 804.219 730.503 806.603L729.408 810.842L729.271 806.206C729.134 803.689 728.586 800.642 727.765 799.583C726.123 797.066 728.586 794.284 732.692 794.284C734.472 794.284 735.977 794.549 735.977 794.946ZM447.196 814.154C447.196 817.73 446.648 819.452 445.28 819.452C444.322 819.452 442.679 820.379 441.721 821.439C440.49 822.896 439.668 823.161 438.984 822.101C438.437 821.307 439.805 818.922 441.858 816.803C444.048 814.683 445.827 812.034 445.827 810.974C445.827 809.782 446.101 808.855 446.511 808.855C446.922 808.855 447.196 811.239 447.196 814.154ZM525.482 820.512C523.565 822.366 522.334 822.764 521.239 821.704C520.281 820.777 520.828 819.187 523.155 816.538C525.071 814.418 526.713 811.637 526.85 810.445C526.987 809.252 527.261 810.445 527.534 813.094C527.945 816.67 527.398 818.657 525.482 820.512ZM689.854 821.704C689.307 822.896 688.349 822.764 686.022 821.042C683.011 818.79 683.011 818.79 685.475 815.611C686.98 813.889 688.212 811.504 688.212 810.312C688.349 809.12 688.896 810.842 689.444 814.154C689.991 817.465 690.128 820.909 689.854 821.704ZM607.599 821.042C605.683 823.294 605.41 823.294 603.904 821.174C602.536 819.452 602.809 818.26 605.136 814.816L608.01 810.577L608.831 814.683C609.242 817.333 608.831 819.585 607.599 821.042ZM770.74 817.465C771.425 822.499 771.288 823.558 770.193 821.704C769.372 820.512 767.456 819.452 766.087 819.452C763.623 819.452 763.623 819.187 766.498 814.948C768.14 812.564 769.645 810.577 769.645 810.709C769.782 810.709 770.193 813.756 770.74 817.465ZM488.528 821.969C487.981 823.294 487.57 823.294 486.612 821.572C485.928 820.379 484.423 819.452 483.465 819.452C482.37 819.452 481.412 818.79 481.412 818.127C481.412 817.333 481.959 816.803 482.643 816.803C483.328 816.803 484.423 815.478 484.97 813.756C485.928 811.107 486.065 811.107 487.57 815.478C488.528 817.995 488.939 820.909 488.528 821.969ZM570.236 822.101C570.236 823.691 569.962 823.558 568.867 821.704C567.088 818.79 561.34 818.79 559.697 821.572C558.876 823.029 558.055 823.294 557.508 822.366C557.097 821.572 558.466 819.849 560.792 818.657C562.982 817.333 565.309 815.081 565.856 813.491C566.54 811.239 566.951 811.504 568.457 815.478C569.415 817.995 570.236 821.042 570.236 822.101ZM730.503 817.068C730.503 818.392 729.545 819.452 728.45 819.452C727.492 819.452 725.986 820.379 725.302 821.572C724.344 823.294 723.933 823.426 722.428 821.572C721.059 819.982 721.196 819.32 723.523 818.26C725.028 817.465 726.67 815.478 727.081 814.021C727.902 811.769 728.313 811.504 729.271 812.961C729.955 814.021 730.503 815.876 730.503 817.068ZM808.788 820.512C806.325 822.896 806.188 822.896 804.546 820.644C803.587 819.055 803.587 818.127 804.409 818.127C805.23 818.127 806.598 816.538 807.42 814.683L809.062 811.239L810.294 814.551C811.115 817.2 810.841 818.525 808.788 820.512ZM412.98 825.413C412.98 827.797 412.296 828.725 410.243 828.725C407.505 828.725 406.411 825.016 408.464 823.029C410.516 820.909 412.98 822.234 412.98 825.413ZM425.024 825.81C425.435 828.062 424.75 828.725 422.697 828.725C420.781 828.725 419.823 827.93 419.823 826.34C419.823 821.307 424.34 820.909 425.024 825.81ZM436.247 825.413C436.247 827.797 435.562 828.725 433.646 828.725C431.73 828.725 431.32 827.93 431.867 825.413C432.141 823.558 433.373 822.101 434.331 822.101C435.426 822.101 436.247 823.426 436.247 825.413ZM448.564 825.413C448.564 827.797 447.88 828.725 445.827 828.725C443.09 828.725 441.995 825.016 444.048 823.029C446.101 820.909 448.564 822.234 448.564 825.413ZM460.608 825.81C461.019 828.062 460.335 828.725 458.282 828.725C456.092 828.725 455.408 827.93 455.408 825.281C455.408 820.909 459.924 821.307 460.608 825.81ZM471.831 825.413C471.831 827.797 471.147 828.725 469.231 828.725C467.315 828.725 466.904 827.93 467.452 825.413C467.725 823.558 468.957 822.101 469.915 822.101C471.01 822.101 471.831 823.426 471.831 825.413ZM483.875 825.81C484.286 828.062 483.601 828.725 481.548 828.725C479.632 828.725 478.674 827.93 478.674 826.34C478.674 821.307 483.191 820.909 483.875 825.81ZM496.193 825.81C496.603 828.062 495.919 828.725 493.866 828.725C491.676 828.725 490.992 827.93 490.992 825.281C490.992 820.909 495.509 821.307 496.193 825.81ZM507.416 825.413C507.416 827.797 506.731 828.725 504.678 828.725C501.941 828.725 500.846 825.016 502.899 823.029C504.952 820.909 507.416 822.234 507.416 825.413ZM519.46 825.81C519.87 828.062 519.186 828.725 517.133 828.725C515.217 828.725 514.259 827.93 514.259 826.34C514.259 821.307 518.775 820.909 519.46 825.81ZM531.23 824.221C532.598 827.665 532.188 828.725 529.314 828.725C527.261 828.725 526.576 827.797 526.576 825.413C526.576 821.704 529.861 820.909 531.23 824.221ZM543 825.413C543 827.797 542.316 828.725 540.263 828.725C537.525 828.725 536.431 825.016 538.484 823.029C540.536 820.909 543 822.234 543 825.413ZM555.044 825.81C555.455 828.062 554.77 828.725 552.717 828.725C550.801 828.725 549.843 827.93 549.843 826.34C549.843 821.307 554.36 820.909 555.044 825.81ZM566.267 825.413C566.267 827.532 565.446 828.725 564.214 828.725C562.982 828.725 562.161 827.532 562.161 825.413C562.161 823.294 562.982 822.101 564.214 822.101C565.446 822.101 566.267 823.294 566.267 825.413ZM578.311 825.81C578.721 828.062 578.037 828.725 575.984 828.725C574.068 828.725 573.11 827.93 573.11 826.34C573.11 821.307 577.626 820.909 578.311 825.81ZM590.628 825.81C591.039 828.062 590.355 828.725 588.302 828.725C586.112 828.725 585.428 827.93 585.428 825.281C585.428 820.909 589.944 821.307 590.628 825.81ZM601.851 825.413C601.851 827.797 601.167 828.725 599.251 828.725C597.335 828.725 596.924 827.93 597.472 825.413C597.745 823.558 598.977 822.101 599.935 822.101C601.03 822.101 601.851 823.426 601.851 825.413ZM613.895 825.81C614.306 828.062 613.621 828.725 611.568 828.725C609.652 828.725 608.694 827.93 608.694 826.34C608.694 821.307 613.211 820.909 613.895 825.81ZM626.213 825.81C626.623 828.062 625.939 828.725 623.886 828.725C621.696 828.725 621.012 827.93 621.012 825.281C621.012 820.909 625.528 821.307 626.213 825.81ZM637.436 825.413C637.436 827.797 636.751 828.725 634.698 828.725C631.961 828.725 630.866 825.016 632.919 823.029C634.972 820.909 637.436 822.234 637.436 825.413ZM649.48 825.81C649.89 828.062 649.206 828.725 647.153 828.725C645.237 828.725 644.279 827.93 644.279 826.34C644.279 821.307 648.795 820.909 649.48 825.81ZM661.25 824.221C662.618 827.665 662.208 828.725 659.334 828.725C657.281 828.725 656.596 827.797 656.596 825.413C656.596 821.704 659.881 820.909 661.25 824.221ZM673.02 825.413C673.02 827.797 672.336 828.725 670.283 828.725C667.546 828.725 666.451 825.016 668.504 823.029C670.556 820.909 673.02 822.234 673.02 825.413ZM685.064 825.81C685.475 828.062 684.79 828.725 682.737 828.725C680.547 828.725 679.863 827.93 679.863 825.281C679.863 820.909 684.38 821.307 685.064 825.81ZM696.56 825.413C697.108 827.93 696.697 828.725 694.781 828.725C692.865 828.725 692.181 827.797 692.181 825.413C692.181 823.426 693.002 822.101 694.097 822.101C695.055 822.101 696.287 823.558 696.56 825.413ZM708.604 825.413C708.604 827.797 707.92 828.725 705.867 828.725C703.13 828.725 702.035 825.016 704.088 823.029C706.141 820.909 708.604 822.234 708.604 825.413ZM720.648 825.81C721.059 828.062 720.375 828.725 718.322 828.725C716.132 828.725 715.448 827.93 715.448 825.281C715.448 820.909 719.964 821.307 720.648 825.81ZM731.871 825.413C731.871 827.797 731.187 828.725 729.134 828.725C726.397 828.725 725.302 825.016 727.355 823.029C729.408 820.909 731.871 822.234 731.871 825.413ZM743.915 825.81C744.326 828.062 743.641 828.725 741.588 828.725C739.672 828.725 738.714 827.93 738.714 826.34C738.714 821.307 743.231 820.909 743.915 825.81ZM755.685 824.221C757.054 827.665 756.643 828.725 753.769 828.725C751.716 828.725 751.032 827.797 751.032 825.413C751.032 821.704 754.317 820.909 755.685 824.221ZM767.456 825.413C767.456 827.797 766.771 828.725 764.718 828.725C761.981 828.725 760.886 825.016 762.939 823.029C764.992 820.909 767.456 822.234 767.456 825.413ZM779.5 825.81C779.91 828.062 779.226 828.725 777.173 828.725C775.257 828.725 774.299 827.93 774.299 826.34C774.299 821.307 778.815 820.909 779.5 825.81ZM791.27 824.221C792.638 827.665 792.228 828.725 789.354 828.725C787.301 828.725 786.616 827.797 786.616 825.413C786.616 821.704 789.901 820.909 791.27 824.221ZM803.04 825.413C803.04 827.797 802.356 828.725 800.303 828.725C797.566 828.725 796.471 825.016 798.524 823.029C800.576 820.909 803.04 822.234 803.04 825.413ZM815.084 825.81C815.495 828.062 814.81 828.725 812.757 828.725C810.567 828.725 809.883 827.93 809.883 825.281C809.883 820.909 814.4 821.307 815.084 825.81Z" fill="#FFEFD5"/>
<path d="M446.238 777.461C444.458 779.845 443.09 782.892 443.09 784.084C443.09 786.336 448.564 795.609 449.933 795.609C451.302 795.609 456.776 786.734 456.776 784.482C456.776 781.832 451.712 773.09 450.207 773.09C449.659 773.09 447.88 775.077 446.238 777.461ZM452.397 784.084C452.67 785.674 451.986 786.336 450.07 786.336C448.428 786.336 447.196 785.541 447.196 784.614C447.196 780.508 451.575 780.11 452.397 784.084Z" fill="#FFEFD5"/>
<path d="M526.987 777.461C525.208 779.845 523.839 782.892 523.839 784.084C523.839 786.336 529.314 795.609 530.683 795.609C532.051 795.609 537.526 786.734 537.526 784.482C537.526 781.832 532.462 773.09 530.956 773.09C530.409 773.09 528.63 775.077 526.987 777.461ZM533.146 784.084C533.42 785.674 532.735 786.336 530.819 786.336C529.177 786.336 527.945 785.541 527.945 784.614C527.945 780.508 532.325 780.11 533.146 784.084Z" fill="#FFEFD5"/>
<path d="M607.736 777.461C605.957 779.845 604.588 782.892 604.588 784.084C604.588 786.336 610.063 795.609 611.432 795.609C612.8 795.609 618.275 786.734 618.275 784.482C618.275 781.832 613.211 773.09 611.705 773.09C611.158 773.09 609.379 775.077 607.736 777.461ZM613.895 784.084C614.169 785.674 613.484 786.336 611.568 786.336C609.926 786.336 608.694 785.541 608.694 784.614C608.694 780.508 613.074 780.11 613.895 784.084Z" fill="#FFEFD5"/>
<path d="M688.486 777.461C686.707 779.845 685.338 782.892 685.338 784.084C685.338 786.336 690.812 795.609 692.181 795.609C693.55 795.609 699.024 786.734 699.024 784.482C699.024 781.832 693.96 773.09 692.455 773.09C691.907 773.09 690.128 775.077 688.486 777.461ZM694.645 784.084C694.918 785.674 694.234 786.336 692.318 786.336C690.676 786.336 689.444 785.541 689.444 784.614C689.444 780.508 693.823 780.11 694.645 784.084Z" fill="#FFEFD5"/>
<path d="M769.235 777.461C767.456 779.845 766.087 782.892 766.087 784.084C766.087 786.336 771.561 795.609 772.93 795.609C774.299 795.609 779.773 786.734 779.773 784.349C779.773 781.965 774.436 773.09 772.93 773.09C772.519 773.09 770.877 775.077 769.235 777.461ZM775.394 784.084C775.667 785.674 774.983 786.336 773.067 786.336C771.425 786.336 770.193 785.541 770.193 784.614C770.193 780.508 774.572 780.11 775.394 784.084Z" fill="#FFEFD5"/>
<path d="M129.334 -30.4819C136.595 -22.4216 142.108 -12.9461 145.529 -2.65097C149.014 10.0231 148.809 23.4284 144.94 35.9901C138.493 58.8288 122.415 78.6407 100.913 87.0922C89.8487 91.1556 77.8747 92.0723 66.3209 89.7405C54.7671 87.409 44.0856 81.9203 35.4631 73.8843C17.9311 57.1385 11.563 28.4034 22.3338 7.53014C33.1045 -13.3431 61.0534 -22.6594 81.8874 -10.9059C86.4315 -8.45342 90.3841 -5.03626 93.4671 -0.893845C96.5506 3.24857 98.6894 8.01561 99.7338 13.0728C101.463 23.2146 96.3532 34.4177 87.0762 37.4838C85.3859 26.5165 82.7129 14.4093 74.0648 7.53014C61.8003 -2.17926 42.2636 5.60399 38.0575 20.3843C33.8514 35.1646 43.3249 52.3821 57.2404 59.1433C64.186 62.2243 71.8038 63.4807 79.3708 62.7928C86.9382 62.1048 94.2042 59.4955 100.481 55.2123C121.197 41.9258 130.945 10.0852 115.811 -11.1025C110.36 -18.1298 103.489 -23.9295 95.6457 -28.1233C80.2757 -37.1251 62.3507 -43.2574 45.6442 -39.3658C5.39137 -29.8529 -7.50213 21.5636 1.10661 56.6275C4.73388 72.1366 13.7812 85.8402 26.6185 95.2685C40.5733 105.135 62.6258 107.769 79.4109 107.337C90.5492 107.058 101.547 104.781 111.88 100.615C118.493 98.0324 124.571 94.2473 129.805 89.4508C131.456 87.7605 133.736 83.8295 136.016 87.7605C138.296 91.6914 132.714 97.1161 131.024 100.025C127.628 105.913 122.586 110.681 116.519 113.744C110.446 117.062 103.954 119.548 97.218 121.134C91.778 122.847 86.2208 124.16 80.5902 125.065C75.1148 125.327 69.6268 125.077 64.1982 124.318C34.7162 121.016 3.93688 115.788 -12.4944 88.468C-25.2227 66.2299 -31.2306 40.7784 -29.7905 15.1955C-29.6979 6.20071 -27.6877 -2.67102 -23.8941 -10.8273C7.27817 -70.6953 81.6122 -86.2225 129.334 -30.4819Z" fill="#FFFDD0" fill-opacity="0.45"/>
<path d="M318.666 560.518C311.405 568.578 305.892 578.054 302.471 588.349C298.986 601.023 299.191 614.428 303.06 626.99C309.507 649.829 325.585 669.641 347.087 678.092C358.151 682.156 370.125 683.072 381.679 680.74C393.233 678.409 403.914 672.92 412.537 664.884C430.069 648.138 436.437 619.403 425.666 598.53C414.895 577.657 386.947 568.341 366.113 580.094C361.568 582.547 357.616 585.964 354.533 590.106C351.449 594.249 349.311 599.016 348.266 604.073C346.537 614.215 351.647 625.418 360.924 628.484C362.614 617.517 365.287 605.409 373.935 598.53C386.2 588.821 405.736 596.604 409.943 611.384C414.149 626.165 404.675 643.382 390.76 650.143C383.814 653.224 376.196 654.481 368.629 653.793C361.062 653.105 353.796 650.495 347.519 646.212C326.803 632.926 317.055 601.085 332.189 579.898C337.64 572.87 344.511 567.071 352.354 562.877C367.724 553.875 385.649 547.743 402.356 551.634C442.609 561.147 455.502 612.564 446.893 647.627C443.266 663.137 434.219 676.84 421.382 686.269C407.427 696.135 385.374 698.769 368.589 698.337C357.451 698.058 346.453 695.781 336.12 691.615C329.507 689.032 323.429 685.247 318.195 680.451C316.544 678.76 314.264 674.83 311.984 678.76C309.704 682.691 315.286 688.116 316.976 691.025C320.372 696.913 325.414 701.681 331.481 704.744C337.554 708.062 344.046 710.548 350.782 712.134C356.222 713.847 361.779 715.16 367.41 716.065C372.885 716.327 378.373 716.077 383.802 715.318C413.284 712.016 444.063 706.788 460.494 679.468C473.223 657.23 479.231 631.778 477.791 606.195C477.698 597.201 475.688 588.329 471.894 580.173C440.722 520.305 366.388 504.777 318.666 560.518Z" fill="#FFFDD0" fill-opacity="0.45"/>
</g>
<defs>
<clipPath id="clip0_627_2182">
<rect width="1000" height="832" fill="white" transform="translate(-4)"/>
</clipPath>
</defs>
</svg>
