<svg width="996" height="832" viewBox="0 0 996 832" fill="none" xmlns="http://www.w3.org/2000/svg">
<g clip-path="url(#clip0_627_2182)">
<rect width="1000" height="832" transform="translate(-4)" fill="white"/>
<rect x="-4" width="1000" height="832" fill="#FF8343"/>
<path d="M1180 129.5C1180 276.684 1060.68 396 913.5 396C766.316 396 647 276.684 647 129.5C647 -17.6839 766.316 -137 913.5 -137C1060.68 -137 1180 -17.6839 1180 129.5Z" fill="#FFEFD5"/>
<path d="M1457.46 683.731C1457.46 961.934 1231.93 1187.46 953.731 1187.46C675.528 1187.46 450 961.934 450 683.731C450 405.528 675.528 180 953.731 180C1231.93 180 1457.46 405.528 1457.46 683.731Z" fill="#FFEFD5"/>
<path d="M38.0173 732.12C36.5118 735.961 37.1961 737.948 39.9334 737.948C41.4389 737.948 42.6706 737.153 42.6706 736.094C42.6706 733.312 41.1651 730 39.9334 730C39.3859 730 38.4279 730.927 38.0173 732.12Z" fill="#FFEFD5"/>
<path d="M118.903 732.914C117.945 736.358 118.766 737.948 121.503 737.948C123.556 737.948 123.967 735.564 122.598 732.12C121.366 729.205 119.724 729.47 118.903 732.914Z" fill="#FFEFD5"/>
<path d="M199.516 732.914C198.284 737.551 198.421 737.948 201.432 737.948C204.169 737.948 204.853 735.961 203.348 732.12C202.116 729.073 200.474 729.47 199.516 732.914Z" fill="#FFEFD5"/>
<path d="M280.265 732.914C279.033 737.551 279.17 737.948 282.181 737.948C284.918 737.948 285.602 735.961 284.097 732.12C282.865 729.073 281.223 729.47 280.265 732.914Z" fill="#FFEFD5"/>
<path d="M361.014 732.914C359.782 737.551 359.919 737.948 362.93 737.948C365.667 737.948 366.352 735.961 364.846 732.12C363.615 729.073 361.972 729.47 361.014 732.914Z" fill="#FFEFD5"/>
<path d="M39.6593 741.392C38.975 741.922 38.5644 743.511 38.5644 744.968C38.5644 746.425 37.3327 747.75 35.6903 748.147C33.6374 748.677 33.0899 749.605 33.6374 751.856C34.3217 754.506 34.048 754.771 31.4476 754.108C28.984 753.578 28.7103 753.843 29.2577 756.228C30.2158 759.804 28.4366 761.129 26.2468 758.48C25.2887 757.42 23.6464 756.493 22.5515 756.493C21.4565 756.493 21.046 755.83 21.4565 755.168C22.6883 753.181 19.5405 749.869 16.3926 749.869C15.024 749.869 13.5185 748.942 12.971 747.75C12.5604 746.558 10.7812 745.896 8.59141 746.028C6.67533 746.293 3.8012 745.763 2.29571 744.968C-0.98901 743.379 -3.86314 744.041 -3.86314 746.69C-3.86314 747.75 -2.49451 748.545 -0.715284 748.545C6.4016 748.545 13.3816 751.724 19.4036 757.42C24.7413 762.586 25.2887 763.513 23.3726 764.97C22.1409 765.765 20.7722 767.885 20.0879 769.474L19.1299 772.653L15.5714 769.342C10.3706 764.705 6.67533 763.116 1.06394 763.116C-5.64236 763.116 -5.09491 765.235 1.74825 766.295C9.54945 767.487 14.8871 771.461 16.6663 777.422C18.4456 783.913 18.4456 783.913 14.8871 784.575C13.1079 784.84 10.7812 784.178 9.27573 782.853C6.94905 780.601 6.94905 780.469 9.68632 779.012C13.3816 777.157 13.5185 772.388 9.82318 772.388C7.63337 772.388 7.08592 773.316 7.08592 776.362C7.08592 780.469 5.3067 781.263 1.74825 779.144C0.105895 778.084 0.105895 777.554 1.47453 775.832C3.66434 773.316 2.56943 769.739 -0.304695 769.739C-3.31568 769.739 -4.13686 771.991 -2.35764 775.303C-1.12587 777.422 -1.12587 778.349 -2.35764 778.747C-5.50549 779.806 -3.72627 782.323 0.379621 782.456C2.70629 782.588 5.58042 783.648 6.81219 784.972C9.002 787.224 9.002 787.224 5.71728 786.297C0.105895 784.84 -2.90509 784.84 -3.45255 786.562C-3.86314 787.754 -2.63137 788.284 0.379621 788.284C4.48552 788.284 4.62238 788.416 2.70629 790.536C-1.67333 795.305 -2.63137 799.411 -3.31568 812.922L-4 826.698H201.432H406.726V820.87C406.726 817.558 406.179 814.644 405.495 814.247C403.168 812.79 402.757 805.372 404.673 799.808C405.768 796.762 406.726 793.318 406.726 792.258C406.726 789.211 403.989 792.655 401.936 798.351C400.02 803.385 400.02 803.385 399.883 799.543C399.883 797.292 399.336 794.642 398.515 793.583C396.872 791.066 399.336 788.284 403.442 788.284C406.863 788.284 407.821 786.429 405.221 784.972C403.442 783.913 395.777 786.827 395.777 788.549C395.777 789.211 395.093 789.344 394.272 788.814C391.808 787.357 397.83 782.588 402.484 782.456C406.589 782.323 408.369 779.806 405.221 778.747C403.989 778.349 403.989 777.422 405.221 775.303C407 771.991 406.179 769.739 403.168 769.739C400.294 769.739 399.199 773.316 401.389 775.832C402.757 777.554 402.757 778.084 401.115 779.144C397.557 781.396 395.64 780.469 396.051 776.76C396.325 774.243 395.777 773.051 393.998 772.653C390.303 771.858 389.345 776.362 392.903 778.879L395.777 780.998L392.903 783.383C388.524 787.092 385.376 785.767 385.923 780.336C386.197 777.819 387.018 774.64 387.839 773.316C389.345 770.401 399.199 765.898 403.715 765.765C405.358 765.765 406.726 765.103 406.726 764.441C406.726 762.454 397.557 762.851 393.04 765.103C390.85 766.163 388.113 768.414 387.018 770.004C385.786 771.594 384.691 772.653 384.555 772.256C384.281 771.991 382.775 769.739 380.996 767.487L377.848 763.116L384.007 757.287C389.071 752.386 391.535 751.062 398.378 749.737C403.031 748.677 406.726 747.353 406.726 746.425C406.726 744.041 403.715 743.379 400.567 744.968C399.062 745.763 396.188 746.293 394.272 746.028C392.082 745.896 390.303 746.558 389.892 747.75C389.345 748.942 387.839 749.869 386.471 749.869C383.323 749.869 380.175 753.181 381.407 755.168C381.817 755.83 381.407 756.493 380.312 756.493C379.217 756.493 377.574 757.42 376.616 758.48C374.427 761.129 372.647 759.804 373.605 756.228C374.153 753.843 373.879 753.578 371.416 754.108C368.405 754.903 367.31 753.314 369.773 751.856C371.689 750.664 369.91 748.28 367.72 749.075C365.804 749.737 364.299 747.22 364.299 743.114C364.299 741.789 363.751 740.597 362.93 740.597C362.246 740.597 361.562 742.054 361.562 743.909C361.562 746.293 360.603 747.618 357.866 748.677C355.129 749.605 354.718 750.399 355.813 751.459C358.277 753.843 357.729 755.036 354.445 754.108C351.981 753.578 351.707 753.843 352.255 756.228C353.213 759.672 351.023 761.659 349.791 758.612C349.381 757.42 347.738 756.493 346.37 756.493C344.864 756.493 344.18 755.83 344.59 754.771C345.412 752.386 341.716 749.34 339.116 750.267C337.884 750.797 336.789 750.002 336.242 748.412C335.558 746.425 334.326 745.763 331.725 746.028C329.672 746.293 326.661 745.763 325.156 744.836C322.829 743.644 321.734 743.776 319.681 745.101C317.902 746.425 316.397 746.558 314.754 745.763C312.975 744.836 311.743 745.233 309.964 747.22C308.595 748.677 306.543 749.869 305.311 749.869C302.437 749.869 299.426 753.314 300.657 755.168C301.068 755.83 300.657 756.493 299.562 756.493C298.468 756.493 296.825 757.42 295.867 758.48C293.677 761.129 291.898 759.804 292.856 756.228C293.404 753.843 293.13 753.578 290.666 754.108C287.382 755.036 286.834 753.843 289.298 751.459C290.393 750.399 289.982 749.605 287.245 748.677C284.508 747.618 283.55 746.293 283.55 743.909C283.55 741.922 283.002 740.729 282.181 741.259C281.497 741.657 280.812 743.246 280.812 744.703C280.812 746.293 279.444 747.75 277.117 748.677C274.38 749.605 273.969 750.399 275.064 751.459C277.528 753.843 276.98 755.036 273.695 754.108C271.232 753.578 270.958 753.843 271.506 756.228C272.464 759.804 270.684 761.129 268.495 758.48C267.537 757.42 265.894 756.493 264.799 756.493C263.704 756.493 263.294 755.83 263.704 755.168C264.936 753.314 261.925 749.869 259.051 749.869C257.819 749.869 255.766 748.677 254.398 747.22C252.618 745.233 251.387 744.836 249.607 745.763C247.965 746.558 246.46 746.425 244.68 745.101C242.627 743.776 241.532 743.644 239.206 744.836C237.7 745.763 234.689 746.293 232.773 746.028C230.583 745.896 228.804 746.558 228.394 747.75C227.846 748.942 226.341 749.869 224.972 749.869C221.824 749.869 218.676 753.181 219.908 755.168C220.319 755.83 219.908 756.493 218.813 756.493C217.718 756.493 216.076 757.42 215.118 758.48C212.928 761.129 211.149 759.804 212.107 756.228C212.654 753.843 212.381 753.578 209.917 754.108C206.632 755.036 206.085 753.843 208.548 751.459C209.643 750.399 209.233 749.605 206.496 748.677C203.758 747.618 202.8 746.293 202.8 743.909C202.8 742.054 202.253 740.597 201.432 740.597C200.747 740.597 200.063 742.054 200.063 743.909C200.063 746.293 199.105 747.618 196.368 748.677C193.63 749.605 193.22 750.399 194.315 751.459C196.778 753.843 196.231 755.036 192.946 754.108C190.483 753.578 190.209 753.843 190.756 756.228C191.714 759.804 189.935 761.129 187.745 758.48C186.787 757.42 185.145 756.493 184.05 756.493C182.955 756.493 182.544 755.83 182.955 755.168C184.187 753.181 181.039 749.869 177.891 749.869C176.523 749.869 175.017 748.942 174.47 747.75C174.059 746.558 172.28 745.896 170.09 746.028C168.174 746.293 165.3 745.763 163.794 744.968C161.741 743.909 160.236 743.909 158.32 744.968C156.814 745.763 153.94 746.293 152.024 746.028C149.697 745.896 148.055 746.558 147.644 747.75C147.097 748.942 145.591 749.869 144.223 749.869C141.075 749.869 137.927 753.181 139.159 755.168C139.569 755.83 139.159 756.493 138.064 756.493C136.969 756.493 135.327 757.42 134.369 758.48C132.179 761.129 130.4 759.804 131.358 756.228C131.905 753.843 131.631 753.578 129.168 754.108C126.157 754.903 125.062 753.314 127.525 751.856C129.442 750.664 127.662 748.28 125.473 749.075C123.556 749.737 122.051 747.22 122.051 743.114C122.051 741.789 121.504 740.597 120.682 740.597C119.998 740.597 119.314 742.054 119.314 743.909C119.314 746.293 118.356 747.618 115.618 748.677C112.881 749.605 112.471 750.399 113.565 751.459C116.029 753.843 115.482 755.036 112.197 754.108C109.733 753.578 109.46 753.843 110.007 756.228C110.965 759.804 109.186 761.129 106.996 758.48C106.038 757.42 104.396 756.493 103.301 756.493C102.206 756.493 101.795 755.83 102.206 755.168C103.438 753.181 100.29 749.869 97.2787 749.869C95.9101 749.869 94.2678 748.942 93.5834 747.75C92.6254 746.161 91.1199 745.763 88.5195 746.293C86.056 746.69 83.8661 746.161 82.7712 745.101C81.1289 743.644 80.1708 743.511 77.8442 744.836C76.2018 745.763 73.1908 746.293 71.001 746.028C68.4006 745.763 67.032 746.425 66.2108 748.147C65.6633 749.472 64.021 750.532 62.5155 750.532C61.01 750.532 59.2308 751.856 58.4096 753.446C57.7253 755.168 56.3567 756.493 55.5355 756.493C54.5774 756.493 53.4825 757.42 53.0719 758.612C51.8402 761.659 49.6504 759.672 50.6084 756.228C51.1559 753.843 50.8821 753.578 48.4186 754.108C45.1339 755.036 44.5864 753.843 47.05 751.459C48.1449 750.399 47.7343 749.605 44.997 748.677C42.6703 747.75 41.3017 746.161 41.028 743.909C40.7543 741.922 40.2068 740.862 39.6593 741.392ZM87.1509 750.002C93.7203 751.724 101.111 756.89 103.164 760.996C104.122 763.381 103.848 764.97 101.795 768.149L99.1948 772.388L96.5944 769.607C88.2458 760.732 70.5904 760.864 64.021 770.004C62.7892 771.594 61.6943 772.653 61.5574 772.256C61.2837 771.991 59.7782 769.872 57.999 767.487L54.988 763.248L59.2308 758.48C64.021 753.181 67.3057 751.194 73.4645 749.737C79.4865 748.412 81.1289 748.412 87.1509 750.002ZM174.196 751.856C176.112 752.916 179.67 755.83 181.997 758.347L186.24 763.116L183.229 767.62L180.218 772.123L176.796 769.077C171.595 764.441 168.037 763.116 161.057 763.116C153.94 763.116 147.918 765.633 144.77 770.004C143.538 771.594 142.444 772.653 142.307 772.256C142.033 771.991 140.527 769.739 138.748 767.487L135.6 763.116L141.622 757.287C145.181 753.843 149.834 750.929 152.982 750.134C159.141 748.545 168.995 749.34 174.196 751.856ZM254.945 751.989C256.998 752.916 260.556 756.095 262.883 758.745C266.305 762.851 266.852 764.043 265.347 765.103C264.252 765.898 263.02 767.885 262.336 769.474L261.378 772.653L257.819 769.342C252.345 764.441 248.786 763.116 241.806 763.116C234.689 763.116 228.667 765.633 225.52 770.004C224.288 771.594 223.193 772.653 222.919 772.256C222.645 771.991 221.14 769.739 219.361 767.487L216.35 763.116L222.372 757.42C225.93 753.843 230.447 750.929 233.731 750.134C239.89 748.545 249.744 749.34 254.945 751.989ZM335.694 751.989C337.747 752.916 341.306 755.963 343.496 758.612L347.601 763.381L344.59 767.752L341.716 772.123L338.295 769.077C333.094 764.441 329.536 763.116 322.555 763.116C315.439 763.116 309.417 765.633 306.269 770.004C305.037 771.594 303.942 772.653 303.668 772.256C303.395 771.991 301.889 769.739 300.11 767.487L297.099 763.116L303.121 757.42C306.679 753.843 311.196 750.929 314.481 750.134C320.639 748.545 330.494 749.34 335.694 751.989ZM41.3017 752.386C41.3017 753.181 44.5864 757.155 48.5555 761.394C57.4516 770.666 59.0939 773.448 59.0939 779.541C59.0939 782.985 58.5465 784.31 57.041 784.31C55.2617 784.31 55.1249 783.78 56.3567 781.661C58.4096 777.952 55.2617 772.123 46.7762 763.248L39.9331 755.963L32.6793 763.646C24.0569 773.051 22.004 777.157 23.6464 781.528C25.015 784.972 24.4675 786.429 22.2777 784.972C19.9511 783.648 20.4985 774.64 23.0989 771.064C24.3307 769.209 28.2997 764.573 31.995 760.732C35.5535 756.758 38.5644 753.049 38.5644 752.386C38.5644 751.724 39.2488 751.194 39.9331 751.194C40.7543 751.194 41.3017 751.724 41.3017 752.386ZM122.051 752.386C122.051 753.049 125.062 756.758 128.62 760.732C138.201 770.931 139.843 773.713 139.843 779.276C139.843 782.985 139.296 784.31 137.79 784.31C136.011 784.31 135.874 783.78 137.106 781.661C139.159 777.952 136.011 772.123 127.525 763.248L120.682 755.963L113.429 763.646C104.806 773.051 102.753 777.157 104.396 781.528C105.764 784.972 105.217 786.429 103.027 784.972C101.111 783.913 101.111 775.567 103.164 771.991C103.985 770.401 107.954 765.633 112.06 761.394C116.029 757.155 119.314 753.181 119.314 752.386C119.314 751.724 119.998 751.194 120.682 751.194C121.504 751.194 122.051 751.724 122.051 752.386ZM202.8 752.386C202.8 753.181 206.222 757.287 210.328 761.526C218.676 770.269 221.824 776.23 220.866 781.131C219.908 785.9 217.855 784.972 218.129 779.806C218.266 774.64 216.76 772.123 207.727 762.454L201.432 755.963L194.315 763.646C185.555 773.051 183.503 777.157 185.145 781.528C186.514 784.972 185.966 786.429 183.776 784.972C181.86 783.913 181.86 775.567 183.913 771.991C184.734 770.401 188.703 765.633 192.809 761.394C196.778 757.155 200.063 753.181 200.063 752.386C200.063 751.724 200.747 751.194 201.432 751.194C202.253 751.194 202.8 751.724 202.8 752.386ZM283.55 752.386C283.55 753.181 286.834 757.155 290.803 761.394C299.699 770.666 301.342 773.448 301.342 779.541C301.342 782.985 300.794 784.31 299.289 784.31C297.51 784.31 297.373 783.78 298.604 781.661C300.657 777.952 297.646 772.123 289.161 763.116L282.318 755.83L275.064 763.646C266.305 773.051 264.252 777.025 265.894 781.528C267.263 784.972 266.715 786.429 264.526 784.972C262.199 783.648 262.746 774.64 265.347 771.064C266.578 769.209 270.547 764.573 274.243 760.732C277.801 756.758 280.812 753.049 280.812 752.386C280.812 751.724 281.497 751.194 282.181 751.194C283.002 751.194 283.55 751.724 283.55 752.386ZM364.299 752.386C364.299 753.181 367.583 757.155 371.553 761.394C380.449 770.666 382.091 773.448 382.091 779.541C382.091 782.985 381.544 784.31 380.038 784.31C378.259 784.31 378.122 783.78 379.354 781.661C381.407 777.952 378.259 772.123 369.773 763.248L362.93 755.963L355.676 763.646C347.054 773.051 345.001 777.157 346.643 781.528C348.012 784.972 347.465 786.429 345.275 784.972C342.948 783.648 343.496 774.64 346.096 771.064C347.328 769.209 351.297 764.573 354.992 760.732C358.551 756.758 361.562 753.049 361.562 752.386C361.562 751.724 362.246 751.194 362.93 751.194C363.751 751.194 364.299 751.724 364.299 752.386ZM47.1868 767.885C53.7563 775.303 55.5355 781.396 51.977 784.178C42.9441 791.198 39.7962 794.377 39.1119 797.027C38.1539 800.603 35.8272 799.941 35.8272 796.099C35.8272 794.642 34.1848 791.993 32.2687 790.006C28.5734 786.429 26.2468 781.661 26.2468 777.554C26.2468 775.435 38.1539 760.732 39.9331 760.732C40.3437 760.732 43.4915 763.911 47.1868 767.885ZM127.936 767.885C134.506 775.303 136.285 781.396 132.726 784.178C123.693 791.198 120.545 794.377 119.861 797.027C118.903 800.603 116.576 799.941 116.576 796.099C116.576 794.642 114.934 791.993 113.018 790.006C109.323 786.429 106.996 781.661 106.996 777.554C106.996 775.435 118.903 760.732 120.682 760.732C121.093 760.732 124.241 763.911 127.936 767.885ZM208.685 767.885C215.255 775.303 217.034 781.396 213.476 784.178C204.443 791.198 201.295 794.377 200.61 797.027C199.926 799.808 197.052 801.795 197.463 799.146C198.01 795.834 196.915 793.053 193.767 790.006C190.072 786.429 187.745 781.661 187.745 777.554C187.745 775.435 199.652 760.732 201.432 760.732C201.842 760.732 204.99 763.911 208.685 767.885ZM289.435 767.885C296.004 775.303 297.783 781.396 294.225 784.178C285.192 791.198 282.044 794.377 281.36 797.027C280.402 800.603 278.075 799.941 278.075 796.099C278.075 794.642 276.433 791.993 274.517 790.006C270.821 786.429 268.495 781.661 268.495 777.554C268.495 775.435 280.402 760.732 282.181 760.732C282.591 760.732 285.739 763.911 289.435 767.885ZM370.184 767.885C376.753 775.303 378.533 781.396 374.974 784.178C365.941 791.198 362.793 794.377 362.109 797.027C361.151 800.603 358.824 800.073 358.824 796.232C358.824 794.907 356.634 791.331 354.034 788.284C347.328 780.601 347.601 776.76 355.813 767.885C359.372 763.911 362.52 760.732 362.93 760.732C363.341 760.732 366.489 763.911 370.184 767.885ZM92.0779 769.872C95.3627 772.123 98.7842 779.012 98.7842 783.25C98.7842 784.972 92.6254 784.443 89.8881 782.456C87.4246 780.734 87.4246 780.601 90.2987 779.144C94.1309 777.157 94.4046 772.388 90.5724 772.388C88.3826 772.388 87.8352 773.316 87.8352 776.362C87.8352 780.336 87.014 780.998 83.1818 779.541C81.5395 778.879 81.4026 778.217 82.4975 776.097C84.2767 772.918 83.1818 769.739 80.3077 769.739C77.2967 769.739 76.2018 773.316 78.3916 775.832C79.7603 777.554 79.7603 778.084 78.1179 779.144C74.5594 781.396 72.6434 780.469 73.054 776.76C73.3277 774.243 72.7802 773.051 71.001 772.653C67.3057 771.858 66.3477 776.362 69.9061 778.879L72.7802 780.998L69.9061 783.383C65.5265 787.092 62.3786 785.767 62.9261 780.336C63.7473 773.581 65.5265 771.196 71.8222 768.282C78.6653 765.235 86.1928 765.765 92.0779 769.872ZM169.542 768.282C175.564 770.931 177.207 773.183 178.712 779.806C179.533 783.383 179.26 784.045 176.523 784.575C174.606 784.84 172.28 784.178 170.774 782.853C168.448 780.601 168.448 780.469 171.185 779.012C174.88 777.157 175.017 772.388 171.322 772.388C169.132 772.388 168.584 773.316 168.584 776.362C168.584 780.336 167.763 780.998 163.931 779.541C162.289 778.879 162.152 778.217 163.247 776.097C165.026 772.918 163.931 769.739 161.057 769.739C158.046 769.739 156.951 773.316 159.141 775.832C160.51 777.554 160.51 778.084 158.867 779.144C155.309 781.396 153.393 780.469 153.803 776.627C154.077 773.845 153.529 772.918 151.203 772.653C147.097 772.123 146.823 777.025 150.929 779.144L153.803 780.601L150.929 783.118C148.055 785.767 144.633 786.429 143.402 784.575C141.896 782.058 145.318 772.918 149.013 770.136C155.172 765.368 161.468 764.838 169.542 768.282ZM253.576 769.872C256.724 771.991 260.283 779.012 260.283 783.118C260.283 785.237 253.85 784.972 251.524 782.853C249.197 780.601 249.197 780.469 251.934 779.012C255.629 777.157 255.766 772.388 252.071 772.388C249.881 772.388 249.334 773.316 249.334 776.362C249.334 780.336 248.513 780.998 244.68 779.541C243.038 778.879 242.901 778.217 243.996 776.097C245.775 772.918 244.68 769.739 241.806 769.739C238.795 769.739 237.7 773.316 239.89 775.832C241.259 777.554 241.259 778.084 239.616 779.144C236.058 781.263 234.279 780.469 234.279 776.362C234.279 773.713 233.594 772.388 232.226 772.388C228.667 772.388 228.12 776.495 231.405 778.879L234.279 780.998L231.405 783.383C227.025 787.092 223.877 785.767 224.425 780.336C225.246 773.581 227.025 771.196 233.321 768.282C240.164 765.235 247.691 765.765 253.576 769.872ZM334.326 769.872C337.61 772.123 341.032 779.012 341.032 783.25C341.032 784.972 334.873 784.443 332.136 782.456C329.672 780.734 329.672 780.601 332.547 779.144C336.379 777.157 336.652 772.388 332.82 772.388C330.63 772.388 330.083 773.316 330.083 776.362C330.083 780.336 329.262 780.998 325.43 779.541C323.787 778.879 323.65 778.217 324.745 776.097C326.525 772.918 325.43 769.739 322.555 769.739C319.545 769.739 318.45 773.316 320.639 775.832C322.008 777.554 322.008 778.084 320.366 779.144C316.807 781.396 314.891 780.469 315.302 776.76C315.575 774.243 315.028 773.051 313.249 772.653C309.554 771.858 308.595 776.362 312.154 778.879L315.028 780.998L312.154 783.383C307.774 787.092 304.626 785.767 305.174 780.469C305.721 773.978 307.774 771.064 314.07 768.282C320.913 765.235 328.441 765.765 334.326 769.872ZM87.8352 785.105C90.2987 787.357 87.972 787.622 83.045 785.37C80.034 784.045 78.9391 784.31 75.5175 786.694C71.2747 789.874 68.5375 788.549 72.5065 785.37C77.2967 781.263 83.7293 781.131 87.8352 785.105ZM168.584 785.105C171.048 787.357 168.448 787.754 164.205 785.502C161.331 783.913 153.529 786.165 153.529 788.549C153.529 789.211 152.845 789.344 152.161 788.946C150.245 787.887 152.982 784.443 156.951 782.853C160.373 781.528 165.847 782.588 168.584 785.105ZM249.334 785.105C251.797 787.357 249.197 787.754 244.954 785.502C242.08 783.913 234.279 786.165 234.279 788.549C234.279 789.211 233.594 789.344 232.91 788.946C230.994 787.887 233.731 784.443 237.7 782.853C241.122 781.528 246.596 782.588 249.334 785.105ZM330.083 785.105C332.547 787.357 329.946 787.754 325.703 785.502C322.829 783.913 315.028 786.165 315.028 788.549C315.028 789.211 314.344 789.344 313.659 788.946C311.743 787.887 314.481 784.443 318.45 782.853C321.871 781.528 327.346 782.588 330.083 785.105ZM23.9201 788.814C30.4895 791.463 33.6374 795.569 33.5005 801.265C33.2268 810.67 21.8671 815.572 15.4346 808.948C11.3287 804.709 12.4236 799.278 17.3507 798.086C22.1409 796.894 24.8781 798.351 24.7413 801.795L24.7413 804.842L23.5095 801.795C22.004 798.351 19.1299 797.954 16.5295 801.001C14.0659 803.915 16.6663 807.491 21.4565 807.491C30.9001 807.491 30.0789 795.967 20.4985 795.172C9.82318 794.245 5.99101 805.107 14.6134 811.73C17.2138 813.717 19.4036 815.969 19.4036 816.631C19.4036 817.294 18.3087 816.896 16.9401 815.704C13.7922 812.922 8.59141 812.79 7.63337 815.307C7.08592 816.764 6.12787 816.499 3.52747 814.114C-2.63137 808.551 0.379621 793.847 8.72827 790.006C15.982 786.562 18.035 786.429 23.9201 788.814ZM64.979 788.814C70.043 790.801 74.1489 795.967 74.1489 800.206C74.1489 804.047 70.5904 810.273 67.99 811.333C61.1469 813.849 53.6194 810.141 53.6194 804.312C53.6194 802.325 54.3037 800.073 55.2617 799.146C58.6833 795.834 65.9371 798.086 65.9371 802.59C65.9371 803.782 64.979 803.385 63.4735 801.398C60.052 797.424 55.9461 798.749 56.6304 803.782C57.041 807.094 57.5884 807.491 61.8312 807.491C65.8002 807.491 66.7583 806.829 67.8532 803.915C69.6324 799.014 65.9371 794.907 59.7782 794.907C51.2927 794.907 47.3237 804.842 53.2088 811.2C57.1778 815.307 55.6723 818.486 51.5664 814.777C48.966 812.392 47.8711 812.127 45.4076 813.452C41.3017 815.572 40.6174 814.379 40.6174 806.167C40.6174 797.954 43.7652 792.92 51.019 789.344C56.6304 786.429 59.0939 786.429 64.979 788.814ZM104.669 788.814C111.102 791.331 114.387 795.569 114.387 801.133C114.387 806.696 108.912 812.127 103.301 812.127C99.3317 812.127 93.3097 807.491 93.3097 804.445C93.3097 801.265 97.5525 797.556 100.974 797.556C104.259 797.556 107.954 802.06 105.764 803.385C105.08 803.782 104.259 802.987 103.848 801.53C103.027 798.351 99.7423 798.086 97.2787 801.001C94.8152 803.915 97.4156 807.491 102.206 807.491C107.407 807.491 110.281 803.385 107.954 798.881C105.491 794.112 95.9101 793.45 92.7623 797.821C90.025 801.53 89.8881 807.359 92.6254 809.478C95.3627 811.598 95.2258 812.525 92.0779 814.379C88.3826 816.631 80.992 813.055 80.8552 809.081C80.3077 797.689 84.5505 791.066 94.6783 787.887C98.0999 786.694 100.016 786.827 104.669 788.814ZM149.424 790.668C161.741 799.543 149.971 818.618 137.38 810.008C134.095 807.756 133.274 801.795 136.011 799.146C139.433 795.834 146.686 798.086 146.686 802.59C146.686 803.782 145.728 803.385 144.223 801.398C140.801 797.424 136.695 798.749 137.38 803.782C137.79 807.094 138.338 807.491 142.58 807.491C146.549 807.491 147.508 806.829 148.602 803.915C150.382 799.014 146.686 794.907 140.527 794.907C131.358 794.907 127.799 805.769 135.053 811.73C137.927 814.114 138.475 815.307 137.243 816.499C136.148 817.558 135.737 817.558 135.737 816.366C135.737 815.572 134.506 814.247 133.137 813.585C131.221 812.525 129.715 812.79 127.115 814.909L123.556 817.558L121.914 812.26C116.576 795.04 135.19 780.469 149.424 790.668ZM185.419 788.814C191.988 791.463 195.136 795.569 194.999 801.265C194.725 810.405 183.913 815.307 177.207 809.213C173.375 805.769 173.238 802.723 176.659 799.676C180.492 796.364 185.555 797.424 185.966 801.53C186.377 804.842 186.377 804.842 185.008 801.795C183.503 798.351 180.628 797.954 178.028 801.001C175.564 803.915 178.165 807.491 182.955 807.491C188.156 807.491 191.03 803.385 188.703 798.881C186.377 794.377 178.165 793.583 174.196 797.424C170.637 800.868 170.501 807.491 173.922 810.273C176.249 812.26 176.249 812.657 174.196 814.644C172.143 816.631 171.869 816.631 169.679 814.512C168.311 813.187 166.258 812.657 164.615 813.055C162.152 813.585 161.741 813.187 161.604 810.008C161.057 797.424 165.026 791.066 175.428 787.887C178.849 786.694 180.765 786.827 185.419 788.814ZM230.036 790.668C242.217 799.543 230.583 818.486 218.129 810.008C214.844 807.756 214.023 801.795 216.76 799.146C220.182 795.834 227.436 798.086 227.436 802.59C227.436 803.782 226.478 803.385 224.972 801.398C221.55 797.424 217.445 798.749 218.129 803.782C218.95 810.405 230.173 809.213 230.173 802.458C230.173 798.351 226.204 794.907 221.277 794.907C211.286 794.907 208.001 808.286 217.171 812.392C219.087 813.187 220.592 814.644 220.592 815.704C220.592 818.088 218.403 817.956 217.308 815.439C216.35 812.922 209.78 812.79 208.822 815.439C208.138 816.896 207.317 816.499 204.579 813.717C201.705 810.67 201.295 809.213 201.842 804.312C203.485 790.271 218.95 782.721 230.036 790.668ZM266.168 788.814C276.296 792.92 279.307 802.987 272.053 808.948C267.263 813.055 261.651 813.055 257.682 808.948C253.576 804.709 254.671 799.278 259.598 798.086C264.389 796.894 267.126 798.351 266.989 801.795V804.842L265.757 801.795C264.252 798.351 261.378 797.954 258.777 801.001C256.314 803.915 258.914 807.491 263.704 807.491C268.905 807.491 271.779 803.385 269.453 798.881C266.989 794.112 257.409 793.45 254.261 797.821C251.25 801.928 251.524 807.094 254.945 810.67C257.135 812.922 257.409 813.982 256.177 815.439C254.945 816.896 254.261 816.896 251.934 814.644C249.881 812.657 248.649 812.392 246.733 813.32C243.175 815.174 242.491 813.982 242.491 806.432C242.491 796.762 246.87 790.801 256.177 787.887C259.598 786.694 261.515 786.827 266.168 788.814ZM310.922 790.668C323.24 799.543 311.47 818.618 298.878 810.008C295.593 807.756 294.772 801.795 297.51 799.146C300.931 795.834 308.185 798.086 308.185 802.59C308.185 803.782 307.227 803.385 305.721 801.398C302.3 797.424 298.194 798.749 298.878 803.782C299.289 807.094 299.836 807.491 304.079 807.491C308.048 807.491 309.006 806.829 310.101 803.915C311.88 799.014 308.185 794.907 302.026 794.907C296.688 794.907 292.719 798.881 292.719 804.18C292.719 806.299 293.814 809.346 295.183 810.803C297.646 813.32 297.646 813.452 294.909 813.452C293.267 813.452 291.624 814.512 291.077 815.704C290.256 817.956 290.119 817.956 288.887 815.704C288.066 814.512 286.697 813.452 285.602 813.452C283.002 813.452 281.633 808.021 282.728 802.325C285.192 789.476 300.521 783.25 310.922 790.668ZM346.917 788.814C357.045 792.92 360.056 802.987 352.802 808.948C348.012 813.055 342.401 813.055 338.432 808.948C334.326 804.709 335.421 799.278 340.348 798.086C345.138 796.894 347.875 798.351 347.738 801.795V804.842L346.507 801.795C345.001 798.351 342.127 797.954 339.527 801.001C337.063 803.915 339.663 807.491 344.454 807.491C353.897 807.491 353.076 795.967 343.496 795.172C333.915 794.377 329.125 804.312 336.105 810.67C338.021 812.392 339.116 814.644 338.705 815.704C338.158 817.161 337.474 817.029 335.284 814.909C332.136 811.598 330.904 811.465 328.03 814.379C326.114 816.234 325.566 816.234 324.472 814.644C320.229 808.154 324.472 793.318 331.725 790.006C338.979 786.562 341.032 786.429 346.917 788.814ZM391.671 790.668C403.989 799.543 392.219 818.618 379.627 810.008C376.343 807.756 375.522 801.795 378.259 799.146C381.68 795.834 388.934 798.086 388.934 802.59C388.934 803.782 387.976 803.385 386.471 801.398C383.049 797.424 378.943 798.749 379.627 803.782C380.038 807.094 380.585 807.491 384.828 807.491C388.797 807.491 389.755 806.829 390.85 803.915C393.587 796.364 381.68 791.331 375.932 797.556C372.921 800.868 372.647 807.226 375.522 810.405C377.301 812.525 377.301 813.055 375.248 814.909C373.058 816.896 372.647 816.896 370.594 814.512C369.226 813.055 367.31 812.26 366.215 812.657C363.751 813.585 362.383 808.286 363.478 802.325C365.941 789.476 381.27 783.25 391.671 790.668ZM83.7293 789.344C83.7293 789.874 83.045 791.066 82.2238 791.861C81.4026 792.655 79.8971 795.569 78.9391 798.351C77.023 803.385 77.023 803.385 76.8861 799.543C76.8861 797.292 76.3387 794.642 75.5175 793.583C73.8751 791.066 76.3387 788.284 80.4446 788.284C82.2238 788.284 83.7293 788.814 83.7293 789.344ZM164.479 789.344C164.479 789.874 163.794 791.066 162.973 791.861C162.152 792.655 160.646 795.569 159.688 798.351C157.772 803.385 157.772 803.385 157.635 799.543C157.635 797.292 157.088 794.642 156.267 793.583C154.624 791.066 157.088 788.284 161.194 788.284C162.973 788.284 164.479 788.814 164.479 789.344ZM243.175 793.053C239.89 797.689 238.932 802.06 239.48 809.743C239.753 812.392 239.069 813.452 237.427 813.452C236.195 813.452 234.142 814.379 232.91 815.439C230.857 817.294 230.447 817.294 229.762 815.572C229.215 814.379 229.899 813.32 231.678 812.79C236.879 811.068 240.438 798.749 237.016 793.583C235.237 790.801 237.974 788.284 242.627 788.284H246.46L243.175 793.053ZM325.977 788.946C325.977 789.344 325.019 791.198 323.787 793.053C322.555 794.775 321.05 798.219 320.503 800.603L319.408 804.842L319.271 800.206C319.134 797.689 318.586 794.642 317.765 793.583C316.123 791.066 318.586 788.284 322.692 788.284C324.472 788.284 325.977 788.549 325.977 788.946ZM37.1958 808.154C37.1958 811.73 36.6484 813.452 35.2797 813.452C34.3217 813.452 32.6793 814.379 31.7213 815.439C30.4895 816.896 29.6683 817.161 28.984 816.101C28.4366 815.307 29.8052 812.922 31.8581 810.803C34.048 808.683 35.8272 806.034 35.8272 804.974C35.8272 803.782 36.1009 802.855 36.5115 802.855C36.9221 802.855 37.1958 805.239 37.1958 808.154ZM115.482 814.512C113.565 816.366 112.334 816.764 111.239 815.704C110.281 814.777 110.828 813.187 113.155 810.538C115.071 808.418 116.713 805.637 116.85 804.445C116.987 803.252 117.261 804.445 117.534 807.094C117.945 810.67 117.398 812.657 115.482 814.512ZM279.854 815.704C279.307 816.896 278.349 816.764 276.022 815.042C273.011 812.79 273.011 812.79 275.475 809.611C276.98 807.889 278.212 805.504 278.212 804.312C278.349 803.12 278.896 804.842 279.444 808.154C279.991 811.465 280.128 814.909 279.854 815.704ZM197.599 815.042C195.683 817.294 195.41 817.294 193.904 815.174C192.536 813.452 192.809 812.26 195.136 808.816L198.01 804.577L198.831 808.683C199.242 811.333 198.831 813.585 197.599 815.042ZM360.74 811.465C361.425 816.499 361.288 817.558 360.193 815.704C359.372 814.512 357.456 813.452 356.087 813.452C353.623 813.452 353.623 813.187 356.498 808.948C358.14 806.564 359.645 804.577 359.645 804.709C359.782 804.709 360.193 807.756 360.74 811.465ZM78.5285 815.969C77.981 817.294 77.5704 817.294 76.6124 815.572C75.9281 814.379 74.4226 813.452 73.4645 813.452C72.3696 813.452 71.4116 812.79 71.4116 812.127C71.4116 811.333 71.9591 810.803 72.6434 810.803C73.3277 810.803 74.4226 809.478 74.97 807.756C75.9281 805.107 76.065 805.107 77.5704 809.478C78.5285 811.995 78.9391 814.909 78.5285 815.969ZM160.236 816.101C160.236 817.691 159.962 817.558 158.867 815.704C157.088 812.79 151.34 812.79 149.697 815.572C148.876 817.029 148.055 817.294 147.508 816.366C147.097 815.572 148.466 813.849 150.792 812.657C152.982 811.333 155.309 809.081 155.856 807.491C156.54 805.239 156.951 805.504 158.457 809.478C159.415 811.995 160.236 815.042 160.236 816.101ZM320.503 811.068C320.503 812.392 319.545 813.452 318.45 813.452C317.492 813.452 315.986 814.379 315.302 815.572C314.344 817.294 313.933 817.426 312.428 815.572C311.059 813.982 311.196 813.32 313.523 812.26C315.028 811.465 316.67 809.478 317.081 808.021C317.902 805.769 318.313 805.504 319.271 806.961C319.955 808.021 320.503 809.876 320.503 811.068ZM398.788 814.512C396.325 816.896 396.188 816.896 394.546 814.644C393.587 813.055 393.587 812.127 394.409 812.127C395.23 812.127 396.598 810.538 397.42 808.683L399.062 805.239L400.294 808.551C401.115 811.2 400.841 812.525 398.788 814.512ZM2.98002 819.413C2.98002 821.797 2.29571 822.725 0.242758 822.725C-2.49451 822.725 -3.58941 819.016 -1.53646 817.029C0.516484 814.909 2.98002 816.234 2.98002 819.413ZM15.024 819.81C15.4346 822.062 14.7503 822.725 12.6973 822.725C10.7812 822.725 9.82318 821.93 9.82318 820.34C9.82318 815.307 14.3397 814.909 15.024 819.81ZM26.2468 819.413C26.2468 821.797 25.5624 822.725 23.6464 822.725C21.7303 822.725 21.3197 821.93 21.8671 819.413C22.1409 817.558 23.3726 816.101 24.3307 816.101C25.4256 816.101 26.2468 817.426 26.2468 819.413ZM38.5644 819.413C38.5644 821.797 37.8801 822.725 35.8272 822.725C33.0899 822.725 31.995 819.016 34.048 817.029C36.1009 814.909 38.5644 816.234 38.5644 819.413ZM50.6084 819.81C51.019 822.062 50.3347 822.725 48.2817 822.725C46.0919 822.725 45.4076 821.93 45.4076 819.281C45.4076 814.909 49.9241 815.307 50.6084 819.81ZM61.8312 819.413C61.8312 821.797 61.1469 822.725 59.2308 822.725C57.3147 822.725 56.9041 821.93 57.4516 819.413C57.7253 817.558 58.9571 816.101 59.9151 816.101C61.01 816.101 61.8312 817.426 61.8312 819.413ZM73.8751 819.81C74.2857 822.062 73.6014 822.725 71.5485 822.725C69.6324 822.725 68.6743 821.93 68.6743 820.34C68.6743 815.307 73.1908 814.909 73.8751 819.81ZM86.1928 819.81C86.6034 822.062 85.9191 822.725 83.8661 822.725C81.6763 822.725 80.992 821.93 80.992 819.281C80.992 814.909 85.5085 815.307 86.1928 819.81ZM97.4156 819.413C97.4156 821.797 96.7313 822.725 94.6783 822.725C91.9411 822.725 90.8462 819.016 92.8991 817.029C94.9521 814.909 97.4156 816.234 97.4156 819.413ZM109.46 819.81C109.87 822.062 109.186 822.725 107.133 822.725C105.217 822.725 104.259 821.93 104.259 820.34C104.259 815.307 108.775 814.909 109.46 819.81ZM121.23 818.221C122.598 821.665 122.188 822.725 119.314 822.725C117.261 822.725 116.576 821.797 116.576 819.413C116.576 815.704 119.861 814.909 121.23 818.221ZM133 819.413C133 821.797 132.316 822.725 130.263 822.725C127.525 822.725 126.431 819.016 128.484 817.029C130.536 814.909 133 816.234 133 819.413ZM145.044 819.81C145.455 822.062 144.77 822.725 142.717 822.725C140.801 822.725 139.843 821.93 139.843 820.34C139.843 815.307 144.36 814.909 145.044 819.81ZM156.267 819.413C156.267 821.532 155.446 822.725 154.214 822.725C152.982 822.725 152.161 821.532 152.161 819.413C152.161 817.294 152.982 816.101 154.214 816.101C155.446 816.101 156.267 817.294 156.267 819.413ZM168.311 819.81C168.721 822.062 168.037 822.725 165.984 822.725C164.068 822.725 163.11 821.93 163.11 820.34C163.11 815.307 167.626 814.909 168.311 819.81ZM180.628 819.81C181.039 822.062 180.355 822.725 178.302 822.725C176.112 822.725 175.428 821.93 175.428 819.281C175.428 814.909 179.944 815.307 180.628 819.81ZM191.851 819.413C191.851 821.797 191.167 822.725 189.251 822.725C187.335 822.725 186.924 821.93 187.472 819.413C187.745 817.558 188.977 816.101 189.935 816.101C191.03 816.101 191.851 817.426 191.851 819.413ZM203.895 819.81C204.306 822.062 203.621 822.725 201.568 822.725C199.652 822.725 198.694 821.93 198.694 820.34C198.694 815.307 203.211 814.909 203.895 819.81ZM216.213 819.81C216.623 822.062 215.939 822.725 213.886 822.725C211.696 822.725 211.012 821.93 211.012 819.281C211.012 814.909 215.528 815.307 216.213 819.81ZM227.436 819.413C227.436 821.797 226.751 822.725 224.698 822.725C221.961 822.725 220.866 819.016 222.919 817.029C224.972 814.909 227.436 816.234 227.436 819.413ZM239.48 819.81C239.89 822.062 239.206 822.725 237.153 822.725C235.237 822.725 234.279 821.93 234.279 820.34C234.279 815.307 238.795 814.909 239.48 819.81ZM251.25 818.221C252.618 821.665 252.208 822.725 249.334 822.725C247.281 822.725 246.596 821.797 246.596 819.413C246.596 815.704 249.881 814.909 251.25 818.221ZM263.02 819.413C263.02 821.797 262.336 822.725 260.283 822.725C257.546 822.725 256.451 819.016 258.504 817.029C260.556 814.909 263.02 816.234 263.02 819.413ZM275.064 819.81C275.475 822.062 274.79 822.725 272.737 822.725C270.547 822.725 269.863 821.93 269.863 819.281C269.863 814.909 274.38 815.307 275.064 819.81ZM286.56 819.413C287.108 821.93 286.697 822.725 284.781 822.725C282.865 822.725 282.181 821.797 282.181 819.413C282.181 817.426 283.002 816.101 284.097 816.101C285.055 816.101 286.287 817.558 286.56 819.413ZM298.604 819.413C298.604 821.797 297.92 822.725 295.867 822.725C293.13 822.725 292.035 819.016 294.088 817.029C296.141 814.909 298.604 816.234 298.604 819.413ZM310.648 819.81C311.059 822.062 310.375 822.725 308.322 822.725C306.132 822.725 305.448 821.93 305.448 819.281C305.448 814.909 309.964 815.307 310.648 819.81ZM321.871 819.413C321.871 821.797 321.187 822.725 319.134 822.725C316.397 822.725 315.302 819.016 317.355 817.029C319.408 814.909 321.871 816.234 321.871 819.413ZM333.915 819.81C334.326 822.062 333.641 822.725 331.588 822.725C329.672 822.725 328.714 821.93 328.714 820.34C328.714 815.307 333.231 814.909 333.915 819.81ZM345.685 818.221C347.054 821.665 346.643 822.725 343.769 822.725C341.716 822.725 341.032 821.797 341.032 819.413C341.032 815.704 344.317 814.909 345.685 818.221ZM357.456 819.413C357.456 821.797 356.771 822.725 354.718 822.725C351.981 822.725 350.886 819.016 352.939 817.029C354.992 814.909 357.456 816.234 357.456 819.413ZM369.5 819.81C369.91 822.062 369.226 822.725 367.173 822.725C365.257 822.725 364.299 821.93 364.299 820.34C364.299 815.307 368.815 814.909 369.5 819.81ZM381.27 818.221C382.638 821.665 382.228 822.725 379.354 822.725C377.301 822.725 376.616 821.797 376.616 819.413C376.616 815.704 379.901 814.909 381.27 818.221ZM393.04 819.413C393.04 821.797 392.356 822.725 390.303 822.725C387.566 822.725 386.471 819.016 388.524 817.029C390.576 814.909 393.04 816.234 393.04 819.413ZM405.084 819.81C405.495 822.062 404.81 822.725 402.757 822.725C400.567 822.725 399.883 821.93 399.883 819.281C399.883 814.909 404.4 815.307 405.084 819.81Z" fill="#FFEFD5"/>
<path d="M36.2377 771.461C34.4585 773.845 33.0898 776.892 33.0898 778.084C33.0898 780.336 38.5644 789.609 39.933 789.609C41.3016 789.609 46.7762 780.734 46.7762 778.482C46.7762 775.832 41.7122 767.09 40.2067 767.09C39.6593 767.09 37.8801 769.077 36.2377 771.461ZM42.3965 778.084C42.6703 779.674 41.9859 780.336 40.0699 780.336C38.4275 780.336 37.1957 779.541 37.1957 778.614C37.1957 774.508 41.5754 774.11 42.3965 778.084Z" fill="#FFEFD5"/>
<path d="M116.987 771.461C115.208 773.845 113.839 776.892 113.839 778.084C113.839 780.336 119.314 789.609 120.683 789.609C122.051 789.609 127.526 780.734 127.526 778.482C127.526 775.832 122.462 767.09 120.956 767.09C120.409 767.09 118.63 769.077 116.987 771.461ZM123.146 778.084C123.42 779.674 122.735 780.336 120.819 780.336C119.177 780.336 117.945 779.541 117.945 778.614C117.945 774.508 122.325 774.11 123.146 778.084Z" fill="#FFEFD5"/>
<path d="M197.736 771.461C195.957 773.845 194.588 776.892 194.588 778.084C194.588 780.336 200.063 789.609 201.432 789.609C202.8 789.609 208.275 780.734 208.275 778.482C208.275 775.832 203.211 767.09 201.705 767.09C201.158 767.09 199.379 769.077 197.736 771.461ZM203.895 778.084C204.169 779.674 203.484 780.336 201.568 780.336C199.926 780.336 198.694 779.541 198.694 778.614C198.694 774.508 203.074 774.11 203.895 778.084Z" fill="#FFEFD5"/>
<path d="M278.486 771.461C276.707 773.845 275.338 776.892 275.338 778.084C275.338 780.336 280.812 789.609 282.181 789.609C283.55 789.609 289.024 780.734 289.024 778.482C289.024 775.832 283.96 767.09 282.455 767.09C281.907 767.09 280.128 769.077 278.486 771.461ZM284.645 778.084C284.918 779.674 284.234 780.336 282.318 780.336C280.676 780.336 279.444 779.541 279.444 778.614C279.444 774.508 283.823 774.11 284.645 778.084Z" fill="#FFEFD5"/>
<path d="M359.235 771.461C357.456 773.845 356.087 776.892 356.087 778.084C356.087 780.336 361.561 789.609 362.93 789.609C364.299 789.609 369.773 780.734 369.773 778.349C369.773 775.965 364.436 767.09 362.93 767.09C362.519 767.09 360.877 769.077 359.235 771.461ZM365.394 778.084C365.667 779.674 364.983 780.336 363.067 780.336C361.425 780.336 360.193 779.541 360.193 778.614C360.193 774.508 364.572 774.11 365.394 778.084Z" fill="#FFEFD5"/>
<path d="M-3.86328 831.335C-3.86328 833.057 19.814 833.322 201.431 833.322C383.049 833.322 406.726 833.057 406.726 831.335C406.726 829.613 383.049 829.348 201.431 829.348C19.814 829.348 -3.86328 829.613 -3.86328 831.335Z" fill="#FFEFD5"/>
<path d="M448.017 732.12C446.512 735.961 447.196 737.948 449.933 737.948C451.439 737.948 452.671 737.153 452.671 736.094C452.671 733.312 451.165 730 449.933 730C449.386 730 448.428 730.927 448.017 732.12Z" fill="#FFEFD5"/>
<path d="M528.903 732.914C527.945 736.358 528.766 737.948 531.503 737.948C533.556 737.948 533.967 735.564 532.598 732.12C531.366 729.205 529.724 729.47 528.903 732.914Z" fill="#FFEFD5"/>
<path d="M609.516 732.914C608.284 737.551 608.421 737.948 611.432 737.948C614.169 737.948 614.853 735.961 613.348 732.12C612.116 729.073 610.474 729.47 609.516 732.914Z" fill="#FFEFD5"/>
<path d="M690.265 732.914C689.033 737.551 689.17 737.948 692.181 737.948C694.918 737.948 695.602 735.961 694.097 732.12C692.865 729.073 691.223 729.47 690.265 732.914Z" fill="#FFEFD5"/>
<path d="M771.014 732.914C769.782 737.551 769.919 737.948 772.93 737.948C775.667 737.948 776.352 735.961 774.846 732.12C773.615 729.073 771.972 729.47 771.014 732.914Z" fill="#FFEFD5"/>
<path d="M449.659 741.392C448.975 741.922 448.564 743.511 448.564 744.968C448.564 746.425 447.333 747.75 445.69 748.147C443.637 748.677 443.09 749.605 443.637 751.856C444.322 754.506 444.048 754.771 441.448 754.108C438.984 753.578 438.71 753.843 439.258 756.228C440.216 759.804 438.437 761.129 436.247 758.48C435.289 757.42 433.646 756.493 432.551 756.493C431.457 756.493 431.046 755.83 431.457 755.168C432.688 753.181 429.54 749.869 426.393 749.869C425.024 749.869 423.518 748.942 422.971 747.75C422.56 746.558 420.781 745.896 418.591 746.028C416.675 746.293 413.801 745.763 412.296 744.968C409.011 743.379 406.137 744.041 406.137 746.69C406.137 747.75 407.505 748.545 409.285 748.545C416.402 748.545 423.382 751.724 429.404 757.42C434.741 762.586 435.289 763.513 433.373 764.97C432.141 765.765 430.772 767.885 430.088 769.474L429.13 772.653L425.571 769.342C420.371 764.705 416.675 763.116 411.064 763.116C404.358 763.116 404.905 765.235 411.748 766.295C419.549 767.487 424.887 771.461 426.666 777.422C428.446 783.913 428.446 783.913 424.887 784.575C423.108 784.84 420.781 784.178 419.276 782.853C416.949 780.601 416.949 780.469 419.686 779.012C423.382 777.157 423.518 772.388 419.823 772.388C417.633 772.388 417.086 773.316 417.086 776.362C417.086 780.469 415.307 781.263 411.748 779.144C410.106 778.084 410.106 777.554 411.475 775.832C413.664 773.316 412.569 769.739 409.695 769.739C406.684 769.739 405.863 771.991 407.642 775.303C408.874 777.422 408.874 778.349 407.642 778.747C404.495 779.806 406.274 782.323 410.38 782.456C412.706 782.588 415.58 783.648 416.812 784.972C419.002 787.224 419.002 787.224 415.717 786.297C410.106 784.84 407.095 784.84 406.547 786.562C406.137 787.754 407.369 788.284 410.38 788.284C414.486 788.284 414.622 788.416 412.706 790.536C408.327 795.305 407.369 799.411 406.684 812.922L406 826.698H611.432H816.726V820.87C816.726 817.558 816.179 814.644 815.495 814.247C813.168 812.79 812.757 805.372 814.673 799.808C815.768 796.762 816.726 793.318 816.726 792.258C816.726 789.211 813.989 792.655 811.936 798.351C810.02 803.385 810.02 803.385 809.883 799.543C809.883 797.292 809.336 794.642 808.515 793.583C806.872 791.066 809.336 788.284 813.442 788.284C816.863 788.284 817.821 786.429 815.221 784.972C813.442 783.913 805.777 786.827 805.777 788.549C805.777 789.211 805.093 789.344 804.272 788.814C801.808 787.357 807.83 782.588 812.484 782.456C816.589 782.323 818.369 779.806 815.221 778.747C813.989 778.349 813.989 777.422 815.221 775.303C817 771.991 816.179 769.739 813.168 769.739C810.294 769.739 809.199 773.316 811.389 775.832C812.757 777.554 812.757 778.084 811.115 779.144C807.557 781.396 805.64 780.469 806.051 776.76C806.325 774.243 805.777 773.051 803.998 772.653C800.303 771.858 799.345 776.362 802.903 778.879L805.777 780.998L802.903 783.383C798.524 787.092 795.376 785.767 795.923 780.336C796.197 777.819 797.018 774.64 797.839 773.316C799.345 770.401 809.199 765.898 813.715 765.765C815.358 765.765 816.726 765.103 816.726 764.441C816.726 762.454 807.557 762.851 803.04 765.103C800.85 766.163 798.113 768.414 797.018 770.004C795.786 771.594 794.691 772.653 794.555 772.256C794.281 771.991 792.775 769.739 790.996 767.487L787.848 763.116L794.007 757.287C799.071 752.386 801.535 751.062 808.378 749.737C813.031 748.677 816.726 747.353 816.726 746.425C816.726 744.041 813.715 743.379 810.567 744.968C809.062 745.763 806.188 746.293 804.272 746.028C802.082 745.896 800.303 746.558 799.892 747.75C799.345 748.942 797.839 749.869 796.471 749.869C793.323 749.869 790.175 753.181 791.407 755.168C791.817 755.83 791.407 756.493 790.312 756.493C789.217 756.493 787.574 757.42 786.616 758.48C784.427 761.129 782.647 759.804 783.605 756.228C784.153 753.843 783.879 753.578 781.416 754.108C778.405 754.903 777.31 753.314 779.773 751.856C781.689 750.664 779.91 748.28 777.72 749.075C775.804 749.737 774.299 747.22 774.299 743.114C774.299 741.789 773.751 740.597 772.93 740.597C772.246 740.597 771.562 742.054 771.562 743.909C771.562 746.293 770.603 747.618 767.866 748.677C765.129 749.605 764.718 750.399 765.813 751.459C768.277 753.843 767.729 755.036 764.445 754.108C761.981 753.578 761.707 753.843 762.255 756.228C763.213 759.672 761.023 761.659 759.791 758.612C759.381 757.42 757.738 756.493 756.37 756.493C754.864 756.493 754.18 755.83 754.59 754.771C755.412 752.386 751.716 749.34 749.116 750.267C747.884 750.797 746.789 750.002 746.242 748.412C745.558 746.425 744.326 745.763 741.725 746.028C739.672 746.293 736.661 745.763 735.156 744.836C732.829 743.644 731.734 743.776 729.681 745.101C727.902 746.425 726.397 746.558 724.754 745.763C722.975 744.836 721.743 745.233 719.964 747.22C718.595 748.677 716.543 749.869 715.311 749.869C712.437 749.869 709.426 753.314 710.657 755.168C711.068 755.83 710.657 756.493 709.562 756.493C708.468 756.493 706.825 757.42 705.867 758.48C703.677 761.129 701.898 759.804 702.856 756.228C703.404 753.843 703.13 753.578 700.666 754.108C697.382 755.036 696.834 753.843 699.298 751.459C700.393 750.399 699.982 749.605 697.245 748.677C694.508 747.618 693.55 746.293 693.55 743.909C693.55 741.922 693.002 740.729 692.181 741.259C691.497 741.657 690.812 743.246 690.812 744.703C690.812 746.293 689.444 747.75 687.117 748.677C684.38 749.605 683.969 750.399 685.064 751.459C687.528 753.843 686.98 755.036 683.695 754.108C681.232 753.578 680.958 753.843 681.506 756.228C682.464 759.804 680.684 761.129 678.495 758.48C677.537 757.42 675.894 756.493 674.799 756.493C673.704 756.493 673.294 755.83 673.704 755.168C674.936 753.314 671.925 749.869 669.051 749.869C667.819 749.869 665.766 748.677 664.398 747.22C662.618 745.233 661.387 744.836 659.607 745.763C657.965 746.558 656.46 746.425 654.68 745.101C652.627 743.776 651.532 743.644 649.206 744.836C647.7 745.763 644.689 746.293 642.773 746.028C640.583 745.896 638.804 746.558 638.394 747.75C637.846 748.942 636.341 749.869 634.972 749.869C631.824 749.869 628.676 753.181 629.908 755.168C630.319 755.83 629.908 756.493 628.813 756.493C627.718 756.493 626.076 757.42 625.118 758.48C622.928 761.129 621.149 759.804 622.107 756.228C622.654 753.843 622.381 753.578 619.917 754.108C616.632 755.036 616.085 753.843 618.548 751.459C619.643 750.399 619.233 749.605 616.496 748.677C613.758 747.618 612.8 746.293 612.8 743.909C612.8 742.054 612.253 740.597 611.432 740.597C610.747 740.597 610.063 742.054 610.063 743.909C610.063 746.293 609.105 747.618 606.368 748.677C603.63 749.605 603.22 750.399 604.315 751.459C606.778 753.843 606.231 755.036 602.946 754.108C600.483 753.578 600.209 753.843 600.756 756.228C601.714 759.804 599.935 761.129 597.745 758.48C596.787 757.42 595.145 756.493 594.05 756.493C592.955 756.493 592.544 755.83 592.955 755.168C594.187 753.181 591.039 749.869 587.891 749.869C586.523 749.869 585.017 748.942 584.47 747.75C584.059 746.558 582.28 745.896 580.09 746.028C578.174 746.293 575.3 745.763 573.794 744.968C571.741 743.909 570.236 743.909 568.32 744.968C566.814 745.763 563.94 746.293 562.024 746.028C559.697 745.896 558.055 746.558 557.644 747.75C557.097 748.942 555.591 749.869 554.223 749.869C551.075 749.869 547.927 753.181 549.159 755.168C549.569 755.83 549.159 756.493 548.064 756.493C546.969 756.493 545.327 757.42 544.369 758.48C542.179 761.129 540.4 759.804 541.358 756.228C541.905 753.843 541.631 753.578 539.168 754.108C536.157 754.903 535.062 753.314 537.525 751.856C539.442 750.664 537.662 748.28 535.473 749.075C533.556 749.737 532.051 747.22 532.051 743.114C532.051 741.789 531.504 740.597 530.682 740.597C529.998 740.597 529.314 742.054 529.314 743.909C529.314 746.293 528.356 747.618 525.618 748.677C522.881 749.605 522.471 750.399 523.565 751.459C526.029 753.843 525.482 755.036 522.197 754.108C519.733 753.578 519.46 753.843 520.007 756.228C520.965 759.804 519.186 761.129 516.996 758.48C516.038 757.42 514.396 756.493 513.301 756.493C512.206 756.493 511.795 755.83 512.206 755.168C513.438 753.181 510.29 749.869 507.279 749.869C505.91 749.869 504.268 748.942 503.583 747.75C502.625 746.161 501.12 745.763 498.519 746.293C496.056 746.69 493.866 746.161 492.771 745.101C491.129 743.644 490.171 743.511 487.844 744.836C486.202 745.763 483.191 746.293 481.001 746.028C478.401 745.763 477.032 746.425 476.211 748.147C475.663 749.472 474.021 750.532 472.515 750.532C471.01 750.532 469.231 751.856 468.41 753.446C467.725 755.168 466.357 756.493 465.535 756.493C464.577 756.493 463.483 757.42 463.072 758.612C461.84 761.659 459.65 759.672 460.608 756.228C461.156 753.843 460.882 753.578 458.419 754.108C455.134 755.036 454.586 753.843 457.05 751.459C458.145 750.399 457.734 749.605 454.997 748.677C452.67 747.75 451.302 746.161 451.028 743.909C450.754 741.922 450.207 740.862 449.659 741.392ZM497.151 750.002C503.72 751.724 511.111 756.89 513.164 760.996C514.122 763.381 513.848 764.97 511.795 768.149L509.195 772.388L506.594 769.607C498.246 760.732 480.59 760.864 474.021 770.004C472.789 771.594 471.694 772.653 471.557 772.256C471.284 771.991 469.778 769.872 467.999 767.487L464.988 763.248L469.231 758.48C474.021 753.181 477.306 751.194 483.465 749.737C489.487 748.412 491.129 748.412 497.151 750.002ZM584.196 751.856C586.112 752.916 589.67 755.83 591.997 758.347L596.24 763.116L593.229 767.62L590.218 772.123L586.796 769.077C581.595 764.441 578.037 763.116 571.057 763.116C563.94 763.116 557.918 765.633 554.77 770.004C553.538 771.594 552.444 772.653 552.307 772.256C552.033 771.991 550.527 769.739 548.748 767.487L545.6 763.116L551.622 757.287C555.181 753.843 559.834 750.929 562.982 750.134C569.141 748.545 578.995 749.34 584.196 751.856ZM664.945 751.989C666.998 752.916 670.556 756.095 672.883 758.745C676.305 762.851 676.852 764.043 675.347 765.103C674.252 765.898 673.02 767.885 672.336 769.474L671.378 772.653L667.819 769.342C662.345 764.441 658.786 763.116 651.806 763.116C644.689 763.116 638.667 765.633 635.52 770.004C634.288 771.594 633.193 772.653 632.919 772.256C632.645 771.991 631.14 769.739 629.361 767.487L626.35 763.116L632.372 757.42C635.93 753.843 640.447 750.929 643.731 750.134C649.89 748.545 659.744 749.34 664.945 751.989ZM745.694 751.989C747.747 752.916 751.306 755.963 753.496 758.612L757.601 763.381L754.59 767.752L751.716 772.123L748.295 769.077C743.094 764.441 739.536 763.116 732.555 763.116C725.439 763.116 719.417 765.633 716.269 770.004C715.037 771.594 713.942 772.653 713.668 772.256C713.395 771.991 711.889 769.739 710.11 767.487L707.099 763.116L713.121 757.42C716.679 753.843 721.196 750.929 724.481 750.134C730.639 748.545 740.494 749.34 745.694 751.989ZM451.302 752.386C451.302 753.181 454.586 757.155 458.555 761.394C467.452 770.666 469.094 773.448 469.094 779.541C469.094 782.985 468.546 784.31 467.041 784.31C465.262 784.31 465.125 783.78 466.357 781.661C468.41 777.952 465.262 772.123 456.776 763.248L449.933 755.963L442.679 763.646C434.057 773.051 432.004 777.157 433.646 781.528C435.015 784.972 434.468 786.429 432.278 784.972C429.951 783.648 430.499 774.64 433.099 771.064C434.331 769.209 438.3 764.573 441.995 760.732C445.553 756.758 448.564 753.049 448.564 752.386C448.564 751.724 449.249 751.194 449.933 751.194C450.754 751.194 451.302 751.724 451.302 752.386ZM532.051 752.386C532.051 753.049 535.062 756.758 538.62 760.732C548.201 770.931 549.843 773.713 549.843 779.276C549.843 782.985 549.296 784.31 547.79 784.31C546.011 784.31 545.874 783.78 547.106 781.661C549.159 777.952 546.011 772.123 537.525 763.248L530.682 755.963L523.429 763.646C514.806 773.051 512.753 777.157 514.396 781.528C515.764 784.972 515.217 786.429 513.027 784.972C511.111 783.913 511.111 775.567 513.164 771.991C513.985 770.401 517.954 765.633 522.06 761.394C526.029 757.155 529.314 753.181 529.314 752.386C529.314 751.724 529.998 751.194 530.682 751.194C531.504 751.194 532.051 751.724 532.051 752.386ZM612.8 752.386C612.8 753.181 616.222 757.287 620.328 761.526C628.676 770.269 631.824 776.23 630.866 781.131C629.908 785.9 627.855 784.972 628.129 779.806C628.266 774.64 626.76 772.123 617.727 762.454L611.432 755.963L604.315 763.646C595.555 773.051 593.503 777.157 595.145 781.528C596.514 784.972 595.966 786.429 593.776 784.972C591.86 783.913 591.86 775.567 593.913 771.991C594.734 770.401 598.703 765.633 602.809 761.394C606.778 757.155 610.063 753.181 610.063 752.386C610.063 751.724 610.747 751.194 611.432 751.194C612.253 751.194 612.8 751.724 612.8 752.386ZM693.55 752.386C693.55 753.181 696.834 757.155 700.803 761.394C709.699 770.666 711.342 773.448 711.342 779.541C711.342 782.985 710.794 784.31 709.289 784.31C707.51 784.31 707.373 783.78 708.604 781.661C710.657 777.952 707.646 772.123 699.161 763.116L692.318 755.83L685.064 763.646C676.305 773.051 674.252 777.025 675.894 781.528C677.263 784.972 676.715 786.429 674.526 784.972C672.199 783.648 672.746 774.64 675.347 771.064C676.578 769.209 680.547 764.573 684.243 760.732C687.801 756.758 690.812 753.049 690.812 752.386C690.812 751.724 691.497 751.194 692.181 751.194C693.002 751.194 693.55 751.724 693.55 752.386ZM774.299 752.386C774.299 753.181 777.583 757.155 781.553 761.394C790.449 770.666 792.091 773.448 792.091 779.541C792.091 782.985 791.544 784.31 790.038 784.31C788.259 784.31 788.122 783.78 789.354 781.661C791.407 777.952 788.259 772.123 779.773 763.248L772.93 755.963L765.676 763.646C757.054 773.051 755.001 777.157 756.643 781.528C758.012 784.972 757.465 786.429 755.275 784.972C752.948 783.648 753.496 774.64 756.096 771.064C757.328 769.209 761.297 764.573 764.992 760.732C768.551 756.758 771.562 753.049 771.562 752.386C771.562 751.724 772.246 751.194 772.93 751.194C773.751 751.194 774.299 751.724 774.299 752.386ZM457.187 767.885C463.756 775.303 465.535 781.396 461.977 784.178C452.944 791.198 449.796 794.377 449.112 797.027C448.154 800.603 445.827 799.941 445.827 796.099C445.827 794.642 444.185 791.993 442.269 790.006C438.573 786.429 436.247 781.661 436.247 777.554C436.247 775.435 448.154 760.732 449.933 760.732C450.344 760.732 453.492 763.911 457.187 767.885ZM537.936 767.885C544.506 775.303 546.285 781.396 542.726 784.178C533.693 791.198 530.545 794.377 529.861 797.027C528.903 800.603 526.576 799.941 526.576 796.099C526.576 794.642 524.934 791.993 523.018 790.006C519.323 786.429 516.996 781.661 516.996 777.554C516.996 775.435 528.903 760.732 530.682 760.732C531.093 760.732 534.241 763.911 537.936 767.885ZM618.685 767.885C625.255 775.303 627.034 781.396 623.476 784.178C614.443 791.198 611.295 794.377 610.61 797.027C609.926 799.808 607.052 801.795 607.463 799.146C608.01 795.834 606.915 793.053 603.767 790.006C600.072 786.429 597.745 781.661 597.745 777.554C597.745 775.435 609.652 760.732 611.432 760.732C611.842 760.732 614.99 763.911 618.685 767.885ZM699.435 767.885C706.004 775.303 707.783 781.396 704.225 784.178C695.192 791.198 692.044 794.377 691.36 797.027C690.402 800.603 688.075 799.941 688.075 796.099C688.075 794.642 686.433 791.993 684.517 790.006C680.821 786.429 678.495 781.661 678.495 777.554C678.495 775.435 690.402 760.732 692.181 760.732C692.591 760.732 695.739 763.911 699.435 767.885ZM780.184 767.885C786.753 775.303 788.533 781.396 784.974 784.178C775.941 791.198 772.793 794.377 772.109 797.027C771.151 800.603 768.824 800.073 768.824 796.232C768.824 794.907 766.634 791.331 764.034 788.284C757.328 780.601 757.601 776.76 765.813 767.885C769.372 763.911 772.52 760.732 772.93 760.732C773.341 760.732 776.489 763.911 780.184 767.885ZM502.078 769.872C505.363 772.123 508.784 779.012 508.784 783.25C508.784 784.972 502.625 784.443 499.888 782.456C497.425 780.734 497.425 780.601 500.299 779.144C504.131 777.157 504.405 772.388 500.572 772.388C498.383 772.388 497.835 773.316 497.835 776.362C497.835 780.336 497.014 780.998 493.182 779.541C491.539 778.879 491.403 778.217 492.498 776.097C494.277 772.918 493.182 769.739 490.308 769.739C487.297 769.739 486.202 773.316 488.392 775.832C489.76 777.554 489.76 778.084 488.118 779.144C484.559 781.396 482.643 780.469 483.054 776.76C483.328 774.243 482.78 773.051 481.001 772.653C477.306 771.858 476.348 776.362 479.906 778.879L482.78 780.998L479.906 783.383C475.526 787.092 472.379 785.767 472.926 780.336C473.747 773.581 475.526 771.196 481.822 768.282C488.665 765.235 496.193 765.765 502.078 769.872ZM579.542 768.282C585.564 770.931 587.207 773.183 588.712 779.806C589.533 783.383 589.26 784.045 586.523 784.575C584.606 784.84 582.28 784.178 580.774 782.853C578.448 780.601 578.448 780.469 581.185 779.012C584.88 777.157 585.017 772.388 581.322 772.388C579.132 772.388 578.584 773.316 578.584 776.362C578.584 780.336 577.763 780.998 573.931 779.541C572.289 778.879 572.152 778.217 573.247 776.097C575.026 772.918 573.931 769.739 571.057 769.739C568.046 769.739 566.951 773.316 569.141 775.832C570.51 777.554 570.51 778.084 568.867 779.144C565.309 781.396 563.393 780.469 563.803 776.627C564.077 773.845 563.529 772.918 561.203 772.653C557.097 772.123 556.823 777.025 560.929 779.144L563.803 780.601L560.929 783.118C558.055 785.767 554.633 786.429 553.402 784.575C551.896 782.058 555.318 772.918 559.013 770.136C565.172 765.368 571.468 764.838 579.542 768.282ZM663.576 769.872C666.724 771.991 670.283 779.012 670.283 783.118C670.283 785.237 663.85 784.972 661.524 782.853C659.197 780.601 659.197 780.469 661.934 779.012C665.629 777.157 665.766 772.388 662.071 772.388C659.881 772.388 659.334 773.316 659.334 776.362C659.334 780.336 658.513 780.998 654.68 779.541C653.038 778.879 652.901 778.217 653.996 776.097C655.775 772.918 654.68 769.739 651.806 769.739C648.795 769.739 647.7 773.316 649.89 775.832C651.259 777.554 651.259 778.084 649.616 779.144C646.058 781.263 644.279 780.469 644.279 776.362C644.279 773.713 643.594 772.388 642.226 772.388C638.667 772.388 638.12 776.495 641.405 778.879L644.279 780.998L641.405 783.383C637.025 787.092 633.877 785.767 634.425 780.336C635.246 773.581 637.025 771.196 643.321 768.282C650.164 765.235 657.691 765.765 663.576 769.872ZM744.326 769.872C747.61 772.123 751.032 779.012 751.032 783.25C751.032 784.972 744.873 784.443 742.136 782.456C739.672 780.734 739.672 780.601 742.547 779.144C746.379 777.157 746.652 772.388 742.82 772.388C740.63 772.388 740.083 773.316 740.083 776.362C740.083 780.336 739.262 780.998 735.43 779.541C733.787 778.879 733.65 778.217 734.745 776.097C736.525 772.918 735.43 769.739 732.555 769.739C729.545 769.739 728.45 773.316 730.639 775.832C732.008 777.554 732.008 778.084 730.366 779.144C726.807 781.396 724.891 780.469 725.302 776.76C725.575 774.243 725.028 773.051 723.249 772.653C719.554 771.858 718.595 776.362 722.154 778.879L725.028 780.998L722.154 783.383C717.774 787.092 714.626 785.767 715.174 780.469C715.721 773.978 717.774 771.064 724.07 768.282C730.913 765.235 738.441 765.765 744.326 769.872ZM497.835 785.105C500.299 787.357 497.972 787.622 493.045 785.37C490.034 784.045 488.939 784.31 485.517 786.694C481.275 789.874 478.537 788.549 482.507 785.37C487.297 781.263 493.729 781.131 497.835 785.105ZM578.584 785.105C581.048 787.357 578.448 787.754 574.205 785.502C571.331 783.913 563.529 786.165 563.529 788.549C563.529 789.211 562.845 789.344 562.161 788.946C560.245 787.887 562.982 784.443 566.951 782.853C570.373 781.528 575.847 782.588 578.584 785.105ZM659.334 785.105C661.797 787.357 659.197 787.754 654.954 785.502C652.08 783.913 644.279 786.165 644.279 788.549C644.279 789.211 643.594 789.344 642.91 788.946C640.994 787.887 643.731 784.443 647.7 782.853C651.122 781.528 656.596 782.588 659.334 785.105ZM740.083 785.105C742.547 787.357 739.946 787.754 735.703 785.502C732.829 783.913 725.028 786.165 725.028 788.549C725.028 789.211 724.344 789.344 723.659 788.946C721.743 787.887 724.481 784.443 728.45 782.853C731.871 781.528 737.346 782.588 740.083 785.105ZM433.92 788.814C440.49 791.463 443.637 795.569 443.501 801.265C443.227 810.67 431.867 815.572 425.435 808.948C421.329 804.709 422.424 799.278 427.351 798.086C432.141 796.894 434.878 798.351 434.741 801.795V804.842L433.509 801.795C432.004 798.351 429.13 797.954 426.529 801.001C424.066 803.915 426.666 807.491 431.457 807.491C440.9 807.491 440.079 795.967 430.499 795.172C419.823 794.245 415.991 805.107 424.613 811.73C427.214 813.717 429.404 815.969 429.404 816.631C429.404 817.294 428.309 816.896 426.94 815.704C423.792 812.922 418.591 812.79 417.633 815.307C417.086 816.764 416.128 816.499 413.527 814.114C407.369 808.551 410.38 793.847 418.728 790.006C425.982 786.562 428.035 786.429 433.92 788.814ZM474.979 788.814C480.043 790.801 484.149 795.967 484.149 800.206C484.149 804.047 480.59 810.273 477.99 811.333C471.147 813.849 463.619 810.141 463.619 804.312C463.619 802.325 464.304 800.073 465.262 799.146C468.683 795.834 475.937 798.086 475.937 802.59C475.937 803.782 474.979 803.385 473.474 801.398C470.052 797.424 465.946 798.749 466.63 803.782C467.041 807.094 467.588 807.491 471.831 807.491C475.8 807.491 476.758 806.829 477.853 803.915C479.632 799.014 475.937 794.907 469.778 794.907C461.293 794.907 457.324 804.842 463.209 811.2C467.178 815.307 465.672 818.486 461.566 814.777C458.966 812.392 457.871 812.127 455.408 813.452C451.302 815.572 450.617 814.379 450.617 806.167C450.617 797.954 453.765 792.92 461.019 789.344C466.63 786.429 469.094 786.429 474.979 788.814ZM514.669 788.814C521.102 791.331 524.387 795.569 524.387 801.133C524.387 806.696 518.912 812.127 513.301 812.127C509.332 812.127 503.31 807.491 503.31 804.445C503.31 801.265 507.552 797.556 510.974 797.556C514.259 797.556 517.954 802.06 515.764 803.385C515.08 803.782 514.259 802.987 513.848 801.53C513.027 798.351 509.742 798.086 507.279 801.001C504.815 803.915 507.416 807.491 512.206 807.491C517.407 807.491 520.281 803.385 517.954 798.881C515.491 794.112 505.91 793.45 502.762 797.821C500.025 801.53 499.888 807.359 502.625 809.478C505.363 811.598 505.226 812.525 502.078 814.379C498.383 816.631 490.992 813.055 490.855 809.081C490.308 797.689 494.55 791.066 504.678 787.887C508.1 786.694 510.016 786.827 514.669 788.814ZM559.424 790.668C571.741 799.543 559.971 818.618 547.38 810.008C544.095 807.756 543.274 801.795 546.011 799.146C549.433 795.834 556.686 798.086 556.686 802.59C556.686 803.782 555.728 803.385 554.223 801.398C550.801 797.424 546.695 798.749 547.38 803.782C547.79 807.094 548.338 807.491 552.58 807.491C556.549 807.491 557.508 806.829 558.602 803.915C560.382 799.014 556.686 794.907 550.527 794.907C541.358 794.907 537.799 805.769 545.053 811.73C547.927 814.114 548.475 815.307 547.243 816.499C546.148 817.558 545.737 817.558 545.737 816.366C545.737 815.572 544.506 814.247 543.137 813.585C541.221 812.525 539.715 812.79 537.115 814.909L533.556 817.558L531.914 812.26C526.576 795.04 545.19 780.469 559.424 790.668ZM595.419 788.814C601.988 791.463 605.136 795.569 604.999 801.265C604.725 810.405 593.913 815.307 587.207 809.213C583.375 805.769 583.238 802.723 586.659 799.676C590.492 796.364 595.555 797.424 595.966 801.53C596.377 804.842 596.377 804.842 595.008 801.795C593.503 798.351 590.628 797.954 588.028 801.001C585.564 803.915 588.165 807.491 592.955 807.491C598.156 807.491 601.03 803.385 598.703 798.881C596.377 794.377 588.165 793.583 584.196 797.424C580.637 800.868 580.501 807.491 583.922 810.273C586.249 812.26 586.249 812.657 584.196 814.644C582.143 816.631 581.869 816.631 579.679 814.512C578.311 813.187 576.258 812.657 574.615 813.055C572.152 813.585 571.741 813.187 571.604 810.008C571.057 797.424 575.026 791.066 585.428 787.887C588.849 786.694 590.765 786.827 595.419 788.814ZM640.036 790.668C652.217 799.543 640.583 818.486 628.129 810.008C624.844 807.756 624.023 801.795 626.76 799.146C630.182 795.834 637.436 798.086 637.436 802.59C637.436 803.782 636.478 803.385 634.972 801.398C631.55 797.424 627.445 798.749 628.129 803.782C628.95 810.405 640.173 809.213 640.173 802.458C640.173 798.351 636.204 794.907 631.277 794.907C621.286 794.907 618.001 808.286 627.171 812.392C629.087 813.187 630.592 814.644 630.592 815.704C630.592 818.088 628.403 817.956 627.308 815.439C626.35 812.922 619.78 812.79 618.822 815.439C618.138 816.896 617.317 816.499 614.579 813.717C611.705 810.67 611.295 809.213 611.842 804.312C613.485 790.271 628.95 782.721 640.036 790.668ZM676.168 788.814C686.296 792.92 689.307 802.987 682.053 808.948C677.263 813.055 671.651 813.055 667.682 808.948C663.576 804.709 664.671 799.278 669.598 798.086C674.389 796.894 677.126 798.351 676.989 801.795V804.842L675.757 801.795C674.252 798.351 671.378 797.954 668.777 801.001C666.314 803.915 668.914 807.491 673.704 807.491C678.905 807.491 681.779 803.385 679.453 798.881C676.989 794.112 667.409 793.45 664.261 797.821C661.25 801.928 661.524 807.094 664.945 810.67C667.135 812.922 667.409 813.982 666.177 815.439C664.945 816.896 664.261 816.896 661.934 814.644C659.881 812.657 658.649 812.392 656.733 813.32C653.175 815.174 652.491 813.982 652.491 806.432C652.491 796.762 656.87 790.801 666.177 787.887C669.598 786.694 671.515 786.827 676.168 788.814ZM720.922 790.668C733.24 799.543 721.47 818.618 708.878 810.008C705.593 807.756 704.772 801.795 707.51 799.146C710.931 795.834 718.185 798.086 718.185 802.59C718.185 803.782 717.227 803.385 715.721 801.398C712.3 797.424 708.194 798.749 708.878 803.782C709.289 807.094 709.836 807.491 714.079 807.491C718.048 807.491 719.006 806.829 720.101 803.915C721.88 799.014 718.185 794.907 712.026 794.907C706.688 794.907 702.719 798.881 702.719 804.18C702.719 806.299 703.814 809.346 705.183 810.803C707.646 813.32 707.646 813.452 704.909 813.452C703.267 813.452 701.624 814.512 701.077 815.704C700.256 817.956 700.119 817.956 698.887 815.704C698.066 814.512 696.697 813.452 695.602 813.452C693.002 813.452 691.633 808.021 692.728 802.325C695.192 789.476 710.521 783.25 720.922 790.668ZM756.917 788.814C767.045 792.92 770.056 802.987 762.802 808.948C758.012 813.055 752.401 813.055 748.432 808.948C744.326 804.709 745.421 799.278 750.348 798.086C755.138 796.894 757.875 798.351 757.738 801.795V804.842L756.507 801.795C755.001 798.351 752.127 797.954 749.527 801.001C747.063 803.915 749.663 807.491 754.454 807.491C763.897 807.491 763.076 795.967 753.496 795.172C743.915 794.377 739.125 804.312 746.105 810.67C748.021 812.392 749.116 814.644 748.705 815.704C748.158 817.161 747.474 817.029 745.284 814.909C742.136 811.598 740.904 811.465 738.03 814.379C736.114 816.234 735.566 816.234 734.472 814.644C730.229 808.154 734.472 793.318 741.725 790.006C748.979 786.562 751.032 786.429 756.917 788.814ZM801.671 790.668C813.989 799.543 802.219 818.618 789.627 810.008C786.343 807.756 785.522 801.795 788.259 799.146C791.68 795.834 798.934 798.086 798.934 802.59C798.934 803.782 797.976 803.385 796.471 801.398C793.049 797.424 788.943 798.749 789.627 803.782C790.038 807.094 790.585 807.491 794.828 807.491C798.797 807.491 799.755 806.829 800.85 803.915C803.587 796.364 791.68 791.331 785.932 797.556C782.921 800.868 782.647 807.226 785.522 810.405C787.301 812.525 787.301 813.055 785.248 814.909C783.058 816.896 782.647 816.896 780.594 814.512C779.226 813.055 777.31 812.26 776.215 812.657C773.751 813.585 772.383 808.286 773.478 802.325C775.941 789.476 791.27 783.25 801.671 790.668ZM493.729 789.344C493.729 789.874 493.045 791.066 492.224 791.861C491.403 792.655 489.897 795.569 488.939 798.351C487.023 803.385 487.023 803.385 486.886 799.543C486.886 797.292 486.339 794.642 485.517 793.583C483.875 791.066 486.339 788.284 490.445 788.284C492.224 788.284 493.729 788.814 493.729 789.344ZM574.479 789.344C574.479 789.874 573.794 791.066 572.973 791.861C572.152 792.655 570.646 795.569 569.688 798.351C567.772 803.385 567.772 803.385 567.635 799.543C567.635 797.292 567.088 794.642 566.267 793.583C564.624 791.066 567.088 788.284 571.194 788.284C572.973 788.284 574.479 788.814 574.479 789.344ZM653.175 793.053C649.89 797.689 648.932 802.06 649.48 809.743C649.753 812.392 649.069 813.452 647.427 813.452C646.195 813.452 644.142 814.379 642.91 815.439C640.857 817.294 640.447 817.294 639.762 815.572C639.215 814.379 639.899 813.32 641.678 812.79C646.879 811.068 650.438 798.749 647.016 793.583C645.237 790.801 647.974 788.284 652.627 788.284H656.46L653.175 793.053ZM735.977 788.946C735.977 789.344 735.019 791.198 733.787 793.053C732.555 794.775 731.05 798.219 730.503 800.603L729.408 804.842L729.271 800.206C729.134 797.689 728.586 794.642 727.765 793.583C726.123 791.066 728.586 788.284 732.692 788.284C734.472 788.284 735.977 788.549 735.977 788.946ZM447.196 808.154C447.196 811.73 446.648 813.452 445.28 813.452C444.322 813.452 442.679 814.379 441.721 815.439C440.49 816.896 439.668 817.161 438.984 816.101C438.437 815.307 439.805 812.922 441.858 810.803C444.048 808.683 445.827 806.034 445.827 804.974C445.827 803.782 446.101 802.855 446.511 802.855C446.922 802.855 447.196 805.239 447.196 808.154ZM525.482 814.512C523.565 816.366 522.334 816.764 521.239 815.704C520.281 814.777 520.828 813.187 523.155 810.538C525.071 808.418 526.713 805.637 526.85 804.445C526.987 803.252 527.261 804.445 527.534 807.094C527.945 810.67 527.398 812.657 525.482 814.512ZM689.854 815.704C689.307 816.896 688.349 816.764 686.022 815.042C683.011 812.79 683.011 812.79 685.475 809.611C686.98 807.889 688.212 805.504 688.212 804.312C688.349 803.12 688.896 804.842 689.444 808.154C689.991 811.465 690.128 814.909 689.854 815.704ZM607.599 815.042C605.683 817.294 605.41 817.294 603.904 815.174C602.536 813.452 602.809 812.26 605.136 808.816L608.01 804.577L608.831 808.683C609.242 811.333 608.831 813.585 607.599 815.042ZM770.74 811.465C771.425 816.499 771.288 817.558 770.193 815.704C769.372 814.512 767.456 813.452 766.087 813.452C763.623 813.452 763.623 813.187 766.498 808.948C768.14 806.564 769.645 804.577 769.645 804.709C769.782 804.709 770.193 807.756 770.74 811.465ZM488.528 815.969C487.981 817.294 487.57 817.294 486.612 815.572C485.928 814.379 484.423 813.452 483.465 813.452C482.37 813.452 481.412 812.79 481.412 812.127C481.412 811.333 481.959 810.803 482.643 810.803C483.328 810.803 484.423 809.478 484.97 807.756C485.928 805.107 486.065 805.107 487.57 809.478C488.528 811.995 488.939 814.909 488.528 815.969ZM570.236 816.101C570.236 817.691 569.962 817.558 568.867 815.704C567.088 812.79 561.34 812.79 559.697 815.572C558.876 817.029 558.055 817.294 557.508 816.366C557.097 815.572 558.466 813.849 560.792 812.657C562.982 811.333 565.309 809.081 565.856 807.491C566.54 805.239 566.951 805.504 568.457 809.478C569.415 811.995 570.236 815.042 570.236 816.101ZM730.503 811.068C730.503 812.392 729.545 813.452 728.45 813.452C727.492 813.452 725.986 814.379 725.302 815.572C724.344 817.294 723.933 817.426 722.428 815.572C721.059 813.982 721.196 813.32 723.523 812.26C725.028 811.465 726.67 809.478 727.081 808.021C727.902 805.769 728.313 805.504 729.271 806.961C729.955 808.021 730.503 809.876 730.503 811.068ZM808.788 814.512C806.325 816.896 806.188 816.896 804.546 814.644C803.587 813.055 803.587 812.127 804.409 812.127C805.23 812.127 806.598 810.538 807.42 808.683L809.062 805.239L810.294 808.551C811.115 811.2 810.841 812.525 808.788 814.512ZM412.98 819.413C412.98 821.797 412.296 822.725 410.243 822.725C407.505 822.725 406.411 819.016 408.464 817.029C410.516 814.909 412.98 816.234 412.98 819.413ZM425.024 819.81C425.435 822.062 424.75 822.725 422.697 822.725C420.781 822.725 419.823 821.93 419.823 820.34C419.823 815.307 424.34 814.909 425.024 819.81ZM436.247 819.413C436.247 821.797 435.562 822.725 433.646 822.725C431.73 822.725 431.32 821.93 431.867 819.413C432.141 817.558 433.373 816.101 434.331 816.101C435.426 816.101 436.247 817.426 436.247 819.413ZM448.564 819.413C448.564 821.797 447.88 822.725 445.827 822.725C443.09 822.725 441.995 819.016 444.048 817.029C446.101 814.909 448.564 816.234 448.564 819.413ZM460.608 819.81C461.019 822.062 460.335 822.725 458.282 822.725C456.092 822.725 455.408 821.93 455.408 819.281C455.408 814.909 459.924 815.307 460.608 819.81ZM471.831 819.413C471.831 821.797 471.147 822.725 469.231 822.725C467.315 822.725 466.904 821.93 467.452 819.413C467.725 817.558 468.957 816.101 469.915 816.101C471.01 816.101 471.831 817.426 471.831 819.413ZM483.875 819.81C484.286 822.062 483.601 822.725 481.548 822.725C479.632 822.725 478.674 821.93 478.674 820.34C478.674 815.307 483.191 814.909 483.875 819.81ZM496.193 819.81C496.603 822.062 495.919 822.725 493.866 822.725C491.676 822.725 490.992 821.93 490.992 819.281C490.992 814.909 495.509 815.307 496.193 819.81ZM507.416 819.413C507.416 821.797 506.731 822.725 504.678 822.725C501.941 822.725 500.846 819.016 502.899 817.029C504.952 814.909 507.416 816.234 507.416 819.413ZM519.46 819.81C519.87 822.062 519.186 822.725 517.133 822.725C515.217 822.725 514.259 821.93 514.259 820.34C514.259 815.307 518.775 814.909 519.46 819.81ZM531.23 818.221C532.598 821.665 532.188 822.725 529.314 822.725C527.261 822.725 526.576 821.797 526.576 819.413C526.576 815.704 529.861 814.909 531.23 818.221ZM543 819.413C543 821.797 542.316 822.725 540.263 822.725C537.525 822.725 536.431 819.016 538.484 817.029C540.536 814.909 543 816.234 543 819.413ZM555.044 819.81C555.455 822.062 554.77 822.725 552.717 822.725C550.801 822.725 549.843 821.93 549.843 820.34C549.843 815.307 554.36 814.909 555.044 819.81ZM566.267 819.413C566.267 821.532 565.446 822.725 564.214 822.725C562.982 822.725 562.161 821.532 562.161 819.413C562.161 817.294 562.982 816.101 564.214 816.101C565.446 816.101 566.267 817.294 566.267 819.413ZM578.311 819.81C578.721 822.062 578.037 822.725 575.984 822.725C574.068 822.725 573.11 821.93 573.11 820.34C573.11 815.307 577.626 814.909 578.311 819.81ZM590.628 819.81C591.039 822.062 590.355 822.725 588.302 822.725C586.112 822.725 585.428 821.93 585.428 819.281C585.428 814.909 589.944 815.307 590.628 819.81ZM601.851 819.413C601.851 821.797 601.167 822.725 599.251 822.725C597.335 822.725 596.924 821.93 597.472 819.413C597.745 817.558 598.977 816.101 599.935 816.101C601.03 816.101 601.851 817.426 601.851 819.413ZM613.895 819.81C614.306 822.062 613.621 822.725 611.568 822.725C609.652 822.725 608.694 821.93 608.694 820.34C608.694 815.307 613.211 814.909 613.895 819.81ZM626.213 819.81C626.623 822.062 625.939 822.725 623.886 822.725C621.696 822.725 621.012 821.93 621.012 819.281C621.012 814.909 625.528 815.307 626.213 819.81ZM637.436 819.413C637.436 821.797 636.751 822.725 634.698 822.725C631.961 822.725 630.866 819.016 632.919 817.029C634.972 814.909 637.436 816.234 637.436 819.413ZM649.48 819.81C649.89 822.062 649.206 822.725 647.153 822.725C645.237 822.725 644.279 821.93 644.279 820.34C644.279 815.307 648.795 814.909 649.48 819.81ZM661.25 818.221C662.618 821.665 662.208 822.725 659.334 822.725C657.281 822.725 656.596 821.797 656.596 819.413C656.596 815.704 659.881 814.909 661.25 818.221ZM673.02 819.413C673.02 821.797 672.336 822.725 670.283 822.725C667.546 822.725 666.451 819.016 668.504 817.029C670.556 814.909 673.02 816.234 673.02 819.413ZM685.064 819.81C685.475 822.062 684.79 822.725 682.737 822.725C680.547 822.725 679.863 821.93 679.863 819.281C679.863 814.909 684.38 815.307 685.064 819.81ZM696.56 819.413C697.108 821.93 696.697 822.725 694.781 822.725C692.865 822.725 692.181 821.797 692.181 819.413C692.181 817.426 693.002 816.101 694.097 816.101C695.055 816.101 696.287 817.558 696.56 819.413ZM708.604 819.413C708.604 821.797 707.92 822.725 705.867 822.725C703.13 822.725 702.035 819.016 704.088 817.029C706.141 814.909 708.604 816.234 708.604 819.413ZM720.648 819.81C721.059 822.062 720.375 822.725 718.322 822.725C716.132 822.725 715.448 821.93 715.448 819.281C715.448 814.909 719.964 815.307 720.648 819.81ZM731.871 819.413C731.871 821.797 731.187 822.725 729.134 822.725C726.397 822.725 725.302 819.016 727.355 817.029C729.408 814.909 731.871 816.234 731.871 819.413ZM743.915 819.81C744.326 822.062 743.641 822.725 741.588 822.725C739.672 822.725 738.714 821.93 738.714 820.34C738.714 815.307 743.231 814.909 743.915 819.81ZM755.685 818.221C757.054 821.665 756.643 822.725 753.769 822.725C751.716 822.725 751.032 821.797 751.032 819.413C751.032 815.704 754.317 814.909 755.685 818.221ZM767.456 819.413C767.456 821.797 766.771 822.725 764.718 822.725C761.981 822.725 760.886 819.016 762.939 817.029C764.992 814.909 767.456 816.234 767.456 819.413ZM779.5 819.81C779.91 822.062 779.226 822.725 777.173 822.725C775.257 822.725 774.299 821.93 774.299 820.34C774.299 815.307 778.815 814.909 779.5 819.81ZM791.27 818.221C792.638 821.665 792.228 822.725 789.354 822.725C787.301 822.725 786.616 821.797 786.616 819.413C786.616 815.704 789.901 814.909 791.27 818.221ZM803.04 819.413C803.04 821.797 802.356 822.725 800.303 822.725C797.566 822.725 796.471 819.016 798.524 817.029C800.576 814.909 803.04 816.234 803.04 819.413ZM815.084 819.81C815.495 822.062 814.81 822.725 812.757 822.725C810.567 822.725 809.883 821.93 809.883 819.281C809.883 814.909 814.4 815.307 815.084 819.81Z" fill="#FFEFD5"/>
<path d="M446.238 771.461C444.458 773.845 443.09 776.892 443.09 778.084C443.09 780.336 448.564 789.609 449.933 789.609C451.302 789.609 456.776 780.734 456.776 778.482C456.776 775.832 451.712 767.09 450.207 767.09C449.659 767.09 447.88 769.077 446.238 771.461ZM452.397 778.084C452.67 779.674 451.986 780.336 450.07 780.336C448.428 780.336 447.196 779.541 447.196 778.614C447.196 774.508 451.575 774.11 452.397 778.084Z" fill="#FFEFD5"/>
<path d="M526.987 771.461C525.208 773.845 523.839 776.892 523.839 778.084C523.839 780.336 529.314 789.609 530.683 789.609C532.051 789.609 537.526 780.734 537.526 778.482C537.526 775.832 532.462 767.09 530.956 767.09C530.409 767.09 528.63 769.077 526.987 771.461ZM533.146 778.084C533.42 779.674 532.735 780.336 530.819 780.336C529.177 780.336 527.945 779.541 527.945 778.614C527.945 774.508 532.325 774.11 533.146 778.084Z" fill="#FFEFD5"/>
<path d="M607.736 771.461C605.957 773.845 604.588 776.892 604.588 778.084C604.588 780.336 610.063 789.609 611.432 789.609C612.8 789.609 618.275 780.734 618.275 778.482C618.275 775.832 613.211 767.09 611.705 767.09C611.158 767.09 609.379 769.077 607.736 771.461ZM613.895 778.084C614.169 779.674 613.484 780.336 611.568 780.336C609.926 780.336 608.694 779.541 608.694 778.614C608.694 774.508 613.074 774.11 613.895 778.084Z" fill="#FFEFD5"/>
<path d="M688.486 771.461C686.707 773.845 685.338 776.892 685.338 778.084C685.338 780.336 690.812 789.609 692.181 789.609C693.55 789.609 699.024 780.734 699.024 778.482C699.024 775.832 693.96 767.09 692.455 767.09C691.907 767.09 690.128 769.077 688.486 771.461ZM694.645 778.084C694.918 779.674 694.234 780.336 692.318 780.336C690.676 780.336 689.444 779.541 689.444 778.614C689.444 774.508 693.823 774.11 694.645 778.084Z" fill="#FFEFD5"/>
<path d="M769.235 771.461C767.456 773.845 766.087 776.892 766.087 778.084C766.087 780.336 771.561 789.609 772.93 789.609C774.299 789.609 779.773 780.734 779.773 778.349C779.773 775.965 774.436 767.09 772.93 767.09C772.519 767.09 770.877 769.077 769.235 771.461ZM775.394 778.084C775.667 779.674 774.983 780.336 773.067 780.336C771.425 780.336 770.193 779.541 770.193 778.614C770.193 774.508 774.572 774.11 775.394 778.084Z" fill="#FFEFD5"/>
<path d="M406.137 831.335C406.137 833.057 429.814 833.322 611.431 833.322C793.049 833.322 816.726 833.057 816.726 831.335C816.726 829.613 793.049 829.348 611.431 829.348C429.814 829.348 406.137 829.613 406.137 831.335Z" fill="#FFEFD5"/>
<path d="M129.334 -30.4819C136.595 -22.4216 142.108 -12.9461 145.529 -2.65097C149.014 10.0231 148.809 23.4284 144.94 35.9901C138.493 58.8288 122.415 78.6407 100.913 87.0922C89.8487 91.1556 77.8747 92.0723 66.3209 89.7405C54.7671 87.409 44.0856 81.9203 35.4631 73.8843C17.9311 57.1385 11.563 28.4034 22.3338 7.53014C33.1045 -13.3431 61.0534 -22.6594 81.8874 -10.9059C86.4315 -8.45342 90.3841 -5.03626 93.4671 -0.893845C96.5506 3.24857 98.6894 8.01561 99.7338 13.0728C101.463 23.2146 96.3532 34.4177 87.0762 37.4838C85.3859 26.5165 82.7129 14.4093 74.0648 7.53014C61.8003 -2.17926 42.2636 5.60399 38.0575 20.3843C33.8514 35.1646 43.3249 52.3821 57.2404 59.1433C64.186 62.2243 71.8038 63.4807 79.3708 62.7928C86.9382 62.1048 94.2042 59.4955 100.481 55.2123C121.197 41.9258 130.945 10.0852 115.811 -11.1025C110.36 -18.1298 103.489 -23.9295 95.6457 -28.1233C80.2757 -37.1251 62.3507 -43.2574 45.6442 -39.3658C5.39137 -29.8529 -7.50213 21.5636 1.10661 56.6275C4.73388 72.1366 13.7812 85.8402 26.6185 95.2685C40.5733 105.135 62.6258 107.769 79.4109 107.337C90.5492 107.058 101.547 104.781 111.88 100.615C118.493 98.0324 124.571 94.2473 129.805 89.4508C131.456 87.7605 133.736 83.8295 136.016 87.7605C138.296 91.6914 132.714 97.1161 131.024 100.025C127.628 105.913 122.586 110.681 116.519 113.744C110.446 117.062 103.954 119.548 97.218 121.134C91.778 122.847 86.2208 124.16 80.5902 125.065C75.1148 125.327 69.6268 125.077 64.1982 124.318C34.7162 121.016 3.93688 115.788 -12.4944 88.468C-25.2227 66.2299 -31.2306 40.7784 -29.7905 15.1955C-29.6979 6.20071 -27.6877 -2.67102 -23.8941 -10.8273C7.27817 -70.6953 81.6122 -86.2225 129.334 -30.4819Z" fill="#FFFDD0" fill-opacity="0.45"/>
<path d="M318.666 560.518C311.405 568.578 305.892 578.054 302.471 588.349C298.986 601.023 299.191 614.428 303.06 626.99C309.507 649.829 325.585 669.641 347.087 678.092C358.151 682.156 370.125 683.072 381.679 680.74C393.233 678.409 403.914 672.92 412.537 664.884C430.069 648.138 436.437 619.403 425.666 598.53C414.895 577.657 386.947 568.341 366.113 580.094C361.568 582.547 357.616 585.964 354.533 590.106C351.449 594.249 349.311 599.016 348.266 604.073C346.537 614.215 351.647 625.418 360.924 628.484C362.614 617.517 365.287 605.409 373.935 598.53C386.2 588.821 405.736 596.604 409.943 611.384C414.149 626.165 404.675 643.382 390.76 650.143C383.814 653.224 376.196 654.481 368.629 653.793C361.062 653.105 353.796 650.495 347.519 646.212C326.803 632.926 317.055 601.085 332.189 579.898C337.64 572.87 344.511 567.071 352.354 562.877C367.724 553.875 385.649 547.743 402.356 551.634C442.609 561.147 455.502 612.564 446.893 647.627C443.266 663.137 434.219 676.84 421.382 686.269C407.427 696.135 385.374 698.769 368.589 698.337C357.451 698.058 346.453 695.781 336.12 691.615C329.507 689.032 323.429 685.247 318.195 680.451C316.544 678.76 314.264 674.83 311.984 678.76C309.704 682.691 315.286 688.116 316.976 691.025C320.372 696.913 325.414 701.681 331.481 704.744C337.554 708.062 344.046 710.548 350.782 712.134C356.222 713.847 361.779 715.16 367.41 716.065C372.885 716.327 378.373 716.077 383.802 715.318C413.284 712.016 444.063 706.788 460.494 679.468C473.223 657.23 479.231 631.778 477.791 606.195C477.698 597.201 475.688 588.329 471.894 580.173C440.722 520.305 366.388 504.777 318.666 560.518Z" fill="#FFFDD0" fill-opacity="0.45"/>
</g>
<defs>
<clipPath id="clip0_627_2182">
<rect width="1000" height="832" fill="white" transform="translate(-4)"/>
</clipPath>
</defs>
</svg>
