<svg width="65" height="65" viewBox="0 0 65 65" fill="none" xmlns="http://www.w3.org/2000/svg">
<path d="M21.6667 8.125C14.189 8.125 8.125 14.189 8.125 21.6667V43.3333C8.125 50.811 14.189 56.875 21.6667 56.875H43.3333C50.811 56.875 56.875 50.811 56.875 43.3333V21.6667C56.875 14.189 50.811 8.125 43.3333 8.125H21.6667ZM48.75 13.5417C50.245 13.5417 51.4583 14.755 51.4583 16.25C51.4583 17.745 50.245 18.9583 48.75 18.9583C47.255 18.9583 46.0417 17.745 46.0417 16.25C46.0417 14.755 47.255 13.5417 48.75 13.5417ZM32.5 18.9583C39.9777 18.9583 46.0417 25.0223 46.0417 32.5C46.0417 39.9777 39.9777 46.0417 32.5 46.0417C25.0223 46.0417 18.9583 39.9777 18.9583 32.5C18.9583 25.0223 25.0223 18.9583 32.5 18.9583ZM32.5 24.375C30.3451 24.375 28.2785 25.231 26.7548 26.7548C25.231 28.2785 24.375 30.3451 24.375 32.5C24.375 34.6549 25.231 36.7215 26.7548 38.2452C28.2785 39.769 30.3451 40.625 32.5 40.625C34.6549 40.625 36.7215 39.769 38.2452 38.2452C39.769 36.7215 40.625 34.6549 40.625 32.5C40.625 30.3451 39.769 28.2785 38.2452 26.7548C36.7215 25.231 34.6549 24.375 32.5 24.375Z" fill="#FFFFD0"/>
</svg>
