<svg width="65" height="65" viewBox="0 0 65 65" fill="none" xmlns="http://www.w3.org/2000/svg">
<path d="M51.4583 8.125H13.5417C10.549 8.125 8.125 10.549 8.125 13.5417V51.4583C8.125 54.451 10.549 56.875 13.5417 56.875H51.4583C54.451 56.875 56.875 54.451 56.875 51.4583V13.5417C56.875 10.549 54.451 8.125 51.4583 8.125ZM24.375 46.0417H17.5419V27.0833H24.375V46.0417ZM20.8379 23.6085C18.7498 23.6085 17.355 22.2165 17.355 20.3585C17.355 18.5006 18.7471 17.1085 21.0681 17.1085C23.1562 17.1085 24.551 18.5006 24.551 20.3585C24.551 22.2165 23.159 23.6085 20.8379 23.6085ZM48.75 46.0417H42.1362V35.6796C42.1362 32.8142 40.3731 32.1533 39.7123 32.1533C39.0515 32.1533 36.8469 32.5948 36.8469 35.6796C36.8469 36.121 36.8469 46.0417 36.8469 46.0417H30.0137V27.0833H36.8469V29.7294C37.7271 28.1856 39.4902 27.0833 42.7971 27.0833C46.104 27.0833 48.75 29.7294 48.75 35.6796V46.0417Z" fill="#FFFFD0"/>
</svg>
